<svg width="265" height="100" viewBox="0 0 265 100" fill="none" xmlns="http://www.w3.org/2000/svg">
<path d="M81.6927 0L81.6927 46.7335L48.9469 46.7335C48.2331 44.8992 47.7542 42.8752 46.0826 41.6463C43.2273 39.541 36.1522 39.4145 33.5319 41.9716C30.8934 44.5378 31.0289 51.7755 32.8 54.7845C34.7517 58.0916 39.369 58.4802 42.8297 57.938C46.4802 57.3687 47.9169 55.0827 48.7391 51.7033L81.7017 51.7033V100L0 100L0 0L81.6927 0Z" fill="#B8D433"/>
<path d="M249.515 -2.28882e-05V41.3301L216.552 41.3301C216.435 36.4326 210.688 35.6375 206.857 36.2519C203.089 36.8573 201.435 39.2518 201.2 42.9565C200.92 47.3841 200.929 53.8628 201.2 58.2994C201.562 63.983 203.983 66.0703 209.658 65.9076C212.658 65.8173 215.947 65.004 216.254 61.4981H209.432V43.7426L249.497 43.7426V99.9909H216.254V90.3316H214.049L205.239 99.9909H167.804L167.804 -2.28882e-05L249.497 -2.28882e-05L249.515 -2.28882e-05Z" fill="#B8D433"/>
<path d="M118.809 45.0257C121.185 44.9354 123.616 45.1432 125.992 45.0257C127.935 44.9354 130.754 44.7547 131.667 42.7487C132.281 41.4114 132.263 38.3663 131.224 37.2278C130.573 36.5049 128.631 35.7911 127.691 35.7911H118.809V45.0257ZM163.699 -2.28882e-05V80.9614L118.809 80.9614V99.9909H85.4215L85.4215 -2.28882e-05L163.699 -2.28882e-05Z" fill="#B8D433"/>
<path d="M253.772 0.078125L264.759 0.078125V3.92741L255.181 5.82494V6.11409L264.759 8.01162V11.8609L253.772 11.8609V9.8459L263.232 9.8459V9.56579L253.772 7.67729V4.26173L263.232 2.37324V2.09312L253.772 2.09312V0.078125Z" fill="#B8D433"/>
<path d="M253.772 13.7109L264.759 13.7109V20.777H262.871V15.7801L260.25 15.7801V20.3342H258.371V15.7801H255.66V20.8673H253.772V13.7109Z" fill="#B8D433"/>
<path d="M255.651 25.5852V26.6244C255.651 27.4647 255.868 28.0701 256.311 28.4586C256.754 28.8472 257.368 29.0369 258.163 29.0369H260.359C261.163 29.0369 261.787 28.8472 262.22 28.4586C262.654 28.0701 262.871 27.4557 262.871 26.6244V25.5852H255.651ZM253.772 22.0703H255.588V23.516H262.934V22.0703H264.75V26.5973C264.75 28.0701 264.38 29.1996 263.63 29.9676C262.88 30.7357 261.769 31.1242 260.296 31.1242H258.226C256.754 31.1242 255.642 30.7357 254.892 29.9676C254.142 29.1996 253.772 28.0791 253.772 26.5973V22.0703Z" fill="#B8D433"/>
<path d="M264.759 32.6796H253.772V34.7488H264.759V32.6796Z" fill="#B8D433"/>
<path d="M258.1 39.2246V42.1793L263.449 40.842V40.5619L258.1 39.2246ZM253.772 36.0078L264.759 38.8993V42.5137L253.772 45.4052V43.2727L256.184 42.6763V38.7547L253.772 38.1584V36.0259V36.0078Z" fill="#B8D433"/>
<path d="M253.556 54.7211C253.556 53.9711 253.727 53.2844 254.062 52.67C254.405 52.0555 254.902 51.5676 255.553 51.2062C256.203 50.8447 257.007 50.664 257.947 50.664H260.586C261.995 50.664 263.079 51.0616 263.838 51.8568C264.597 52.6519 264.977 53.7272 264.977 55.0916C264.977 56.456 264.615 57.4861 263.902 58.227C263.188 58.968 262.212 59.3294 260.992 59.3294H260.929V57.2873H261.055C261.444 57.2873 261.796 57.206 262.104 57.0433C262.42 56.8807 262.664 56.6367 262.844 56.3114C263.025 55.9861 263.116 55.5795 263.116 55.0826C263.116 54.3507 262.89 53.7724 262.438 53.3567C261.986 52.9411 261.372 52.7332 260.604 52.7332H257.902C257.143 52.7332 256.519 52.9411 256.059 53.3567C255.589 53.7724 255.363 54.3597 255.363 55.1187C255.363 55.8777 255.562 56.4199 255.959 56.7632C256.357 57.1066 256.863 57.2783 257.468 57.2783H257.622V54.6759H259.384V59.3204H253.763V57.4048H254.812V57.1247C254.631 57.0524 254.441 56.9349 254.251 56.7723C254.053 56.6096 253.881 56.3657 253.745 56.0404C253.61 55.7151 253.538 55.2723 253.538 54.7031L253.556 54.7211Z" fill="#B8D433"/>
<path d="M259.799 63.1707V65.6556C259.799 66.1525 259.934 66.532 260.196 66.8121C260.458 67.0923 260.82 67.2278 261.253 67.2278H261.407C261.85 67.2278 262.202 67.0922 262.464 66.8212C262.726 66.5501 262.862 66.1616 262.862 65.6556V63.1707H259.79H259.799ZM253.772 61.1015H264.759V65.8724C264.759 66.5682 264.642 67.1645 264.398 67.6796C264.154 68.1946 263.82 68.5922 263.377 68.8723C262.934 69.1524 262.419 69.297 261.823 69.297H261.633C260.973 69.297 260.44 69.1434 260.034 68.8271C259.627 68.5109 259.329 68.1223 259.139 67.6705H258.859C258.841 68.0862 258.696 68.4115 258.425 68.6464C258.154 68.8723 257.802 68.9898 257.368 68.9898H253.772V66.9206H257.07C257.323 66.9206 257.522 66.8573 257.684 66.7218C257.838 66.5862 257.919 66.3694 257.919 66.0712V63.1797H253.781V61.1105L253.772 61.1015Z" fill="#B8D433"/>
<path d="M255.405 75.1363C255.405 75.9134 255.631 76.5097 256.083 76.9435C256.535 77.3681 257.131 77.585 257.89 77.585H260.655C261.405 77.585 262.01 77.3681 262.462 76.9435C262.914 76.5188 263.14 75.9134 263.14 75.1363C263.14 74.3592 262.914 73.7719 262.462 73.3382C262.01 72.9044 261.414 72.6876 260.655 72.6876H257.89C257.14 72.6876 256.535 72.9044 256.083 73.3382C255.631 73.7719 255.405 74.3682 255.405 75.1363ZM253.553 75.1363C253.553 73.7538 253.932 72.6514 254.691 71.8382C255.45 71.025 256.535 70.6093 257.944 70.6093H260.583C261.992 70.6093 263.077 71.0159 263.836 71.8382C264.595 72.6514 264.974 73.7538 264.974 75.1363C264.974 76.5188 264.595 77.6212 263.836 78.4344C263.077 79.2476 261.992 79.6633 260.583 79.6633H257.944C256.535 79.6633 255.45 79.2566 254.691 78.4344C253.932 77.6212 253.553 76.5188 253.553 75.1363Z" fill="#B8D433"/>
<path d="M253.553 85.4651C253.553 84.5616 253.716 83.7935 254.05 83.152C254.384 82.5104 254.854 82.0134 255.46 81.6791C256.065 81.3448 256.797 81.1641 257.628 81.1641H264.757V83.2333H257.574C256.905 83.2333 256.372 83.423 255.993 83.8025C255.604 84.182 255.414 84.7332 255.414 85.4561C255.414 86.179 255.604 86.7302 255.993 87.1097C256.381 87.4892 256.905 87.6789 257.574 87.6789H264.757V89.7481H257.628C256.788 89.7481 256.065 89.5765 255.46 89.2331C254.854 88.8897 254.375 88.4018 254.05 87.7603C253.716 87.1187 253.553 86.3416 253.553 85.4471V85.4651Z" fill="#B8D433"/>
<path d="M259.672 93.6239V95.8648C259.672 96.3618 259.808 96.7594 260.079 97.0575C260.35 97.3648 260.72 97.5093 261.19 97.5093H261.344C261.814 97.5093 262.184 97.3557 262.455 97.0575C262.726 96.7503 262.862 96.3527 262.862 95.8648V93.6239H259.654H259.672ZM253.772 91.5547H264.759V96.0817C264.759 96.7774 264.624 97.3828 264.344 97.9069C264.064 98.44 263.675 98.8466 263.178 99.1448C262.672 99.443 262.076 99.5876 261.389 99.5876H261.172C260.494 99.5876 259.898 99.434 259.392 99.1267C258.886 98.8195 258.488 98.3948 258.217 97.8708C257.937 97.3376 257.802 96.7413 257.802 96.0726V93.6239H253.781V91.5547H253.772Z" fill="#B8D433"/>
</svg>
