<svg width="450" height="150" viewBox="0 0 450 150" fill="none" xmlns="http://www.w3.org/2000/svg">
<path d="M450 150L0 150L1.09278e-05 25C1.21349e-05 11.1929 11.1929 7.41463e-06 25 8.62169e-06L425 4.35908e-05C438.807 4.47979e-05 450 11.1929 450 25L450 150Z" fill="white"/>
<path d="M162.903 84.8633C171.996 76.2216 181.352 68.0558 181.627 54.6549C181.752 48.4679 175.227 45.8504 170.255 48.1298C161.388 52.2001 152.458 56.1954 143.253 59.1761C148.288 54.8427 153.31 50.5094 158.32 46.1635C166.573 39.0121 177.344 31.2471 179.147 19.7374C179.986 14.352 172.56 11.7344 170.593 16.4686C164.031 26.8887 154.45 33.3512 144.906 40.8908C134.311 49.2695 123.665 57.5856 113.145 66.0519C108.198 70.0346 112.381 78.4384 118.217 78.3006C130.14 78.0125 141.387 75.3825 152.346 71.6127C151.82 72.026 151.306 72.4393 150.83 72.8275C144.606 78.0125 138.181 83.0347 132.207 88.5204C123.815 96.2227 113.508 109.799 122.024 120.92C125.644 125.642 135.576 126.707 136.765 118.992C137.968 111.202 139.396 107.219 145.232 101.546C151.031 95.9096 157.017 90.4491 162.891 84.8883L162.903 84.8633Z" fill="black" fill-opacity="0.03"/>
<path d="M214.328 89.8105C213.814 78.5387 217.985 67.9057 217.785 56.7716C217.634 48.155 214.378 39.5509 206.976 34.5787C200.464 30.1953 190.82 29.2184 185.46 35.7936C181.978 40.0643 182.667 47.4662 188.916 48.8939C194.252 50.1088 196.806 51.8496 197.696 55.156C197.17 55.6069 196.731 56.2331 196.468 57.0722C189.041 81.2815 160.085 91.3385 145.795 110.989C141.8 116.487 147.411 122.373 152.709 123.025C173.812 125.642 194.665 129.913 215.129 135.687C222.306 137.716 228.781 129.462 224.873 123.012C218.736 112.868 214.866 101.734 214.315 89.823L214.328 89.8105ZM167.738 108.847C177.106 98.4397 188.052 89.3972 195.704 78.0127C195.391 81.3441 195.241 84.6881 195.441 88.1448C195.98 97.3626 197.971 106.255 201.228 114.709C190.131 112.342 178.972 110.388 167.725 108.847H167.738Z" fill="black" fill-opacity="0.03"/>
<path d="M273.142 38.3107C272.904 31.6603 272.716 25.5485 266.166 22.2045C261.394 19.7623 257.023 22.0918 255.082 26.7132C249.659 39.5881 242.495 51.3985 232.864 61.5055C230.171 64.3235 227.566 67.3668 225.938 70.6607C221.479 70.7233 217.684 74.3053 218.899 79.5404C221.129 89.2216 229.72 96.6985 235.957 104.1C243.246 112.742 250.548 121.371 257.912 129.963C263.248 136.187 273.63 131.015 273.63 123.45C273.63 104.1 273.768 84.7504 273.505 65.4005C273.38 56.3831 273.467 47.3281 273.142 38.3107ZM256.146 77.0105C255.958 84.2119 255.821 91.4133 255.683 98.6147C253.955 96.5482 252.239 94.4567 250.498 92.3902C246.24 87.3054 242.132 81.0057 237.009 76.3342C241.568 70.5856 248.294 65.9015 252.64 60.1905C254.167 58.1741 255.583 56.1076 256.923 53.991C256.66 61.6683 256.359 69.3331 256.159 77.0105H256.146Z" fill="black" fill-opacity="0.03"/>
<path d="M336.802 34.5784C336.777 26.1121 325.23 23.0061 320.921 30.2826C314.021 41.9427 305.642 54.9303 298.741 68.5566C297.501 54.4919 297.125 39.25 293.306 25.7113C292.341 22.2922 286.317 21.691 285.766 25.7113C282.397 50.146 287.319 75.2445 287.018 100.017C285.678 106.405 285.09 112.817 285.528 119.205C286.242 129.449 302.223 129.575 301.597 119.205C302.611 99.7544 311.027 81.3438 320.809 63.9602C322.437 85.9778 326.131 108.171 333.32 128.535C337.065 139.168 353.159 135.01 350.366 123.838C342.926 94.0559 336.852 65.5007 336.79 34.591L336.802 34.5784Z" fill="black" fill-opacity="0.03"/>
<path d="M363.767 57.5854C362.326 52.8011 354.887 53.5901 354.925 58.7877C354.987 68.2435 356.252 77.6617 357.129 87.0674C357.818 94.4441 356.766 103.111 363.103 108.02C365.595 109.949 368.501 109.749 370.392 107.081C375.064 100.481 371.594 92.6281 370.054 85.314C368.1 76.046 366.509 66.6654 363.767 57.5854Z" fill="black" fill-opacity="0.03"/>
<path d="M121.824 26.8513C113.02 32.0364 104.754 38.1106 96.6129 44.2725C89.5868 49.5828 80.5694 55.2062 76.3362 63.0714C73.4556 68.4192 79.079 73.0657 84.1263 70.8614C92.2044 67.3171 98.8673 58.9509 105.33 53.052C112.506 46.5144 120.046 40.4025 127.285 33.9275C131.13 30.4834 126.183 24.2964 121.824 26.8513Z" fill="black" fill-opacity="0.03"/>
<path d="M85.0156 37.7101C88.6977 34.4288 83.7757 27.841 79.6677 30.7842C77.8392 32.0993 76.0106 33.4143 74.1821 34.7168C72.2033 36.1321 69.5732 37.5723 68.5086 39.8267C66.8054 43.4587 69.5983 47.4414 73.6686 46.5522C76.1234 46.0137 78.1022 43.847 79.9433 42.2063C81.6215 40.7034 83.3123 39.213 84.9905 37.7101H85.0156Z" fill="black" fill-opacity="0.03"/>
<path d="M380.512 76.233C380.061 73.4401 380.223 70.6097 379.685 67.8168C379.146 65.0364 375.101 64.7609 373.799 67.0528C370.392 73.0018 371.269 82.0693 376.103 86.9538C378.032 88.895 381.288 87.4046 381.376 84.7745C381.463 81.8564 380.987 79.1011 380.524 76.2456L380.512 76.233Z" fill="black" fill-opacity="0.03"/>
</svg>
