<svg width="1643" height="640" viewBox="0 0 1643 640" fill="none" xmlns="http://www.w3.org/2000/svg">
<path d="M497.552 371.517C545.222 326.211 594.271 283.4 595.716 213.143C596.372 180.706 562.163 166.983 536.095 178.933C489.607 200.273 442.791 221.219 394.53 236.846C420.926 214.128 447.256 191.409 473.52 168.625C516.791 131.132 573.26 90.4221 582.715 30.0796C587.114 1.8453 548.177 -11.8779 537.868 12.942C503.462 67.5721 453.231 101.453 403.197 140.981C347.648 184.908 291.836 228.507 236.681 272.894C210.745 293.775 232.675 337.833 263.274 337.111C325.783 335.601 384.747 321.812 442.2 302.048C439.442 304.215 436.75 306.382 434.255 308.417C401.621 335.601 367.937 361.931 336.617 390.69C292.624 431.072 238.585 502.249 283.234 560.556C302.211 585.31 354.28 590.891 360.518 550.444C366.821 509.603 374.306 488.722 404.905 458.978C435.306 429.43 466.692 400.802 497.487 371.649L497.552 371.517Z" fill="black" fill-opacity="0.03"/>
<path d="M767.157 397.456C764.465 338.361 786.33 282.615 785.279 224.242C784.491 179.067 767.419 133.958 728.614 107.89C694.47 84.909 643.911 79.7874 615.808 114.26C597.554 136.65 601.166 175.456 633.93 182.941C661.902 189.31 675.297 198.437 679.959 215.772C677.201 218.135 674.903 221.418 673.524 225.818C634.587 352.741 482.779 405.467 407.859 508.489C386.913 537.314 416.329 568.175 444.104 571.589C554.743 585.312 664.069 607.703 771.359 637.973C808.983 648.61 842.93 605.339 822.443 571.524C790.27 518.338 769.98 459.965 767.091 397.522L767.157 397.456ZM522.897 497.261C572.012 442.696 629.4 395.289 669.519 335.603C667.877 353.069 667.089 370.601 668.14 388.723C670.963 437.05 681.403 483.669 698.475 527.99C640.3 515.58 581.796 505.337 522.832 497.261H522.897Z" fill="black" fill-opacity="0.03"/>
<path d="M1075.5 127.457C1074.25 92.5905 1073.27 60.5479 1038.93 43.0163C1013.91 30.2124 990.996 42.4254 980.818 66.6543C952.387 134.154 914.829 196.072 864.336 249.061C850.219 263.835 836.561 279.79 828.025 297.059C804.65 297.388 784.754 316.167 791.123 343.613C802.811 394.369 847.855 433.569 880.554 472.374C918.769 517.681 957.049 562.921 995.658 607.965C1023.63 640.598 1078.06 613.48 1078.06 573.821C1078.06 472.374 1078.78 370.928 1077.41 269.482C1076.75 222.206 1077.21 174.733 1075.5 127.457ZM986.4 330.349C985.415 368.105 984.692 405.86 983.97 443.615C974.909 432.781 965.913 421.815 956.787 410.981C934.462 384.323 912.925 351.295 886.069 326.804C909.97 296.665 945.23 272.108 968.014 242.167C976.025 231.595 983.445 220.761 990.471 209.664C989.092 249.915 987.516 290.099 986.465 330.349H986.4Z" fill="black" fill-opacity="0.03"/>
<path d="M1409.26 107.89C1409.13 63.5029 1348.59 47.219 1326 85.3681C1289.82 146.499 1245.89 214.589 1209.71 286.028C1203.21 212.291 1201.24 132.381 1181.22 61.4018C1176.16 43.4763 1144.58 40.3245 1141.69 61.4018C1124.03 189.507 1149.83 321.091 1148.25 450.969C1141.23 484.456 1138.14 518.075 1140.44 551.562C1144.18 605.273 1227.97 605.929 1224.68 551.562C1230 449.59 1274.13 353.068 1325.41 261.931C1333.94 377.363 1353.31 493.714 1391 600.479C1410.64 656.226 1495.01 634.426 1480.37 575.857C1441.37 419.714 1409.52 270.007 1409.19 107.955L1409.26 107.89Z" fill="black" fill-opacity="0.03"/>
<path d="M1550.63 228.507C1543.07 203.425 1504.07 207.561 1504.27 234.811C1504.6 284.385 1511.23 333.762 1515.82 383.073C1519.44 421.748 1513.92 467.185 1547.15 492.924C1560.21 503.036 1575.45 501.986 1585.36 488C1609.85 453.396 1591.66 412.227 1583.59 373.881C1573.34 325.292 1565 276.111 1550.63 228.507Z" fill="black" fill-opacity="0.03"/>
<path d="M282.184 67.3756C236.025 94.5593 192.688 126.405 150.009 158.71C113.173 186.551 65.8967 216.032 43.7032 257.268C28.6012 285.305 58.083 309.665 84.5445 298.109C126.896 279.527 161.828 235.665 195.709 204.739C233.333 170.464 272.861 138.421 310.813 104.474C330.971 86.4173 305.034 53.9807 282.184 67.3756Z" fill="black" fill-opacity="0.03"/>
<path d="M89.2068 124.303C108.511 107.1 82.7063 72.5625 61.1695 87.9929C51.583 94.8873 41.9964 101.782 32.4099 108.61C22.0354 116.03 8.24661 123.581 2.66542 135.4C-6.26449 154.442 8.37793 175.322 29.7178 170.66C42.5874 167.837 52.9618 156.477 62.614 147.876C71.4126 139.996 80.2769 132.183 89.0754 124.303H89.2068Z" fill="black" fill-opacity="0.03"/>
<path d="M1638.41 326.273C1636.05 311.631 1636.9 296.791 1634.08 282.149C1631.26 267.572 1610.05 266.128 1603.22 278.144C1585.36 309.333 1589.96 356.871 1615.3 382.479C1625.41 392.657 1642.49 384.843 1642.95 371.054C1643.4 355.755 1640.91 341.31 1638.48 326.339L1638.41 326.273Z" fill="black" fill-opacity="0.03"/>
</svg>
