<svg width="138" height="56" viewBox="0 0 138 56" fill="none" xmlns="http://www.w3.org/2000/svg">
<path d="M44.9984 0.5L44.9984 26.2034L26.9883 26.2034C26.5957 25.1946 26.3323 24.0814 25.4129 23.4055C23.8424 22.2475 19.9512 22.178 18.51 23.5844C17.0588 24.9958 17.1334 28.9766 18.1074 30.6315C19.1809 32.4504 21.7204 32.6641 23.6238 32.3659C25.6315 32.0528 26.4217 30.7955 26.874 28.9368L45.0034 28.9368V55.5L0.0674438 55.5L0.0674438 0.5L44.9984 0.5Z" fill="#191919"/>
<path d="M137.301 0.5V23.2315L119.171 23.2315C119.107 20.538 115.946 20.1006 113.839 20.4386C111.766 20.7715 110.857 22.0885 110.728 24.1261C110.574 26.5613 110.579 30.1246 110.728 32.5647C110.927 35.6907 112.258 36.8387 115.379 36.7492C117.029 36.6995 118.838 36.2522 119.007 34.324H115.255V24.5585L137.291 24.5585V55.495H119.007V50.1824H117.795L112.949 55.495H92.3597L92.3597 0.5L137.291 0.5H137.301Z" fill="#191919"/>
<path d="M65.4123 25.2642C66.7193 25.2145 68.0562 25.3288 69.3632 25.2642C70.4317 25.2145 71.9822 25.1151 72.4842 24.0118C72.8221 23.2763 72.8122 21.6015 72.2407 20.9753C71.8828 20.5777 70.8144 20.1851 70.2975 20.1851H65.4123V25.2642ZM90.1017 0.5V45.0288L65.4123 45.0288V55.495H47.0493L47.0493 0.5L90.1017 0.5Z" fill="#191919"/>
</svg>
