<svg width="1920" height="672" viewBox="0 0 1920 672" fill="none" xmlns="http://www.w3.org/2000/svg">
<path d="M628.254 0.632324L628.254 313.984L376 313.984C370.501 301.685 366.812 288.113 353.935 279.874C331.939 265.757 277.437 264.909 257.251 282.055C236.926 299.261 237.97 347.791 251.613 367.966C266.648 390.14 302.217 392.745 328.876 389.11C356.997 385.293 368.065 369.965 374.399 347.306L628.324 347.306L628.324 671.138L-1.05911 671.138L-1.05911 0.632324L628.254 0.632324Z" fill="url(#paint0_linear_3_9)"/>
<path d="M1921.06 0.631348V277.752L1667.13 277.752C1666.23 244.914 1621.96 239.583 1592.45 243.703C1563.42 247.762 1550.68 263.817 1548.87 288.658C1546.71 318.345 1546.78 361.785 1548.87 391.533C1551.66 429.641 1570.31 443.637 1614.02 442.546C1637.13 441.94 1662.47 436.488 1664.84 412.98H1612.28V293.929L1920.92 293.929L1920.92 671.077L1664.84 671.077V606.31H1647.85L1579.99 671.077L1291.61 671.077L1291.61 0.631348L1920.92 0.631348H1921.06Z" fill="url(#paint1_linear_3_9)"/>
<path d="M914.175 302.532C932.482 301.926 951.206 303.319 969.512 302.532C984.478 301.926 1006.2 300.714 1013.23 287.264C1017.96 278.297 1017.82 257.88 1009.81 250.246C1004.8 245.399 989.838 240.613 982.598 240.613L914.175 240.613L914.175 302.532ZM1259.98 0.631348L1259.98 543.483L914.175 543.483V671.077L656.979 671.077L656.979 0.631348L1259.98 0.631348Z" fill="url(#paint2_linear_3_9)"/>
<defs>
<linearGradient id="paint0_linear_3_9" x1="313.632" y1="0.632324" x2="313.632" y2="671.138" gradientUnits="userSpaceOnUse">
<stop stop-color="#1D1D1D" stop-opacity="0.2"/>
<stop offset="1" stop-color="#1D1D1D"/>
</linearGradient>
<linearGradient id="paint1_linear_3_9" x1="1606.33" y1="0.631348" x2="1606.33" y2="671.077" gradientUnits="userSpaceOnUse">
<stop stop-color="#1D1D1D" stop-opacity="0.2"/>
<stop offset="1" stop-color="#1D1D1D"/>
</linearGradient>
<linearGradient id="paint2_linear_3_9" x1="958.48" y1="0.631348" x2="958.48" y2="671.077" gradientUnits="userSpaceOnUse">
<stop stop-color="#1D1D1D" stop-opacity="0.2"/>
<stop offset="1" stop-color="#1D1D1D"/>
</linearGradient>
</defs>
</svg>
