<svg width="1720" height="226" viewBox="0 0 1720 226" fill="none" xmlns="http://www.w3.org/2000/svg">
<path d="M0 0H56.4151V84.6227H63.467L84.6227 0H141.038L112.83 112.83L141.038 141.038V225.66H84.6227V141.038H56.4151V225.66H0V0Z" fill="#B8D433"/>
<path d="M253.758 0H310.173V112.83L239.654 225.66H176.187L207.497 174.323L169.135 112.83V0H225.55V98.7264L239.654 121.857L253.758 98.7264V0Z" fill="#B8D433"/>
<path d="M394.685 141.038V225.66H338.27V141.038L380.582 0H436.997L479.308 141.038V225.66H422.893V141.038L408.789 70.5189L394.685 141.038Z" fill="#B8D433"/>
<path d="M507.405 0H563.821V56.4151H620.236L648.443 84.6227V197.453L620.236 225.66H507.405V0ZM563.821 112.83V169.245H592.028V112.83H563.821Z" fill="#B8D433"/>
<path d="M704.748 225.66V56.4151H676.541V0H789.371V56.4151H761.163V225.66H704.748Z" fill="#B8D433"/>
<path d="M902.201 0H958.616V112.83L888.097 225.66H824.63L855.941 174.323L817.578 112.83V0H873.994V98.7264L888.097 121.857L902.201 98.7264V0Z" fill="#B8D433"/>
<path d="M1043.13 112.83H1071.34V56.4151H1043.13V112.83ZM986.714 0H1099.54L1127.75 28.2075V141.038L1099.54 169.245H1043.13V225.66H986.714V0Z" fill="#B8D433"/>
<path d="M1155.85 225.66V0H1212.26V84.6227H1240.47V0H1296.89V225.66H1240.47V141.038H1212.26V225.66H1155.85Z" fill="#B8D433"/>
<path d="M1324.98 0H1381.4V56.4151H1437.81L1466.02 84.6227V197.453L1437.81 225.66H1324.98V0ZM1550.64 225.66H1494.23V0H1550.64V225.66ZM1381.4 112.83V169.245H1409.61V112.83H1381.4Z" fill="#B8D433"/>
<path d="M1578.96 225.66V0H1720V56.4151H1635.38V84.6227H1691.79V141.038H1635.38V169.245H1720V225.66H1578.96Z" fill="#B8D433"/>
</svg>
