<svg width="167" height="59" viewBox="0 0 167 59" fill="none" xmlns="http://www.w3.org/2000/svg">
<path d="M2.976 46.186V12.586H12.288V38.026H28.56V46.186H2.976ZM32.601 46.186V12.586H59.625V20.458H41.817V25.594H57.945V32.938H41.817V38.266H59.865V46.186H32.601ZM81.5651 46.858C71.0531 46.858 63.3251 39.706 63.3251 29.482V29.386C63.3251 19.594 71.0051 11.914 81.3731 11.914C87.3251 11.914 91.4051 13.69 95.0051 16.762L89.5331 23.386C87.0851 21.322 84.8291 20.218 81.4211 20.218C76.6211 20.218 72.8291 24.25 72.8291 29.386V29.482C72.8291 34.954 76.6211 38.842 81.9491 38.842C84.2531 38.842 85.9811 38.362 87.3251 37.45V33.37H80.7491V26.554H96.1571V41.626C92.5571 44.65 87.7571 46.858 81.5651 46.858ZM98.6798 46.186L112.936 12.346H121.912L136.216 46.186H126.232L123.832 40.138H110.824L108.424 46.186H98.6798ZM113.56 32.89H121.096L117.352 23.386L113.56 32.89ZM139.476 46.186V12.586H148.788V38.026H165.06V46.186H139.476Z" fill="white"/>
</svg>
