<svg width="551" height="81" viewBox="0 0 551 81" fill="none" xmlns="http://www.w3.org/2000/svg">
<path d="M537.599 40.9337C531.793 45.9706 525.602 50.4829 519.026 54.4005C504.894 65.4888 491.672 61.7111 479.395 42.9974C479.534 39.5695 477.366 35.7568 474.323 34.1478C461.101 27.152 449.838 27.6417 436.021 34.1478C418.986 42.2279 402.511 66.1184 386.036 45.341C378.831 36.2465 382.154 27.4318 367.882 23.6891C352.107 19.5616 339.409 32.6787 325.418 34.4626C321.255 11.7613 306.564 -8.9461 280.051 3.99605C273.754 7.07419 268.822 12.0062 263.331 16.2736C250.249 26.5224 248.43 17.7077 237.236 9.97742C226.638 2.66686 216.039 -0.796043 204.636 7.10916C199.494 10.677 197.536 15.7139 198.655 21.8003C200.159 29.7754 165.915 11.0967 164.69 10.607C157.695 7.66882 150.174 5.50014 142.479 6.30465C137.967 6.75938 132.545 8.40338 128.592 10.747C123.346 13.8601 119.918 22.4649 115.091 24.6685C102.253 30.475 106.451 23.3393 95.7123 16.7983C91.6897 14.3498 86.4429 12.5659 81.8257 11.9013C68.7786 10.0824 23.3761 32.8885 19.9832 17.9876C18.2692 10.4321 7.21593 9.20789 3.54316 15.8539C-7.12537 35.0572 7.74061 53.631 28.9028 54.3655C47.5465 54.9951 66.7149 32.8885 84.2742 42.7176C94.8028 48.594 95.8872 58.8078 110.683 58.528C122.891 58.2831 126.564 50.6578 134.364 43.4521C145.662 33.0634 151.154 35.477 165.495 41.2485C172.771 44.1867 178.787 48.9088 186.692 50.308C202.957 53.1762 217.089 45.6908 222.231 32.7836C228.317 37.7506 238.601 46.985 241.084 47.9294C246.926 50.1331 253.397 50.3429 259.413 48.6989C275.398 44.2916 300.723 9.13794 302.752 45.8307C303.032 50.7977 306.215 56.2544 311.496 57.3387C327.797 60.6267 333.813 52.0919 349.064 49.8882C365.958 47.4397 362.076 60.4168 371.52 70.001C386.456 85.1468 411.291 76.647 426.437 66.713C433.223 62.2707 439.204 56.0795 446.759 52.8614C466.068 44.6414 454.665 50.3429 461.276 58.7029C467.537 66.6081 471.839 73.4639 481.878 77.5215C508.042 88.12 530.674 69.0566 547.848 51.3573C554.599 44.4315 544.665 35.1622 537.459 40.9686L537.599 40.9337Z" fill="#B8D433"/>
</svg>
