<svg width="1012" height="224" viewBox="0 0 1012 224" fill="none" xmlns="http://www.w3.org/2000/svg">
<path d="M18.8437 213.3C14.9179 213.3 11.2539 212.253 7.85154 210.159C4.44921 208.065 2.09376 205.448 0.785169 202.569C0.261734 201.523 1.68184e-05 200.737 1.68184e-05 199.952C1.68184e-05 199.429 0.261734 198.905 0.523451 198.382C0.785169 198.12 2.09376 197.858 3.92578 197.858C6.28123 198.12 8.63669 199.691 10.9921 202.308C11.2539 202.831 11.7773 203.093 12.3007 203.093C13.0859 203.093 14.3945 202.569 15.7031 201.784C18.0585 200.476 19.1054 199.952 19.1054 199.691C19.1054 199.429 18.8437 199.429 18.5819 199.167C16.7499 198.644 15.4413 197.073 14.3945 194.194C12.3007 189.484 11.2539 178.23 11.2539 160.433L11.5156 142.374C12.5625 114.894 17.7968 92.3864 26.9569 74.5896C28.2655 71.7107 29.0506 69.8787 29.0506 69.0935C29.0506 68.8318 28.7889 68.5701 28.5272 68.5701C28.2655 68.5701 25.91 70.4021 21.4608 73.8045C21.1991 74.0662 20.9374 74.3279 20.9374 74.5896C20.9374 74.8513 20.9374 74.8513 21.1991 74.8513C21.4608 75.113 21.7226 75.113 21.9843 75.3748H22.246C23.5546 76.1599 24.078 76.9451 24.078 77.4685C24.078 77.7302 24.078 77.9919 23.8163 78.2537C23.5546 78.7771 23.0311 79.3005 22.246 79.8239C21.4608 80.3474 20.6757 80.8708 20.1523 81.3943C18.3202 82.7029 16.2265 83.488 14.1328 83.488C8.37497 83.488 4.71093 80.6091 3.40234 74.8513C3.40234 72.2342 4.44921 69.3553 6.28123 66.4764C8.11325 63.5975 9.94528 61.5037 11.7773 59.9334C19.8905 52.6054 29.0506 47.371 38.9959 44.2304C47.8943 41.3515 56.0075 40.0429 63.0739 40.0429C67.7848 40.0429 73.5426 41.3515 80.3472 43.707C87.1519 46.3241 93.9565 51.2968 100.499 58.3631C110.706 70.4021 115.941 82.4411 115.941 94.4801C115.941 95.0036 115.941 98.4059 115.679 104.949C115.417 111.492 111.753 121.175 104.164 133.999C96.5737 146.824 86.8902 159.124 75.6363 171.163C61.2419 187.128 48.6794 199.167 37.4256 206.757C30.8827 211.206 24.6014 213.3 18.8437 213.3ZM29.0506 192.101C30.0975 192.101 36.3787 186.081 47.6326 173.78C47.8943 173.519 48.156 173.257 48.4177 172.995C59.6716 160.956 70.402 146.562 80.609 129.55C90.5542 112.539 96.312 97.0973 97.6206 83.2263L97.8823 80.0857C97.8823 67.785 90.8159 59.9334 76.6832 56.5311C74.3277 56.2694 71.9723 56.0077 69.6168 56.0077C66.4762 56.0077 63.0739 56.2694 59.1481 56.7928C55.2224 57.3163 53.3904 57.578 53.3904 57.8397C53.3904 58.1014 53.3904 58.3631 53.3904 58.6249C53.3904 58.8866 53.6521 59.1483 53.9138 59.41C54.1755 59.6717 54.1755 60.7186 54.1755 62.0272C54.1755 62.8123 53.9138 63.5975 53.6521 64.6444C53.1286 65.6912 51.0349 71.9724 47.6326 83.488C44.2302 95.2653 40.5662 110.183 36.6404 128.503C32.7147 146.824 30.0975 166.452 28.5272 187.128H28.7889L28.5272 189.222C28.5272 191.054 28.7889 192.101 29.0506 192.101ZM180.565 175.089H179.779C176.639 175.089 173.76 174.304 171.143 172.472C166.17 169.593 163.029 165.667 161.197 160.695C160.674 159.648 160.151 159.124 159.365 159.124C159.104 159.124 158.58 159.386 157.795 159.648C155.44 160.695 152.823 161.741 150.205 162.527C146.541 163.835 142.877 165.406 139.213 167.238C137.643 168.023 136.073 168.808 134.241 169.331C133.455 169.593 132.409 169.855 131.623 170.116C130.838 170.378 129.791 170.64 129.006 170.64C127.698 170.64 126.389 170.116 125.342 169.331C124.034 168.546 122.987 167.761 121.678 167.499C120.37 167.238 119.323 166.976 118.014 166.191C115.659 165.144 114.35 163.312 114.35 160.695C114.612 157.031 115.135 153.367 115.92 149.964C115.92 148.656 116.182 147.085 116.967 145.515C117.491 143.945 117.752 142.113 118.014 140.281L122.463 123.531C122.725 122.484 122.987 121.437 123.248 120.128L125.604 112.539C127.436 107.566 129.006 103.379 129.791 99.7145L130.838 97.0973C133.194 90.0309 135.026 85.5817 136.073 83.2263C137.119 80.8708 137.905 78.5154 138.69 76.1599C139.475 73.8045 140.26 71.7107 141.045 69.8787C141.83 68.0467 142.616 66.4764 143.401 64.6444C143.924 62.8123 145.494 58.8866 148.373 52.3436C149.158 49.9882 150.205 47.6327 151.252 45.2773C152.299 42.9218 153.869 41.8749 156.225 41.8749H156.748C162.506 42.3984 167.217 44.7538 170.881 48.9413C171.404 49.7265 171.666 50.5116 171.928 51.2968L172.19 54.4374H171.666L171.928 63.074L170.619 84.7966C170.358 87.6755 170.096 90.8161 170.096 93.695L169.834 111.492C169.834 115.679 170.096 119.867 170.619 124.054V128.242L171.666 138.972C171.928 140.281 172.451 140.804 173.76 140.804C179.518 141.589 183.705 144.206 186.584 148.656C187.369 149.702 187.631 150.749 187.893 151.796C187.893 153.105 187.369 153.89 186.584 153.89L185.537 153.628C184.49 153.367 183.443 153.105 182.658 153.105L177.947 153.89C177.947 154.152 177.947 154.152 177.686 154.152C175.854 154.413 174.807 154.937 174.807 155.46C174.807 155.984 175.068 156.769 175.33 157.816C176.639 162.788 178.733 167.499 182.135 171.948C182.658 172.734 182.92 173.257 182.92 173.519C182.92 174.304 182.135 174.827 180.565 175.089ZM139.737 149.702L140.26 149.441C146.803 146.824 151.252 145.253 153.084 144.992C154.916 144.73 155.701 144.206 155.701 143.421L155.44 142.374C154.655 140.019 154.393 137.663 154.131 135.308L153.869 134.261L152.299 124.054C152.037 122.222 151.776 120.39 151.514 118.558C151.252 116.726 150.99 114.894 150.99 112.8V110.968C150.99 112.015 150.729 112.8 150.467 113.062C149.42 114.894 148.897 116.726 148.635 118.82C147.065 126.41 144.448 134.785 140.784 143.945L138.951 149.179C138.951 149.441 138.951 149.441 139.213 149.441C139.475 149.702 139.475 149.702 139.737 149.702ZM121.416 201.523C120.37 201.523 119.323 201.261 118.538 200.737C114.35 198.644 111.471 195.503 110.163 191.316L109.901 189.745C109.901 188.175 110.948 186.866 113.041 186.081C117.491 183.726 121.94 182.155 126.912 180.847L136.858 177.968C144.971 175.613 151.514 174.042 156.487 173.519C157.272 173.519 157.795 173.519 158.319 173.257C158.842 172.995 159.104 172.995 159.365 172.995H159.889C163.291 172.995 166.432 173.78 169.311 175.613C172.19 177.445 174.022 179.8 174.807 182.679L175.068 184.249C175.068 184.511 174.807 185.034 174.545 185.296C174.283 185.558 173.76 185.819 173.498 185.819C172.713 185.819 172.19 185.558 171.666 185.296C170.881 185.034 170.358 185.034 169.834 185.034L167.74 185.558C166.955 185.819 165.908 186.081 164.862 186.343C159.627 187.913 151.252 191.054 139.475 195.765C133.194 198.382 128.745 199.952 126.389 200.476L121.416 201.523ZM244.411 202.308C238.654 202.308 235.251 199.167 234.204 192.624C233.943 191.316 233.943 189.222 233.943 186.081C233.943 175.874 233.943 167.499 234.204 160.695L234.466 148.132L232.634 143.683C223.212 121.96 214.837 104.949 207.509 92.6481C206.201 99.7145 204.892 108.875 203.583 119.867C200.966 143.683 199.658 159.124 199.658 165.667C199.658 167.238 199.658 168.546 199.919 169.331C199.919 171.163 199.134 171.948 197.564 171.948C195.47 171.948 193.376 171.425 191.283 170.116C189.189 168.808 187.619 167.238 186.572 164.882C185.263 161.48 184.74 155.984 184.74 148.917C184.74 141.328 185.263 126.41 186.048 104.164C187.357 88.7223 188.404 77.4685 189.189 70.9256C189.712 65.9529 190.236 63.3358 190.498 62.8123H190.759C193.115 60.9803 195.47 59.9334 198.087 59.1483C205.939 59.1483 214.052 66.4764 222.689 81.1325C227.4 89.2458 231.849 97.359 236.036 105.996C236.298 101.546 236.56 98.1442 236.822 96.3121C237.083 94.4801 237.607 91.3395 238.13 87.152C241.794 54.9608 246.505 38.7343 252.001 38.7343C256.974 39.2578 261.161 41.6132 264.04 45.8007C264.04 50.2499 262.732 61.5037 260.114 80.0857C253.31 128.503 249.122 166.191 247.552 192.624C247.29 194.98 247.028 197.335 247.028 199.691C246.767 201.261 245.982 202.046 244.411 202.308ZM297.068 181.109C293.142 181.109 288.954 180.585 284.505 179.538C268.802 174.566 260.951 162.265 260.951 143.16C260.951 134.785 263.306 123.531 267.755 109.136C272.204 95.0036 279.533 81.3943 289.74 68.3084C299.423 57.0545 307.536 51.5585 314.603 51.5585C316.958 51.5585 319.575 52.3436 322.192 53.6522C323.239 53.9139 324.024 54.1757 324.548 54.1757C324.81 54.1757 325.071 53.9139 325.333 53.6522C331.876 37.164 337.896 28.7891 343.13 28.7891C345.224 28.7891 347.579 29.8359 349.935 31.9297C351.243 32.9765 351.767 34.2851 351.767 35.8554C351.767 37.164 350.72 40.3046 348.626 45.0155L344.438 54.6991C343.653 57.0545 342.606 59.1483 341.56 60.9803C340.513 63.074 339.466 65.1678 338.681 67.2615L337.11 70.4021C331.091 83.7497 327.95 93.1715 327.95 98.6676C327.95 101.546 328.735 103.379 330.306 104.425C330.567 104.687 331.091 104.949 331.614 105.472C332.138 105.996 332.399 106.519 332.399 107.304C332.399 107.566 332.399 108.089 332.138 108.351C331.876 108.875 331.614 109.136 331.353 109.136C331.091 109.136 330.829 109.136 330.567 109.136H329.782C325.857 108.613 322.716 107.304 320.099 104.949C317.22 102.855 315.388 100.5 314.603 98.1442C314.341 96.8356 314.079 95.2653 314.079 93.4333C314.079 88.7223 315.388 82.4411 317.743 74.8513L318.79 71.1873C316.173 73.0193 311.462 79.0388 304.919 88.9841C298.376 99.191 292.357 110.707 287.122 123.531C283.458 132.691 281.626 141.066 281.626 148.917C281.626 155.984 282.935 161.218 285.29 164.62C287.646 168.284 291.31 170.116 296.544 170.116C303.349 170.116 309.892 164.882 315.911 154.675C319.837 148.132 322.978 144.73 325.857 144.73C327.165 144.73 328.735 145.515 330.567 147.085C330.829 147.347 331.091 148.132 331.091 148.917C331.091 150.226 330.567 152.581 329.782 155.984C328.997 159.386 326.903 163.312 323.501 168.023C320.099 172.734 315.388 176.398 308.845 179.015C305.443 180.323 301.517 181.109 297.068 181.109ZM349.939 131.906C349.415 131.906 348.892 131.644 348.368 131.382C344.181 129.55 341.302 126.671 339.732 122.222C339.47 121.699 339.47 121.175 339.47 120.39C339.47 119.605 339.732 118.558 340.255 117.511C342.611 114.109 345.751 111.23 349.677 109.398C353.603 107.566 356.743 105.211 359.622 102.07C364.071 97.359 369.044 93.1715 374.54 89.2458C380.036 85.5817 385.532 81.656 391.028 77.7302C392.86 76.9451 393.907 76.1599 394.692 75.3748C393.384 75.3748 392.599 75.6365 392.337 75.8982C391.813 76.1599 391.552 76.4216 391.29 76.4216C388.411 77.9919 385.27 79.0388 382.13 79.3005C381.345 79.5622 380.56 79.8239 379.774 80.3474H379.513C378.466 80.8708 377.419 81.1325 376.372 81.3943C375.063 81.656 374.017 82.1794 373.231 82.7029C370.876 83.488 368.521 84.2731 366.165 84.7966L360.931 85.8434C358.837 85.8434 357.005 85.0583 355.696 83.7497C353.079 81.9177 351.247 79.3005 349.939 76.1599C349.677 75.3748 349.415 74.3279 349.415 73.5427C349.415 72.2342 349.939 71.1873 351.247 69.8787C353.603 67.5232 355.696 66.2147 358.052 65.4295C361.716 63.5975 365.38 62.0272 369.306 60.9803C376.372 58.8866 380.56 57.578 382.392 57.3163C383.438 57.0545 384.485 57.0545 385.532 56.7928C386.317 56.7928 388.934 56.2694 393.122 55.2225C393.907 55.2225 394.692 55.2225 395.477 54.9608L402.544 53.6522C403.852 53.3905 405.161 53.1288 406.47 52.8671C412.489 52.0819 417.462 51.5585 420.864 51.5585C422.696 51.8202 424.266 52.6054 425.575 53.6522C428.454 56.0077 430.024 58.8866 430.809 62.2889V63.3358C430.809 65.1678 430.024 65.9529 428.454 65.9529L425.837 65.4295H425.051C421.649 66.2147 417.723 68.0467 413.798 70.9256C400.973 78.7771 388.934 87.152 377.157 96.0504L376.372 96.3121C375.587 96.8356 375.063 97.6207 374.278 98.4059C376.634 97.359 378.728 96.5739 381.083 96.0504L384.747 94.7418L396.786 90.8161L399.927 90.0309C410.395 86.3669 418.509 84.2731 424.266 83.7497C425.837 83.7497 427.145 84.2731 428.454 85.32C430.548 87.152 432.118 89.2458 432.903 91.6012L433.165 93.1715C433.165 94.4801 432.38 95.527 430.809 95.7887C425.837 97.0973 420.864 98.6676 415.891 100.5C410.919 102.593 406.208 104.687 401.759 106.519C397.048 108.351 394.169 109.66 393.122 110.445C390.505 111.753 386.841 113.324 382.392 115.418C377.681 117.511 373.493 119.605 369.567 121.96L357.79 128.242C353.341 130.597 350.724 131.906 349.939 131.906ZM341.825 172.21C341.04 172.21 339.993 171.948 338.946 171.687C335.806 170.378 333.45 168.023 331.618 164.62C331.095 163.835 330.833 162.788 330.833 162.003C330.833 160.695 331.88 158.863 333.712 157.031C334.759 155.46 336.853 153.367 340.255 150.749C342.611 148.656 344.704 147.085 346.536 146.3C349.939 143.945 352.556 142.374 354.388 141.589C355.435 141.328 356.743 140.804 358.052 140.019C360.146 138.71 362.239 137.925 364.333 137.14C366.165 136.617 367.997 136.093 369.829 135.308L378.989 132.429C385.009 130.335 391.29 128.503 397.309 126.933C411.18 123.531 419.294 121.699 421.649 121.699H423.219C427.145 122.746 430.286 125.101 432.118 129.027C432.903 130.335 433.426 131.644 433.688 133.476C433.688 135.308 432.903 136.355 431.594 136.355C431.333 136.355 430.809 136.093 430.024 135.831C429.239 135.57 428.454 135.57 427.407 135.57C426.36 135.57 425.313 135.831 424.266 136.093C422.958 136.355 421.649 136.878 420.341 137.14C415.891 138.187 411.18 139.496 406.731 141.328C402.282 142.636 398.88 143.683 397.048 144.73C394.954 145.777 392.599 146.824 390.243 147.609C387.102 148.656 384.224 149.702 381.345 151.011C378.466 152.32 375.849 153.89 373.493 155.199C370.876 156.507 368.259 157.816 365.903 159.124C363.286 160.433 361.192 161.48 359.622 162.527C359.36 162.788 358.837 163.05 358.314 163.312L354.911 165.667L345.228 171.425C344.181 171.948 343.134 172.21 341.825 172.21ZM509.012 209.374C501.945 209.374 498.02 205.71 497.758 198.644L497.496 175.089C497.496 159.124 498.02 149.441 498.805 145.515C499.066 143.683 499.328 142.113 499.328 141.328C499.328 140.542 499.066 140.281 498.805 140.019C498.543 139.757 498.02 139.757 497.758 139.757L496.711 140.019C495.402 140.281 493.832 140.542 492 140.542C489.645 140.281 487.289 139.496 485.457 137.663C482.578 135.308 481.008 132.691 481.008 130.074C481.008 128.765 481.531 127.718 482.578 126.933C487.027 124.054 491.215 122.222 494.617 121.437C499.852 119.605 502.73 118.296 503.516 117.511C504.039 116.988 504.301 116.203 504.301 115.418C504.562 113.847 505.086 111.492 506.133 108.089L509.273 96.5739C509.797 95.527 510.32 94.4801 510.582 93.1715C512.152 88.1989 513.723 83.7497 515.293 79.8239C516.34 77.4685 516.863 75.6365 516.863 74.8513V74.5896C516.601 74.3279 516.34 74.3279 516.078 74.3279C515.293 74.3279 513.723 74.8513 511.629 75.6365L506.133 77.4685C501.684 79.0388 498.281 80.3474 495.926 81.3943C493.57 82.4411 491.738 82.9646 490.691 82.9646C489.383 82.9646 488.336 82.4411 487.551 81.656C485.719 79.8239 484.148 77.4685 483.363 74.5896L483.102 72.4959C483.102 70.6639 483.887 69.0935 485.195 67.785C494.355 61.242 507.703 55.4842 525.5 50.5116C526.808 50.2499 527.855 48.6796 529.164 45.2773C529.949 42.9218 531.519 40.0429 533.613 36.9023C534.398 35.8554 535.183 35.332 536.492 35.332C538.586 35.332 540.941 36.1172 543.297 37.9492C545.652 39.7812 547.484 41.3515 548.269 43.1835L548.793 44.2304H550.625C551.148 44.2304 555.597 43.4452 563.972 41.8749C572.086 40.5664 579.152 39.7812 584.91 39.7812C588.312 39.7812 591.191 40.0429 593.546 40.5664C599.566 41.8749 603.753 45.539 606.109 51.2968C607.417 54.4374 608.203 57.0545 608.203 59.41C608.203 63.8592 605.585 67.785 600.613 71.7107L599.566 71.9724C598.781 71.9724 598.257 71.449 597.472 70.4021C596.687 69.3553 595.902 67.785 595.64 65.9529L595.378 64.3826C595.378 63.074 595.902 62.0272 596.687 60.9803C597.472 60.1952 598.257 59.1483 599.042 57.8397C598.519 57.578 597.734 57.3163 596.425 57.3163C595.117 57.3163 593.023 57.578 590.144 58.1014C582.554 58.8866 576.535 59.9334 571.562 61.242C564.757 62.8123 559.523 63.8592 555.597 64.6444C551.672 65.4295 549.054 65.9529 547.222 66.4764C545.39 66.9998 544.343 67.785 543.82 68.8318C543.035 70.1404 542.511 71.7107 541.988 74.0662L540.418 80.0857C534.398 98.4059 531.258 108.875 531.258 111.753C531.258 112.539 531.519 113.062 531.781 113.324C539.109 113.324 545.39 113.847 550.625 115.156C555.859 116.464 559.785 119.605 562.664 124.578C563.449 126.671 563.972 128.242 563.972 129.027C563.711 130.074 563.187 130.597 562.14 130.597C561.617 130.597 561.355 130.597 561.093 130.335C559 128.765 556.121 127.98 552.718 127.98C547.746 127.98 540.941 129.289 532.828 131.644C529.949 132.429 528.117 132.691 527.07 132.953C525.762 133.214 524.976 133.476 524.715 134.261C524.191 135.046 523.668 137.14 523.144 140.542C521.836 146.3 520.527 152.058 519.219 157.554C514.769 176.136 512.676 189.484 512.676 197.597C512.676 201.261 512.414 204.14 511.891 206.233C511.367 208.327 510.32 209.374 509.012 209.374ZM591.976 131.906C591.453 131.906 590.929 131.644 590.406 131.382C586.218 129.55 583.339 126.671 581.769 122.222C581.507 121.699 581.507 121.175 581.507 120.39C581.507 119.605 581.769 118.558 582.292 117.511C584.648 114.109 587.789 111.23 591.714 109.398C595.64 107.566 598.781 105.211 601.66 102.07C606.109 97.359 611.081 93.1715 616.577 89.2458C622.074 85.5817 627.57 81.656 633.066 77.7302C634.898 76.9451 635.945 76.1599 636.73 75.3748C635.421 75.3748 634.636 75.6365 634.374 75.8982C633.851 76.1599 633.589 76.4216 633.327 76.4216C630.448 77.9919 627.308 79.0388 624.167 79.3005C623.382 79.5622 622.597 79.8239 621.812 80.3474H621.55C620.503 80.8708 619.456 81.1325 618.409 81.3943C617.101 81.656 616.054 82.1794 615.269 82.7029C612.913 83.488 610.558 84.2731 608.202 84.7966L602.968 85.8434C600.874 85.8434 599.042 85.0583 597.734 83.7497C595.117 81.9177 593.285 79.3005 591.976 76.1599C591.714 75.3748 591.453 74.3279 591.453 73.5427C591.453 72.2342 591.976 71.1873 593.285 69.8787C595.64 67.5232 597.734 66.2147 600.089 65.4295C603.753 63.5975 607.417 62.0272 611.343 60.9803C618.409 58.8866 622.597 57.578 624.429 57.3163C625.476 57.0545 626.523 57.0545 627.57 56.7928C628.355 56.7928 630.972 56.2694 635.159 55.2225C635.945 55.2225 636.73 55.2225 637.515 54.9608L644.581 53.6522C645.89 53.3905 647.198 53.1288 648.507 52.8671C654.526 52.0819 659.499 51.5585 662.901 51.5585C664.733 51.8202 666.304 52.6054 667.612 53.6522C670.491 56.0077 672.062 58.8866 672.847 62.2889V63.3358C672.847 65.1678 672.062 65.9529 670.491 65.9529L667.874 65.4295H667.089C663.687 66.2147 659.761 68.0467 655.835 70.9256C643.011 78.7771 630.972 87.152 619.195 96.0504L618.409 96.3121C617.624 96.8356 617.101 97.6207 616.316 98.4059C618.671 97.359 620.765 96.5739 623.12 96.0504L626.784 94.7418L638.823 90.8161L641.964 90.0309C652.433 86.3669 660.546 84.2731 666.304 83.7497C667.874 83.7497 669.183 84.2731 670.491 85.32C672.585 87.152 674.155 89.2458 674.94 91.6012L675.202 93.1715C675.202 94.4801 674.417 95.527 672.847 95.7887C667.874 97.0973 662.901 98.6676 657.929 100.5C652.956 102.593 648.245 104.687 643.796 106.519C639.085 108.351 636.206 109.66 635.159 110.445C632.542 111.753 628.878 113.324 624.429 115.418C619.718 117.511 615.531 119.605 611.605 121.96L599.828 128.242C595.378 130.597 592.761 131.906 591.976 131.906ZM583.863 172.21C583.078 172.21 582.031 171.948 580.984 171.687C577.843 170.378 575.488 168.023 573.656 164.62C573.132 163.835 572.871 162.788 572.871 162.003C572.871 160.695 573.918 158.863 575.75 157.031C576.796 155.46 578.89 153.367 582.292 150.749C584.648 148.656 586.742 147.085 588.574 146.3C591.976 143.945 594.593 142.374 596.425 141.589C597.472 141.328 598.781 140.804 600.089 140.019C602.183 138.71 604.277 137.925 606.37 137.14C608.202 136.617 610.035 136.093 611.867 135.308L621.027 132.429C627.046 130.335 633.327 128.503 639.347 126.933C653.218 123.531 661.331 121.699 663.687 121.699H665.257C669.183 122.746 672.323 125.101 674.155 129.027C674.94 130.335 675.464 131.644 675.726 133.476C675.726 135.308 674.94 136.355 673.632 136.355C673.37 136.355 672.847 136.093 672.062 135.831C671.276 135.57 670.491 135.57 669.444 135.57C668.397 135.57 667.351 135.831 666.304 136.093C664.995 136.355 663.687 136.878 662.378 137.14C657.929 138.187 653.218 139.496 648.769 141.328C644.319 142.636 640.917 143.683 639.085 144.73C636.991 145.777 634.636 146.824 632.28 147.609C629.14 148.656 626.261 149.702 623.382 151.011C620.503 152.32 617.886 153.89 615.531 155.199C612.913 156.507 610.296 157.816 607.941 159.124C605.324 160.433 603.23 161.48 601.66 162.527C601.398 162.788 600.874 163.05 600.351 163.312L596.949 165.667L587.265 171.425C586.218 171.948 585.171 172.21 583.863 172.21ZM672.775 174.566C667.541 174.566 663.877 173.78 661.521 171.948C659.951 171.163 659.166 170.116 659.166 169.07V168.546C659.689 166.714 660.736 165.929 662.568 165.667L663.877 165.406L667.541 165.667C670.42 165.667 672.513 165.406 673.822 164.62C678.271 163.835 682.459 162.527 686.646 161.218L687.693 160.956C691.357 159.909 694.759 158.339 697.9 156.245L698.162 155.984C702.087 153.367 703.92 151.011 703.92 148.656C703.92 147.347 703.396 145.777 702.349 143.945C701.041 142.374 699.994 140.804 698.685 139.234C692.142 130.597 687.431 121.437 685.076 112.277C683.244 106.781 682.459 101.023 682.459 95.2653C682.459 86.6286 683.767 79.0388 686.384 71.9724L686.646 71.449C688.216 66.9998 689.787 64.1209 691.619 62.2889C696.591 55.2225 701.826 51.8202 707.845 51.8202C709.677 51.8202 711.248 52.0819 713.08 52.6054C713.341 52.8671 713.603 52.8671 713.865 52.8671C714.126 52.8671 714.388 52.8671 714.65 53.1288C715.435 53.1288 715.697 52.8671 715.697 52.3436C717.005 46.8476 719.361 43.9687 722.24 43.9687H723.287C728.783 44.4921 733.232 46.8476 736.634 51.2968C736.896 51.5585 737.158 52.3436 737.158 53.6522C737.158 56.2694 736.111 60.7186 734.279 66.7381C732.708 70.1404 731.4 73.5427 730.353 76.9451L729.83 78.2537C728.259 83.2263 726.951 87.9372 725.904 92.9098C725.642 94.2184 725.38 95.2653 725.119 96.3121C724.333 99.4528 723.81 102.593 723.287 105.996C723.025 108.089 722.24 109.136 720.669 109.136L719.361 108.875C714.912 108.089 712.556 106.257 712.033 103.64C711.509 101.023 711.248 98.4059 711.248 96.0504C711.248 91.3395 711.509 85.5817 712.294 78.5154L713.341 71.449H713.08C712.818 71.449 712.556 71.7107 712.294 72.4959C709.939 76.6834 707.845 81.3943 706.275 86.3669C704.443 91.6012 703.658 97.0973 703.658 102.855C703.658 109.398 704.181 114.371 705.228 118.035L706.013 120.39C708.107 127.98 712.033 134.523 717.529 140.019C722.501 144.468 725.119 148.656 725.38 152.32C725.38 154.413 724.595 156.507 723.287 158.339C720.408 162.003 716.744 164.62 712.294 166.452C706.275 169.07 699.732 170.902 693.189 171.687C686.123 172.995 681.674 173.78 679.318 173.78C677.224 174.304 675.131 174.566 672.775 174.566ZM760.318 202.569L758.224 202.308C754.821 201.261 751.681 199.429 749.325 196.55C742.259 189.745 738.595 180.847 738.595 169.593L738.333 164.097V154.937C738.333 151.796 738.857 144.992 739.904 134.523L741.997 116.988C742.259 114.632 742.521 112.539 742.782 110.445C743.044 108.613 743.044 106.781 743.306 105.211L746.185 86.3669L750.111 62.2889C750.634 58.3631 751.157 54.9608 751.943 52.3436C751.943 52.0819 750.634 51.8202 747.755 51.8202C744.614 51.8202 742.521 52.0819 741.736 52.3436C740.95 52.6054 739.904 52.8671 738.857 52.8671C736.24 52.8671 734.146 51.5585 732.314 48.9413C730.482 46.3241 729.435 43.707 729.435 41.3515C729.435 39.5195 730.22 37.9492 731.79 37.164C732.576 36.9023 733.361 36.3789 734.146 35.8554C734.931 35.332 735.978 34.8086 736.763 34.2851C737.548 34.0234 739.118 33.5 741.474 32.9765C743.568 32.4531 745.661 31.9297 747.755 31.4062C749.849 30.8828 751.157 30.6211 751.943 30.3594C752.728 30.3594 753.251 30.3594 753.513 30.0977C754.56 29.8359 755.345 29.5742 756.13 29.0508C756.915 28.7891 757.439 27.7422 757.7 26.1719C757.962 24.8633 758.224 23.293 758.747 21.7227C759.009 20.4141 759.532 19.1055 759.794 17.7969C760.056 16.4884 760.579 15.4415 761.103 14.6563C761.626 13.8712 761.888 12.8243 762.15 11.7774C762.935 8.89854 764.243 6.01966 766.075 3.40249C767.384 1.04703 768.954 0.000157339 770.786 0.000157339C771.571 0.000157339 772.357 0.261871 773.142 0.523601C778.114 1.83219 781.517 4.97279 783.61 9.6837C783.872 10.4689 784.134 11.254 784.134 12.3009V13.086C783.349 19.1055 783.087 21.9844 782.825 22.2461V22.5079C782.825 23.293 783.087 23.5547 783.872 23.5547H784.657C788.845 22.5079 795.911 21.461 806.118 20.1524C813.184 19.3672 817.895 18.8438 820.774 18.8438C824.177 19.1055 827.055 20.4141 829.411 22.7696C832.29 25.6485 834.122 29.3125 834.907 33.2383L835.169 34.2851C835.169 35.5937 834.907 36.3789 834.122 36.6406C833.337 37.164 832.813 37.4257 832.028 37.4257C831.243 37.4257 830.72 37.164 829.934 36.6406C829.149 36.3789 828.102 36.1172 826.794 36.1172C825.747 36.1172 824.7 36.1172 823.915 36.3789C823.13 36.6406 822.083 36.6406 821.298 36.6406C817.11 36.9023 812.923 37.6875 808.735 38.4726L798.79 40.0429C789.63 41.0898 782.825 42.1367 778.376 43.4452C777.329 43.707 776.806 44.4921 776.806 45.8007C776.544 47.6327 776.021 49.4647 775.497 51.035C774.189 55.4842 773.142 60.1952 772.357 64.9061C771.571 67.785 770.786 70.4021 770.525 73.0193C770.001 75.8982 769.478 78.5154 768.692 80.8708C767.907 82.4411 767.646 84.2731 767.384 86.1052C767.384 87.4138 766.86 90.5544 765.814 95.7887C765.028 98.9293 764.505 102.332 763.982 105.734C763.458 109.398 762.673 113.062 761.888 116.988C759.794 128.765 758.747 135.57 758.486 137.402C758.224 139.234 757.962 141.066 757.7 142.374C757.177 145.253 756.653 149.441 756.392 154.675C756.13 156.507 755.868 158.339 755.607 160.171C755.345 162.003 755.083 164.097 755.083 166.191C755.083 167.499 755.083 168.546 754.821 169.593L754.56 175.089C754.56 179.015 754.821 182.679 755.345 186.343C755.607 190.792 757.439 194.718 760.579 198.12C761.626 199.167 762.15 199.952 762.15 200.476C762.15 201.784 761.626 202.569 760.318 202.569ZM784.935 171.425C783.103 171.425 781.01 170.902 778.131 169.855C775.252 169.07 773.681 167.238 773.158 164.359C772.635 160.171 772.373 156.245 772.373 152.843C772.373 148.917 773.42 138.71 775.513 121.699L776.56 112.277C776.822 107.043 777.869 101.808 779.178 96.8356L779.701 95.0036C780.486 89.5075 783.103 86.6286 787.291 86.6286C790.431 86.6286 793.049 87.152 795.404 88.1989C797.498 89.5075 798.545 91.0778 798.545 93.4333C798.545 96.8356 797.236 103.64 794.881 113.324C793.834 116.726 791.74 128.242 788.861 147.87C788.076 152.058 787.552 156.245 787.552 160.433C787.552 161.741 787.552 162.788 787.814 163.835C787.814 165.144 788.338 165.929 789.123 166.452C789.908 166.976 790.17 167.761 790.17 168.546V169.331C790.17 169.855 789.646 170.378 788.599 170.64C787.291 171.163 786.244 171.425 784.935 171.425ZM802.732 71.449H800.9C798.021 71.449 795.142 70.4021 792.787 68.0467C791.74 67.2615 790.955 66.2147 790.431 65.1678C789.646 64.1209 789.385 61.7655 789.385 57.8397C789.385 54.9608 789.646 52.0819 790.17 49.203C790.17 47.1093 790.431 45.0155 790.955 42.6601C790.955 41.3515 790.955 40.3046 791.217 40.0429C791.478 39.7812 791.478 39.7812 791.478 39.5195C791.478 39.2578 791.478 39.2578 791.74 38.996C791.74 38.7343 791.74 38.4726 791.74 38.2109C791.74 36.1172 792.525 32.9765 794.095 28.5274L794.881 26.4336C795.927 23.0313 798.021 21.461 800.9 21.461C804.041 21.461 806.658 22.2461 809.013 24.0782C811.369 25.9102 812.416 28.0039 812.416 30.3594C812.416 32.4531 811.369 36.9023 809.013 43.707V44.4921C808.49 45.539 808.228 46.3241 807.966 46.8476C807.705 47.371 807.705 47.6327 807.705 47.8944C807.443 48.1562 807.443 48.6796 807.181 49.203C806.396 50.5116 805.873 52.0819 805.349 54.1757C804.041 57.578 803.256 61.5037 803.256 65.6912C803.256 66.9998 803.256 67.785 803.517 68.0467C803.517 68.3084 803.517 68.3084 803.779 68.3084C803.779 68.5701 803.779 68.8318 804.041 69.0935C804.302 69.3553 804.302 69.8787 804.302 70.1404C804.302 70.9256 803.779 71.1873 802.732 71.449ZM835.653 171.425C830.681 171.425 826.493 170.116 822.567 167.238C818.642 164.62 815.501 156.507 812.622 142.898C811.052 135.046 810.267 130.859 810.267 130.335C808.958 122.746 808.173 112.015 807.388 98.4059L807.126 91.3395C807.126 69.617 810.267 58.6249 816.548 58.6249H817.857C823.353 59.41 826.231 61.242 826.231 64.6444L826.493 70.9256C826.493 75.3748 826.755 80.0857 827.017 84.5349V88.4606C827.017 89.5075 827.017 90.5544 827.278 91.6012C827.54 92.9098 827.54 94.2184 827.54 95.7887V97.6207C827.54 99.4528 827.802 102.593 828.325 106.519C828.587 110.707 829.11 114.632 829.372 118.296L829.896 122.222C830.157 125.624 830.419 129.289 831.204 132.691C831.989 138.71 832.774 143.421 833.821 146.3C834.606 145.515 836.962 139.757 840.364 128.503C849.263 98.9293 858.423 75.6365 867.845 58.1014C870.462 53.1288 873.602 48.1562 877.528 43.707C879.884 41.3515 882.501 40.0429 885.641 40.0429C887.735 40.0429 889.829 40.5664 891.661 41.3515C894.54 42.9218 896.11 44.4921 896.11 45.8007C896.11 46.5859 895.848 47.1093 895.063 47.371C894.278 47.6327 893.755 47.8944 893.493 47.8944C892.708 47.8944 891.923 47.8944 891.399 47.6327C890.614 47.371 890.091 47.371 889.829 47.371C889.305 47.6327 888.782 47.8944 888.258 48.4179C885.903 51.2968 883.809 55.2225 881.716 60.1952C878.313 68.5701 875.958 74.3279 875.173 77.4685C872.817 85.0583 870.985 91.6012 869.415 97.359C864.442 116.203 860.516 129.55 858.161 137.14C857.638 137.925 856.852 140.804 855.544 145.777C853.974 151.796 851.88 157.292 849.001 162.788C847.692 165.144 846.122 167.499 844.29 169.331C842.981 170.64 840.103 171.425 835.653 171.425ZM937.091 175.089H936.306C933.165 175.089 930.287 174.304 927.669 172.472C922.697 169.593 919.556 165.667 917.724 160.695C917.201 159.648 916.677 159.124 915.892 159.124C915.63 159.124 915.107 159.386 914.322 159.648C911.966 160.695 909.349 161.741 906.732 162.527C903.068 163.835 899.404 165.406 895.74 167.238C894.17 168.023 892.599 168.808 890.767 169.331C889.982 169.593 888.935 169.855 888.15 170.116C887.365 170.378 886.318 170.64 885.533 170.64C884.224 170.64 882.916 170.116 881.869 169.331C880.56 168.546 879.513 167.761 878.205 167.499C876.896 167.238 875.849 166.976 874.541 166.191C872.185 165.144 870.877 163.312 870.877 160.695C871.138 157.031 871.662 153.367 872.447 149.964C872.447 148.656 872.709 147.085 873.494 145.515C874.017 143.945 874.279 142.113 874.541 140.281L878.99 123.531C879.252 122.484 879.513 121.437 879.775 120.128L882.131 112.539C883.963 107.566 885.533 103.379 886.318 99.7145L887.365 97.0973C889.72 90.0309 891.552 85.5817 892.599 83.2263C893.646 80.8708 894.431 78.5154 895.216 76.1599C896.002 73.8045 896.787 71.7107 897.572 69.8787C898.357 68.0467 899.142 66.4764 899.927 64.6444C900.451 62.8123 902.021 58.8866 904.9 52.3436C905.685 49.9882 906.732 47.6327 907.779 45.2773C908.826 42.9218 910.396 41.8749 912.752 41.8749H913.275C919.033 42.3984 923.744 44.7538 927.408 48.9413C927.931 49.7265 928.193 50.5116 928.455 51.2968L928.716 54.4374H928.193L928.455 63.074L927.146 84.7966C926.884 87.6755 926.623 90.8161 926.623 93.695L926.361 111.492C926.361 115.679 926.623 119.867 927.146 124.054V128.242L928.193 138.972C928.455 140.281 928.978 140.804 930.287 140.804C936.044 141.589 940.232 144.206 943.111 148.656C943.896 149.702 944.158 150.749 944.419 151.796C944.419 153.105 943.896 153.89 943.111 153.89L942.064 153.628C941.017 153.367 939.97 153.105 939.185 153.105L934.474 153.89C934.474 154.152 934.474 154.152 934.212 154.152C932.38 154.413 931.333 154.937 931.333 155.46C931.333 155.984 931.595 156.769 931.857 157.816C933.165 162.788 935.259 167.499 938.662 171.948C939.185 172.734 939.447 173.257 939.447 173.519C939.447 174.304 938.662 174.827 937.091 175.089ZM896.263 149.702L896.787 149.441C903.33 146.824 907.779 145.253 909.611 144.992C911.443 144.73 912.228 144.206 912.228 143.421L911.966 142.374C911.181 140.019 910.92 137.663 910.658 135.308L910.396 134.261L908.826 124.054C908.564 122.222 908.302 120.39 908.041 118.558C907.779 116.726 907.517 114.894 907.517 112.8V110.968C907.517 112.015 907.255 112.8 906.994 113.062C905.947 114.894 905.423 116.726 905.162 118.82C903.591 126.41 900.974 134.785 897.31 143.945L895.478 149.179C895.478 149.441 895.478 149.441 895.74 149.441C896.002 149.702 896.002 149.702 896.263 149.702ZM877.943 201.523C876.896 201.523 875.849 201.261 875.064 200.737C870.877 198.644 867.998 195.503 866.689 191.316L866.428 189.745C866.428 188.175 867.474 186.866 869.568 186.081C874.017 183.726 878.467 182.155 883.439 180.847L893.384 177.968C901.498 175.613 908.041 174.042 913.013 173.519C913.798 173.519 914.322 173.519 914.845 173.257C915.369 172.995 915.63 172.995 915.892 172.995H916.416C919.818 172.995 922.959 173.78 925.837 175.613C928.716 177.445 930.548 179.8 931.333 182.679L931.595 184.249C931.595 184.511 931.333 185.034 931.072 185.296C930.81 185.558 930.287 185.819 930.025 185.819C929.24 185.819 928.716 185.558 928.193 185.296C927.408 185.034 926.884 185.034 926.361 185.034L924.267 185.558C923.482 185.819 922.435 186.081 921.388 186.343C916.154 187.913 907.779 191.054 896.002 195.765C889.72 198.382 885.271 199.952 882.916 200.476L877.943 201.523ZM929.295 223.507C927.986 223.507 926.678 222.722 924.846 221.151C923.014 219.581 921.967 217.487 921.967 214.87C921.967 210.944 925.107 206.495 931.389 201.523C936.1 197.597 938.978 195.241 940.025 194.456L940.287 193.933C940.025 193.933 940.025 193.933 939.764 193.671C939.502 193.671 939.24 193.409 938.978 193.148C938.717 192.886 938.193 192.101 937.932 191.316C937.67 190.53 937.408 189.222 937.146 187.39C937.146 181.37 938.455 170.378 941.072 154.937C945.783 127.195 953.373 99.7145 963.842 72.7576C972.217 51.035 979.021 37.9492 984.256 33.2383C984.779 32.9765 985.302 32.7148 986.088 32.7148C986.873 32.7148 987.396 32.9765 988.181 33.2383C994.201 36.3789 997.08 40.0429 997.08 44.4921C997.08 48.4179 995.248 54.1757 991.322 61.242L987.658 69.3553C978.498 90.5544 971.431 109.398 965.935 125.363C960.439 140.804 955.205 160.695 949.971 184.773C949.971 185.034 949.971 185.558 949.709 186.343C949.447 187.128 949.185 188.437 949.185 190.007C949.185 190.269 949.185 190.53 949.447 190.53H949.709C953.373 188.175 961.748 184.511 974.834 179.8C981.638 177.445 987.658 176.136 992.631 176.136C996.033 176.136 999.697 176.659 1003.1 177.706C1006.5 178.753 1009.12 181.894 1010.95 187.128L1011.21 188.437C1011.21 189.222 1010.69 190.007 1009.64 190.53C1008.6 191.054 1006.5 191.577 1003.36 192.101C999.435 192.886 994.463 193.933 988.181 195.765L979.021 198.905C965.674 203.355 957.822 206.233 955.467 207.542C952.588 208.589 949.447 209.897 945.521 211.73C935.576 216.702 930.604 219.843 930.604 221.413V221.936C930.604 222.983 930.08 223.507 929.295 223.507Z" fill="#B8D433"/>
</svg>
