<svg width="904" height="457" viewBox="0 0 904 457" fill="none" xmlns="http://www.w3.org/2000/svg">
<g filter="url(#filter0_d_69_1061)">
<path d="M66 407.5C58.5 407.5 51.5 405.5 45 401.5C38.5 397.5 34 392.5 31.5 387C30.5 385 30 383.5 30 382C30 381 30.5 380 31 379C31.5 378.5 34 378 37.5 378C42 378.5 46.5 381.5 51 386.5C51.5 387.5 52.5 388 53.5 388C55 388 57.5 387 60 385.5C64.5 383 66.5 382 66.5 381.5C66.5 381 66 381 65.5 380.5C62 379.5 59.5 376.5 57.5 371C53.5 362 51.5 340.5 51.5 306.5L52 272C54 219.5 64 176.5 81.5 142.5C84 137 85.5 133.5 85.5 132C85.5 131.5 85 131 84.5 131C84 131 79.5 134.5 71 141C70.5 141.5 70 142 70 142.5C70 143 70 143 70.5 143C71 143.5 71.5 143.5 72 144H72.5C75 145.5 76 147 76 148C76 148.5 76 149 75.5 149.5C75 150.5 74 151.5 72.5 152.5C71 153.5 69.5 154.5 68.5 155.5C65 158 61 159.5 57 159.5C46 159.5 39 154 36.5 143C36.5 138 38.5 132.5 42 127C45.5 121.5 49 117.5 52.5 114.5C68 100.5 85.5 90.5 104.5 84.5C121.5 79 137 76.5 150.5 76.5C159.5 76.5 170.5 79 183.5 83.5C196.5 88.5 209.5 98 222 111.5C241.5 134.5 251.5 157.5 251.5 180.5C251.5 181.5 251.5 188 251 200.5C250.5 213 243.5 231.5 229 256C214.5 280.5 196 304 174.5 327C147 357.5 123 380.5 101.5 395C89 403.5 77 407.5 66 407.5ZM85.5 367C87.5 367 99.5 355.5 121 332C121.5 331.5 122 331 122.5 330.5C144 307.5 164.5 280 184 247.5C203 215 214 185.5 216.5 159L217 153C217 129.5 203.5 114.5 176.5 108C172 107.5 167.5 107 163 107C157 107 150.5 107.5 143 108.5C135.5 109.5 132 110 132 110.5C132 111 132 111.5 132 112C132 112.5 132.5 113 133 113.5C133.5 114 133.5 116 133.5 118.5C133.5 120 133 121.5 132.5 123.5C131.5 125.5 127.5 137.5 121 159.5C114.5 182 107.5 210.5 100 245.5C92.5 280.5 87.5 318 84.5 357.5H85L84.5 361.5C84.5 365 85 367 85.5 367ZM280.563 327.5C277.063 327.5 273.063 326.5 267.563 324.5C262.062 323 259.062 319.5 258.062 314C257.062 306 256.562 298.5 256.562 292C256.562 284.5 258.562 265 262.562 232.5L264.563 214.5C265.063 204.5 267.063 194.5 269.563 185L270.563 181.5C272.063 171 277.063 165.5 285.063 165.5C291.063 165.5 296.063 166.5 300.563 168.5C304.563 171 306.563 174 306.563 178.5C306.563 185 304.063 198 299.563 216.5C297.563 223 293.563 245 288.063 282.5C286.563 290.5 285.563 298.5 285.563 306.5C285.563 309 285.563 311 286.063 313C286.063 315.5 287.063 317 288.563 318C290.063 319 290.563 320.5 290.563 322V323.5C290.563 324.5 289.563 325.5 287.563 326C285.063 327 283.063 327.5 280.563 327.5ZM314.563 136.5H311.063C305.563 136.5 300.063 134.5 295.562 130C293.563 128.5 292.063 126.5 291.063 124.5C289.563 122.5 289.063 118 289.063 110.5C289.063 105 289.563 99.5 290.563 94C290.563 90 291.063 86 292.063 81.5C292.063 79 292.063 77 292.563 76.5C293.063 76 293.063 76 293.063 75.5C293.063 75 293.063 75 293.563 74.5C293.563 74 293.563 73.5 293.563 73C293.563 69 295.063 63 298.063 54.5L299.563 50.5C301.563 44 305.563 41 311.063 41C317.063 41 322.063 42.5 326.563 46C331.063 49.5 333.063 53.5 333.063 58C333.063 62 331.063 70.5 326.563 83.5V85C325.563 87 325.062 88.5 324.563 89.5C324.063 90.5 324.063 91 324.063 91.5C323.563 92 323.563 93 323.063 94C321.563 96.5 320.563 99.5 319.563 103.5C317.063 110 315.563 117.5 315.563 125.5C315.563 128 315.563 129.5 316.063 130C316.063 130.5 316.063 130.5 316.563 130.5C316.563 131 316.563 131.5 317.063 132C317.563 132.5 317.563 133.5 317.563 134C317.563 135.5 316.563 136 314.563 136.5ZM455.215 399.5L452.215 399C443.715 397 438.715 392 436.215 384C434.715 375 433.715 364.5 433.715 352.5C433.715 340 434.215 329.5 434.715 320.5L435.215 307.5C417.715 321 399.715 328 381.715 328C379.215 328 372.215 327.5 360.715 326C349.215 324.5 337.215 314.5 325.215 295.5C316.715 282.5 312.715 265.5 312.715 245C312.715 236 313.715 226 315.215 215.5C320.715 186 332.215 156.5 348.715 127.5C365.215 98.5 384.215 76.5 404.715 61.5C416.215 53.5 426.715 49.5 436.715 49.5C445.215 49.5 453.715 52.5 461.715 58C469.215 64 472.715 70 472.715 76.5C472.715 83 468.215 93 458.715 107C453.215 114.5 447.715 124 442.215 134.5C441.215 136 439.715 137 437.715 137C437.215 137 436.715 137 435.215 136.5C433.715 136.5 431.715 135.5 430.215 134C428.715 132.5 427.715 131 427.715 129.5C427.715 129 428.215 128 428.715 127C429.215 126.5 432.715 119 438.215 104.5C442.715 93 445.215 86 445.215 84C445.215 83.5 444.715 83 444.215 83C441.715 83 434.715 88.5 423.215 100C411.715 111.5 399.715 128.5 387.215 151C365.215 193.5 354.215 232 354.215 266.5C354.215 292 359.715 304.5 370.215 304.5C381.215 304.5 392.715 301.5 405.215 295C417.215 289 427.715 281.5 436.215 272L442.215 255.5C445.715 246 447.215 239.5 447.215 235C447.215 230.5 445.215 228 441.715 227.5L437.215 227C432.215 227 426.715 228 420.215 229.5C411.215 231 405.715 232 404.215 232C397.715 232 393.215 228 390.215 220C389.715 218.5 389.215 217.5 389.215 216C389.215 214 389.715 212 391.215 210C394.215 206 400.215 202.5 409.215 199C418.215 196 427.715 193.5 437.215 191C446.715 189 453.715 188 458.215 187.5C462.715 187 466.715 187 470.715 186.5C474.715 186 478.715 186 482.215 186C487.215 186 492.215 186.5 497.715 187.5C502.715 188.5 507.215 193 511.215 200.5C511.715 202 512.215 203 512.215 204C512.215 206 511.215 207 509.215 207L504.215 206C502.215 206 498.215 207 492.715 209C490.715 209.5 488.715 215 487.215 225L485.215 233C470.715 284.5 462.215 322.5 459.715 346.5C457.715 366 456.715 379.5 456.715 387.5V395.5C456.715 397.5 456.715 398.5 456.715 399C456.215 399.5 455.715 399.5 455.215 399.5ZM524.215 327.5C520.715 327.5 516.715 326.5 511.215 324.5C505.715 323 502.715 319.5 501.715 314C500.715 306 500.215 298.5 500.215 292C500.215 284.5 502.215 265 506.215 232.5L508.215 214.5C508.715 204.5 510.715 194.5 513.215 185L514.215 181.5C515.715 171 520.715 165.5 528.715 165.5C534.715 165.5 539.715 166.5 544.215 168.5C548.215 171 550.215 174 550.215 178.5C550.215 185 547.715 198 543.215 216.5C541.215 223 537.215 245 531.715 282.5C530.215 290.5 529.215 298.5 529.215 306.5C529.215 309 529.215 311 529.715 313C529.715 315.5 530.715 317 532.215 318C533.715 319 534.215 320.5 534.215 322V323.5C534.215 324.5 533.215 325.5 531.215 326C528.715 327 526.715 327.5 524.215 327.5ZM558.215 136.5H554.715C549.215 136.5 543.715 134.5 539.215 130C537.215 128.5 535.715 126.5 534.715 124.5C533.215 122.5 532.715 118 532.715 110.5C532.715 105 533.215 99.5 534.215 94C534.215 90 534.715 86 535.715 81.5C535.715 79 535.715 77 536.215 76.5C536.715 76 536.715 76 536.715 75.5C536.715 75 536.715 75 537.215 74.5C537.215 74 537.215 73.5 537.215 73C537.215 69 538.715 63 541.715 54.5L543.215 50.5C545.215 44 549.215 41 554.715 41C560.715 41 565.715 42.5 570.215 46C574.715 49.5 576.715 53.5 576.715 58C576.715 62 574.715 70.5 570.215 83.5V85C569.215 87 568.715 88.5 568.215 89.5C567.715 90.5 567.715 91 567.715 91.5C567.215 92 567.215 93 566.715 94C565.215 96.5 564.215 99.5 563.215 103.5C560.715 110 559.215 117.5 559.215 125.5C559.215 128 559.215 129.5 559.715 130C559.715 130.5 559.715 130.5 560.215 130.5C560.215 131 560.215 131.5 560.715 132C561.215 132.5 561.215 133.5 561.215 134C561.215 135.5 560.215 136 558.215 136.5ZM609.508 387L605.508 386.5C599.008 384.5 593.008 381 588.508 375.5C575.008 362.5 568.008 345.5 568.008 324L567.508 313.5V296C567.508 290 568.508 277 570.508 257L574.508 223.5C575.008 219 575.508 215 576.008 211C576.508 207.5 576.508 204 577.008 201L582.508 165L590.008 119C591.008 111.5 592.008 105 593.508 100C593.508 99.5 591.008 99 585.508 99C579.508 99 575.508 99.5 574.008 100C572.508 100.5 570.508 101 568.508 101C563.508 101 559.508 98.5 556.008 93.5C552.508 88.5 550.508 83.5 550.508 79C550.508 75.5 552.008 72.5 555.008 71C556.508 70.5 558.008 69.5 559.508 68.5C561.008 67.5 563.008 66.5 564.508 65.5C566.008 65 569.008 64 573.508 63C577.508 62 581.508 61 585.508 60C589.508 59 592.008 58.5 593.508 58C595.008 58 596.008 58 596.508 57.5C598.508 57 600.008 56.5 601.508 55.5C603.008 55 604.008 53 604.508 50C605.008 47.5 605.508 44.5 606.508 41.5C607.008 39 608.008 36.5 608.508 34C609.008 31.5 610.008 29.5 611.008 28C612.008 26.5 612.508 24.5 613.008 22.5C614.508 17 617.008 11.5 620.508 6.49998C623.008 1.99998 626.008 -2.21729e-05 629.508 -2.21729e-05C631.008 -2.21729e-05 632.508 0.499971 634.008 0.999995C643.508 3.49999 650.008 9.49997 654.008 18.5C654.508 20 655.008 21.5 655.008 23.5V25C653.508 36.5 653.008 42 652.508 42.5V43C652.508 44.5 653.008 45 654.508 45H656.008C664.008 43 677.508 41 697.008 38.5C710.508 37 719.508 36 725.008 36C731.508 36.5 737.008 39 741.508 43.5C747.008 49 750.508 56 752.008 63.5L752.508 65.5C752.508 68 752.008 69.5 750.508 70C749.008 71 748.008 71.5 746.508 71.5C745.008 71.5 744.008 71 742.508 70C741.008 69.5 739.008 69 736.508 69C734.508 69 732.508 69 731.008 69.5C729.508 70 727.508 70 726.008 70C718.008 70.5 710.008 72 702.008 73.5L683.008 76.5C665.508 78.5 652.508 80.5 644.008 83C642.008 83.5 641.008 85 641.008 87.5C640.508 91 639.508 94.5 638.508 97.5C636.008 106 634.008 115 632.508 124C631.008 129.5 629.508 134.5 629.008 139.5C628.008 145 627.008 150 625.508 154.5C624.008 157.5 623.508 161 623.008 164.5C623.008 167 622.008 173 620.008 183C618.508 189 617.508 195.5 616.508 202C615.508 209 614.008 216 612.508 223.5C608.508 246 606.508 259 606.008 262.5C605.508 266 605.008 269.5 604.508 272C603.508 277.5 602.508 285.5 602.008 295.5C601.508 299 601.008 302.5 600.508 306C600.008 309.5 599.508 313.5 599.508 317.5C599.508 320 599.508 322 599.008 324L598.508 334.5C598.508 342 599.008 349 600.008 356C600.508 364.5 604.008 372 610.008 378.5C612.008 380.5 613.008 382 613.008 383C613.008 385.5 612.008 387 609.508 387ZM762.168 334.5H760.668C754.668 334.5 749.168 333 744.168 329.5C734.668 324 728.668 316.5 725.168 307C724.168 305 723.168 304 721.668 304C721.168 304 720.168 304.5 718.668 305C714.168 307 709.168 309 704.168 310.5C697.168 313 690.168 316 683.168 319.5C680.168 321 677.168 322.5 673.668 323.5C672.168 324 670.168 324.5 668.668 325C667.168 325.5 665.168 326 663.668 326C661.168 326 658.668 325 656.668 323.5C654.168 322 652.168 320.5 649.668 320C647.168 319.5 645.168 319 642.668 317.5C638.168 315.5 635.668 312 635.668 307C636.168 300 637.168 293 638.668 286.5C638.668 284 639.168 281 640.668 278C641.668 275 642.168 271.5 642.668 268L651.168 236C651.668 234 652.168 232 652.668 229.5L657.168 215C660.668 205.5 663.668 197.5 665.168 190.5L667.168 185.5C671.668 172 675.168 163.5 677.168 159C679.168 154.5 680.668 150 682.168 145.5C683.668 141 685.168 137 686.668 133.5C688.168 130 689.668 127 691.168 123.5C692.168 120 695.168 112.5 700.668 100C702.168 95.5 704.168 91 706.168 86.5C708.168 82 711.168 80 715.668 80H716.668C727.668 81 736.668 85.5 743.668 93.5C744.668 95 745.168 96.5 745.668 98L746.168 104H745.168L745.668 120.5L743.168 162C742.668 167.5 742.168 173.5 742.168 179L741.668 213C741.668 221 742.168 229 743.168 237V245L745.168 265.5C745.668 268 746.668 269 749.168 269C760.168 270.5 768.168 275.5 773.668 284C775.168 286 775.668 288 776.168 290C776.168 292.5 775.168 294 773.668 294L771.668 293.5C769.668 293 767.668 292.5 766.168 292.5L757.168 294C757.168 294.5 757.168 294.5 756.668 294.5C753.168 295 751.168 296 751.168 297C751.168 298 751.668 299.5 752.168 301.5C754.668 311 758.668 320 765.168 328.5C766.168 330 766.668 331 766.668 331.5C766.668 333 765.168 334 762.168 334.5ZM684.168 286L685.168 285.5C697.668 280.5 706.168 277.5 709.668 277C713.168 276.5 714.668 275.5 714.668 274L714.168 272C712.668 267.5 712.168 263 711.668 258.5L711.168 256.5L708.168 237C707.668 233.5 707.168 230 706.668 226.5C706.168 223 705.668 219.5 705.668 215.5V212C705.668 214 705.168 215.5 704.668 216C702.668 219.5 701.668 223 701.168 227C698.168 241.5 693.168 257.5 686.168 275L682.668 285C682.668 285.5 682.668 285.5 683.168 285.5C683.668 286 683.668 286 684.168 286ZM649.168 385C647.168 385 645.168 384.5 643.668 383.5C635.668 379.5 630.168 373.5 627.668 365.5L627.168 362.5C627.168 359.5 629.168 357 633.168 355.5C641.668 351 650.168 348 659.668 345.5L678.668 340C694.168 335.5 706.668 332.5 716.168 331.5C717.668 331.5 718.668 331.5 719.668 331C720.668 330.5 721.168 330.5 721.668 330.5H722.668C729.168 330.5 735.168 332 740.668 335.5C746.168 339 749.668 343.5 751.168 349L751.668 352C751.668 352.5 751.168 353.5 750.668 354C750.168 354.5 749.168 355 748.668 355C747.168 355 746.168 354.5 745.168 354C743.668 353.5 742.668 353.5 741.668 353.5L737.668 354.5C736.168 355 734.168 355.5 732.168 356C722.168 359 706.168 365 683.668 374C671.668 379 663.168 382 658.668 383L649.168 385ZM747.273 427C744.773 427 742.273 425.5 738.773 422.5C735.273 419.5 733.273 415.5 733.273 410.5C733.273 403 739.273 394.5 751.273 385C760.273 377.5 765.773 373 767.773 371.5L768.273 370.5C767.773 370.5 767.773 370.5 767.273 370C766.773 370 766.273 369.5 765.773 369C765.273 368.5 764.273 367 763.773 365.5C763.273 364 762.773 361.5 762.273 358C762.273 346.5 764.773 325.5 769.773 296C778.773 243 793.273 190.5 813.273 139C829.273 97.5 842.273 72.5 852.273 63.5C853.273 63 854.273 62.5 855.773 62.5C857.273 62.5 858.273 63 859.773 63.5C871.273 69.5 876.773 76.5 876.773 85C876.773 92.5 873.273 103.5 865.773 117L858.773 132.5C841.273 173 827.773 209 817.273 239.5C806.773 269 796.773 307 786.773 353C786.773 353.5 786.773 354.5 786.273 356C785.773 357.5 785.273 360 785.273 363C785.273 363.5 785.273 364 785.773 364H786.273C793.273 359.5 809.273 352.5 834.273 343.5C847.273 339 858.773 336.5 868.273 336.5C874.773 336.5 881.773 337.5 888.273 339.5C894.773 341.5 899.773 347.5 903.273 357.5L903.773 360C903.773 361.5 902.773 363 900.773 364C898.773 365 894.773 366 888.773 367C881.273 368.5 871.773 370.5 859.773 374L842.273 380C816.773 388.5 801.773 394 797.273 396.5C791.773 398.5 785.773 401 778.273 404.5C759.273 414 749.773 420 749.773 423V424C749.773 426 748.773 427 747.273 427Z" fill="#B8D433"/>
</g>
<defs>
<filter id="filter0_d_69_1061" x="0" y="0" width="903.773" height="457" filterUnits="userSpaceOnUse" color-interpolation-filters="sRGB">
<feFlood flood-opacity="0" result="BackgroundImageFix"/>
<feColorMatrix in="SourceAlpha" type="matrix" values="0 0 0 0 0 0 0 0 0 0 0 0 0 0 0 0 0 0 127 0" result="hardAlpha"/>
<feOffset dx="-20" dy="20"/>
<feGaussianBlur stdDeviation="5"/>
<feComposite in2="hardAlpha" operator="out"/>
<feColorMatrix type="matrix" values="0 0 0 0 0 0 0 0 0 0 0 0 0 0 0 0 0 0 0.25 0"/>
<feBlend mode="normal" in2="BackgroundImageFix" result="effect1_dropShadow_69_1061"/>
<feBlend mode="normal" in="SourceGraphic" in2="effect1_dropShadow_69_1061" result="shape"/>
</filter>
</defs>
</svg>
