<svg width="780" height="995" viewBox="0 0 780 995" fill="none" xmlns="http://www.w3.org/2000/svg">
<path d="M548.502 849.365C513.311 841.792 479.992 828.518 446.316 816.58C474.914 802.326 501.908 785.577 527.12 763.572C547.522 745.754 530.862 711.633 505.65 711.722C423.331 712.078 346.446 691.498 269.117 665.217C195.885 640.272 121.317 596.172 42.3837 597.063C25.8131 597.242 13.8751 619.87 27.9512 631.808C89.0667 683.569 175.573 707.98 250.23 733.727C304.04 752.257 358.919 764.997 414.778 770.432C395.98 780.41 376.291 788.873 355.712 795.733C331.301 803.84 327.381 842.951 355.712 849.098C390.189 856.581 422.885 869.232 455.937 880.725C370.946 912.619 284.618 939.346 199.716 971.685C188.491 975.961 188.936 995.65 202.745 994.225C319.898 982.108 437.407 939.613 548.591 902.195C572.556 894.088 576.743 855.512 548.591 849.454L548.502 849.365Z" fill="#1D1D1B" fill-opacity="0.03"/>
<path d="M325.333 607.398C355.445 616.663 385.29 618.445 416.56 620.583C446.94 622.632 487.743 631.452 513.935 613.813C524.537 606.685 524.537 592.52 513.935 585.393C489.525 568.911 457.274 577.019 428.944 578.088C393.754 579.424 359.009 581.384 325.333 591.807C317.582 594.213 317.582 605.082 325.333 607.398Z" fill="#1D1D1B" fill-opacity="0.03"/>
<path d="M283.282 276.786C256.377 291.129 233.481 311.174 230.096 342.712C226.532 375.586 262.524 405.966 286.935 420.843C295.398 426.011 304.842 415.944 300.12 407.658C291.568 392.602 266.89 363.203 286.935 347.968C308.762 331.308 341.636 326.498 367.383 319.014C419.589 303.869 522.844 278.211 519.191 207.652C518.479 193.665 505.293 181.371 490.772 186.003C458.61 196.338 429.567 217.719 397.406 230.637C359.276 245.872 319.631 257.542 283.282 276.875L283.282 276.786Z" fill="#1D1D1B" fill-opacity="0.03"/>
<path d="M228.759 616.931C232.323 616.752 235.352 615.238 237.49 613.1C237.49 613.1 237.49 613.189 237.49 613.278C237.668 613.011 237.757 612.654 238.025 612.387C239.183 611.051 240.074 609.536 240.519 607.843C250.497 587.442 236.599 559.379 230.897 540.313C230.452 538.799 230.096 537.284 229.65 535.77C258.426 543.075 287.647 549.401 317.581 553.855C387.784 564.457 529.704 581.027 575.407 511.092C581.91 501.114 575.674 485.702 564.003 483.118C527.744 475.011 494.781 490.869 458.877 497.461C408.542 506.727 354.375 503.252 303.773 499.421C275.175 497.194 246.31 493.898 217.356 489.8C214.059 476.347 211.03 462.806 208.18 449.264C227.601 455.411 247.112 461.291 266.8 466.636C329.074 483.652 484.446 518.932 520.171 438.751C524.715 428.595 519.726 411.401 505.56 413.183C468.499 417.904 436.16 433.584 397.673 434.475C341.903 435.9 284.975 421.29 231.165 408.105C220.296 405.432 209.516 402.581 198.736 399.641C196.954 389.663 195.172 379.685 193.48 369.707C174.504 254.247 165.327 130.591 105.281 27.2467C92.4522 5.15252 61.9836 20.7431 66.1708 43.7282C86.2159 154.645 98.6885 266.719 119.714 377.458C111.874 375.23 104.034 373.092 96.1049 370.954C72.318 364.629 36.2367 348.236 13.5189 364.273C11.8262 365.52 10.9353 367.658 12.0934 369.618C27.8623 395.187 73.2979 401.512 99.4012 411.401C109.201 415.143 119.09 418.706 128.979 422.27C133.344 441.157 138.511 459.687 144.659 477.862C98.6885 469.576 52.9855 460.044 8.35167 450.155C-0.200924 448.284 -3.49724 460.4 4.78809 463.251C56.7273 480.891 107.419 499.243 158.735 515.368C165.149 530.959 172.009 546.461 179.76 561.606C186.531 574.791 207.912 617.91 228.67 616.663L228.759 616.931Z" fill="#1D1D1B" fill-opacity="0.03"/>
<path d="M722.582 10.2298C674.117 71.4344 677.057 151.348 679.908 228.856C642.401 187.073 617.723 136.559 606.765 77.8488C598.213 32.4131 530.861 52.1911 538.167 96.7358C539.681 106.09 541.641 115.266 543.779 124.265C596.698 378.17 635.363 631.986 669.396 889.098C671.088 901.749 687.659 901.927 689.262 889.098C712.426 696.219 685.521 499.688 650.33 306.631C665.565 321.331 682.046 335.229 699.686 348.236C718.751 362.312 753.407 348.414 757.149 324.894C763.83 282.398 764.9 240.526 764.989 197.585C765.078 142.171 777.372 88.8959 779.599 33.9276C780.668 6.66623 740.934 -12.9335 722.582 10.3189L722.582 10.2298Z" fill="#1D1D1B" fill-opacity="0.03"/>
</svg>
