<svg width="684" height="229" viewBox="0 0 684 229" fill="none" xmlns="http://www.w3.org/2000/svg">
<path d="M14.0229 228.746L11.9779 228.453C6.42726 227.577 2.92158 225.532 1.75302 222.903C0.584462 220.274 0.000182465 216.476 0.000182465 210.925C0.000182465 194.565 0.876602 179.958 2.92158 167.104C3.50586 162.43 3.798 158.632 3.798 156.003C3.798 153.958 3.50586 152.205 2.92158 151.329C2.04516 150.452 1.46088 149.284 0.876602 147.823V146.946C0.876602 145.778 1.75302 145.194 3.50586 145.194C4.38228 145.194 5.2587 144.902 5.55084 144.025C6.42726 135.845 7.88796 127.665 9.64079 119.485L14.315 99.0356C14.6072 96.6985 14.8993 95.2378 15.1914 94.6535C15.1914 94.0692 15.4836 92.9006 16.0679 91.1478C17.2364 87.6421 17.8207 84.7207 17.8207 82.6757C17.8207 81.215 17.5286 79.4622 16.9443 78.0015C16.0679 76.5408 15.7757 75.0801 15.7757 73.0351C15.7757 71.5744 16.6521 69.8216 18.1128 67.4845C19.5735 65.4395 21.6185 63.3945 24.2478 61.3495C25.1242 60.4731 25.7085 59.5967 26.0006 58.7203C26.2928 57.8439 26.5849 57.2596 26.877 56.6753C28.3377 54.6303 29.7984 53.4618 31.2591 53.4618C31.8434 53.4618 32.4277 53.4618 33.3041 53.7539C33.8884 54.046 34.7648 54.046 35.6412 54.046C36.8098 54.046 38.2705 53.7539 39.7312 53.4618C48.2032 50.2482 56.091 48.7875 63.3945 48.7875C72.1587 48.7875 80.0465 51.1246 86.7657 55.5067C98.1591 62.8102 104.002 73.9116 104.002 88.2264C104.002 95.2378 102.833 101.957 100.204 108.676C99.3277 111.305 98.4513 113.35 97.5749 114.811L96.6984 116.272C94.6535 120.654 92.0242 124.744 88.8107 128.542L87.6421 130.002C85.5971 132.632 82.9679 135.261 80.3386 137.598C74.4958 142.564 69.8216 146.07 66.608 148.115C65.7316 148.407 65.1473 148.991 64.5631 149.576C63.9788 150.16 63.3945 150.744 62.8102 151.036C49.0797 159.216 38.2705 163.891 29.7984 165.351C27.4613 165.643 25.7085 166.228 24.8321 167.104C23.6635 167.981 22.2028 173.531 20.7421 183.756L16.9443 213.262C16.9443 214.139 17.5286 214.723 18.6971 215.307C19.8657 216.184 20.45 217.06 20.45 217.936C20.45 218.521 20.45 219.105 20.1578 219.981C19.8657 220.858 19.5735 221.442 19.2814 222.319C18.1128 226.701 16.36 228.746 14.0229 228.746ZM30.0906 148.407L31.8434 147.823C39.439 143.441 46.7425 137.306 54.046 129.418C62.2259 120.362 68.0687 111.598 71.8666 102.541C72.4508 101.665 72.743 101.081 73.0351 100.496C73.3273 100.204 73.6194 99.3277 74.2037 98.4513C74.788 97.5749 75.3722 96.4063 75.9565 94.9456C76.2487 93.4849 77.1251 91.4399 78.2936 88.8107L80.3386 81.5072C81.5072 76.5408 82.0915 73.0351 82.0915 70.698C82.0915 68.653 81.5072 67.1923 80.3386 66.6081C77.4172 65.7316 74.2037 65.4395 70.4059 65.4395C64.2709 65.4395 56.6753 66.3159 47.9111 68.3609C47.0347 68.653 46.4504 69.2373 46.4504 69.5295C46.1583 70.1137 46.1583 70.698 45.8661 71.5744C45.8661 73.0351 45.574 76.2487 44.6976 80.6308L41.1919 96.6985L40.8997 98.4513L38.2705 110.721C37.3941 112.766 36.8098 115.395 36.5177 118.609C35.9334 121.822 35.057 124.744 34.1805 127.665C33.8884 129.126 33.5963 130.295 33.3041 131.463C33.012 132.924 32.7198 134.384 32.4277 135.845C31.8434 137.306 31.2591 139.059 30.967 140.812C30.6749 142.564 30.0906 144.317 29.5063 146.362L29.2142 147.239C29.2142 148.115 29.5063 148.407 30.0906 148.407ZM109.854 205.374C106.64 205.082 103.427 204.206 100.798 202.161C98.1683 200.116 96.4154 196.902 95.8311 191.936V183.464C95.8311 179.666 96.1233 174.992 96.7076 169.149L96.9997 166.228L96.7076 165.351C95.2469 164.475 93.7862 163.598 92.6176 162.43C89.9883 160.677 88.8198 158.632 88.8198 156.587C88.8198 155.126 89.6962 154.25 91.449 153.374C93.2019 152.497 94.0783 151.621 94.0783 150.744C94.0783 150.452 94.0783 150.16 93.7862 149.868C93.7862 148.407 94.0783 147.239 94.6626 146.946C94.9547 146.654 95.539 146.362 95.8311 146.362L98.7525 146.946C99.0447 146.946 99.629 146.362 99.9211 144.902C100.213 142.272 100.505 139.935 100.798 137.598L101.674 132.924C101.966 129.126 102.842 125.036 103.719 121.238C105.764 111.013 107.225 103.126 108.685 97.5749C110.146 92.3164 111.607 87.0578 113.36 81.7993C113.36 81.215 112.775 80.3386 111.315 78.8779C109.854 78.0015 108.977 77.1251 108.393 75.6644C108.101 75.3722 107.809 74.788 107.809 73.9116C107.809 73.0351 108.101 71.8666 108.977 70.4059C112.191 65.7316 115.697 62.226 120.079 59.5967C122.708 57.8439 124.753 56.091 126.214 54.3382C126.506 54.046 128.551 52.8775 132.641 51.4168C143.158 47.619 152.798 45.8661 161.855 45.8661H169.743C173.54 46.1583 178.215 47.9111 183.181 51.1246C188.147 54.6303 191.361 60.4731 193.406 68.3609V70.1137C193.406 79.4622 187.563 89.9792 176.17 101.665C164.776 113.35 153.091 123.867 141.405 132.924C134.394 138.474 129.719 142.564 127.09 145.194C139.068 143.441 150.169 140.227 160.394 135.553C171.787 130.587 179.967 126.497 185.226 122.699L187.271 121.238C187.563 121.238 187.855 121.238 188.147 121.238C188.439 121.53 188.732 121.53 189.024 121.822C189.316 122.115 189.316 122.407 189.316 122.699C191.945 124.452 193.114 126.497 193.114 128.834C193.114 130.002 192.822 131.171 191.945 132.047C185.81 138.767 178.507 144.025 170.327 148.407C156.012 156.295 144.911 160.969 137.023 162.722C130.596 164.183 125.045 164.767 120.663 164.767C118.034 164.767 116.281 165.059 115.112 165.643C113.944 166.228 113.067 171.486 112.191 181.419C111.899 183.756 111.607 186.385 111.315 189.599C111.022 190.767 111.022 192.812 111.022 195.734C111.022 198.655 111.315 200.408 111.899 200.992C112.191 201.869 112.483 202.453 112.483 203.037C112.483 204.498 111.607 205.374 109.854 205.374ZM123.877 123.867L124.753 122.699C129.135 118.901 134.978 113.058 142.281 105.755C149.585 98.4513 156.888 91.1478 163.608 83.5522C170.327 76.2487 174.709 70.1137 176.754 65.4395L177.046 65.1473C177.63 64.2709 177.922 63.3945 177.922 62.8102C177.922 62.5181 177.922 62.226 177.63 61.9338C177.338 61.6417 176.462 61.6417 174.709 61.3495C171.787 61.0574 168.866 60.7653 166.237 60.7653C158.349 60.7653 150.753 62.226 143.45 64.8552C141.989 65.1473 141.405 66.0238 141.113 67.4845C140.821 68.9452 140.529 70.1137 139.944 71.2823C139.068 73.6194 138.191 75.9565 137.899 78.0015C137.315 80.0465 136.731 82.0915 135.854 84.1364L133.225 92.3164L131.472 97.867C127.674 108.968 125.337 117.733 123.877 123.867ZM218.881 156.295C209.241 156.295 200.477 151.621 192.297 142.272C187.622 136.429 184.993 130.587 184.701 125.036C184.409 124.16 184.409 122.991 184.409 120.946C184.409 119.485 184.701 117.733 184.993 115.98C185.285 114.227 185.285 112.474 185.285 111.013C185.285 109.553 185.577 108.384 186.162 107.508V107.215C187.038 105.755 187.622 104.002 188.207 101.957C188.499 100.204 189.083 98.4513 189.959 96.4063C196.387 80.9229 202.814 68.9452 209.533 60.4731C210.409 59.5967 210.701 58.4281 210.701 57.2596C210.701 56.6753 210.701 56.091 210.409 55.2146C210.117 54.3382 209.825 53.7539 209.825 52.8775C209.825 52.0011 210.117 51.4168 210.994 50.5404C211.578 49.664 212.746 49.3718 214.499 49.3718H216.544C218.297 49.3718 220.05 49.0797 221.803 48.4954C223.263 48.2033 224.432 47.9111 225.308 47.9111C228.522 47.9111 231.151 49.664 233.488 53.1696C234.365 54.6303 236.118 55.5067 238.163 56.091C240.208 56.9674 243.713 58.7203 249.264 61.3495C261.826 66.6081 270.59 75.9565 275.264 89.1028C276.433 92.6085 277.017 96.1142 277.017 99.912V102.541C276.141 114.519 271.466 125.036 262.994 134.384L256.859 140.227C255.107 141.688 253.062 143.149 251.017 144.609L247.803 146.654C244.005 149.284 240.208 151.036 236.118 152.497C229.983 155.126 224.432 156.295 218.881 156.295ZM205.151 133.8C206.611 133.508 208.072 133.216 209.533 132.924C214.207 132.632 219.466 130.879 225.016 127.957C234.949 122.699 242.837 116.564 248.387 109.553C251.601 106.047 254.23 101.957 256.275 96.9906C258.32 92.3164 259.197 88.5185 259.197 85.5971C259.197 81.7993 252.77 76.8329 239.915 71.2823L235.533 69.2373L234.365 68.9452L233.488 69.2373C231.443 70.4059 229.398 73.0351 227.061 77.1251L225.308 79.7543C222.679 83.5522 220.342 87.35 218.005 91.1478L216.544 93.777C215.376 95.822 214.499 97.5749 213.623 99.6198C212.746 101.665 211.578 103.71 210.701 105.171L210.409 106.339C209.533 107.8 208.656 109.26 208.072 110.721C207.196 113.935 206.027 116.856 205.151 120.07C204.274 123.283 203.398 127.081 203.106 131.755C203.106 133.216 203.398 133.8 203.982 133.8H205.151ZM194.926 198.655C192.881 198.655 191.42 198.071 189.959 197.195C184.993 193.981 181.78 189.599 180.319 184.633C180.027 183.756 179.735 182.588 179.735 181.711C179.735 181.127 180.027 180.25 180.319 179.374C180.611 178.498 183.532 177.037 188.499 175.284C191.712 173.823 195.51 172.363 199.308 171.486C200.769 171.194 201.937 170.902 203.106 170.61C207.196 169.733 211.286 169.149 215.668 168.857C218.589 168.565 221.511 168.273 224.432 167.981C227.353 167.688 230.275 167.688 233.488 167.688C238.163 167.104 244.59 166.812 253.062 166.812L255.691 167.104C258.32 167.104 261.242 167.396 263.871 167.688C268.253 168.857 272.051 171.486 274.68 175.576C276.433 177.913 277.309 180.25 277.309 182.88C277.309 183.756 276.725 184.34 275.849 184.34H274.68C272.927 184.048 271.174 183.756 269.421 183.756C263.871 184.048 258.028 184.633 252.477 185.509L244.297 187.262C239.331 188.138 234.657 189.015 229.69 190.183L224.14 191.352L211.286 194.857C209.825 195.442 208.072 196.026 206.027 196.318C203.982 196.61 201.645 197.195 199.308 198.071C197.847 198.363 196.387 198.655 194.926 198.655ZM226.185 120.07H225.308C222.679 119.193 220.926 117.733 219.466 115.688C218.005 113.643 217.421 111.598 217.421 108.968C217.421 106.631 217.713 105.171 218.005 104.294C218.881 100.496 220.342 96.4063 222.679 92.3164L224.432 89.1028V88.5185C225.893 85.8893 227.938 83.8443 231.151 82.3836C231.443 82.0915 231.735 82.0915 232.028 81.7993C232.32 81.7993 232.904 81.7993 233.196 81.7993L234.365 82.0915C237.578 83.8443 239.915 86.4736 241.376 89.6871L241.668 92.0242C241.668 92.6085 241.668 93.1928 241.376 93.4849C241.084 93.777 241.084 94.0692 241.084 94.3613C240.5 96.4063 239.331 98.4513 237.87 100.496C234.657 104.294 232.32 107.215 230.859 109.845C228.814 113.35 227.646 115.688 227.646 116.856V118.609C227.646 119.485 227.061 120.07 226.185 120.07ZM312.825 210.925C304.937 210.925 297.926 208.588 291.499 203.622L287.701 200.7C285.656 198.947 283.903 196.902 282.442 194.273L282.15 193.689C281.274 192.812 280.397 191.644 279.521 190.183C273.97 177.913 270.757 165.351 270.465 152.497L270.172 143.441C270.172 134.092 271.341 124.744 273.97 115.103C274.262 114.227 274.554 113.35 275.139 112.182C275.723 111.305 276.015 110.137 276.307 108.676C276.307 108.092 276.599 107.508 276.892 107.215L278.937 105.171C280.982 102.249 283.611 100.788 286.532 100.788C292.083 100.788 297.049 102.833 300.847 107.215C302.016 108.676 302.6 110.137 302.892 111.598C302.892 113.058 302.6 114.811 302.308 116.564C301.139 122.115 299.386 127.373 297.049 132.924C296.173 135.261 295.881 137.598 295.881 139.643L295.589 147.823V155.419C295.881 161.846 297.049 168.565 298.51 175.868C298.802 177.329 299.094 179.082 299.386 180.835C300.263 183.756 301.139 186.385 302.6 189.015C303.768 192.228 304.645 193.981 305.521 193.981C306.106 193.981 306.69 193.689 307.274 192.812C309.903 190.183 312.825 185.509 316.33 178.498L321.005 167.981C321.881 166.52 322.758 164.767 323.05 163.014C323.342 161.261 323.634 159.508 324.51 158.048L327.432 149.576L328.892 144.317C329.769 141.104 330.645 137.598 331.23 134.092C331.23 133.216 331.23 132.632 331.522 131.755C331.814 130.879 332.106 130.002 332.398 128.542C332.69 127.373 332.982 125.912 333.275 124.452L334.735 115.103C335.32 113.058 335.612 111.305 335.904 109.26C335.904 107.508 336.196 106.047 336.488 104.586C337.072 101.081 337.365 97.5749 337.657 94.3613C337.949 92.3164 338.241 89.9792 338.533 87.6421C338.825 85.5971 339.117 83.26 339.409 80.6308C339.409 78.0015 339.409 75.6644 339.702 73.3273V72.743C339.702 71.8666 339.409 71.5744 338.825 71.2823C337.949 70.9902 337.365 70.698 336.78 70.1137C335.904 69.5295 335.32 69.2373 334.443 69.2373C332.982 69.2373 331.814 69.5295 330.645 70.4059C329.185 71.2823 328.016 71.8666 326.555 72.1587C325.095 72.4509 323.634 73.0351 322.465 73.3273C321.297 73.9116 320.128 74.4958 318.668 74.788C317.207 75.0801 315.746 75.6644 314.578 76.2487C313.409 76.8329 311.656 77.1251 309.611 77.1251C307.858 77.4172 306.106 77.7094 304.353 77.7094C299.386 77.7094 295.004 75.9565 290.914 72.743C288.577 71.2823 287.409 69.5295 287.409 67.4845C287.409 66.3159 287.993 65.4395 289.161 64.8552C289.454 64.8552 289.746 64.5631 290.33 64.2709C290.622 63.9788 291.206 63.9788 292.083 63.9788C295.004 63.1024 297.633 62.226 300.263 60.7653C301.723 59.8888 303.476 59.0124 305.229 58.136L313.701 54.9225C318.083 52.8775 325.679 49.664 337.072 45.8661C342.331 44.4054 347.589 42.9447 353.14 41.7762C362.196 39.7312 369.792 38.5626 375.635 38.5626C378.848 38.5626 381.77 39.1469 384.983 40.6076C389.95 42.6526 393.747 46.1583 395.792 51.1246L396.085 53.1696C396.085 54.3382 395.792 55.5067 394.916 56.3832C394.04 57.2596 392.579 57.8439 390.534 57.8439C387.905 57.8439 385.275 56.9674 382.646 55.2146C381.77 54.3382 380.893 54.046 380.017 54.046C379.433 54.046 378.848 54.046 378.556 54.3382C377.972 54.6303 377.388 54.9225 377.096 54.9225H376.511L374.758 55.2146L369.208 56.9674C366.578 57.8439 363.949 58.7203 361.32 59.8888C361.028 60.181 360.736 60.181 360.444 60.181C360.151 60.181 359.859 60.181 359.859 60.4731C358.399 60.7653 357.522 61.0574 357.522 61.9338L357.814 63.6867C358.106 66.0238 358.399 68.3609 358.399 70.698C358.399 72.1587 358.399 73.3273 358.691 74.4958C358.983 75.6644 358.983 76.8329 358.983 78.0015L358.691 81.5072L358.399 93.777C358.399 96.4063 358.399 99.0356 358.106 101.373C357.814 104.002 357.814 106.339 357.522 108.676L356.646 118.025L354.893 134.677C354.309 141.98 353.432 148.115 352.556 152.789L351.679 158.632C350.803 162.138 349.927 165.643 348.758 169.441C347.297 175.868 344.96 182.003 341.747 188.138L340.87 189.891C339.409 192.812 337.365 195.734 335.32 198.363C329.477 206.835 321.881 210.925 312.825 210.925ZM386.337 147.239C385.752 147.239 385.168 146.946 384.584 146.654C379.91 144.609 376.696 141.396 374.943 136.429C374.651 135.845 374.651 135.261 374.651 134.384C374.651 133.508 374.943 132.34 375.528 131.171C378.157 127.373 381.662 124.16 386.045 122.115C390.427 120.07 393.932 117.44 397.146 113.935C402.112 108.676 407.663 104.002 413.798 99.6198C419.933 95.5299 426.068 91.1478 432.203 86.7657C434.248 85.8893 435.416 85.0129 436.293 84.1364C434.832 84.1364 433.956 84.4286 433.663 84.7207C433.079 85.0129 432.787 85.305 432.495 85.305C429.281 87.0578 425.776 88.2264 422.27 88.5185C421.393 88.8107 420.517 89.1028 419.641 89.6871H419.349C418.18 90.2714 417.011 90.5635 415.843 90.8557C414.382 91.1478 413.214 91.7321 412.337 92.3164C409.708 93.1928 407.079 94.0692 404.449 94.6535L398.607 95.822C396.269 95.822 394.225 94.9456 392.764 93.4849C389.842 91.4399 387.797 88.5185 386.337 85.0129C386.045 84.1364 385.752 82.9679 385.752 82.0915C385.752 80.6308 386.337 79.4622 387.797 78.0015C390.427 75.3722 392.764 73.9116 395.393 73.0351C399.483 70.9902 403.573 69.2373 407.955 68.0688C415.843 65.7316 420.517 64.2709 422.562 63.9788C423.731 63.6867 424.899 63.6867 426.068 63.3945C426.944 63.3945 429.866 62.8102 434.54 61.6417C435.416 61.6417 436.293 61.6417 437.169 61.3495L445.057 59.8888C446.518 59.5967 447.978 59.3046 449.439 59.0124C456.158 58.136 461.709 57.5517 465.507 57.5517C467.552 57.8439 469.304 58.7203 470.765 59.8888C473.979 62.5181 475.731 65.7316 476.608 69.5295V70.698C476.608 72.743 475.731 73.6194 473.979 73.6194L471.057 73.0351H470.181C466.383 73.9116 462.001 75.9565 457.619 79.1701C443.304 87.9343 429.866 97.2827 416.719 107.215L415.843 107.508C414.966 108.092 414.382 108.968 413.506 109.845C416.135 108.676 418.472 107.8 421.101 107.215L425.191 105.755L438.63 101.373L442.135 100.496C453.821 96.4063 462.877 94.0692 469.304 93.4849C471.057 93.4849 472.518 94.0692 473.979 95.2378C476.316 97.2827 478.069 99.6198 478.945 102.249L479.237 104.002C479.237 105.463 478.361 106.631 476.608 106.923C471.057 108.384 465.507 110.137 459.956 112.182C454.405 114.519 449.147 116.856 444.18 118.901C438.922 120.946 435.708 122.407 434.54 123.283C431.618 124.744 427.528 126.497 422.562 128.834C417.304 131.171 412.629 133.508 408.247 136.137L395.101 143.149C390.135 145.778 387.213 147.239 386.337 147.239ZM377.28 192.228C376.404 192.228 375.235 191.936 374.067 191.644C370.561 190.183 367.932 187.554 365.887 183.756C365.303 182.88 365.011 181.711 365.011 180.835C365.011 179.374 366.179 177.329 368.224 175.284C369.393 173.531 371.73 171.194 375.528 168.273C378.157 165.936 380.494 164.183 382.539 163.306C386.337 160.677 389.258 158.924 391.303 158.048C392.472 157.756 393.932 157.171 395.393 156.295C397.73 154.834 400.067 153.958 402.404 153.081C404.449 152.497 406.494 151.913 408.539 151.036L418.764 147.823C425.483 145.486 432.495 143.441 439.214 141.688C454.697 137.89 463.754 135.845 466.383 135.845H468.136C472.518 137.014 476.024 139.643 478.069 144.025C478.945 145.486 479.529 146.946 479.821 148.991C479.821 151.036 478.945 152.205 477.484 152.205C477.192 152.205 476.608 151.913 475.731 151.621C474.855 151.329 473.979 151.329 472.81 151.329C471.642 151.329 470.473 151.621 469.304 151.913C467.844 152.205 466.383 152.789 464.922 153.081C459.956 154.25 454.697 155.711 449.731 157.756C444.765 159.216 440.967 160.385 438.922 161.553C436.585 162.722 433.956 163.891 431.326 164.767C427.821 165.936 424.607 167.104 421.393 168.565C418.18 170.026 415.259 171.778 412.629 173.239C409.708 174.7 406.787 176.16 404.157 177.621C401.236 179.082 398.899 180.25 397.146 181.419C396.854 181.711 396.269 182.003 395.685 182.295L391.887 184.925L381.078 191.352C379.91 191.936 378.741 192.228 377.28 192.228ZM513.046 202.161C508.663 202.161 503.989 201.577 499.023 200.408C481.494 194.857 472.73 181.127 472.73 159.801C472.73 150.452 475.359 137.89 480.326 121.822C485.292 106.047 493.472 90.8557 504.866 76.2487C515.675 63.6867 524.731 57.5517 532.619 57.5517C535.248 57.5517 538.17 58.4281 541.091 59.8888C542.259 60.181 543.136 60.4731 543.72 60.4731C544.012 60.4731 544.304 60.181 544.597 59.8888C551.9 41.484 558.619 32.1356 564.462 32.1356C566.799 32.1356 569.428 33.3041 572.058 35.6412C573.518 36.8098 574.103 38.2705 574.103 40.0233C574.103 41.484 572.934 44.9897 570.597 50.2482L565.923 61.0574C565.046 63.6867 563.878 66.0238 562.709 68.0688C561.541 70.4059 560.372 72.743 559.496 75.0801L557.743 78.5858C551.024 93.4849 547.518 104.002 547.518 110.137C547.518 113.35 548.394 115.395 550.147 116.564C550.439 116.856 551.024 117.148 551.608 117.733C552.192 118.317 552.484 118.901 552.484 119.777C552.484 120.07 552.484 120.654 552.192 120.946C551.9 121.53 551.608 121.822 551.316 121.822C551.024 121.822 550.732 121.822 550.439 121.822H549.563C545.181 121.238 541.675 119.777 538.754 117.148C535.54 114.811 533.495 112.182 532.619 109.553C532.327 108.092 532.035 106.339 532.035 104.294C532.035 99.0356 533.495 92.0242 536.125 83.5522L537.293 79.4622C534.372 81.5072 529.113 88.2264 521.81 99.3277C514.506 110.721 507.787 123.575 501.944 137.89C497.854 148.115 495.809 157.464 495.809 166.228C495.809 174.115 497.27 179.958 499.899 183.756C502.528 187.846 506.618 189.891 512.461 189.891C520.057 189.891 527.36 184.048 534.08 172.655C538.462 165.351 541.967 161.553 545.181 161.553C546.642 161.553 548.394 162.43 550.439 164.183C550.732 164.475 551.024 165.351 551.024 166.228C551.024 167.688 550.439 170.318 549.563 174.115C548.687 177.913 546.349 182.295 542.552 187.554C538.754 192.812 533.495 196.902 526.192 199.824C522.394 201.284 518.012 202.161 513.046 202.161ZM594.788 226.116L592.45 225.824C588.653 224.656 585.147 222.611 582.518 219.397C574.63 211.802 570.54 201.869 570.54 189.307L570.248 183.172V172.947C570.248 169.441 570.832 161.846 572.001 150.16L574.338 130.587C574.63 127.957 574.922 125.62 575.214 123.283C575.506 121.238 575.506 119.193 575.798 117.44L579.012 96.4063L583.394 69.5295C583.978 65.1473 584.563 61.3495 585.439 58.4281C585.439 58.136 583.978 57.8439 580.765 57.8439C577.259 57.8439 574.922 58.136 574.046 58.4281C573.169 58.7203 572.001 59.0124 570.832 59.0124C567.911 59.0124 565.574 57.5517 563.529 54.6303C561.484 51.7089 560.315 48.7875 560.315 46.1583C560.315 44.1133 561.191 42.3605 562.944 41.484C563.821 41.1919 564.697 40.6076 565.574 40.0233C566.45 39.4391 567.619 38.8548 568.495 38.2705C569.371 37.9784 571.124 37.3941 573.753 36.8098C576.091 36.2255 578.428 35.6412 580.765 35.057C583.102 34.4727 584.563 34.1805 585.439 33.8884C586.316 33.8884 586.9 33.8884 587.192 33.5963C588.36 33.3041 589.237 33.012 590.113 32.4277C590.99 32.1356 591.574 30.967 591.866 29.2142C592.158 27.7535 592.45 26.0006 593.035 24.2478C593.327 22.7871 593.911 21.3264 594.203 19.8657C594.495 18.405 595.08 17.2364 595.664 16.36C596.248 15.4836 596.54 14.315 596.833 13.1465C597.709 9.93293 599.17 6.7194 601.215 3.79801C602.675 1.16875 604.428 0.000189682 606.473 0.000189682C607.35 0.000189682 608.226 0.292326 609.102 0.584479C614.653 2.04518 618.451 5.55084 620.788 10.8094C621.08 11.6858 621.372 12.5622 621.372 13.7308V14.6072C620.496 21.3264 620.204 24.5399 619.912 24.8321V25.1242C619.912 26.0006 620.204 26.2928 621.08 26.2928H621.957C626.631 25.1242 634.519 23.9557 645.912 22.495C653.8 21.6185 659.058 21.0343 662.272 21.0343C666.07 21.3264 669.283 22.7871 671.912 25.4164C675.126 28.6299 677.171 32.7198 678.047 37.1019L678.34 38.2705C678.34 39.7312 678.047 40.6076 677.171 40.8997C676.295 41.484 675.71 41.7762 674.834 41.7762C673.957 41.7762 673.373 41.484 672.497 40.8997C671.62 40.6076 670.452 40.3155 668.991 40.3155C667.822 40.3155 666.654 40.3155 665.778 40.6076C664.901 40.8997 663.733 40.8997 662.856 40.8997C658.182 41.1919 653.508 42.0683 648.833 42.9447L637.732 44.6976C627.507 45.8661 619.912 47.0347 614.945 48.4954C613.777 48.7875 613.192 49.664 613.192 51.1246C612.9 53.1696 612.316 55.2146 611.732 56.9674C610.271 61.9338 609.102 67.1923 608.226 72.4509C607.35 75.6644 606.473 78.5858 606.181 81.5072C605.597 84.7207 605.012 87.6421 604.136 90.2714C603.26 92.0242 602.967 94.0692 602.675 96.1142C602.675 97.5749 602.091 101.081 600.922 106.923C600.046 110.429 599.462 114.227 598.878 118.025C598.293 122.115 597.417 126.205 596.54 130.587C594.203 143.733 593.035 151.329 592.743 153.374C592.45 155.419 592.158 157.464 591.866 158.924C591.282 162.138 590.698 166.812 590.405 172.655C590.113 174.7 589.821 176.745 589.529 178.79C589.237 180.835 588.945 183.172 588.945 185.509C588.945 186.97 588.945 188.138 588.653 189.307L588.36 195.442C588.36 199.824 588.653 203.914 589.237 208.004C589.529 212.97 591.574 217.352 595.08 221.15C596.248 222.319 596.833 223.195 596.833 223.779C596.833 225.24 596.248 226.116 594.788 226.116ZM612.042 194.857C606.199 194.857 602.109 193.981 599.48 191.936C597.727 191.06 596.851 189.891 596.851 188.722V188.138C597.435 186.093 598.604 185.217 600.649 184.925L602.109 184.633L606.199 184.925C609.413 184.925 611.75 184.633 613.211 183.756C618.177 182.88 622.851 181.419 627.525 179.958L628.694 179.666C632.784 178.498 636.582 176.745 640.087 174.408L640.38 174.115C644.762 171.194 646.807 168.565 646.807 165.936C646.807 164.475 646.222 162.722 645.054 160.677C643.593 158.924 642.425 157.171 640.964 155.419C633.66 145.778 628.402 135.553 625.773 125.328C623.728 119.193 622.851 112.766 622.851 106.339C622.851 96.6985 624.312 88.2264 627.233 80.3386L627.525 79.7543C629.278 74.788 631.031 71.5744 633.076 69.5295C638.627 61.6417 644.47 57.8439 651.189 57.8439C653.234 57.8439 654.987 58.136 657.032 58.7203C657.324 59.0124 657.616 59.0124 657.908 59.0124C658.2 59.0124 658.492 59.0124 658.784 59.3046C659.661 59.3046 659.953 59.0124 659.953 58.4281C661.414 52.2932 664.043 49.0797 667.256 49.0797H668.425C674.56 49.664 679.526 52.2932 683.324 57.2596C683.616 57.5517 683.908 58.4281 683.908 59.8888C683.908 62.8102 682.74 67.7766 680.695 74.4958C678.942 78.2936 677.481 82.0915 676.313 85.8893L675.729 87.35C673.976 92.9006 672.515 98.1591 671.346 103.71C671.054 105.171 670.762 106.339 670.47 107.508C669.594 111.013 669.009 114.519 668.425 118.317C668.133 120.654 667.256 121.822 665.504 121.822L664.043 121.53C659.077 120.654 656.447 118.609 655.863 115.688C655.279 112.766 654.987 109.845 654.987 107.215C654.987 101.957 655.279 95.5299 656.155 87.6421L657.324 79.7543H657.032C656.739 79.7543 656.447 80.0465 656.155 80.9229C653.526 85.5971 651.189 90.8557 649.436 96.4063C647.391 102.249 646.515 108.384 646.515 114.811C646.515 122.115 647.099 127.665 648.267 131.755L649.144 134.384C651.481 142.857 655.863 150.16 661.998 156.295C667.549 161.261 670.47 165.936 670.762 170.026C670.762 172.363 669.886 174.7 668.425 176.745C665.212 180.835 661.122 183.756 656.155 185.801C649.436 188.722 642.132 190.767 634.829 191.644C626.941 193.105 621.975 193.981 619.346 193.981C617.008 194.565 614.671 194.857 612.042 194.857Z" fill="#B8D433"/>
</svg>
