<svg width="991" height="531" viewBox="0 0 991 531" fill="none" xmlns="http://www.w3.org/2000/svg">
<path d="M424.655 218.739C388.15 207.241 335.979 243.124 373.969 278.624C385.563 289.451 401.42 285.762 408.942 274.647C410.044 276.612 412.583 277.905 416.655 278.528C422.931 281.163 428.967 284.277 434.716 287.918C447.699 295.727 458.047 300.086 458.43 316.614C459.053 342.389 423.937 355.324 400.797 356.713C359.405 359.204 327.355 331.37 316.624 295.104C322.948 295.583 329.272 296.062 335.595 296.685C357.25 298.793 362.424 262.191 340.769 258.407C331.763 256.826 322.804 255.341 313.845 253.951C320.073 209.11 348.818 163.406 382.832 134.997C404.822 116.696 480.707 74.2023 498.577 120.96C501.93 129.775 516.111 129.248 515.919 118.613C515.392 82.5862 487.414 63.9501 453.208 60.1654C407.696 55.1352 361.705 83.9755 330.421 114.54C295.066 149.082 267.854 197.852 260.285 247.005C258.8 246.861 257.362 246.669 255.877 246.526C254.105 203.457 262.441 69.6511 262.393 68.5493C262.201 61.6506 256.308 54.3686 248.835 54.9914C221.671 57.1473 215.395 85.6043 205.718 107.498C187.849 147.932 171.895 189.18 155.942 230.381C154.218 234.836 152.541 239.34 150.864 243.795C102.909 245.184 43.1201 246.142 5.94386 275.797C-5.84138 285.187 1.39265 305.308 14.6151 308.662C49.396 317.429 90.5485 308.039 129.114 301.044C105.639 363.851 83.027 426.993 60.8938 490.279C53.7076 510.831 72.3437 529.899 91.7462 530.761C118.239 531.959 138.935 513.035 138.312 486.063C138.216 481.512 136.156 477.009 133.09 473.559C151.583 413.723 170.458 354.03 188.998 294.242C193.981 293.954 199.011 293.762 204.041 293.571C202.892 331.993 199.682 376.259 229.145 404.093C236.618 411.136 247.685 414.873 257.794 411.663C259.854 411.04 261.866 410.369 263.926 409.747C275.855 405.962 283.28 393.889 279.975 381.481C275.615 365.049 264.165 354.653 261.674 337.215C259.566 322.603 258.704 307.656 258.081 292.708C258.512 292.708 258.943 292.708 259.375 292.708C263.399 325.86 278.49 357.192 308.336 382.152C345.129 412.861 395.624 421.723 441.04 406.68C480.18 393.698 525.309 357.863 524.111 312.446C522.866 265.928 463.508 230.908 424.655 218.643V218.739Z" fill="black" fill-opacity="0.03"/>
<path d="M776.009 118.613C777.686 119.523 779.458 120.05 781.231 120.481C781.902 121.774 782.716 123.068 783.626 124.218C783.626 124.218 783.626 124.218 783.626 124.314C783.626 124.361 783.722 124.409 783.77 124.457C783.914 124.649 784.01 124.84 784.201 125.032C784.728 125.655 784.872 125.799 784.776 125.655C787.794 129.344 792.968 131.404 797.567 129.967C804.322 127.907 809.688 122.828 811.125 115.69C811.461 114.445 811.317 114.445 810.79 115.594C811.125 114.828 811.413 114.061 811.748 113.343C812.467 111.331 812.85 109.127 812.946 106.971C813.137 102.611 811.269 97.7248 809.209 94.036C805.951 88.1433 800.633 83.3047 794.022 81.58C783.626 78.8493 774.716 84.167 769.062 92.5029C763.409 100.791 767.194 114.109 775.913 118.708L776.009 118.613Z" fill="black" fill-opacity="0.03"/>
<path d="M982.443 13.503C976.838 -5.51629 952.261 -3.45627 945.841 13.503C927.301 62.5124 931.134 121.63 929.457 173.275C928.595 199.959 927.253 226.835 926.391 253.711C910.486 223.865 895.778 193.204 880.16 164.124C879.154 162.208 877.909 160.675 876.567 159.381C879.154 149.417 881.693 139.452 884.376 129.535C889.598 110.085 861.045 102.707 854.53 121.295C834.169 179.455 812.275 237.087 791.052 294.96C791.962 283.558 792.442 272.06 794.406 261.041C798.574 237.806 804.658 214.762 810.886 192.006C815.82 173.849 792.681 166.951 782.621 180.077C775.243 189.611 767.865 201.3 761.206 214.14C761.35 205.708 757.038 197.468 747.217 195.791C720.005 191.048 692.842 187.024 665.487 184.485C661.031 154.974 649.054 83.4959 648.144 79.1842C645.845 67.9259 632.526 64.6682 623.52 69.1715C606.177 77.8428 603.159 94.4188 597.266 112.097C589.505 135.236 582.176 158.567 574.702 181.802C540.736 182.329 504.23 185.635 478.456 204.702C465.952 213.948 466.91 233.015 482.815 238.093C505.619 245.375 530.819 243.699 555.778 240.632C550.652 256.825 545.574 273.018 540.544 289.259C532.448 315.368 519.608 343.634 523.345 371.324C524.974 383.349 530.915 395.374 543.945 398.392C546.197 398.919 548.449 399.446 550.7 399.973C562.342 402.656 571.205 396.332 575.516 385.888C583.038 367.683 581.553 344.736 586.487 325.093C593.146 298.648 599.997 272.251 606.417 245.759C607.327 242.022 608.141 238.285 609.052 234.596C614.321 234.309 619.639 234.117 624.909 233.878C625.484 238.141 626.059 242.309 626.586 246.381C632.143 287.63 637.269 350.676 671.379 378.558C681.584 386.894 700.651 385.648 703.669 370.031C711.957 327.058 685.32 278.288 674.924 236.465C674.589 235.171 674.35 233.782 674.062 232.44C696.722 232.297 719.335 232.871 741.947 234.452C746.45 234.74 750.187 233.398 753.157 231.147C739.073 264.251 731.791 301.906 743.384 331.13C748.989 345.215 763.17 349.335 773.71 343.394C768.105 367.204 803.508 387.948 819.845 367.396C849.595 330.076 867.321 286.049 876.04 239.866C895.539 275.605 914.702 311.967 927.253 349.574C936.739 377.983 973.292 370.366 976.742 342.867C983.832 286.911 984.263 229.71 986.754 173.37C989.054 121.582 997.102 63.9496 982.251 13.5988L982.443 13.503Z" fill="black" fill-opacity="0.03"/>
</svg>
