<svg width="482" height="199" viewBox="0 0 482 199" fill="none" xmlns="http://www.w3.org/2000/svg">
<path d="M46.1998 198.55C41.5248 198.55 37.3998 197.175 33.8248 194.425C27.7748 190.3 24.7498 185.075 24.7498 179.025V177.65C25.5748 170.775 27.4998 167.475 30.5248 167.475C31.3498 167.475 32.4498 167.75 33.8248 168.575C37.9498 170.775 40.1498 173.525 40.1498 177.1L39.8748 179.575C39.8748 179.85 40.1498 180.4 40.4248 180.675C49.4998 177.1 59.1248 171.6 69.8498 163.625C80.5748 155.925 89.3748 149.05 96.2498 142.725L97.6248 141.625C99.5498 140.25 101.2 138.6 102.575 136.675C103.4 135.85 104.225 135.025 105.325 134.2C106.15 133.375 106.975 132.55 107.8 131.45C108.075 130.9 108.35 130.35 108.625 130.075C111.375 127.05 113.3 123.475 114.125 119.9L114.4 118.25C115.225 116.325 115.5 114.4 115.5 112.475C115.5 109.45 114.675 107.525 112.75 106.15C110.825 104.775 107.525 104.225 102.3 104.225C92.3998 104.225 83.3248 106.425 74.7998 111.1L71.7748 112.475C70.9498 112.475 70.6748 112.75 70.3998 113.3C70.1248 113.85 69.8498 114.675 69.5748 115.775C69.0248 116.875 68.4748 118.25 67.9248 119.9C67.0998 121.825 66.2748 124.025 65.1748 126.775C62.1498 134.2 60.4998 139.7 59.9498 142.725C59.6748 144.1 59.3998 145.2 59.1248 146.3V146.85C59.1248 147.4 59.3998 147.95 59.9498 148.225C61.0498 149.325 61.5998 150.425 61.5998 151.525C61.5998 151.8 61.3248 152.35 61.0498 152.9C60.7748 153.725 60.2248 154 59.3998 154.275C58.5748 154.55 58.0248 154.55 57.1998 154.55H54.9998C51.1498 154.55 47.5748 153.45 44.5498 151.525C42.3498 150.15 41.2498 147.95 41.2498 145.2C41.2498 140.8 42.0748 136.125 43.4498 130.9C43.7248 130.35 43.7248 129.8 43.7248 128.975L49.2248 113.025C50.5998 108.9 53.3498 102.025 57.4748 92.4004C71.2248 56.6504 83.0498 32.4504 92.6748 19.8004H92.3998C91.0248 19.8004 86.6248 21.4504 78.6498 24.7504C70.6748 28.3254 61.5998 33.0004 51.4248 38.7754C35.4748 47.8504 23.0998 57.7504 14.0248 69.0254C14.0248 69.3004 14.0248 69.3004 13.7498 69.3004L12.6498 71.5004C12.6498 72.3254 12.9248 72.8754 13.7498 73.4254L14.0248 73.7004C14.0248 74.2504 13.7498 74.5254 12.9248 74.8004C12.0998 75.0754 10.9998 75.3504 9.8998 75.3504C6.3248 75.3504 3.2998 73.9754 1.3748 70.9504C0.549805 69.5754 -0.000196427 68.2004 -0.000196427 66.8254L0.274804 64.9004C2.7498 56.9254 10.1748 48.4004 22.2748 39.0504C34.0998 29.7004 48.3998 21.4504 64.6248 14.0254C80.8498 6.60038 96.2498 2.20039 111.375 0.550374C114.4 0.275378 117.425 0.000381052 120.175 0.000381052C131.45 0.000381052 140.525 3.02537 147.675 8.80038C152.9 13.2004 155.375 18.1504 155.375 23.6504C155.375 28.6004 152.075 35.4754 145.75 44.2754C139.15 53.0754 124.025 68.2004 100.1 89.6504C99.5498 89.9254 99.2748 90.4754 99.2748 90.7504C99.2748 91.0254 99.8248 91.3004 100.925 91.5754C110 93.5004 117.7 97.6254 123.475 103.675C130.9 111.65 134.475 119.9 134.475 128.975C134.475 131.45 133.925 134.2 133.1 136.95L132.275 139.15C131.725 142.175 129.525 146.025 125.4 150.975C124.575 151.8 123.75 152.9 122.925 154C118.25 160.325 108.625 167.75 94.5998 176.55C84.1498 183.15 75.6248 188.1 69.0248 191.125C67.0998 191.95 65.4498 192.775 63.7998 193.6C57.4748 196.9 51.6998 198.55 46.1998 198.55ZM92.9498 64.0754C93.7748 63.8004 96.7998 61.3254 102.025 56.1004C107.25 51.1504 113.025 45.3754 119.35 38.7754C131.725 25.5754 138.05 17.3254 138.05 14.0254C138.05 12.6504 134.75 11.8254 128.425 11.8254C119.35 11.8254 108.625 14.0254 95.9748 18.1504C96.2498 18.1504 96.7998 18.1504 98.1748 18.4254C99.2748 18.7004 100.925 19.2504 103.125 19.8004C105.05 20.6254 106.7 21.4504 107.8 22.5504C108.9 23.6504 109.45 24.7504 109.45 25.8504L109.175 27.7754C105.05 37.6754 101.2 46.4754 97.0748 54.4504C94.3248 60.2254 92.9498 63.2504 92.9498 64.0754ZM157.861 161.7C154.836 161.425 151.811 160.6 149.336 158.675C146.861 156.75 145.211 153.725 144.661 149.05V141.075C144.661 137.5 144.936 133.1 145.486 127.6L145.761 124.85L145.486 124.025C144.111 123.2 142.736 122.375 141.636 121.275C139.161 119.625 138.061 117.7 138.061 115.775C138.061 114.4 138.886 113.575 140.536 112.75C142.186 111.925 143.011 111.1 143.011 110.275C143.011 110 143.011 109.725 142.736 109.45C142.736 108.075 143.011 106.975 143.561 106.7C143.836 106.425 144.386 106.15 144.661 106.15L147.411 106.7C147.686 106.7 148.236 106.15 148.511 104.775C148.786 102.3 149.061 100.1 149.336 97.9004L150.161 93.5004C150.436 89.9254 151.261 86.0754 152.086 82.5004C154.011 72.8754 155.386 65.4504 156.761 60.2254C158.136 55.2754 159.511 50.3254 161.161 45.3754C161.161 44.8254 160.611 44.0004 159.236 42.6254C157.861 41.8004 157.036 40.9754 156.486 39.6004C156.211 39.3254 155.936 38.7754 155.936 37.9504C155.936 37.1254 156.211 36.0254 157.036 34.6504C160.061 30.2504 163.361 26.9504 167.486 24.4754C169.961 22.8254 171.886 21.1754 173.261 19.5254C173.536 19.2504 175.461 18.1504 179.311 16.7754C189.211 13.2004 198.286 11.5504 206.811 11.5504H214.236C217.811 11.8254 222.211 13.4754 226.886 16.5004C231.561 19.8004 234.586 25.3004 236.511 32.7254V34.3754C236.511 43.1754 231.011 53.0754 220.286 64.0754C209.561 75.0754 198.561 84.9754 187.561 93.5004C180.961 98.7254 176.561 102.575 174.086 105.05C185.361 103.4 195.811 100.375 205.436 95.9754C216.161 91.3004 223.861 87.4504 228.811 83.8754L230.736 82.5004C231.011 82.5004 231.286 82.5004 231.561 82.5004C231.836 82.7754 232.111 82.7754 232.386 83.0504C232.661 83.3254 232.661 83.6004 232.661 83.8754C235.136 85.5254 236.236 87.4504 236.236 89.6504C236.236 90.7504 235.961 91.8504 235.136 92.6754C229.361 99.0004 222.486 103.95 214.786 108.075C201.311 115.5 190.861 119.9 183.436 121.55C177.386 122.925 172.161 123.475 168.036 123.475C165.561 123.475 163.911 123.75 162.811 124.3C161.711 124.85 160.886 129.8 160.061 139.15C159.786 141.35 159.511 143.825 159.236 146.85C158.961 147.95 158.961 149.875 158.961 152.625C158.961 155.375 159.236 157.025 159.786 157.575C160.061 158.4 160.336 158.95 160.336 159.5C160.336 160.875 159.511 161.7 157.861 161.7ZM171.061 84.9754L171.886 83.8754C176.011 80.3004 181.511 74.8004 188.386 67.9254C195.261 61.0504 202.136 54.1754 208.461 47.0254C214.786 40.1504 218.911 34.3754 220.836 29.9754L221.111 29.7004C221.661 28.8754 221.936 28.0504 221.936 27.5004C221.936 27.2254 221.936 26.9504 221.661 26.6754C221.386 26.4004 220.561 26.4004 218.911 26.1254C216.161 25.8504 213.411 25.5754 210.936 25.5754C203.511 25.5754 196.361 26.9504 189.486 29.4254C188.111 29.7004 187.561 30.5254 187.286 31.9004C187.011 33.2754 186.736 34.3754 186.186 35.4754C185.361 37.6754 184.536 39.8754 184.261 41.8004C183.711 43.7254 183.161 45.6504 182.336 47.5754L179.861 55.2754L178.211 60.5004C174.636 70.9504 172.436 79.2004 171.061 84.9754ZM292.52 152.35H291.695C288.395 152.35 285.37 151.525 282.62 149.6C277.395 146.575 274.095 142.45 272.17 137.225C271.62 136.125 271.07 135.575 270.245 135.575C269.97 135.575 269.42 135.85 268.595 136.125C266.12 137.225 263.37 138.325 260.62 139.15C256.77 140.525 252.92 142.175 249.07 144.1C247.42 144.925 245.77 145.75 243.845 146.3C243.02 146.575 241.92 146.85 241.095 147.125C240.27 147.4 239.17 147.675 238.345 147.675C236.97 147.675 235.595 147.125 234.495 146.3C233.12 145.475 232.02 144.65 230.645 144.375C229.27 144.1 228.17 143.825 226.795 143C224.32 141.9 222.945 139.975 222.945 137.225C223.22 133.375 223.77 129.525 224.595 125.95C224.595 124.575 224.87 122.925 225.695 121.275C226.245 119.625 226.52 117.7 226.795 115.775L231.47 98.1754C231.745 97.0754 232.02 95.9754 232.295 94.6004L234.77 86.6254C236.695 81.4004 238.345 77.0004 239.17 73.1504L240.27 70.4004C242.745 62.9754 244.67 58.3004 245.77 55.8254C246.87 53.3504 247.695 50.8754 248.52 48.4004C249.345 45.9254 250.17 43.7254 250.995 41.8004C251.82 39.8754 252.645 38.2254 253.47 36.3004C254.02 34.3754 255.67 30.2504 258.695 23.3754C259.52 20.9004 260.62 18.4254 261.72 15.9504C262.82 13.4754 264.47 12.3754 266.945 12.3754H267.495C273.545 12.9254 278.495 15.4004 282.345 19.8004C282.895 20.6254 283.17 21.4504 283.445 22.2754L283.72 25.5754H283.17L283.445 34.6504L282.07 57.4754C281.795 60.5004 281.52 63.8004 281.52 66.8254L281.245 85.5254C281.245 89.9254 281.52 94.3254 282.07 98.7254V103.125L283.17 114.4C283.445 115.775 283.995 116.325 285.37 116.325C291.42 117.15 295.82 119.9 298.845 124.575C299.67 125.675 299.945 126.775 300.22 127.875C300.22 129.25 299.67 130.075 298.845 130.075L297.745 129.8C296.645 129.525 295.545 129.25 294.72 129.25L289.77 130.075C289.77 130.35 289.77 130.35 289.495 130.35C287.57 130.625 286.47 131.175 286.47 131.725C286.47 132.275 286.745 133.1 287.02 134.2C288.395 139.425 290.595 144.375 294.17 149.05C294.72 149.875 294.995 150.425 294.995 150.7C294.995 151.525 294.17 152.075 292.52 152.35ZM249.62 125.675L250.17 125.4C257.045 122.65 261.72 121 263.645 120.725C265.57 120.45 266.395 119.9 266.395 119.075L266.12 117.975C265.295 115.5 265.02 113.025 264.745 110.55L264.47 109.45L262.82 98.7254C262.545 96.8004 262.27 94.8754 261.995 92.9504C261.72 91.0254 261.445 89.1004 261.445 86.9004V84.9754C261.445 86.0754 261.17 86.9004 260.895 87.1754C259.795 89.1004 259.245 91.0254 258.97 93.2254C257.32 101.2 254.57 110 250.72 119.625L248.795 125.125C248.795 125.4 248.795 125.4 249.07 125.4C249.345 125.675 249.345 125.675 249.62 125.675ZM230.37 180.125C229.27 180.125 228.17 179.85 227.345 179.3C222.945 177.1 219.92 173.8 218.545 169.4L218.27 167.75C218.27 166.1 219.37 164.725 221.57 163.9C226.245 161.425 230.92 159.775 236.145 158.4L246.595 155.375C255.12 152.9 261.995 151.25 267.22 150.7C268.045 150.7 268.595 150.7 269.145 150.425C269.695 150.15 269.97 150.15 270.245 150.15H270.795C274.37 150.15 277.67 150.975 280.695 152.9C283.72 154.825 285.645 157.3 286.47 160.325L286.745 161.975C286.745 162.25 286.47 162.8 286.195 163.075C285.92 163.35 285.37 163.625 285.095 163.625C284.27 163.625 283.72 163.35 283.17 163.075C282.345 162.8 281.795 162.8 281.245 162.8L279.045 163.35C278.22 163.625 277.12 163.9 276.02 164.175C270.52 165.825 261.72 169.125 249.345 174.075C242.745 176.825 238.07 178.475 235.595 179.025L230.37 180.125ZM359.607 180.95C353.557 180.95 349.982 177.65 348.882 170.775C348.607 169.4 348.607 167.2 348.607 163.9C348.607 153.175 348.607 144.375 348.882 137.225L349.157 124.025L347.232 119.35C337.332 96.5254 328.532 78.6504 320.832 65.7254C319.457 73.1504 318.082 82.7754 316.707 94.3254C313.957 119.35 312.582 135.575 312.582 142.45C312.582 144.1 312.582 145.475 312.857 146.3C312.857 148.225 312.032 149.05 310.382 149.05C308.182 149.05 305.982 148.5 303.782 147.125C301.582 145.75 299.932 144.1 298.832 141.625C297.457 138.05 296.907 132.275 296.907 124.85C296.907 116.875 297.457 101.2 298.282 77.8254C299.657 61.6004 300.757 49.7754 301.582 42.9004C302.132 37.6754 302.682 34.9254 302.957 34.3754H303.232C305.707 32.4504 308.182 31.3504 310.932 30.5254C319.182 30.5254 327.707 38.2254 336.782 53.6254C341.732 62.1504 346.407 70.6754 350.807 79.7504C351.082 75.0754 351.357 71.5004 351.632 69.5754C351.907 67.6504 352.457 64.3504 353.007 59.9504C356.857 26.1254 361.807 9.07538 367.582 9.07538C372.807 9.62539 377.207 12.1004 380.232 16.5004C380.232 21.1754 378.857 33.0004 376.107 52.5254C368.957 103.4 364.557 143 362.907 170.775C362.632 173.25 362.357 175.725 362.357 178.2C362.082 179.85 361.257 180.675 359.607 180.95ZM390.736 161.975C389.361 161.975 387.711 161.7 386.061 161.15C380.011 158.675 376.986 155.925 376.986 152.625C376.986 151.25 377.811 149.6 379.461 148.225C380.836 146.85 383.036 146.3 386.061 146.3C386.336 146.3 386.886 146.025 387.711 145.75C388.261 145.475 388.811 145.2 389.361 144.925C389.911 144.65 390.186 144.1 390.461 143.825L390.736 143.55C390.736 143.275 390.736 143 390.461 142.725C390.186 142.45 389.911 142.45 389.636 142.45C387.711 141.625 386.061 140.525 384.686 139.15C383.311 137.775 382.211 135.85 381.936 132.825C381.386 130.075 381.111 127.05 381.111 123.75C381.111 113.575 383.036 98.7254 386.611 79.7504C388.261 71.2254 389.361 66.5504 389.636 65.4504L390.736 61.6004C391.561 59.6754 392.386 57.2004 393.211 54.7254C394.036 52.2504 394.586 49.7754 395.411 47.8504C396.236 45.9254 396.786 44.5504 397.061 44.0004C397.336 43.4504 397.611 42.9004 397.611 42.3504C397.611 42.0754 397.336 41.5254 396.511 40.7004C395.136 39.3254 394.311 37.9504 394.311 36.5754C394.311 35.4754 394.586 34.3754 395.136 33.0004C398.711 25.0254 405.036 18.9754 414.661 14.8504C421.536 11.8254 428.961 10.4504 436.936 10.4504C439.686 10.4504 444.636 11.0004 451.511 11.8254C458.386 12.6504 466.086 17.6004 474.061 26.1254C479.286 32.4504 481.761 39.0504 481.761 46.2004C481.761 47.8504 481.211 51.4254 480.386 56.6504C479.561 61.8754 476.261 69.3004 470.486 78.3754C464.711 87.7254 458.661 96.2504 452.061 104.225L450.136 106.975C447.661 110 445.186 112.75 442.711 115.5C436.936 121.825 431.436 127.875 426.211 133.65C418.236 143 411.086 150.425 404.486 155.925C399.811 160.05 395.136 161.975 390.736 161.975ZM401.186 132.275C402.286 131.45 406.136 127.05 413.011 119.35C419.886 111.65 427.311 102.3 435.836 91.3004C444.086 80.5754 450.961 69.5754 456.736 58.8504C461.686 49.2254 464.161 41.2504 464.161 34.3754C464.161 33.5504 463.886 31.0754 463.611 26.9504C463.061 23.1004 457.011 20.9004 445.736 20.6254C439.411 20.9004 433.361 22.0004 427.586 24.2004C426.761 24.4754 426.211 24.4754 425.936 24.7504C425.661 25.0254 425.386 25.5754 425.386 26.4004C425.386 29.1504 424.561 33.0004 422.911 37.9504C413.836 62.9754 406.961 88.5504 402.286 114.4L401.736 119.625C401.186 124.3 400.911 127.6 400.911 129.25C400.911 130.625 400.911 131.45 401.186 132.275Z" fill="#111111"/>
</svg>
