<svg width="773" height="880" viewBox="0 0 773 880" fill="none" xmlns="http://www.w3.org/2000/svg">
<path d="M229.544 373.14C301.88 331.015 373.56 287.669 446.365 247.514C531.555 200.51 618.058 155.194 707.094 115.789C736.835 102.56 767.421 90.7388 798.57 81.169C809.172 77.9791 819.961 76.1027 830.657 73.4757C847.451 69.2537 856.364 76.1027 837.881 67.7526C855.895 75.915 878.412 66.5329 878.412 44.4849C878.13 -89.2102 523.768 119.167 487.177 139.057C383.411 195.349 282.459 256.239 183.009 319.662C179.069 322.196 175.034 324.729 171 327.262C122.87 290.296 75.0208 252.956 35.8036 206.889C104.575 200.228 170.437 222.464 233.391 255.77C249.434 264.308 267.73 242.917 253.375 229.876C175.972 159.697 72.9568 127.704 -29.5898 154.068C-49.5737 159.228 -59.7064 183.903 -48.9169 201.542C-8.29236 267.967 48.4695 319.099 106.545 369.012C65.2635 397.065 25.2018 428.307 -3.78897 465.273C-14.5784 478.971 -1.53723 497.266 14.8815 489.479C63.5747 466.117 111.33 440.504 158.709 413.859C207.309 456.266 253.938 500.55 289.684 555.06C322.24 604.785 360.519 678.904 342.036 740.075C330.308 779.011 270.732 785.297 237.988 787.173C124.089 793.647 15.2568 751.803 -84.1937 701.233C-85.5072 700.576 -86.8207 699.826 -88.1342 699.169C-44.0382 644.002 -52.2007 564.254 -119.283 508.243C-185.427 453.076 -340.607 452.982 -353.836 560.22C-364.625 647.849 -257.388 711.084 -194.527 748.894C-120.596 793.365 -41.3174 830.8 41.6205 854.818C164.432 890.47 415.498 915.333 433.324 732.663C442.988 632.837 379.846 530.854 318.581 457.955C292.029 426.337 261.537 399.035 229.638 373.047L229.544 373.14ZM-174.168 649.819C-195.09 636.027 -215.168 620.922 -233.745 604.128C-257.106 582.831 -268.552 575.419 -244.253 568.382C-198.468 554.966 -119.94 618.764 -174.168 649.913V649.819Z" fill="#1D1D1B"/>
<path d="M541.031 447.073C546.567 440.975 544.878 434.032 540.375 430.091C549.85 416.206 551.727 396.128 548.068 379.897C542.908 356.348 525.832 338.522 503.315 330.641C461.283 315.911 407.899 330.641 376.938 361.696C339.785 399.037 355.734 470.81 405.647 488.354C451.338 504.398 509.507 481.505 541.125 446.979L541.031 447.073ZM435.858 452.89C410.62 447.824 398.142 414.705 417.656 396.785C433.043 382.712 461.377 377.364 481.173 381.961C486.427 383.181 492.62 385.714 493.276 391.625C495.059 408.043 488.679 422.492 498.999 437.691C500.407 439.755 502.096 441.256 503.878 442.57C482.862 452.796 457.718 457.206 435.858 452.796V452.89Z" fill="#1D1D1B"/>
<path d="M878.411 259.052C823.901 310.185 789.094 385.617 742.277 444.161C700.902 495.857 654.46 543.799 595.822 571.383C600.419 479.532 676.79 325.008 722.762 260.366C723.982 250.89 687.861 184.089 662.623 213.455C647.517 231.093 628.472 273.501 628.472 273.501C618.808 273.313 606.893 268.434 592.257 257.176C577.714 246.011 551.632 260.929 553.978 279.13C558.575 315.533 560.639 352.498 568.239 388.432C533.712 465.365 510.257 545.957 504.534 635.65C502.939 660.888 527.051 682.842 551.351 682.467C649.3 680.872 727.359 616.323 790.126 546.802C851.109 479.25 925.603 373.889 926.823 279.13C927.198 253.704 896.05 242.633 878.505 259.146L878.411 259.052Z" fill="#1D1D1B"/>
<path d="M20.887 626.926C10.2852 630.585 2.40423 643.908 9.72228 654.416C29.1433 682.28 64.3262 685.47 95.8501 692.225C135.536 700.857 177.85 705.454 218.193 699.45C235.362 696.917 234.705 668.676 218.193 665.486C181.509 658.544 145.575 652.821 109.454 642.969C80.7449 635.088 50.5345 616.887 20.887 626.926Z" fill="#1D1D1B"/>
<path d="M157.302 614.169C169.499 607.789 169.499 588.275 157.302 581.895C149.703 577.954 142.572 574.295 133.659 577.016C112.831 583.396 112.831 612.668 133.659 619.048C142.572 621.769 149.703 618.11 157.302 614.169Z" fill="#1D1D1B"/>
</svg>
