<svg width="1039" height="226" viewBox="0 0 1039 226" fill="none" xmlns="http://www.w3.org/2000/svg">
<path d="M45.3748 198.275H43.1748C41.5248 198.275 39.5998 197.725 37.6748 196.9C35.4748 196.075 34.0998 194.7 33.2748 193.325C32.4498 191.95 31.8998 188.925 31.8998 184.525C31.8998 152.625 39.8748 110 55.8248 56.3751C56.9248 53.0751 57.7498 50.6001 58.5748 48.9501C59.1248 47.3001 59.3998 45.9251 59.3998 45.1001C59.3998 44.8251 59.1248 44.8251 58.8498 44.8251C58.0248 44.8251 54.7248 46.4751 48.3998 49.5001C32.7248 57.4751 21.4498 64.9001 14.5748 71.2251C13.1998 72.6001 12.0998 73.1501 10.9998 73.1501C10.1748 73.1501 9.07481 72.8751 7.9748 72.3251C4.9498 70.9501 2.4748 69.0251 1.0998 66.8251C0.274804 66.0001 -0.000195341 64.9001 -0.000195341 63.8001C-0.000195341 62.4251 0.549804 61.3251 1.3748 59.9501C8.52481 50.3251 17.5998 42.3501 28.5998 36.0251C39.3248 29.9751 49.2248 25.0251 58.0248 21.4501C66.5498 17.8751 71.7748 15.1251 73.6998 12.6501C75.3498 10.4501 76.9998 9.35008 78.6498 9.35008C80.0248 9.35008 81.3998 9.62508 82.7748 10.1751C84.1498 11.0001 85.2498 11.2751 86.3498 11.2751H87.1748C90.1998 10.1751 97.0748 8.80009 107.25 7.1501C113.025 6.32509 118.8 5.77508 124.575 5.77508C129.25 5.77508 135.3 6.32509 143 7.1501C150.425 8.25008 156.475 12.9251 160.6 20.9001C160.875 21.7251 161.15 22.5501 161.15 23.3751C161.15 24.7501 160.6 25.3001 159.225 25.3001C158.125 25.3001 157.025 24.7501 155.925 23.3751C155.65 23.1001 155.1 22.5501 154.825 22.0001C154.55 21.7251 154 21.1751 153.175 20.3501C152.35 19.5251 148.5 19.2501 141.35 19.2501C134.2 19.2501 126.775 20.0751 119.35 22.0001C111.65 23.9251 103.125 26.6751 93.4998 30.2501C91.8498 30.8001 90.4748 31.3501 89.0998 31.9001C87.7248 32.4501 84.1498 44.0001 77.8248 66.8251C75.6248 74.2501 71.2248 90.2001 64.6248 114.95C54.9998 154.275 49.4998 179.85 48.3998 191.675C48.1248 193.875 47.8498 195.525 47.5748 196.625C47.2998 197.725 46.7498 198.275 45.3748 198.275ZM117.674 116.05C117.124 116.05 116.574 115.775 116.024 115.5C111.624 113.575 108.599 110.55 106.949 105.875C106.674 105.325 106.674 104.775 106.674 103.95C106.674 103.125 106.949 102.025 107.499 100.925C109.974 97.3501 113.274 94.3251 117.399 92.4001C121.524 90.4751 124.824 88.0001 127.849 84.7001C132.524 79.7501 137.749 75.3501 143.524 71.2251C149.299 67.3751 155.074 63.2501 160.849 59.1251C162.774 58.3001 163.874 57.4751 164.699 56.6501C163.324 56.6501 162.499 56.9251 162.224 57.2001C161.674 57.4751 161.399 57.7501 161.124 57.7501C158.099 59.4001 154.799 60.5001 151.499 60.7751C150.674 61.0501 149.849 61.3251 149.024 61.8751H148.749C147.649 62.4251 146.549 62.7001 145.449 62.9751C144.074 63.2501 142.974 63.8001 142.149 64.3501C139.674 65.1751 137.199 66.0001 134.724 66.5501L129.224 67.6501C127.024 67.6501 125.099 66.8251 123.724 65.4501C120.974 63.5251 119.049 60.7751 117.674 57.4751C117.399 56.6501 117.124 55.5501 117.124 54.7251C117.124 53.3501 117.674 52.2501 119.049 50.8751C121.524 48.4001 123.724 47.0251 126.199 46.2001C130.049 44.2751 133.899 42.6251 138.024 41.5251C145.449 39.3251 149.849 37.9501 151.774 37.6751C152.874 37.4001 153.974 37.4001 155.074 37.1251C155.899 37.1251 158.649 36.5751 163.049 35.4751C163.874 35.4751 164.699 35.4751 165.524 35.2001L172.949 33.8251C174.324 33.5501 175.699 33.2751 177.074 33.0001C183.399 32.1751 188.624 31.6251 192.199 31.6251C194.124 31.9001 195.774 32.7251 197.149 33.8251C200.174 36.3001 201.824 39.3251 202.649 42.9001V44.0001C202.649 45.9251 201.824 46.7501 200.174 46.7501L197.424 46.2001H196.599C193.024 47.0251 188.899 48.9501 184.774 51.9751C171.299 60.2251 158.649 69.0251 146.274 78.3751L145.449 78.6501C144.624 79.2001 144.074 80.0251 143.249 80.8501C145.724 79.7501 147.924 78.9251 150.399 78.3751L154.249 77.0001L166.899 72.8751L170.199 72.0501C181.199 68.2001 189.724 66.0001 195.774 65.4501C197.424 65.4501 198.799 66.0001 200.174 67.1001C202.374 69.0251 204.024 71.2251 204.849 73.7001L205.124 75.3501C205.124 76.7251 204.299 77.8251 202.649 78.1001C197.424 79.4751 192.199 81.1251 186.974 83.0501C181.749 85.2501 176.799 87.4501 172.124 89.3751C167.174 91.3001 164.149 92.6751 163.049 93.5001C160.299 94.8751 156.449 96.5251 151.774 98.7251C146.824 100.925 142.424 103.125 138.299 105.6L125.924 112.2C121.249 114.675 118.499 116.05 117.674 116.05ZM109.149 158.4C108.324 158.4 107.224 158.125 106.124 157.85C102.824 156.475 100.349 154 98.424 150.425C97.874 149.6 97.599 148.5 97.599 147.675C97.599 146.3 98.699 144.375 100.624 142.45C101.724 140.8 103.924 138.6 107.499 135.85C109.974 133.65 112.174 132 114.099 131.175C117.674 128.7 120.424 127.05 122.349 126.225C123.449 125.95 124.824 125.4 126.199 124.575C128.399 123.2 130.599 122.375 132.799 121.55C134.724 121 136.649 120.45 138.574 119.625L148.199 116.6C154.524 114.4 161.124 112.475 167.449 110.825C182.024 107.25 190.549 105.325 193.024 105.325H194.674C198.799 106.425 202.099 108.9 204.024 113.025C204.849 114.4 205.399 115.775 205.674 117.7C205.674 119.625 204.849 120.725 203.474 120.725C203.199 120.725 202.649 120.45 201.824 120.175C200.999 119.9 200.174 119.9 199.074 119.9C197.974 119.9 196.874 120.175 195.774 120.45C194.399 120.725 193.024 121.275 191.649 121.55C186.974 122.65 182.024 124.025 177.349 125.95C172.674 127.325 169.099 128.425 167.174 129.525C164.974 130.625 162.499 131.725 160.024 132.55C156.724 133.65 153.699 134.75 150.674 136.125C147.649 137.5 144.899 139.15 142.424 140.525C139.674 141.9 136.924 143.275 134.449 144.65C131.699 146.025 129.499 147.125 127.849 148.225C127.574 148.5 127.024 148.775 126.474 149.05L122.899 151.525L112.724 157.575C111.624 158.125 110.524 158.4 109.149 158.4ZM273.249 161.425H272.424C269.124 161.425 266.099 160.6 263.349 158.675C258.124 155.65 254.824 151.525 252.899 146.3C252.349 145.2 251.799 144.65 250.974 144.65C250.699 144.65 250.149 144.925 249.324 145.2C246.849 146.3 244.099 147.4 241.349 148.225C237.499 149.6 233.649 151.25 229.799 153.175C228.149 154 226.499 154.825 224.574 155.375C223.749 155.65 222.649 155.925 221.824 156.2C220.999 156.475 219.899 156.75 219.074 156.75C217.699 156.75 216.324 156.2 215.224 155.375C213.849 154.55 212.749 153.725 211.374 153.45C209.999 153.175 208.899 152.9 207.524 152.075C205.049 150.975 203.674 149.05 203.674 146.3C203.949 142.45 204.499 138.6 205.324 135.025C205.324 133.65 205.599 132 206.424 130.35C206.974 128.7 207.249 126.775 207.524 124.85L212.199 107.25C212.474 106.15 212.749 105.05 213.024 103.675L215.499 95.7001C217.424 90.4751 219.074 86.0751 219.899 82.2251L220.999 79.4751C223.474 72.0501 225.399 67.3751 226.499 64.9001C227.599 62.4251 228.424 59.9501 229.249 57.4751C230.074 55.0001 230.899 52.8001 231.724 50.8751C232.549 48.9501 233.374 47.3001 234.199 45.3751C234.749 43.4501 236.399 39.3251 239.424 32.4501C240.249 29.9751 241.349 27.5001 242.449 25.0251C243.549 22.5501 245.199 21.4501 247.674 21.4501H248.224C254.274 22.0001 259.224 24.4751 263.074 28.8751C263.624 29.7001 263.899 30.5251 264.174 31.3501L264.449 34.6501H263.899L264.174 43.7251L262.799 66.5501C262.524 69.5751 262.249 72.8751 262.249 75.9001L261.974 94.6001C261.974 99.0001 262.249 103.4 262.799 107.8V112.2L263.899 123.475C264.174 124.85 264.724 125.4 266.099 125.4C272.149 126.225 276.549 128.975 279.574 133.65C280.399 134.75 280.674 135.85 280.949 136.95C280.949 138.325 280.399 139.15 279.574 139.15L278.474 138.875C277.374 138.6 276.274 138.325 275.449 138.325L270.499 139.15C270.499 139.425 270.499 139.425 270.224 139.425C268.299 139.7 267.199 140.25 267.199 140.8C267.199 141.35 267.474 142.175 267.749 143.275C269.124 148.5 271.324 153.45 274.899 158.125C275.449 158.95 275.724 159.5 275.724 159.775C275.724 160.6 274.899 161.15 273.249 161.425ZM230.349 134.75L230.899 134.475C237.774 131.725 242.449 130.075 244.374 129.8C246.299 129.525 247.124 128.975 247.124 128.15L246.849 127.05C246.024 124.575 245.749 122.1 245.474 119.625L245.199 118.525L243.549 107.8C243.274 105.875 242.999 103.95 242.724 102.025C242.449 100.1 242.174 98.1751 242.174 95.9751V94.0501C242.174 95.1501 241.899 95.9751 241.624 96.2501C240.524 98.1751 239.974 100.1 239.699 102.3C238.049 110.275 235.299 119.075 231.449 128.7L229.524 134.2C229.524 134.475 229.524 134.475 229.799 134.475C230.074 134.75 230.074 134.75 230.349 134.75ZM211.099 189.2C209.999 189.2 208.899 188.925 208.074 188.375C203.674 186.175 200.649 182.875 199.274 178.475L198.999 176.825C198.999 175.175 200.099 173.8 202.299 172.975C206.974 170.5 211.649 168.85 216.874 167.475L227.324 164.45C235.849 161.975 242.724 160.325 247.949 159.775C248.774 159.775 249.324 159.775 249.874 159.5C250.424 159.225 250.699 159.225 250.974 159.225H251.524C255.099 159.225 258.399 160.05 261.424 161.975C264.449 163.9 266.374 166.375 267.199 169.4L267.474 171.05C267.474 171.325 267.199 171.875 266.924 172.15C266.649 172.425 266.099 172.7 265.824 172.7C264.999 172.7 264.449 172.425 263.899 172.15C263.074 171.875 262.524 171.875 261.974 171.875L259.774 172.425C258.949 172.7 257.849 172.975 256.749 173.25C251.249 174.9 242.449 178.2 230.074 183.15C223.474 185.9 218.799 187.55 216.324 188.1L211.099 189.2ZM328.017 225.775C321.417 225.5 316.742 222.475 313.717 216.7C309.592 208.725 307.117 199.925 306.292 190.575C306.017 186.175 305.742 181.775 305.742 177.375C305.742 166.1 306.842 152.9 309.042 137.5L309.867 131.45C310.142 127.6 310.967 123.475 311.792 119.35C312.617 115.225 313.442 111.1 313.717 106.7H313.992C314.267 104.225 314.817 101.75 315.367 99.2751C315.917 97.9001 316.192 96.5251 316.192 95.1501L321.417 69.3001L322.242 66.5501C322.242 65.7251 321.967 65.1751 321.417 65.1751C320.867 65.1751 319.217 65.4501 316.742 66.2751C315.092 67.1001 313.442 67.6501 311.792 67.9251C310.967 67.9251 310.692 68.4751 310.692 69.5751C310.142 73.7001 308.767 78.1001 306.842 83.0501C305.742 87.1751 304.917 91.0251 304.092 94.8751L302.992 99.0001C302.992 100.925 302.717 102.85 301.892 105.05C300.792 108.625 299.967 111.925 299.417 115.5C299.142 117.975 298.592 120.725 298.042 123.2C297.492 125.675 296.392 133.1 294.742 144.925C294.467 147.4 294.192 149.6 293.917 151.8L293.642 155.925C293.642 157.85 293.367 159.225 293.092 159.5C292.542 159.775 291.992 160.05 291.167 160.05C288.692 160.05 286.217 159.225 283.742 157.575C281.267 155.925 279.617 154 278.792 151.525C277.967 147.95 277.417 144.375 277.417 140.8L277.692 135.3L277.967 134.2C278.792 119.625 280.167 107.8 282.092 98.4501C282.367 96.2501 282.642 94.0501 282.642 91.5751C283.742 82.2251 284.567 75.0751 285.392 70.4001C285.392 68.7501 284.842 67.6501 284.017 67.3751C281.817 66.2751 280.167 64.6251 278.792 62.4251C278.517 61.6001 278.242 60.7751 278.242 59.6751C278.517 59.4001 279.067 58.5751 280.167 57.7501C281.267 56.9251 282.642 56.1001 284.017 55.5501C287.042 53.9001 288.967 52.2501 289.517 50.8751C290.892 44.8251 293.367 41.8001 296.392 41.8001C299.967 41.8001 303.267 42.6251 305.742 44.2751C306.567 45.1001 307.667 45.3751 308.767 45.3751C309.592 45.3751 310.142 45.1001 310.967 44.8251C314.542 43.7251 318.117 42.9001 321.692 42.0751C323.067 41.8001 324.717 41.5251 326.092 41.2501C327.467 40.9751 328.292 39.8751 328.567 38.5001C330.492 29.9751 333.242 22.0001 337.367 14.0251C339.017 10.1751 340.942 7.1501 342.867 4.6751C344.242 2.75009 346.167 1.92508 348.092 1.92508L350.017 2.20009C354.692 3.02508 358.817 5.22509 362.117 8.5251C363.767 9.90009 364.592 11.5501 364.592 13.4751C364.592 14.5751 364.317 15.6751 363.767 16.7751C362.942 18.7001 362.392 20.6251 361.842 22.5501C361.292 24.4751 360.742 26.6751 359.917 28.8751C359.092 31.0751 358.267 33.5501 357.717 36.3001H362.117C363.217 36.0251 364.317 36.0251 365.692 36.0251C367.342 36.3001 369.817 36.3001 373.392 36.3001C381.367 36.3001 387.692 39.3251 391.817 45.6501C392.092 46.4751 392.367 47.3001 392.367 48.1251C392.367 50.3251 390.992 51.4251 388.517 51.7001C386.317 51.7001 384.667 51.4251 383.567 50.6001C382.467 50.0501 381.367 49.7751 380.542 49.7751C379.717 49.7751 378.617 50.0501 377.792 50.3251C378.342 51.4251 379.167 52.5251 379.992 53.3501C382.467 55.2751 383.567 57.7501 383.567 61.3251L383.292 63.2501C383.017 69.0251 381.917 74.8001 379.992 80.5751C379.442 81.9501 379.167 83.3251 379.167 84.7001C378.892 86.0751 378.892 87.4501 378.617 88.5501C377.792 91.8501 376.967 95.1501 376.417 98.7251L375.592 102.025L372.017 122.65C371.192 126.5 370.642 132 369.817 139.15C368.992 143.825 368.442 146.3 368.442 146.85C368.167 148.225 367.067 149.05 365.417 149.05C361.842 149.05 358.817 147.675 355.792 144.925C352.767 142.45 351.117 139.425 350.567 136.125C350.567 128.975 351.392 120.45 352.767 110.825L356.617 85.8001C357.992 77.0001 359.092 72.0501 360.192 70.6751C360.467 70.4001 360.467 70.1251 360.467 69.3001C360.192 68.4751 359.917 67.3751 359.917 66.2751C359.917 64.9001 360.192 63.2501 360.467 61.8751L361.842 54.4501C361.842 53.6251 361.567 53.0751 361.292 53.0751L360.742 53.3501C359.367 53.9001 357.992 54.1751 356.617 54.4501C353.042 54.7251 350.842 55.8251 350.017 57.4751C349.192 60.7751 348.367 64.0751 347.542 67.1001L345.342 73.9751C345.067 75.3501 344.792 76.7251 344.517 78.1001C342.042 87.7251 339.842 97.6251 338.192 107.25L335.442 118.25L333.792 128.7C333.242 131.175 332.967 133.65 332.692 136.125C332.417 138.6 331.867 141.075 331.317 143.55C330.492 148.225 329.942 152.075 329.942 155.65C329.117 159.225 328.567 164.725 327.742 171.875C326.917 179.3 326.642 186.45 326.642 193.875C326.642 204.6 328.292 213.675 331.317 220.825C331.867 221.65 332.142 222.475 332.142 223.3C332.142 224.95 330.767 225.775 328.017 225.775ZM459.916 179.85C457.991 179.85 455.791 179.575 453.866 178.75C447.541 176.55 443.966 172.15 442.591 165.55C442.316 162.525 442.041 159.5 442.041 156.475C442.041 150.7 442.316 147.4 442.866 146.85C443.141 143.825 443.416 140.525 443.966 136.95C444.516 133.65 445.066 130.35 445.616 127.05L448.091 113.3L450.016 102.85C450.566 99.8251 451.116 96.8001 451.941 93.7751L452.491 89.9251L457.441 67.1001L460.741 53.9001C461.016 53.0751 461.291 52.2501 461.566 51.4251C461.841 50.8751 462.116 50.3251 462.116 50.0501C462.116 49.2251 461.841 48.6751 461.016 48.4001C459.091 46.7501 457.991 45.1001 457.991 43.1751C457.991 39.6001 461.291 35.4751 467.616 30.5251C468.716 29.9751 469.541 29.1501 469.816 28.0501C470.641 25.5751 472.016 24.4751 473.941 24.4751C474.216 24.4751 474.766 24.4751 475.316 24.7501C475.866 25.0251 476.416 25.0251 476.966 25.0251C478.341 25.0251 479.716 24.4751 481.641 23.6501C488.241 21.1751 495.391 20.0751 503.366 20.0751C514.091 20.3501 522.891 24.7501 529.216 33.2751C531.691 36.3001 533.066 39.6001 533.341 43.4501C533.341 53.0751 527.291 64.3501 515.191 77.8251L513.266 80.0251C511.341 82.5001 509.416 84.7001 506.941 86.9001C511.066 86.9001 514.091 86.9001 516.016 87.1751C525.366 87.1751 532.791 90.7501 538.566 98.1751C540.766 101.2 541.866 104.225 541.866 107.8C541.866 109.725 541.316 111.925 540.491 114.125L539.666 115.775C538.291 118.25 536.916 120.725 534.991 122.925L533.066 125.4C531.141 127.875 528.666 130.35 526.191 132.825L520.416 138.6C515.191 143.275 512.166 145.75 511.341 146.025C510.516 146.575 509.966 147.125 509.141 147.95C507.216 149.6 505.016 151.25 502.541 152.625C496.766 156.75 492.366 159.225 488.791 160.6C487.966 160.875 487.141 161.425 486.316 161.7C485.491 162.25 484.941 162.8 484.116 163.075C478.066 166.1 473.116 168.025 468.991 169.4C463.216 171.325 460.466 172.425 460.466 172.7C460.466 172.975 460.466 172.975 460.741 172.975C461.016 173.25 461.016 173.25 461.291 173.525C461.566 173.8 461.841 174.35 462.391 174.625C462.666 175.175 462.941 176 463.216 176.825C463.216 178.75 462.116 179.575 459.916 179.85ZM478.341 83.8751V83.6001H478.616C478.891 83.3251 479.166 82.7751 479.441 82.5001C479.716 82.2251 480.266 81.6751 481.091 81.1251C483.016 79.7501 484.941 78.1001 486.591 76.1751L497.591 65.7251C498.416 64.6251 499.516 63.5251 500.616 62.7001C503.641 59.6751 506.391 56.6501 508.866 53.6251C509.141 53.0751 509.691 52.5251 510.241 51.9751C510.791 51.7001 511.341 50.8751 512.166 49.7751C512.716 48.9501 513.266 47.8501 514.091 47.0251C517.666 42.0751 519.316 38.5001 519.316 36.3001C519.316 35.4751 518.766 34.9251 517.941 34.6501C517.116 34.3751 516.016 34.3751 515.191 34.3751C514.366 34.3751 513.266 34.3751 512.166 34.1001C511.066 33.8251 509.966 33.8251 508.866 33.8251L506.666 34.1001C501.441 34.1001 496.216 34.9251 490.991 36.3001C490.716 36.5751 490.166 36.5751 489.891 36.8501C489.616 37.1251 489.341 37.4001 489.341 37.6751C489.341 38.2251 489.341 38.7751 489.066 39.3251C488.791 39.8751 488.791 40.7001 488.791 41.5251V42.9001C488.791 44.2751 488.516 45.9251 488.241 47.3001C487.691 48.6751 487.416 50.3251 487.141 51.7001C486.866 53.0751 486.316 54.4501 486.041 55.8251C483.841 62.7001 482.191 67.9251 481.366 71.5001V71.7751C481.091 72.6001 480.816 73.4251 480.541 74.2501C479.716 75.6251 479.166 77.2751 478.891 78.6501C478.616 80.3001 478.341 81.6751 477.516 83.0501C477.516 83.3251 477.516 83.6001 477.791 83.8751H478.341ZM464.866 143.825L470.916 141.35C471.466 141.075 472.016 140.8 472.566 140.8C472.841 140.8 473.116 140.8 473.666 141.075C474.216 141.35 474.766 141.35 475.316 141.35C476.416 141.35 477.241 141.075 478.066 140.525C478.616 139.975 479.166 139.425 479.991 139.15C480.541 138.875 481.091 138.325 481.366 138.05L493.466 129.525C494.841 128.425 495.941 127.6 497.316 126.775C498.691 125.95 499.791 125.4 500.616 124.575C501.441 123.75 503.366 122.1 506.666 119.35C513.266 114.4 519.316 108.9 524.541 102.575L525.916 99.5501C525.916 99.2751 525.366 99.0001 524.541 99.0001C523.716 99.0001 522.341 99.0001 520.691 98.7251C514.916 98.7251 508.591 99.8251 501.441 101.75L499.241 102.025C497.316 102.3 495.666 102.85 494.291 103.4C492.641 104.225 490.991 104.775 489.341 105.05C486.866 105.875 485.216 106.425 484.116 106.425C481.366 106.425 478.341 105.05 475.041 102.025C474.491 101.475 474.216 101.2 473.941 101.2C473.666 101.2 473.116 101.75 472.841 102.85C472.016 105.875 471.191 109.175 470.366 112.2C469.541 115.5 468.441 120.725 466.791 127.875L464.866 137.775L464.041 142.175C464.041 142.45 464.041 142.725 463.766 143V143.55C463.766 143.825 464.041 143.825 464.866 143.825ZM572.891 133.1C561.891 133.1 553.916 127.875 548.966 117.15C543.741 105.6 540.991 91.0251 540.991 73.1501C540.991 67.6501 541.541 61.3251 542.366 54.4501C543.191 47.5751 544.566 42.9001 546.491 40.4251C546.766 40.1501 546.766 39.8751 547.041 39.0501C547.041 38.2251 547.866 37.4001 549.516 36.5751C550.341 36.3001 551.716 36.0251 553.641 36.0251C559.966 36.0251 563.541 37.9501 564.641 42.0751C565.466 44.0001 565.741 47.0251 565.741 51.1501C565.741 55.2751 565.466 60.2251 564.641 66.2751C563.816 76.7251 563.266 85.8001 563.266 93.5001C563.266 95.4251 563.266 97.9001 563.541 100.375C563.541 103.125 563.816 105.6 564.366 107.8C564.916 110.275 565.466 111.925 566.291 113.3C566.841 114.675 567.391 115.775 567.941 116.6C568.491 117.425 569.041 117.7 569.591 117.975L570.141 118.25C572.616 118.25 574.541 117.425 575.916 115.5C577.016 113.85 577.841 111.925 578.666 110C578.941 108.9 579.491 107.8 580.041 106.975C583.616 100.1 586.641 90.4751 589.116 78.1001C589.391 76.7251 590.766 70.6751 593.241 59.4001L598.741 33.5501C599.016 32.1751 599.291 30.8001 600.116 29.4251C600.941 28.0501 602.316 27.5001 604.516 27.5001C605.891 27.5001 607.266 27.7751 609.191 28.3251C611.941 29.1501 613.866 30.5251 614.691 31.9001C615.516 33.2751 616.066 35.7501 616.066 39.3251L615.791 46.4751C614.416 61.0501 613.316 69.0251 612.491 70.1251C612.216 71.5001 612.216 72.6001 611.941 73.7001C611.666 75.0751 611.391 76.1751 611.116 77.0001C610.841 77.8251 610.841 78.9251 610.841 79.7501C610.566 80.5751 610.566 81.4001 610.291 82.2251C609.466 86.6251 608.641 90.4751 607.541 93.7751L604.241 102.3L600.941 110C594.616 125.4 585.266 133.1 572.891 133.1ZM544.841 162.25C542.641 162.25 540.991 161.7 540.166 160.6C537.141 157.85 535.766 154.275 535.766 150.15C535.766 148.5 536.041 147.125 536.866 146.025C537.691 145.2 539.891 144.1 544.016 143L546.766 142.175C548.966 141.625 551.166 141.35 553.091 141.075C556.116 140.525 559.416 140.25 562.441 140.25C570.691 140.25 576.466 140.25 579.491 140.525C585.541 140.525 590.491 140.8 594.066 141.35C594.616 141.625 595.166 141.625 595.991 141.625L601.766 142.725C604.791 144.1 606.991 146.3 608.091 149.875C608.366 150.975 608.641 152.35 608.641 153.725C608.641 155.65 608.091 156.75 607.266 156.75H606.166C604.241 156.2 602.041 155.925 599.841 155.925C592.691 155.925 588.566 155.925 587.191 156.2C585.816 156.475 584.441 156.75 583.066 156.75C577.291 157.3 569.866 158.4 560.241 159.775C558.866 160.05 556.391 160.6 552.541 161.15L547.041 161.975L544.841 162.25ZM622.55 157.575C620.625 157.575 618.425 157.025 615.4 155.925C612.375 155.1 610.725 153.175 610.175 150.15C609.625 145.75 609.35 141.625 609.35 138.05C609.35 133.925 610.45 123.2 612.65 105.325L613.75 95.4251C614.025 89.9251 615.125 84.4251 616.5 79.2001L617.05 77.2751C617.875 71.5001 620.625 68.4751 625.025 68.4751C628.325 68.4751 631.075 69.0251 633.55 70.1251C635.75 71.5001 636.85 73.1501 636.85 75.6251C636.85 79.2001 635.475 86.3501 633 96.5251C631.9 100.1 629.7 112.2 626.675 132.825C625.85 137.225 625.3 141.625 625.3 146.025C625.3 147.4 625.3 148.5 625.575 149.6C625.575 150.975 626.125 151.8 626.95 152.35C627.775 152.9 628.05 153.725 628.05 154.55V155.375C628.05 155.925 627.5 156.475 626.4 156.75C625.025 157.3 623.925 157.575 622.55 157.575ZM641.25 52.5251H639.325C636.3 52.5251 633.275 51.4251 630.8 48.9501C629.7 48.1251 628.875 47.0251 628.325 45.9251C627.5 44.8251 627.225 42.3501 627.225 38.2251C627.225 35.2001 627.5 32.1751 628.05 29.1501C628.05 26.9501 628.325 24.7501 628.875 22.2751C628.875 20.9001 628.875 19.8001 629.15 19.5251C629.425 19.2501 629.425 19.2501 629.425 18.9751C629.425 18.7001 629.425 18.7001 629.7 18.4251C629.7 18.1501 629.7 17.8751 629.7 17.6001C629.7 15.4001 630.525 12.1001 632.175 7.42509L633 5.22509C634.1 1.65009 636.3 9.01818e-05 639.325 9.01818e-05C642.625 9.01818e-05 645.375 0.825096 647.85 2.75009C650.325 4.6751 651.425 6.87508 651.425 9.35008C651.425 11.5501 650.325 16.2251 647.85 23.3751V24.2001C647.3 25.3001 647.025 26.1251 646.75 26.6751C646.475 27.2251 646.475 27.5001 646.475 27.7751C646.2 28.0501 646.2 28.6001 645.925 29.1501C645.1 30.5251 644.55 32.1751 644 34.3751C642.625 37.9501 641.8 42.0751 641.8 46.4751C641.8 47.8501 641.8 48.6751 642.075 48.9501C642.075 49.2251 642.075 49.2251 642.35 49.2251C642.35 49.5001 642.35 49.7751 642.625 50.0501C642.9 50.3251 642.9 50.8751 642.9 51.1501C642.9 51.9751 642.35 52.2501 641.25 52.5251ZM633.782 212.3C632.407 212.3 631.032 211.475 629.107 209.825C627.182 208.175 626.082 205.975 626.082 203.225C626.082 199.1 629.382 194.425 635.982 189.2C640.932 185.075 643.957 182.6 645.057 181.775L645.332 181.225C645.057 181.225 645.057 181.225 644.782 180.95C644.507 180.95 644.232 180.675 643.957 180.4C643.682 180.125 643.132 179.3 642.857 178.475C642.582 177.65 642.307 176.275 642.032 174.35C642.032 168.025 643.407 156.475 646.157 140.25C651.107 111.1 659.082 82.2251 670.082 53.9001C678.882 31.0751 686.032 17.3251 691.532 12.3751C692.082 12.1001 692.632 11.8251 693.457 11.8251C694.282 11.8251 694.832 12.1001 695.657 12.3751C701.982 15.6751 705.007 19.5251 705.007 24.2001C705.007 28.3251 703.082 34.3751 698.957 41.8001L695.107 50.3251C685.482 72.6001 678.057 92.4001 672.282 109.175C666.507 125.4 661.007 146.3 655.507 171.6C655.507 171.875 655.507 172.425 655.232 173.25C654.957 174.075 654.682 175.45 654.682 177.1C654.682 177.375 654.682 177.65 654.957 177.65H655.232C659.082 175.175 667.882 171.325 681.632 166.375C688.782 163.9 695.107 162.525 700.332 162.525C703.907 162.525 707.757 163.075 711.332 164.175C714.907 165.275 717.657 168.575 719.582 174.075L719.857 175.45C719.857 176.275 719.307 177.1 718.207 177.65C717.107 178.2 714.907 178.75 711.607 179.3C707.482 180.125 702.257 181.225 695.657 183.15L686.032 186.45C672.007 191.125 663.757 194.15 661.282 195.525C658.257 196.625 654.957 198 650.832 199.925C640.382 205.15 635.157 208.45 635.157 210.1V210.65C635.157 211.75 634.607 212.3 633.782 212.3ZM727.3 171.05C725.925 171.05 724.275 170.775 722.625 170.225C716.575 167.75 713.55 165 713.55 161.7C713.55 160.325 714.375 158.675 716.025 157.3C717.4 155.925 719.6 155.375 722.625 155.375C722.9 155.375 723.45 155.1 724.275 154.825C724.825 154.55 725.375 154.275 725.925 154C726.475 153.725 726.75 153.175 727.025 152.9L727.3 152.625C727.3 152.35 727.3 152.075 727.025 151.8C726.75 151.525 726.475 151.525 726.2 151.525C724.275 150.7 722.625 149.6 721.25 148.225C719.875 146.85 718.775 144.925 718.5 141.9C717.95 139.15 717.675 136.125 717.675 132.825C717.675 122.65 719.6 107.8 723.175 88.8251C724.825 80.3001 725.925 75.6251 726.2 74.5251L727.3 70.6751C728.125 68.7501 728.95 66.2751 729.775 63.8001C730.6 61.3251 731.15 58.8501 731.975 56.9251C732.8 55.0001 733.35 53.6251 733.625 53.0751C733.9 52.5251 734.175 51.9751 734.175 51.4251C734.175 51.1501 733.9 50.6001 733.075 49.7751C731.7 48.4001 730.875 47.0251 730.875 45.6501C730.875 44.5501 731.15 43.4501 731.7 42.0751C735.275 34.1001 741.6 28.0501 751.225 23.9251C758.1 20.9001 765.525 19.5251 773.5 19.5251C776.25 19.5251 781.2 20.0751 788.075 20.9001C794.95 21.7251 802.65 26.6751 810.625 35.2001C815.85 41.5251 818.325 48.1251 818.325 55.2751C818.325 56.9251 817.775 60.5001 816.95 65.7251C816.125 70.9501 812.825 78.3751 807.05 87.4501C801.275 96.8001 795.225 105.325 788.625 113.3L786.7 116.05C784.225 119.075 781.75 121.825 779.275 124.575C773.5 130.9 768 136.95 762.775 142.725C754.8 152.075 747.65 159.5 741.05 165C736.375 169.125 731.7 171.05 727.3 171.05ZM737.75 141.35C738.85 140.525 742.7 136.125 749.575 128.425C756.45 120.725 763.875 111.375 772.4 100.375C780.65 89.6501 787.525 78.6501 793.3 67.9251C798.25 58.3001 800.725 50.3251 800.725 43.4501C800.725 42.6251 800.45 40.1501 800.175 36.0251C799.625 32.1751 793.575 29.9751 782.3 29.7001C775.975 29.9751 769.925 31.0751 764.15 33.2751C763.325 33.5501 762.775 33.5501 762.5 33.8251C762.225 34.1001 761.95 34.6501 761.95 35.4751C761.95 38.2251 761.125 42.0751 759.475 47.0251C750.4 72.0501 743.525 97.6251 738.85 123.475L738.3 128.7C737.75 133.375 737.475 136.675 737.475 138.325C737.475 139.7 737.475 140.525 737.75 141.35ZM827.726 157.575C825.801 157.575 823.601 157.025 820.576 155.925C817.551 155.1 815.901 153.175 815.351 150.15C814.801 145.75 814.526 141.625 814.526 138.05C814.526 133.925 815.626 123.2 817.826 105.325L818.926 95.4251C819.201 89.9251 820.301 84.4251 821.676 79.2001L822.226 77.2751C823.051 71.5001 825.801 68.4751 830.201 68.4751C833.501 68.4751 836.251 69.0251 838.726 70.1251C840.926 71.5001 842.026 73.1501 842.026 75.6251C842.026 79.2001 840.651 86.3501 838.176 96.5251C837.076 100.1 834.876 112.2 831.851 132.825C831.026 137.225 830.476 141.625 830.476 146.025C830.476 147.4 830.476 148.5 830.751 149.6C830.751 150.975 831.301 151.8 832.126 152.35C832.951 152.9 833.226 153.725 833.226 154.55V155.375C833.226 155.925 832.676 156.475 831.576 156.75C830.201 157.3 829.101 157.575 827.726 157.575ZM846.426 52.5251H844.501C841.476 52.5251 838.451 51.4251 835.976 48.9501C834.876 48.1251 834.051 47.0251 833.501 45.9251C832.676 44.8251 832.401 42.3501 832.401 38.2251C832.401 35.2001 832.676 32.1751 833.226 29.1501C833.226 26.9501 833.501 24.7501 834.051 22.2751C834.051 20.9001 834.051 19.8001 834.326 19.5251C834.601 19.2501 834.601 19.2501 834.601 18.9751C834.601 18.7001 834.601 18.7001 834.876 18.4251C834.876 18.1501 834.876 17.8751 834.876 17.6001C834.876 15.4001 835.701 12.1001 837.351 7.42509L838.176 5.22509C839.276 1.65009 841.476 9.01818e-05 844.501 9.01818e-05C847.801 9.01818e-05 850.551 0.825096 853.026 2.75009C855.501 4.6751 856.601 6.87508 856.601 9.35008C856.601 11.5501 855.501 16.2251 853.026 23.3751V24.2001C852.476 25.3001 852.201 26.1251 851.926 26.6751C851.651 27.2251 851.651 27.5001 851.651 27.7751C851.376 28.0501 851.376 28.6001 851.101 29.1501C850.276 30.5251 849.726 32.1751 849.176 34.3751C847.801 37.9501 846.976 42.0751 846.976 46.4751C846.976 47.8501 846.976 48.6751 847.251 48.9501C847.251 49.2251 847.251 49.2251 847.526 49.2251C847.526 49.5001 847.526 49.7751 847.801 50.0501C848.076 50.3251 848.076 50.8751 848.076 51.1501C848.076 51.9751 847.526 52.2501 846.426 52.5251ZM911.283 190.025C905.233 190.025 901.658 186.725 900.558 179.85C900.283 178.475 900.283 176.275 900.283 172.975C900.283 162.25 900.283 153.45 900.558 146.3L900.833 133.1L898.908 128.425C889.008 105.6 880.208 87.7251 872.508 74.8001C871.133 82.2251 869.758 91.8501 868.383 103.4C865.633 128.425 864.258 144.65 864.258 151.525C864.258 153.175 864.258 154.55 864.533 155.375C864.533 157.3 863.708 158.125 862.058 158.125C859.858 158.125 857.658 157.575 855.458 156.2C853.258 154.825 851.608 153.175 850.508 150.7C849.133 147.125 848.583 141.35 848.583 133.925C848.583 125.95 849.133 110.275 849.958 86.9001C851.333 70.6751 852.433 58.8501 853.258 51.9751C853.808 46.7501 854.358 44.0001 854.633 43.4501H854.908C857.383 41.5251 859.858 40.4251 862.608 39.6001C870.858 39.6001 879.383 47.3001 888.458 62.7001C893.408 71.2251 898.083 79.7501 902.483 88.8251C902.758 84.1501 903.033 80.5751 903.308 78.6501C903.583 76.7251 904.133 73.4251 904.683 69.0251C908.533 35.2001 913.483 18.1501 919.258 18.1501C924.483 18.7001 928.883 21.1751 931.908 25.5751C931.908 30.2501 930.533 42.0751 927.783 61.6001C920.633 112.475 916.233 152.075 914.583 179.85C914.308 182.325 914.033 184.8 914.033 187.275C913.758 188.925 912.933 189.75 911.283 190.025ZM1007.04 197.175L1005.39 196.9C1000.71 195.8 997.962 193.05 996.587 188.65C995.762 183.7 995.212 177.925 995.212 171.325C995.212 164.45 995.487 158.675 995.762 153.725L996.037 146.575C986.412 154 976.512 157.85 966.612 157.85C965.237 157.85 961.387 157.575 955.062 156.75C948.737 155.925 942.137 150.425 935.537 139.975C930.862 132.825 928.662 123.475 928.662 112.2C928.662 107.25 929.212 101.75 930.037 95.9751C933.062 79.7501 939.387 63.5251 948.462 47.5751C957.537 31.6251 967.987 19.5251 979.262 11.2751C985.587 6.87508 991.362 4.6751 996.862 4.6751C1001.54 4.6751 1006.21 6.32509 1010.61 9.35008C1014.74 12.6501 1016.66 15.9501 1016.66 19.5251C1016.66 23.1001 1014.19 28.6001 1008.96 36.3001C1005.94 40.4251 1002.91 45.6501 999.887 51.4251C999.337 52.2501 998.512 52.8001 997.412 52.8001C997.137 52.8001 996.862 52.8001 996.037 52.5251C995.212 52.5251 994.112 51.9751 993.287 51.1501C992.462 50.3251 991.912 49.5001 991.912 48.6751C991.912 48.4001 992.187 47.8501 992.462 47.3001C992.737 47.0251 994.662 42.9001 997.687 34.9251C1000.16 28.6001 1001.54 24.7501 1001.54 23.6501C1001.54 23.3751 1001.26 23.1001 1000.99 23.1001C999.612 23.1001 995.762 26.1251 989.437 32.4501C983.112 38.7751 976.512 48.1251 969.637 60.5001C957.537 83.8751 951.487 105.05 951.487 124.025C951.487 138.05 954.512 144.925 960.287 144.925C966.337 144.925 972.662 143.275 979.537 139.7C986.137 136.4 991.912 132.275 996.587 127.05L999.887 117.975C1001.81 112.75 1002.64 109.175 1002.64 106.7C1002.64 104.225 1001.54 102.85 999.612 102.575L997.137 102.3C994.387 102.3 991.362 102.85 987.787 103.675C982.837 104.5 979.812 105.05 978.987 105.05C975.412 105.05 972.937 102.85 971.287 98.4501C971.012 97.6251 970.737 97.0751 970.737 96.2501C970.737 95.1501 971.012 94.0501 971.837 92.9501C973.487 90.7501 976.787 88.8251 981.737 86.9001C986.687 85.2501 991.912 83.8751 997.137 82.5001C1002.36 81.4001 1006.21 80.8501 1008.69 80.5751C1011.16 80.3001 1013.36 80.3001 1015.56 80.0251C1017.76 79.7501 1019.96 79.7501 1021.89 79.7501C1024.64 79.7501 1027.39 80.0251 1030.41 80.5751C1033.16 81.1251 1035.64 83.6001 1037.84 87.7251C1038.11 88.5501 1038.39 89.1001 1038.39 89.6501C1038.39 90.7501 1037.84 91.3001 1036.74 91.3001L1033.99 90.7501C1032.89 90.7501 1030.69 91.3001 1027.66 92.4001C1026.56 92.6751 1025.46 95.7001 1024.64 101.2L1023.54 105.6C1015.56 133.925 1010.89 154.825 1009.51 168.025C1008.41 178.75 1007.86 186.175 1007.86 190.575V194.975C1007.86 196.075 1007.86 196.625 1007.86 196.9C1007.59 197.175 1007.31 197.175 1007.04 197.175Z" fill="#B8D433"/>
</svg>
