<svg width="849" height="355" viewBox="0 0 849 355" fill="none" xmlns="http://www.w3.org/2000/svg">
<g filter="url(#filter0_d_69_1099)">
<path d="M158.432 339.235C156.073 339.235 152.771 338.763 149.468 337.82C145.693 337.348 142.862 335.933 140.975 334.517C138.616 333.102 137.672 331.686 137.672 330.271V329.327C139.56 325.081 143.334 312.342 148.524 290.638C153.714 269.406 159.376 243.928 165.51 215.148C177.305 159.002 182.967 118.897 182.967 93.8909C182.967 86.8137 182.495 81.1519 181.551 76.4337C177.777 80.6801 160.32 116.066 129.652 182.592C125.405 191.557 123.046 196.275 122.103 197.69C119.743 200.05 117.384 200.993 115.025 200.993C112.666 200.993 108.892 199.578 104.174 196.747C98.9836 193.916 93.7936 188.726 88.1318 181.649C81.9982 174.571 77.7519 167.966 74.4491 162.776C69.731 152.868 65.4846 143.903 62.1819 135.411C58.8792 126.918 56.5201 122.672 56.0483 122.672C54.6329 124.087 53.2174 130.693 51.802 142.96C50.8583 152.868 50.3865 163.72 50.3865 175.515V184.48C51.802 215.148 53.2174 237.795 55.1047 252.421C56.5201 267.047 59.351 280.258 63.1256 291.582C65.4846 299.603 67.8437 306.208 69.2592 310.454C70.6746 315.173 72.0901 318.475 73.5055 320.834C74.921 323.194 75.8646 324.137 76.8082 324.609C77.7519 325.081 78.6955 325.553 80.1109 325.553C81.0546 326.024 81.9982 326.024 83.4136 326.496C84.8291 326.968 86.2445 327.44 87.66 328.383C89.0754 329.799 90.0191 330.743 90.0191 331.686C90.0191 332.158 89.0754 333.573 87.66 334.989C86.2445 336.876 82.9418 337.82 78.2237 337.82C68.3155 337.82 59.351 332.63 52.2738 321.778C36.232 293.941 25.3803 262.801 20.1903 228.358C16.8876 207.127 15.0003 186.367 15.0003 166.551C15.0003 154.755 15.9439 138.242 18.303 117.482C20.6621 96.7218 26.7957 79.2646 36.7039 65.1101C39.5348 61.8074 43.7811 60.392 49.4429 60.392C52.7456 60.392 56.5201 60.8638 60.2947 62.2792C64.0692 63.6947 66.9001 65.5819 68.3155 67.941C69.731 70.3001 72.0901 74.5464 74.921 81.1519C77.28 88.2291 81.0546 99.5527 85.7727 116.066C88.1318 124.087 90.9627 131.636 94.2654 138.713C97.0963 145.791 99.9272 151.924 102.286 156.171C104.645 160.417 105.589 162.776 106.061 162.776C108.42 153.34 113.61 141.073 122.103 125.503C139.56 93.8909 156.073 66.9974 172.587 44.822C181.08 32.5548 187.685 26.4212 192.403 26.4212C194.762 26.4212 198.065 27.3648 201.368 28.7803C203.727 30.1957 206.086 32.5548 209.389 36.3294C212.691 40.5757 215.994 50.012 219.297 65.5819C220.712 72.6592 221.656 82.0955 221.656 93.4191C221.656 106.158 220.712 120.784 218.825 138.242C217.881 144.375 215.05 158.058 210.804 178.346C206.086 198.634 200.424 221.281 194.29 245.816C187.685 270.35 181.08 291.582 174.946 309.511C168.341 327.912 162.679 337.82 158.432 339.235ZM249.135 270.35C245.833 270.35 242.058 269.406 236.868 267.519C231.678 266.104 228.847 262.801 227.904 257.611C226.96 250.062 226.488 242.985 226.488 236.851C226.488 229.774 228.375 211.373 232.15 180.705L234.037 163.72C234.509 154.283 236.396 144.847 238.755 135.883L239.699 132.58C241.114 122.672 245.833 117.482 253.382 117.482C259.043 117.482 263.762 118.425 268.008 120.313C271.783 122.672 273.67 125.503 273.67 129.749C273.67 135.883 271.311 148.15 267.064 165.607C265.177 171.741 261.403 192.5 256.213 227.887C254.797 235.436 253.854 242.985 253.854 250.534C253.854 252.893 253.854 254.78 254.325 256.667C254.325 259.027 255.269 260.442 256.684 261.386C258.1 262.329 258.572 263.745 258.572 265.16V266.576C258.572 267.519 257.628 268.463 255.741 268.935C253.382 269.878 251.494 270.35 249.135 270.35ZM281.219 90.1164H277.916C272.726 90.1164 267.536 88.2291 263.29 83.9828C261.403 82.5673 259.987 80.6801 259.043 78.7928C257.628 76.9055 257.156 72.6592 257.156 65.5819C257.156 60.392 257.628 55.202 258.572 50.012C258.572 46.2375 259.043 42.4629 259.987 38.2166C259.987 35.8575 259.987 33.9703 260.459 33.4984C260.931 33.0266 260.931 33.0266 260.931 32.5548C260.931 32.083 260.931 32.083 261.403 31.6112C261.403 31.1394 261.403 30.6676 261.403 30.1957C261.403 26.4212 262.818 20.7594 265.649 12.7386L267.064 8.96402C268.952 2.8304 272.726 -0.000486212 277.916 -0.000486212C283.578 -0.000486212 288.296 1.41497 292.542 4.71767C296.789 8.0204 298.676 11.7949 298.676 16.0412C298.676 19.8158 296.789 27.8367 292.542 40.1039V41.5193C291.599 43.4066 291.127 44.822 290.655 45.7657C290.183 46.7093 290.183 47.1811 290.183 47.6529C289.712 48.1247 289.712 49.0684 289.24 50.012C287.824 52.3711 286.881 55.202 285.937 58.9765C283.578 65.1101 282.162 72.1874 282.162 79.7364C282.162 82.0955 282.162 83.5109 282.634 83.9828C282.634 84.4546 282.634 84.4546 283.106 84.4546C283.106 84.9264 283.106 85.3982 283.578 85.87C284.05 86.3419 284.05 87.2855 284.05 87.7573C284.05 89.1728 283.106 89.6446 281.219 90.1164ZM275.012 276.012C265.575 276.012 258.97 274.596 254.723 271.294C251.893 269.878 250.477 267.991 250.477 266.104V265.16C251.421 261.857 253.308 260.442 256.611 259.97L258.97 259.498L265.575 259.97C270.765 259.97 274.54 259.498 276.899 258.083C284.92 256.667 292.469 254.308 300.018 251.949L301.905 251.477C308.51 249.59 314.644 246.759 320.306 242.985L320.778 242.513C327.855 237.795 331.158 233.548 331.158 229.302C331.158 226.943 330.214 224.112 328.327 220.809C325.968 217.979 324.08 215.148 321.721 212.317C309.926 196.747 301.433 180.233 297.187 163.72C293.884 153.812 292.469 143.432 292.469 133.052C292.469 117.482 294.828 103.799 299.546 91.06L300.018 90.1164C302.849 82.0955 305.68 76.9055 308.982 73.6028C317.947 60.8638 327.383 54.7302 338.235 54.7302C341.538 54.7302 344.368 55.202 347.671 56.1456C348.143 56.6174 348.615 56.6174 349.087 56.6174C349.558 56.6174 350.03 56.6174 350.502 57.0893C351.918 57.0893 352.389 56.6174 352.389 55.6738C354.748 45.7657 358.995 40.5757 364.185 40.5757H366.072C375.98 41.5193 384.001 45.7657 390.135 53.7866C390.606 54.2584 391.078 55.6738 391.078 58.0329C391.078 62.7511 389.191 70.7719 385.888 81.6237C383.057 87.7573 380.698 93.8909 378.811 100.025L377.867 102.384C375.037 111.348 372.677 119.841 370.79 128.805C370.318 131.164 369.847 133.052 369.375 134.939C367.959 140.601 367.016 146.262 366.072 152.396C365.6 156.171 364.185 158.058 361.354 158.058L358.995 157.586C350.974 156.171 346.728 152.868 345.784 148.15C344.84 143.432 344.368 138.713 344.368 134.467C344.368 125.974 344.84 115.594 346.256 102.855L348.143 90.1164H347.671C347.199 90.1164 346.728 90.5882 346.256 92.0036C342.009 99.5527 338.235 108.045 335.404 117.01C332.101 126.446 330.686 136.354 330.686 146.734C330.686 158.53 331.629 167.494 333.517 174.1L334.932 178.346C338.707 192.029 345.784 203.824 355.692 213.732C364.657 221.753 369.375 229.302 369.847 235.908C369.847 239.682 368.431 243.457 366.072 246.759C360.882 253.365 354.277 258.083 346.256 261.386C335.404 266.104 323.609 269.406 311.813 270.822C299.074 273.181 291.053 274.596 286.807 274.596C283.032 275.54 279.258 276.012 275.012 276.012ZM378.221 276.012C368.785 276.012 362.18 274.596 357.933 271.294C355.102 269.878 353.687 267.991 353.687 266.104V265.16C354.63 261.857 356.518 260.442 359.82 259.97L362.18 259.498L368.785 259.97C373.975 259.97 377.749 259.498 380.109 258.083C388.129 256.667 395.678 254.308 403.228 251.949L405.115 251.477C411.72 249.59 417.854 246.759 423.516 242.985L423.987 242.513C431.065 237.795 434.367 233.548 434.367 229.302C434.367 226.943 433.424 224.112 431.536 220.809C429.177 217.979 427.29 215.148 424.931 212.317C413.136 196.747 404.643 180.233 400.397 163.72C397.094 153.812 395.678 143.432 395.678 133.052C395.678 117.482 398.038 103.799 402.756 91.06L403.228 90.1164C406.058 82.0955 408.889 76.9055 412.192 73.6028C421.157 60.8638 430.593 54.7302 441.445 54.7302C444.747 54.7302 447.578 55.202 450.881 56.1456C451.353 56.6174 451.825 56.6174 452.296 56.6174C452.768 56.6174 453.24 56.6174 453.712 57.0893C455.127 57.0893 455.599 56.6174 455.599 55.6738C457.958 45.7657 462.205 40.5757 467.395 40.5757H469.282C479.19 41.5193 487.211 45.7657 493.344 53.7866C493.816 54.2584 494.288 55.6738 494.288 58.0329C494.288 62.7511 492.401 70.7719 489.098 81.6237C486.267 87.7573 483.908 93.8909 482.021 100.025L481.077 102.384C478.246 111.348 475.887 119.841 474 128.805C473.528 131.164 473.056 133.052 472.584 134.939C471.169 140.601 470.225 146.262 469.282 152.396C468.81 156.171 467.395 158.058 464.564 158.058L462.205 157.586C454.184 156.171 449.937 152.868 448.994 148.15C448.05 143.432 447.578 138.713 447.578 134.467C447.578 125.974 448.05 115.594 449.465 102.855L451.353 90.1164H450.881C450.409 90.1164 449.937 90.5882 449.465 92.0036C445.219 99.5527 441.445 108.045 438.614 117.01C435.311 126.446 433.896 136.354 433.896 146.734C433.896 158.53 434.839 167.494 436.726 174.1L438.142 178.346C441.916 192.029 448.994 203.824 458.902 213.732C467.866 221.753 472.584 229.302 473.056 235.908C473.056 239.682 471.641 243.457 469.282 246.759C464.092 253.365 457.486 258.083 449.465 261.386C438.614 266.104 426.818 269.406 415.023 270.822C402.284 273.181 394.263 274.596 390.017 274.596C386.242 275.54 382.468 276.012 378.221 276.012ZM508.081 270.35C504.779 270.35 501.004 269.406 495.814 267.519C490.624 266.104 487.793 262.801 486.85 257.611C485.906 250.062 485.434 242.985 485.434 236.851C485.434 229.774 487.321 211.373 491.096 180.705L492.983 163.72C493.455 154.283 495.342 144.847 497.701 135.883L498.645 132.58C500.06 122.672 504.779 117.482 512.328 117.482C517.989 117.482 522.708 118.425 526.954 120.313C530.728 122.672 532.616 125.503 532.616 129.749C532.616 135.883 530.257 148.15 526.01 165.607C524.123 171.741 520.348 192.5 515.159 227.887C513.743 235.436 512.799 242.985 512.799 250.534C512.799 252.893 512.799 254.78 513.271 256.667C513.271 259.027 514.215 260.442 515.63 261.386C517.046 262.329 517.518 263.745 517.518 265.16V266.576C517.518 267.519 516.574 268.463 514.687 268.935C512.328 269.878 510.44 270.35 508.081 270.35ZM540.165 90.1164H536.862C531.672 90.1164 526.482 88.2291 522.236 83.9828C520.348 82.5673 518.933 80.6801 517.989 78.7928C516.574 76.9055 516.102 72.6592 516.102 65.5819C516.102 60.392 516.574 55.202 517.518 50.012C517.518 46.2375 517.989 42.4629 518.933 38.2166C518.933 35.8575 518.933 33.9703 519.405 33.4984C519.877 33.0266 519.877 33.0266 519.877 32.5548C519.877 32.083 519.877 32.083 520.348 31.6112C520.348 31.1394 520.348 30.6676 520.348 30.1957C520.348 26.4212 521.764 20.7594 524.595 12.7386L526.01 8.96402C527.898 2.8304 531.672 -0.000486212 536.862 -0.000486212C542.524 -0.000486212 547.242 1.41497 551.488 4.71767C555.735 8.0204 557.622 11.7949 557.622 16.0412C557.622 19.8158 555.735 27.8367 551.488 40.1039V41.5193C550.545 43.4066 550.073 44.822 549.601 45.7657C549.129 46.7093 549.129 47.1811 549.129 47.6529C548.657 48.1247 548.657 49.0684 548.186 50.012C546.77 52.3711 545.827 55.202 544.883 58.9765C542.524 65.1101 541.108 72.1874 541.108 79.7364C541.108 82.0955 541.108 83.5109 541.58 83.9828C541.58 84.4546 541.58 84.4546 542.052 84.4546C542.052 84.9264 542.052 85.3982 542.524 85.87C542.996 86.3419 542.996 87.2855 542.996 87.7573C542.996 89.1728 542.052 89.6446 540.165 90.1164ZM606.713 213.732C591.143 213.732 576.989 206.183 563.778 191.085C556.229 181.649 551.982 172.212 551.51 163.248C551.039 161.832 551.039 159.945 551.039 156.642C551.039 154.283 551.51 151.452 551.982 148.622C552.454 145.791 552.454 142.96 552.454 140.601C552.454 138.242 552.926 136.354 553.87 134.939V134.467C555.285 132.108 556.229 129.277 557.172 125.974C557.644 123.144 558.588 120.313 560.003 117.01C570.383 92.0036 580.763 72.6592 591.615 58.9765C593.03 57.5611 593.502 55.6738 593.502 53.7866C593.502 52.8429 593.502 51.8993 593.03 50.4838C592.558 49.0684 592.087 48.1247 592.087 46.7093C592.087 45.2939 592.558 44.3502 593.974 42.9348C594.918 41.5193 596.805 41.0475 599.636 41.0475H602.938C605.769 41.0475 608.6 40.5757 611.431 39.6321C613.79 39.1602 615.677 38.6884 617.093 38.6884C622.283 38.6884 626.529 41.5193 630.304 47.1811C631.719 49.5402 634.55 50.9556 637.853 51.8993C641.155 53.3147 646.817 56.1456 655.782 60.392C676.07 68.8847 690.224 83.9828 697.773 105.214C699.661 110.876 700.604 116.538 700.604 122.672V126.918C699.189 146.262 691.64 163.248 677.957 178.346L668.049 187.782C665.218 190.141 661.915 192.5 658.613 194.86L653.423 198.162C647.289 202.409 641.155 205.239 634.55 207.599C624.642 211.845 615.677 213.732 606.713 213.732ZM584.538 177.402C586.897 176.931 589.256 176.459 591.615 175.987C599.164 175.515 607.657 172.684 616.621 167.966C632.663 159.473 645.402 149.565 654.366 138.242C659.556 132.58 663.803 125.974 667.105 117.954C670.408 110.404 671.824 104.271 671.824 99.5527C671.824 93.4191 661.444 85.3982 640.684 76.4337L633.606 73.131L631.719 72.6592L630.304 73.131C627.001 75.0183 623.698 79.2646 619.924 85.87L617.093 90.1164C612.847 96.25 609.072 102.384 605.297 108.517L602.938 112.764C601.051 116.066 599.636 118.897 598.22 122.2C596.805 125.503 594.918 128.805 593.502 131.164L593.03 133.052C591.615 135.411 590.199 137.77 589.256 140.129C587.84 145.319 585.953 150.037 584.538 155.227C583.122 160.417 581.707 166.551 581.235 174.1C581.235 176.459 581.707 177.402 582.65 177.402H584.538ZM568.024 282.146C564.721 282.146 562.362 281.202 560.003 279.786C551.982 274.596 546.792 267.519 544.433 259.498C543.961 258.083 543.49 256.196 543.49 254.78C543.49 253.837 543.961 252.421 544.433 251.006C544.905 249.59 549.623 247.231 557.644 244.4C562.834 242.041 568.968 239.682 575.101 238.267C577.46 237.795 579.348 237.323 581.235 236.851C587.84 235.436 594.446 234.492 601.523 234.02C606.241 233.548 610.959 233.077 615.677 232.605C620.396 232.133 625.114 232.133 630.304 232.133C637.853 231.189 648.233 230.718 661.915 230.718L666.162 231.189C670.408 231.189 675.126 231.661 679.373 232.133C686.45 234.02 692.583 238.267 696.83 244.872C699.661 248.647 701.076 252.421 701.076 256.667C701.076 258.083 700.133 259.027 698.717 259.027H696.83C693.999 258.555 691.168 258.083 688.337 258.083C679.373 258.555 669.936 259.498 660.972 260.914L647.761 263.745C639.74 265.16 632.191 266.576 624.17 268.463L615.206 270.35L594.446 276.012C592.087 276.956 589.256 277.899 585.953 278.371C582.65 278.843 578.876 279.786 575.101 281.202C572.742 281.674 570.383 282.146 568.024 282.146ZM618.508 155.227H617.093C612.847 153.812 610.016 151.452 607.657 148.15C605.297 144.847 604.354 141.544 604.354 137.298C604.354 133.523 604.826 131.164 605.297 129.749C606.713 123.615 609.072 117.01 612.847 110.404L615.677 105.214V104.271C618.037 100.025 621.339 96.7218 626.529 94.3627C627.001 93.8909 627.473 93.8909 627.945 93.4191C628.416 93.4191 629.36 93.4191 629.832 93.4191L631.719 93.8909C636.909 96.7218 640.684 100.968 643.043 106.158L643.515 109.933C643.515 110.876 643.515 111.82 643.043 112.292C642.571 112.764 642.571 113.235 642.571 113.707C641.627 117.01 639.74 120.313 637.381 123.615C632.191 129.749 628.416 134.467 626.057 138.713C622.755 144.375 620.867 148.15 620.867 150.037V152.868C620.867 154.283 619.924 155.227 618.508 155.227ZM813.166 326.024C802.786 326.024 796.652 320.363 794.765 308.567C794.293 306.208 794.293 302.434 794.293 296.772C794.293 278.371 794.293 263.273 794.765 251.006L795.237 228.358L791.934 220.338C774.949 181.177 759.85 150.509 746.64 128.333C744.28 141.073 741.921 157.586 739.562 177.402C734.844 220.338 732.485 248.175 732.485 259.97C732.485 262.801 732.485 265.16 732.957 266.576C732.957 269.878 731.541 271.294 728.711 271.294C724.936 271.294 721.161 270.35 717.387 267.991C713.612 265.632 710.782 262.801 708.894 258.555C706.535 252.421 705.592 242.513 705.592 229.774C705.592 216.091 706.535 189.198 707.951 149.093C710.31 121.256 712.197 100.968 713.612 89.1728C714.556 80.2082 715.5 75.4901 715.972 74.5464H716.443C720.69 71.2437 724.936 69.3565 729.654 67.941C743.809 67.941 758.435 81.1519 774.005 107.574C782.498 122.2 790.518 136.826 798.068 152.396C798.539 144.375 799.011 138.242 799.483 134.939C799.955 131.636 800.898 125.974 801.842 118.425C808.447 60.392 816.94 31.1394 826.848 31.1394C835.813 32.083 843.362 36.3294 848.552 43.8784C848.552 51.8993 846.193 72.1874 841.475 105.686C829.207 192.972 821.658 260.914 818.827 308.567C818.356 312.814 817.884 317.06 817.884 321.306C817.412 324.137 815.997 325.553 813.166 326.024Z" fill="#B8D433"/>
</g>
<defs>
<filter id="filter0_d_69_1099" x="0" y="0" width="848.552" height="354.235" filterUnits="userSpaceOnUse" color-interpolation-filters="sRGB">
<feFlood flood-opacity="0" result="BackgroundImageFix"/>
<feColorMatrix in="SourceAlpha" type="matrix" values="0 0 0 0 0 0 0 0 0 0 0 0 0 0 0 0 0 0 127 0" result="hardAlpha"/>
<feOffset dx="-10" dy="10"/>
<feGaussianBlur stdDeviation="2.5"/>
<feComposite in2="hardAlpha" operator="out"/>
<feColorMatrix type="matrix" values="0 0 0 0 0 0 0 0 0 0 0 0 0 0 0 0 0 0 0.25 0"/>
<feBlend mode="normal" in2="BackgroundImageFix" result="effect1_dropShadow_69_1099"/>
<feBlend mode="normal" in="SourceGraphic" in2="effect1_dropShadow_69_1099" result="shape"/>
</filter>
</defs>
</svg>
