<svg width="1833" height="714" viewBox="0 0 1833 714" fill="none" xmlns="http://www.w3.org/2000/svg">
<path d="M555.09 414.48C608.272 363.935 662.993 316.173 664.605 237.791C665.337 201.603 627.172 186.293 598.09 199.626C546.226 223.433 493.996 246.801 440.154 264.236C469.602 238.89 498.977 213.544 528.279 188.125C576.553 146.296 639.552 100.879 650.101 33.558C655.009 2.05869 611.569 -13.2515 600.068 14.4387C561.683 75.3863 505.643 113.185 449.823 157.285C387.85 206.292 325.584 254.933 264.05 304.453C235.115 327.747 259.582 376.901 293.718 376.095C363.456 374.41 429.239 359.027 493.336 336.977C490.26 339.395 487.256 341.812 484.473 344.083C448.065 374.41 410.486 403.785 375.543 435.871C326.463 480.922 266.175 560.33 315.988 625.38C337.158 652.997 395.249 659.223 402.208 614.098C409.24 568.534 417.591 545.239 451.728 512.055C485.645 479.091 520.66 447.152 555.016 414.627L555.09 414.48Z" fill="white" fill-opacity="0.03"/>
<path d="M855.873 443.418C852.87 377.489 877.264 315.296 876.092 250.173C875.212 199.774 856.166 149.448 812.873 120.366C774.781 94.7275 718.375 89.0136 687.022 127.472C666.657 152.452 670.686 195.745 707.24 204.096C738.447 211.202 753.391 221.384 758.592 240.723C755.515 243.36 752.951 247.023 751.413 251.931C707.973 393.532 538.609 452.355 455.026 567.291C431.658 599.45 464.476 633.879 495.462 637.688C618.896 652.999 740.864 677.978 860.562 711.749C902.536 723.616 940.409 675.341 917.553 637.615C881.659 578.279 859.023 513.156 855.8 443.491L855.873 443.418ZM583.367 554.765C638.162 493.89 702.186 441.001 746.944 374.412C745.113 393.898 744.234 413.457 745.406 433.675C748.556 487.59 760.203 539.601 779.249 589.048C714.346 575.203 649.076 563.775 583.294 554.765H583.367Z" fill="white" fill-opacity="0.03"/>
<path d="M1199.88 142.196C1198.48 103.298 1197.38 67.5496 1159.07 47.9907C1131.16 33.7061 1105.6 47.3314 1094.24 74.3623C1062.52 149.668 1020.62 218.747 964.29 277.863C948.54 294.345 933.303 312.146 923.78 331.412C897.702 331.778 875.506 352.729 882.611 383.349C895.65 439.975 945.903 483.707 982.384 527.001C1025.02 577.546 1067.72 628.018 1110.8 678.271C1142 714.678 1202.73 684.424 1202.73 640.179C1202.73 527.001 1203.54 413.823 1202 300.645C1201.27 247.902 1201.78 194.939 1199.88 142.196ZM1100.47 368.552C1099.37 410.673 1098.56 452.794 1097.76 494.915C1087.65 482.828 1077.61 470.595 1067.43 458.508C1042.53 428.767 1018.5 391.92 988.537 364.596C1015.2 330.972 1054.54 303.575 1079.96 270.171C1088.9 258.377 1097.17 246.29 1105.01 233.91C1103.47 278.815 1101.71 323.647 1100.54 368.552H1100.47Z" fill="white" fill-opacity="0.03"/>
<path d="M1572.23 120.367C1572.08 70.8473 1504.54 52.6802 1479.34 95.2409C1438.98 163.441 1389.97 239.405 1349.61 319.106C1342.35 236.842 1340.16 147.691 1317.81 68.5031C1312.17 48.5047 1276.94 44.9885 1273.72 68.5031C1254.01 211.422 1282.8 358.224 1281.04 503.121C1273.2 540.481 1269.76 577.987 1272.32 615.347C1276.5 675.269 1369.97 676.001 1366.31 615.347C1372.24 501.583 1421.47 393.899 1478.68 292.222C1488.2 421.003 1509.81 550.809 1551.86 669.921C1573.77 732.114 1667.9 707.793 1651.56 642.451C1608.05 468.252 1572.52 301.232 1572.15 120.44L1572.23 120.367Z" fill="white" fill-opacity="0.03"/>
<path d="M1729.94 254.932C1721.52 226.948 1678.01 231.563 1678.23 261.964C1678.59 317.271 1685.99 372.358 1691.12 427.372C1695.15 470.519 1688.99 521.211 1726.06 549.927C1740.64 561.208 1757.63 560.036 1768.69 544.433C1796.02 505.828 1775.73 459.897 1766.72 417.117C1755.29 362.908 1745.99 308.041 1729.94 254.932Z" fill="white" fill-opacity="0.03"/>
<path d="M314.817 75.1685C263.319 105.496 214.971 141.024 167.356 177.065C126.26 208.125 73.5172 241.016 48.7572 287.02C31.9087 318.3 64.7999 345.477 94.3214 332.584C141.57 311.853 180.542 262.919 218.341 228.417C260.316 190.178 304.415 154.43 346.756 116.557C369.245 96.4123 340.309 60.2246 314.817 75.1685Z" fill="white" fill-opacity="0.03"/>
<path d="M99.5228 138.678C121.06 119.485 92.2707 80.9533 68.2432 98.1681C57.5481 105.86 46.853 113.551 36.1579 121.17C24.5837 129.448 9.20027 137.872 2.97365 151.058C-6.98893 172.301 9.34678 195.596 33.1544 190.395C47.5123 187.245 59.0865 174.572 69.8548 164.976C79.6709 156.185 89.5603 147.468 99.3763 138.678H99.5228Z" fill="white" fill-opacity="0.03"/>
<path d="M1827.88 364.004C1825.25 347.668 1826.2 331.113 1823.05 314.777C1819.9 298.515 1796.24 296.903 1788.62 310.309C1768.69 345.105 1773.82 398.141 1802.1 426.71C1813.38 438.064 1832.43 429.347 1832.94 413.964C1833.45 396.895 1830.67 380.779 1827.96 364.077L1827.88 364.004Z" fill="white" fill-opacity="0.03"/>
</svg>
