<?xml version="1.0" encoding="UTF-8"?>
<svg id="Layer_1" xmlns="http://www.w3.org/2000/svg" version="1.1" viewBox="0 0 1795 719.07">
  <!-- Generator: Adobe Illustrator 29.4.0, SVG Export Plug-In . SVG Version: 2.1.0 Build 152)  -->
  <path d="M587,0v336.56h-234.5c-8.09-18.93-11.25-34.57-32.24-42.71-22.28-8.64-66-9.07-82.24,11.27-16.24,20.34-15.53,71.95-.46,92.29,17.17,23.16,62.92,26.57,87.12,14.23,16.33-8.32,20.55-24.42,26.82-40.13h235.5v347.54H0V0h587Z"/>
  <path d="M1795,0v297.61h-237c.89-42.84-69.11-46.76-94.01-26.48-18.76,15.28-16.18,41.29-17,62.92-.99,25.95-1.76,52.92.02,78.9,2.06,30.01,7.63,54.91,41.59,60.33,24.23,3.86,65.39.58,67.4-30.85h-49v-127.83h288v404.47h-239v-68.91h-16.5l-63,68.91h-269.5V1.5l1.5-1.5h586.5Z"/>
  <path d="M1178,582.23h-323v136.82h-241V1.5l1.5-1.5h561l1.5,1.5v580.73ZM855,323.58c15.21-.86,30.35,1.51,45.55,1.05,11.76-.36,33.8-1.89,42.35-10.64,10.16-10.4,10.28-39.88-1.96-48.77-2.46-1.79-14.94-7.55-17.44-7.55h-68.5v65.91h0Z"/>
</svg>