<?xml version="1.0" encoding="UTF-8"?>
<svg id="Layer_1" data-name="Layer 1" xmlns="http://www.w3.org/2000/svg" viewBox="0 0 875.94 330.7">
  <defs>
    <style>
      .cls-1 {
        fill: #b0f900;
      }

      .cls-2 {
        fill: #b4ff00;
      }

      .cls-3 {
        fill: #b1fb00;
      }

      .cls-4 {
        fill: #b0fa00;
      }

      .cls-5 {
        fill: #aff800;
      }

      .cls-6 {
        fill: #b4fe00;
      }
    </style>
  </defs>
  <path class="cls-2" d="M269.61,0v154.33h-107.71c-2.68-5.1-3.63-10.85-7.86-15.11-9.39-9.46-38.25-9.76-45.74,2.39-6.38,10.34-6.09,32.89,1.92,42.36,7.37,8.72,24.18,9.77,34.45,6.87,9.6-2.71,14.38-10.53,16.08-19.98h108.86v159.84H0V0h269.61Z"/>
  <path class="cls-2" d="M824.45,0v136.41h-108.86c-.17-17.67-25.3-19.85-37.78-15.05-13.93,5.36-12.72,19.43-13.2,31.81-.52,13.14-1.92,41,3,52.59,5.1,12.01,19.08,13.48,30.64,11.82,8.05-1.15,15.86-5.1,16.43-14.11h-21.82l-.69-.69v-58.1h132.28v186.02h-109.77v-32.15h-7.12l-29.4,32.15h-123.32V0h269.61Z"/>
  <path class="cls-6" d="M541.06,0v267.77h-148.36v62.24l-.69.69h-109.31l-.69-.69V.69l.69-.69h258.36ZM392.71,148.81h27.33c2.79,0,9.34-1.82,11.68-3.47,5.8-4.08,6.15-17.01,1.98-22.13-1.24-1.52-7.35-4.71-9.07-4.71h-31.92v30.31Z"/>
  <path class="cls-3" d="M874.98.46v12.17l-31.69,6.89,31.69,7.34v12.17h-36.29v-6.43h31.23c.26-1.17-.43-.97-1.28-1.23-9.34-2.76-20.37-3.27-29.75-6.09l.24-11.3c9.4-2.5,20.3-3.15,29.51-5.87.85-.25,1.53-.06,1.28-1.23h-31.23V.46h36.29Z"/>
  <path class="cls-4" d="M838.69,73.03h5.97s0,4.59,0,4.59h24.34v-4.6s5.97,0,5.97,0v18.6c0,3.33-3.78,8.31-6.78,9.75-4.47,2.14-16.73,2.17-21.36.48-4.04-1.48-8.14-6.27-8.14-10.69v-18.14ZM845.12,84.51v6.66c0,1.72,3.4,4.14,5.11,4.53,2.5.58,10.78.62,13.28.09,4.81-1.01,5.8-6.28,5.41-10.52l-.61-.76h-23.19Z"/>
  <path class="cls-5" d="M838.69,189.69h3.21c-.58-1.82-2.33-1.91-3.17-3.95-2.77-6.74.85-15.04,7.78-17.4,3.29-1.12,13.91-1.07,17.67-.7,16.59,1.64,15.39,30.03-2.06,28.47l.2-6.46c.7-.98,5.31.17,6.72-4.31s-.17-9.98-5.34-10.79c-2.5-.39-12.44-.29-14.7.4-7.66,2.37-6.24,15.57,2.55,14.27v-8.73c1.9.26,4.51-.69,5.97.69v14.93h-18.83v-6.43Z"/>
  <path class="cls-3" d="M874.98,202.09v18.6c0,.99-1.77,4.38-2.52,5.29-4.12,4.99-13.71,4.21-15.86-2.3l-.94.26c-.5,3.35-3.18,4.09-6.16,4.34-1.44.12-10.16.19-10.61-.45l.23-6.72,12.43-.43c.21-.12.92-1.25.92-1.38v-10.33h-13.78v-6.89h36.29ZM869.01,208.98h-10.56v8.96c0,2.39,2.94,4.4,5.28,4.4s5.28-2.01,5.28-4.4v-8.96Z"/>
  <path class="cls-1" d="M850.07,233.46c3.99-.48,12-.49,15.81.47,12.89,3.24,13.34,24.13,1.6,28.43-3.42,1.25-14.08,1.22-17.99.83-15.11-1.53-16.14-27.71.58-29.72ZM850.98,240.34c-9.7,1.39-8.49,15.02-.59,15.97,2.62.32,12.08.3,14.35-.37,6.48-1.9,6.55-12.65.12-15.02-2.82-1.04-10.77-1.03-13.88-.58Z"/>
  <path class="cls-1" d="M838.69,118.96l35.84,9.4c.88.65.47,10.54.18,12.24l-36.02,9.13v-6.89l7.54-1.78.06-12.94-7.61-1.81v-7.35ZM852.93,129.98v9.19l17.92-4.37c.29-.92-1.07-.92-1.64-1.1-1.87-.59-15.68-4.31-16.27-3.72Z"/>
  <path class="cls-1" d="M874.98,45.47v23.42c-2.04-.29-4.84.72-6.43-.69v-15.85h-8.27v14.47c-1.41,1.12-5.07,1.11-6.43,0v-14.47h-8.73v16.53h-6.43v-23.42h36.29Z"/>
  <path class="cls-4" d="M874.98,268.23v6.89h-25.03c-.17,0-2.38.8-2.7.98-5.39,3.08-2.9,13.72,1.78,13.72h25.95v6.89h-26.87c-.29,0-3.99-1.58-4.52-1.91-9.65-6.09-6.47-26.57,5.9-26.57h25.49Z"/>
  <path class="cls-4" d="M874.98,302.68v17.68c0,.63-1.45,3.81-1.91,4.52-4.26,6.47-15.87,5.85-19.6-.91-.24-.44-1.45-3.41-1.45-3.6v-10.79h-13.32v-6.89h36.29ZM869.01,309.57h-10.33l-.69.69v6.89c0,5.45,7.88,7.38,10.2,2.85.14-.28.82-2.26.82-2.39v-8.04Z"/>
  <rect class="cls-1" x="838.69" y="107.94" width="36.29" height="6.89"/>
</svg>