<svg width="201" height="49" viewBox="0 0 201 49" fill="none" xmlns="http://www.w3.org/2000/svg">
<path d="M67.7119 15.7744H71.3302V23.3329C72.4454 22.0285 75.9311 18.2087 78.0731 15.7744H82.4578L75.6535 22.8146L82.7059 32.7116H78.3138L73.116 25.1875L71.3302 26.8947V32.7116H67.7119V15.7744Z" fill="#273578"/>
<path d="M94.843 29.4259C94.843 30.6369 94.9412 32.4056 95.0149 32.7102H91.6521C91.5538 32.4596 91.4801 31.789 91.4752 31.4672C91.0134 32.182 90.1488 33.005 87.9011 33.005C84.8355 33.005 83.541 30.9882 83.541 29.0181C83.541 26.122 85.8672 24.7857 89.5961 24.7857H91.4114V24.0095C91.4114 23.1055 91.0871 22.2163 89.4536 22.2163C87.9675 22.2163 87.6408 22.8476 87.4786 23.7687H84.1306C84.3222 21.5088 85.7199 19.6812 89.5838 19.7033C92.9908 19.7254 94.843 21.0544 94.843 24.0832V29.4284V29.4259ZM91.4114 26.9228H89.9768C87.8545 26.9228 87.0684 27.5713 87.0684 28.7971C87.0684 29.7182 87.6334 30.492 88.8985 30.492C91.1362 30.492 91.4114 28.9371 91.4114 27.2569V26.9228Z" fill="#273578"/>
<path d="M97.0117 30.0675L103.305 22.7719H97.3188V19.9961H107.282V22.7326L101.109 29.9349H107.724L107.299 32.7106H97.0117V30.0675Z" fill="#273578"/>
<path d="M112.706 18.7762H107.56V15.7744H121.497V18.7762H116.371V32.7116H112.706V18.7762Z" fill="#273578"/>
<path d="M121.905 23.4428C121.905 22.1802 121.903 21.0576 121.881 19.994H125.335C125.381 20.2789 125.428 21.5415 125.428 22.2269C125.988 20.7727 127.344 19.7115 129.508 19.6992V23.0596C126.953 22.9933 125.428 23.6811 125.428 27.1668V32.711H121.908V23.4453L121.905 23.4428Z" fill="#273578"/>
<path d="M141.711 29.4259C141.711 30.6369 141.809 32.4056 141.883 32.7102H138.52C138.422 32.4596 138.348 31.789 138.343 31.4672C137.882 32.182 137.017 33.005 134.769 33.005C131.704 33.005 130.409 30.9882 130.409 29.0181C130.409 26.122 132.735 24.7857 136.464 24.7857H138.28V24.0095C138.28 23.1055 137.955 22.2163 136.322 22.2163C134.836 22.2163 134.509 22.8476 134.347 23.7687H130.999C131.19 21.5088 132.588 19.6812 136.452 19.7033C139.859 19.7254 141.711 21.0544 141.711 24.0832V29.4284V29.4259ZM138.28 26.9228H136.845C134.723 26.9228 133.937 27.5713 133.937 28.7971C133.937 29.7182 134.502 30.492 135.767 30.492C138.004 30.492 138.28 28.9371 138.28 27.2569V26.9228Z" fill="#273578"/>
<path d="M144.919 23.1972C144.919 22.1164 144.919 20.9324 144.895 19.994H148.304C148.375 20.3232 148.422 21.205 148.439 21.6152C148.871 20.8169 149.901 19.6992 152.129 19.6992C154.683 19.6992 156.341 21.4261 156.341 24.6195V32.7085H152.821V25.01C152.821 23.5804 152.345 22.5462 150.792 22.5462C149.24 22.5462 148.442 23.379 148.442 25.6242V32.711H144.922V23.1996L144.919 23.1972Z" fill="#273578"/>
<path d="M161.839 28.8863C162.105 29.8984 162.933 30.4683 164.247 30.4683C165.561 30.4683 166.02 30.0015 166.02 29.2327C166.02 28.4171 165.475 28.0953 163.652 27.6483C159.511 26.6264 158.833 25.3441 158.833 23.5509C158.833 21.7577 160.154 19.6992 163.989 19.6992C167.823 19.6992 169.15 21.8044 169.26 23.5288H165.912C165.799 23.0596 165.485 22.1704 163.832 22.1704C162.667 22.1704 162.291 22.6863 162.291 23.2586C162.291 23.8924 162.687 24.197 164.75 24.6784C168.993 25.6659 169.592 27.1201 169.592 28.9846C169.592 31.0897 167.99 33.0058 164.114 33.0058C160.238 33.0058 158.661 31.1438 158.381 28.8888H161.839V28.8863Z" fill="#273578"/>
<path d="M187.945 24.1853C187.945 28.8992 185.115 32.9572 179.613 32.9572C174.111 32.9572 171.517 29.0957 171.517 24.2442C171.517 19.3928 174.59 15.5312 179.851 15.5312C184.806 15.5312 187.945 19.0022 187.945 24.1877V24.1853ZM175.299 24.1681C175.299 27.4745 176.751 29.9751 179.753 29.9751C183.01 29.9751 184.162 27.2485 184.162 24.2295C184.162 21.0263 182.851 18.5085 179.694 18.5085C176.538 18.5085 175.299 20.8716 175.299 24.1681Z" fill="#273578"/>
<path d="M190.734 14.7803H194.254V17.9196H190.734V14.7803ZM190.734 19.9953H194.254V32.7098H190.734V19.9953Z" fill="#273578"/>
<path d="M197.416 32.7123V14.7803H200.936V32.7123H197.416Z" fill="#273578"/>
<path d="M52.7782 28.5419C55.1523 28.5419 57.0769 26.6173 57.0769 24.2431C57.0769 21.869 55.1523 19.9443 52.7782 19.9443C50.4041 19.9443 48.4795 21.869 48.4795 24.2431C48.4795 26.6173 50.4041 28.5419 52.7782 28.5419Z" fill="#273578"/>
<path d="M43.0829 28.5419C45.457 28.5419 47.3816 26.6173 47.3816 24.2431C47.3816 21.869 45.457 19.9443 43.0829 19.9443C40.7088 19.9443 38.7842 21.869 38.7842 24.2431C38.7842 26.6173 40.7088 28.5419 43.0829 28.5419Z" fill="#273578"/>
<path d="M33.3876 28.5419C35.7617 28.5419 37.6863 26.6173 37.6863 24.2431C37.6863 21.869 35.7617 19.9443 33.3876 19.9443C31.0135 19.9443 29.0889 21.869 29.0889 24.2431C29.0889 26.6173 31.0135 28.5419 33.3876 28.5419Z" fill="#273578"/>
<path d="M23.6903 28.5419C26.0644 28.5419 27.989 26.6173 27.989 24.2431C27.989 21.869 26.0644 19.9443 23.6903 19.9443C21.3162 19.9443 19.3916 21.869 19.3916 24.2431C19.3916 26.6173 21.3162 28.5419 23.6903 28.5419Z" fill="#273578"/>
<path d="M13.995 28.5419C16.3691 28.5419 18.2937 26.6173 18.2937 24.2431C18.2937 21.869 16.3691 19.9443 13.995 19.9443C11.6209 19.9443 9.69629 21.869 9.69629 24.2431C9.69629 26.6173 11.6209 28.5419 13.995 28.5419Z" fill="#273578"/>
<path d="M4.29872 28.5419C6.67284 28.5419 8.59745 26.6173 8.59745 24.2431C8.59745 21.869 6.67284 19.9443 4.29872 19.9443C1.9246 19.9443 0 21.869 0 24.2431C0 26.6173 1.9246 28.5419 4.29872 28.5419Z" fill="#273578"/>
<path d="M43.0829 18.5702C45.457 18.5702 47.3816 16.6456 47.3816 14.2714C47.3816 11.8973 45.457 9.97266 43.0829 9.97266C40.7088 9.97266 38.7842 11.8973 38.7842 14.2714C38.7842 16.6456 40.7088 18.5702 43.0829 18.5702Z" fill="#273578"/>
<path d="M33.3876 18.5702C35.7617 18.5702 37.6863 16.6456 37.6863 14.2714C37.6863 11.8973 35.7617 9.97266 33.3876 9.97266C31.0135 9.97266 29.0889 11.8973 29.0889 14.2714C29.0889 16.6456 31.0135 18.5702 33.3876 18.5702Z" fill="#273578"/>
<path d="M33.3876 8.59754C35.7617 8.59754 37.6863 6.67292 37.6863 4.29877C37.6863 1.92463 35.7617 0 33.3876 0C31.0135 0 29.0889 1.92463 29.0889 4.29877C29.0889 6.67292 31.0135 8.59754 33.3876 8.59754Z" fill="#273578"/>
<path d="M23.6903 18.5702C26.0644 18.5702 27.989 16.6456 27.989 14.2714C27.989 11.8973 26.0644 9.97266 23.6903 9.97266C21.3162 9.97266 19.3916 11.8973 19.3916 14.2714C19.3916 16.6456 21.3162 18.5702 23.6903 18.5702Z" fill="#273578"/>
<path d="M13.995 18.5702C16.3691 18.5702 18.2937 16.6456 18.2937 14.2714C18.2937 11.8973 16.3691 9.97266 13.995 9.97266C11.6209 9.97266 9.69629 11.8973 9.69629 14.2714C9.69629 16.6456 11.6209 18.5702 13.995 18.5702Z" fill="#273578"/>
<path d="M4.29872 18.5702C6.67284 18.5702 8.59745 16.6456 8.59745 14.2714C8.59745 11.8973 6.67284 9.97266 4.29872 9.97266C1.9246 9.97266 0 11.8973 0 14.2714C0 16.6456 1.9246 18.5702 4.29872 18.5702Z" fill="#273578"/>
<path d="M43.0829 38.5145C45.457 38.5145 47.3816 36.5899 47.3816 34.2158C47.3816 31.8416 45.457 29.917 43.0829 29.917C40.7088 29.917 38.7842 31.8416 38.7842 34.2158C38.7842 36.5899 40.7088 38.5145 43.0829 38.5145Z" fill="#273578"/>
<path d="M33.3876 38.5145C35.7617 38.5145 37.6863 36.5899 37.6863 34.2158C37.6863 31.8416 35.7617 29.917 33.3876 29.917C31.0135 29.917 29.0889 31.8416 29.0889 34.2158C29.0889 36.5899 31.0135 38.5145 33.3876 38.5145Z" fill="#273578"/>
<path d="M23.6903 38.5145C26.0644 38.5145 27.989 36.5899 27.989 34.2158C27.989 31.8416 26.0644 29.917 23.6903 29.917C21.3162 29.917 19.3916 31.8416 19.3916 34.2158C19.3916 36.5899 21.3162 38.5145 23.6903 38.5145Z" fill="#273578"/>
<path d="M13.995 38.5145C16.3691 38.5145 18.2937 36.5899 18.2937 34.2158C18.2937 31.8416 16.3691 29.917 13.995 29.917C11.6209 29.917 9.69629 31.8416 9.69629 34.2158C9.69629 36.5899 11.6209 38.5145 13.995 38.5145Z" fill="#273578"/>
<path d="M4.29872 38.5145C6.67284 38.5145 8.59745 36.5899 8.59745 34.2158C8.59745 31.8416 6.67284 29.917 4.29872 29.917C1.9246 29.917 0 31.8416 0 34.2158C0 36.5899 1.9246 38.5145 4.29872 38.5145Z" fill="#273578"/>
<path d="M33.3876 48.4852C35.7617 48.4852 37.6863 46.5606 37.6863 44.1865C37.6863 41.8123 35.7617 39.8877 33.3876 39.8877C31.0135 39.8877 29.0889 41.8123 29.0889 44.1865C29.0889 46.5606 31.0135 48.4852 33.3876 48.4852Z" fill="#273578"/>
</svg>
