<svg width="226" height="60" viewBox="0 0 226 60" fill="none" xmlns="http://www.w3.org/2000/svg">
<path d="M15.128 24.8692C23.0955 19.6752 30.7267 16.4646 35.4668 15.9099C35.8508 15.8535 36.2386 15.8282 36.6266 15.8343C37.0148 15.8237 37.403 15.849 37.7865 15.9099C42.5266 16.431 50.1494 19.6752 58.1253 24.8692C58.5791 25.1634 59.0329 25.4575 59.47 25.7601V0H0V37.6862C3.26934 33.7444 8.6566 29.0967 15.128 24.8692Z" fill="#008B8A"/>
<path d="M36.6434 17.6494C31.937 18.4899 24.5494 22.4232 16.9266 28.3317C7.95062 35.2991 1.37833 42.8632 0 47.4773V60.0002H59.4868V30.853C58.4894 30.007 57.4501 29.1665 56.3687 28.3317C48.7459 22.4316 41.3331 18.4899 36.6434 17.6494Z" fill="#008B8A"/>
<path d="M77.3208 13.6322C77.3081 14.7695 77.4639 15.9024 77.783 16.9941C78.053 17.9377 78.504 18.8198 79.1109 19.5911C79.6753 20.3098 80.4008 20.8856 81.2289 21.272C82.1345 21.66 83.1095 21.86 84.0948 21.86C85.0801 21.86 86.0551 21.66 86.9607 21.272C87.7967 20.8871 88.5308 20.3113 89.1039 19.5911C89.7072 18.8175 90.1579 17.9362 90.4318 16.9941C90.7479 15.902 90.9009 14.7691 90.8856 13.6322C90.8954 12.4957 90.7426 11.3637 90.4318 10.2704C90.1576 9.30466 89.7012 8.4003 89.087 7.60615C88.514 6.88592 87.7799 6.31018 86.9439 5.92524C86.0459 5.52234 85.0705 5.32151 84.0864 5.33691C83.0941 5.31976 82.1109 5.52962 81.2121 5.95045C80.388 6.34334 79.6639 6.91807 79.0941 7.63137C78.4853 8.4077 78.0342 9.29566 77.7662 10.2452C77.4468 11.3368 77.2911 12.4697 77.304 13.607L77.3208 13.6322ZM96.8276 13.6322C96.8638 15.6007 96.5332 17.5588 95.8526 19.4062C95.2567 20.9538 94.3434 22.3594 93.1716 23.5329C92.0284 24.6594 90.6511 25.5203 89.1375 26.0542C87.5184 26.6263 85.8118 26.9107 84.0948 26.8947C82.4109 26.9071 80.7381 26.6226 79.153 26.0542C77.6372 25.5094 76.2538 24.6502 75.0936 23.5329C73.9021 22.3541 72.9741 20.9362 72.3706 19.3726C71.6731 17.529 71.3336 15.5694 71.3704 13.5986C71.3309 11.6274 71.6822 9.66779 72.4042 7.83308C73.029 6.25401 73.9765 4.82273 75.1861 3.63078C76.3453 2.51228 77.729 1.65284 79.2454 1.1094C80.7995 0.544776 82.4414 0.260217 84.0948 0.268943C85.7787 0.256552 87.4515 0.541058 89.0366 1.1094C90.555 1.64885 91.9394 2.50878 93.096 3.63078C94.29 4.8237 95.218 6.25585 95.819 7.83308C96.5244 9.68346 96.8668 11.6524 96.8276 13.6322ZM119.721 0.840455V5.78236H112.023V26.4324H106.266V5.78236H98.5589V0.840455H119.721ZM128.907 5.70672V9.90901H130.79C132.481 9.89472 134.17 10.0439 135.833 10.3545C137.168 10.5901 138.445 11.0778 139.598 11.7916C140.593 12.4283 141.399 13.3191 141.934 14.3719C142.517 15.5786 142.805 16.9065 142.775 18.2464C142.775 21.0479 141.749 23.1547 139.699 24.5666C137.648 25.9534 134.706 26.651 130.899 26.651C129.865 26.651 128.697 26.5921 127.378 26.4661C126.044 26.3384 124.721 26.1165 123.419 25.8021V0.840455H140.354V5.74033L128.907 5.70672ZM131.193 21.7511C131.922 21.7536 132.649 21.703 133.37 21.5998C134.002 21.5169 134.618 21.3354 135.194 21.0619C135.7 20.8264 136.137 20.4646 136.463 20.0113C136.802 19.4997 136.97 18.8933 136.942 18.28C136.969 17.6486 136.818 17.0223 136.505 16.473C136.197 15.9955 135.764 15.6117 135.253 15.3636C134.624 15.071 133.951 14.8836 133.261 14.8089C132.379 14.7099 131.492 14.6622 130.605 14.666H128.924V21.667C129.193 21.667 129.521 21.7175 129.899 21.7259C130.277 21.7343 130.74 21.7259 131.21 21.7259L131.193 21.7511ZM164.525 26.3988C164.24 25.4995 163.937 24.5918 163.601 23.6589C163.265 22.726 162.954 21.7931 162.626 20.8686H152.642C152.322 21.8015 152.003 22.7344 151.675 23.6673C151.347 24.6002 151.053 25.5163 150.767 26.3988H144.792C145.756 23.6421 146.669 21.0983 147.532 18.7675C148.372 16.431 149.213 14.2374 150.053 12.1698C150.893 10.1023 151.692 8.14405 152.49 6.28663C153.289 4.42922 154.129 2.61382 155.012 0.84886H160.466C161.307 2.61382 162.147 4.42922 162.987 6.28663C163.828 8.14405 164.626 10.1023 165.458 12.1698C166.29 14.2374 167.139 16.431 167.98 18.7675C168.82 21.1039 169.753 23.6505 170.72 26.3988H164.525ZM157.609 6.66484C157.483 7.03464 157.298 7.5053 157.046 8.17767C156.793 8.85003 156.516 9.54762 156.205 10.3965L155.146 13.1616C154.751 14.1617 154.356 15.2207 153.953 16.3217H161.256C160.87 15.2011 160.491 14.1421 160.122 13.1448C159.76 12.1362 159.407 11.2117 159.079 10.3713L158.239 8.16086C157.995 7.52211 157.794 7.02624 157.634 6.66484H157.609ZM184.898 26.9451C180.746 26.9451 177.58 25.7881 175.401 23.474C173.221 21.16 172.134 17.8794 172.14 13.6322C172.105 11.698 172.442 9.775 173.132 7.96755C173.741 6.39244 174.671 4.96133 175.863 3.76525C177.034 2.61076 178.442 1.72463 179.99 1.16823C181.66 0.581751 183.422 0.297163 185.192 0.327775C186.18 0.318541 187.168 0.397295 188.142 0.563103C188.926 0.699054 189.701 0.884323 190.462 1.11781C191.037 1.29159 191.599 1.5079 192.143 1.76496C192.588 1.98348 192.907 2.15998 193.101 2.27764L191.42 6.92538C190.547 6.47303 189.629 6.1152 188.68 5.858C187.518 5.54791 186.319 5.39805 185.116 5.41255C184.232 5.41429 183.354 5.56487 182.519 5.858C181.672 6.15251 180.902 6.63525 180.267 7.26997C179.571 7.9883 179.038 8.8483 178.704 9.79135C178.281 11.0004 178.082 12.2762 178.115 13.5566C178.106 14.6667 178.236 15.7735 178.502 16.8512C178.731 17.8087 179.157 18.7076 179.754 19.4903C180.358 20.2449 181.133 20.8443 182.015 21.2384C183.077 21.6911 184.223 21.9118 185.377 21.8856C186.13 21.8913 186.883 21.8407 187.629 21.7343C188.226 21.6466 188.818 21.5288 189.403 21.3813C189.867 21.2644 190.322 21.1127 190.764 20.9274L191.832 20.4484L193.42 25.0541C192.343 25.651 191.189 26.0978 189.991 26.382C188.325 26.7914 186.613 26.9807 184.898 26.9451ZM216.465 18.0531C216.486 19.3569 216.198 20.6473 215.625 21.8183C215.066 22.9039 214.256 23.8404 213.263 24.5498C212.141 25.343 210.877 25.9136 209.54 26.2307C207.937 26.6096 206.295 26.793 204.648 26.777C203.471 26.7708 202.296 26.6978 201.127 26.5585C199.781 26.4048 198.445 26.1719 197.126 25.8609V0.882478H202.883V9.36272C203.152 9.36272 203.405 9.36272 203.631 9.36272H204.388C208.4 9.36272 211.411 10.0771 213.423 11.5059C215.434 12.9347 216.443 15.1283 216.448 18.0867L216.465 18.0531ZM219.692 0.840455H225.449V26.4324H219.692V0.840455ZM204.06 14.187H203.539C203.332 14.1737 203.124 14.1737 202.917 14.187V21.8519C203.186 21.8519 203.489 21.8519 203.833 21.8519H205.069C205.784 21.857 206.499 21.7951 207.203 21.667C207.82 21.5612 208.414 21.3509 208.96 21.0451C209.451 20.7618 209.857 20.3527 210.137 19.8601C210.438 19.2949 210.583 18.6595 210.557 18.0194C210.62 17.3993 210.492 16.7746 210.192 16.2283C209.892 15.682 209.433 15.2397 208.876 14.9602C207.344 14.363 205.702 14.0994 204.06 14.187Z" fill="#008B8A"/>
<path d="M75.0172 38.3422V44.4943H78.026C79.5548 44.4796 81.081 44.6204 82.5813 44.9146C83.7936 45.1425 84.9516 45.5989 85.9935 46.2593C86.8996 46.8532 87.6353 47.673 88.1282 48.6378C88.6459 49.7466 88.8963 50.9614 88.8594 52.1845C88.9319 53.3116 88.7124 54.4382 88.2221 55.4556C87.7318 56.473 86.9874 57.3466 86.0607 57.9921C84.1949 59.2864 81.5615 59.9336 78.1605 59.9336C77.673 59.9336 77.1436 59.9336 76.5721 59.9336C76.0006 59.9336 75.4291 59.8747 74.8912 59.8327C74.3533 59.7907 73.7566 59.7235 73.2103 59.6562C72.6956 59.5924 72.185 59.4998 71.6807 59.3789V35.4426H86.565V38.3422H75.0172ZM78.4463 56.9331C79.3191 56.9372 80.1907 56.8669 81.0516 56.723C81.8075 56.6032 82.536 56.3499 83.2032 55.975C83.8161 55.6238 84.3306 55.1237 84.6992 54.521C85.0996 53.8216 85.2948 53.0235 85.2623 52.2182C85.2961 51.3839 85.1198 50.5544 84.7496 49.806C84.414 49.1821 83.9141 48.6618 83.304 48.3016C82.5816 47.9009 81.7931 47.6333 80.976 47.5116C79.9412 47.356 78.896 47.2801 77.8495 47.2847H75.0172V56.8239L75.9249 56.8995C76.2275 56.8995 76.5889 56.8995 77.0091 56.8995L78.4463 56.9331ZM109.45 59.673C109.055 58.6225 108.677 57.5887 108.333 56.5717L107.248 53.4789H96.2721L94.0701 59.673H90.5487C91.4816 57.1012 92.3472 54.7311 93.1625 52.5543C93.9777 50.3776 94.7761 48.31 95.5577 46.3518C96.3394 44.3935 97.121 42.5277 97.8858 40.7459C98.6506 38.9641 99.4574 37.1991 100.298 35.451H103.374C104.214 37.1991 105.013 38.9641 105.778 40.7459C106.542 42.5277 107.324 44.4019 108.106 46.3518C108.887 48.3016 109.686 50.386 110.501 52.5543C111.316 54.7227 112.182 57.1096 113.123 59.673H109.45ZM106.273 50.6801C105.528 48.6574 104.786 46.6963 104.046 44.7969C103.307 42.8975 102.545 41.0737 101.76 39.3255C100.92 41.0737 100.163 42.9059 99.4322 44.7969C98.701 46.6879 97.9698 48.663 97.247 50.6801H106.273ZM131.68 35.4342H135.042V59.673H131.68V48.4781H119.83V59.673H116.468V35.4342H119.83V45.5197H131.68V35.4342ZM159.011 35.4342C158.289 36.2746 157.473 37.1151 156.566 38.0816C155.658 39.0482 154.708 40.0315 153.717 41.0485C152.725 42.0654 151.742 43.0572 150.767 44.0321C149.792 45.007 148.859 45.9231 148.002 46.7636C149.119 47.5528 150.183 48.4148 151.187 49.3438C152.305 50.3691 153.397 51.4702 154.465 52.63C155.532 53.7898 156.549 54.9833 157.49 56.1935C158.356 57.2979 159.145 58.4605 159.852 59.673H155.86C155.126 58.5058 154.323 57.3832 153.456 56.3112C152.548 55.1906 151.585 54.1316 150.565 53.1343C149.545 52.1369 148.523 51.1984 147.497 50.3187C146.54 49.5163 145.529 48.7806 144.472 48.1167V59.673H141.11V35.4258H144.472V46.1248C145.29 45.3516 146.186 44.4831 147.161 43.5194C148.136 42.5529 149.111 41.5779 150.061 40.5946C151.01 39.6113 151.918 38.6615 152.767 37.8211C153.616 36.9806 154.339 36.1402 154.918 35.4678H159.011V35.4342Z" fill="#008B8A"/>
</svg>
