<svg width="215" height="60" viewBox="0 0 215 60" fill="none" xmlns="http://www.w3.org/2000/svg">
<path d="M90 0H0V60H90V0Z" fill="#003399"/>
<path d="M43.8243 11.1375L41.9243 9.75H44.2743L44.9993 7.5L45.7243 9.75H48.0743L46.1743 11.1375L46.8993 13.4L44.9993 12L43.0993 13.4L43.8243 11.1375ZM46.1743 50.25L46.8993 52.5L44.9993 51.1125L43.0993 52.5L43.8243 50.25L41.9243 48.8625H44.2743L44.9993 46.6L45.7243 48.8625H48.0743L46.1743 50.25ZM25.5743 31.5L23.6743 32.9L24.3993 30.65L22.4993 29.3H24.8493L25.5743 27.05L26.2993 29.3H28.6618L26.7493 30.7L27.4743 32.95L25.5743 31.55V31.5ZM36.4618 13.75L37.1868 16L35.2868 14.625L33.3868 16.0125L34.1118 13.7625L32.2118 12.375H34.5618L35.2868 10.125L36.0118 12.375H38.3618L36.4618 13.75ZM27.4993 19.525L28.2243 17.275L28.9618 19.525H31.2493L29.3493 20.925L30.0743 23.175L28.1618 21.775L26.2493 23.175L26.9743 20.925L25.0743 19.525H27.4993ZM25.0993 39.075H27.4993L28.2243 36.825L28.9618 39.075H31.2493L29.3493 40.475L30.0743 42.725L28.1618 41.3375L26.2493 42.725L26.9743 40.475L25.0743 39.075H25.0993ZM34.1118 47.625L32.2118 46.25H34.5618L35.2868 44L36.0118 46.25H38.3618L36.4618 47.625L37.1868 49.875L35.2868 48.4875L33.3868 49.875L34.1118 47.625ZM65.5993 30.7L66.3243 32.95L64.4243 31.55L62.4993 32.95L63.2243 30.7L61.3118 29.3H63.7493L64.4743 27.05L65.1993 29.3H67.4993L65.5993 30.7ZM53.5368 13.75L51.6368 12.375H53.9868L54.7118 10.125L55.4368 12.375H57.7868L55.8868 13.75L56.6118 16L54.7118 14.625L52.8118 16.0125L53.5368 13.7625V13.75ZM61.0368 19.5125L61.7743 17.2625L62.4993 19.5125H64.8493L62.9993 20.925L63.7243 23.175L61.8243 21.775L59.9118 23.175L60.6368 20.925L58.7493 19.525L61.0368 19.5125ZM62.4993 39.075H64.8493L62.9993 40.475L63.7243 42.725L61.8243 41.3375L59.9118 42.725L60.6368 40.475L58.7493 39.075H61.0993L61.8368 36.825L62.5618 39.075H62.4993ZM57.7868 46.25L55.8868 47.625L56.6118 49.875L54.7118 48.4875L52.8118 49.875L53.5368 47.625L51.6368 46.25H53.9868L54.7118 44L55.4368 46.25H57.7868Z" fill="#FFCC00"/>
<path d="M105 34.6094H108.613V44.2969C108.585 45.2989 108.631 46.3016 108.75 47.2969C108.89 47.9988 109.281 48.6255 109.85 49.0594C110.553 49.5339 111.391 49.7664 112.238 49.7219C113.06 49.7747 113.877 49.5551 114.563 49.0969C115.072 48.7027 115.416 48.1318 115.525 47.4969C115.648 46.4893 115.698 45.4742 115.675 44.4594V34.6094H119.3V44.0094C119.348 45.5322 119.247 47.056 119 48.5594C118.833 49.3868 118.464 50.1599 117.925 50.8094C117.346 51.4568 116.622 51.958 115.813 52.2719C114.71 52.6637 113.544 52.846 112.375 52.8094C111.053 52.8727 109.732 52.673 108.488 52.2219C107.678 51.8794 106.959 51.353 106.388 50.6844C105.911 50.1211 105.566 49.4595 105.375 48.7469C105.088 47.2354 104.962 45.6975 105 44.1594V34.6094Z" fill="#515560"/>
<path d="M134.125 52.4956H130.687V45.8706C130.732 44.961 130.66 44.0496 130.475 43.1581C130.341 42.772 130.093 42.4361 129.762 42.1956C129.391 41.955 128.954 41.837 128.512 41.8581C127.942 41.8521 127.383 42.0224 126.912 42.3456C126.465 42.6474 126.127 43.0859 125.95 43.5956C125.729 44.571 125.641 45.5716 125.687 46.5706V52.4956H122.3V39.5331H125.487V41.4456C126.469 40.0596 128.064 39.2387 129.762 39.2456C130.475 39.2361 131.182 39.3767 131.837 39.6581C132.393 39.8772 132.883 40.2342 133.262 40.6956C133.577 41.1255 133.803 41.6143 133.925 42.1331C134.081 42.8935 134.148 43.6696 134.125 44.4456V52.4956Z" fill="#515560"/>
<path d="M136.976 37.7844V34.6094H140.401V37.7844H136.976ZM136.976 52.5094V39.5344H140.401V52.4969L136.976 52.5094Z" fill="#515560"/>
<path d="M142.5 45.8348C142.507 44.6815 142.799 43.5476 143.35 42.5348C143.864 41.4758 144.694 40.6023 145.725 40.0348C146.789 39.4746 147.974 39.1868 149.175 39.1973C150.98 39.1341 152.729 39.8274 154 41.1098C155.256 42.3957 155.934 44.1383 155.875 45.9348C155.935 47.7489 155.254 49.509 153.988 50.8098C152.732 52.0943 150.997 52.7965 149.2 52.7473C148.02 52.752 146.855 52.4779 145.8 51.9473C144.734 51.4496 143.858 50.621 143.3 49.5848C142.728 48.42 142.454 47.1317 142.5 45.8348ZM146.013 46.0223C145.941 47.0868 146.271 48.1394 146.938 48.9723C147.505 49.6218 148.326 49.9945 149.188 49.9945C150.05 49.9945 150.871 49.6218 151.438 48.9723C152.103 48.1294 152.428 47.0681 152.35 45.9973C152.423 44.9425 152.097 43.8988 151.438 43.0723C150.871 42.4228 150.05 42.0502 149.188 42.0502C148.326 42.0502 147.505 42.4228 146.938 43.0723C146.271 43.9053 145.941 44.9579 146.013 46.0223Z" fill="#515560"/>
<path d="M169.738 52.4956H166.251V45.8706C166.295 44.961 166.224 44.0496 166.038 43.1581C165.905 42.772 165.656 42.4361 165.326 42.1956C164.955 41.955 164.517 41.837 164.076 41.8581C163.505 41.8521 162.946 42.0224 162.476 42.3456C162.028 42.6474 161.691 43.0859 161.513 43.5956C161.293 44.571 161.204 45.5716 161.251 46.5706V52.4956H157.813V39.5331H161.001V41.4456C161.982 40.0596 163.577 39.2387 165.276 39.2456C165.989 39.2361 166.696 39.3767 167.351 39.6581C167.906 39.8772 168.397 40.2342 168.776 40.6956C169.09 41.1278 169.319 41.6155 169.451 42.1331C169.596 42.895 169.658 43.6702 169.638 44.4456L169.738 52.4956Z" fill="#515560"/>
<path d="M105 25.4125V7.5H118.313V10.5375H108.65V14.5125H117.638V17.5H108.65V22.3625H118.65V25.3875L105 25.4125Z" fill="#515560"/>
<path d="M129.876 25.4135V23.4635C129.402 24.1571 128.762 24.7202 128.013 25.101C127.242 25.5051 126.383 25.7113 125.513 25.701C124.693 25.7159 123.884 25.5178 123.163 25.126C122.496 24.7729 121.967 24.2047 121.663 23.5135C121.337 22.5961 121.197 21.6231 121.251 20.651V12.501H124.688V18.4635C124.638 19.5836 124.701 20.706 124.876 21.8135C124.986 22.2081 125.228 22.5525 125.563 22.7885C125.932 23.0363 126.369 23.163 126.813 23.151C127.372 23.1566 127.919 22.986 128.376 22.6635C128.818 22.3838 129.156 21.9666 129.338 21.476C129.563 20.3237 129.647 19.1485 129.588 17.976V12.501H133.026V25.4135H129.876Z" fill="#515560"/>
<path d="M139.513 25.4123H136.088V12.4998H139.275V14.3498C139.642 13.679 140.144 13.0916 140.75 12.6248C141.191 12.3465 141.704 12.2031 142.225 12.2123C143.025 12.2143 143.809 12.4394 144.488 12.8623L143.425 15.8498C142.954 15.5094 142.393 15.3139 141.813 15.2873C141.362 15.2722 140.921 15.4136 140.563 15.6873C140.163 16.0772 139.888 16.5778 139.775 17.1248C139.526 18.5564 139.43 20.0104 139.488 21.4623L139.513 25.4123Z" fill="#515560"/>
<path d="M144.801 18.7513C144.803 17.5989 145.09 16.465 145.638 15.4513C146.161 14.3942 146.994 13.5219 148.026 12.9513C149.086 12.3824 150.273 12.0941 151.476 12.1138C153.269 12.0759 154.997 12.7818 156.251 14.0638C157.507 15.3497 158.184 17.0922 158.126 18.8888C158.184 20.6964 157.508 22.4507 156.251 23.7513C154.999 25.035 153.268 25.7375 151.476 25.6888C150.295 25.6934 149.13 25.4193 148.076 24.8888C147.014 24.3852 146.139 23.5581 145.576 22.5263C145.009 21.3515 144.743 20.0544 144.801 18.7513ZM148.313 18.9388C148.237 20.0017 148.563 21.0546 149.226 21.8888C149.795 22.5388 150.618 22.9115 151.482 22.9115C152.346 22.9115 153.169 22.5388 153.738 21.8888C154.403 21.0458 154.729 19.9846 154.651 18.9138C154.723 17.8589 154.398 16.8152 153.738 15.9888C153.169 15.3387 152.346 14.966 151.482 14.966C150.618 14.966 149.795 15.3387 149.226 15.9888C148.566 16.8196 148.24 17.8675 148.313 18.9263V18.9388Z" fill="#515560"/>
<path d="M160.337 12.4999H163.537V14.4124C163.958 13.7504 164.538 13.2046 165.225 12.8249C165.938 12.4116 166.751 12.1999 167.575 12.2124C169.056 12.197 170.465 12.8489 171.412 13.9874C172.533 15.3751 173.095 17.1318 172.987 18.9124C173.077 20.7159 172.514 22.4912 171.4 23.9124C170.435 25.0641 169.003 25.7204 167.5 25.6999C166.826 25.7104 166.159 25.565 165.55 25.2749C164.872 24.8927 164.263 24.3982 163.75 23.8124V30.3374H160.325L160.337 12.4999ZM163.75 18.7499C163.66 19.8977 163.969 21.0412 164.625 21.9874C165.129 22.6441 165.91 23.0279 166.737 23.0249C167.511 23.033 168.245 22.6821 168.725 22.0749C169.331 21.1418 169.608 20.0333 169.512 18.9249C169.6 17.853 169.312 16.784 168.7 15.8999C168.22 15.268 167.468 14.9016 166.675 14.9124C165.869 14.8991 165.101 15.2533 164.587 15.8749C163.978 16.7044 163.681 17.7228 163.75 18.7499Z" fill="#515560"/>
<path d="M182.962 21.2489L186.374 21.8114C186.016 22.9675 185.287 23.9734 184.299 24.6739C183.243 25.3652 181.998 25.7103 180.737 25.6614C178.805 25.805 176.93 24.975 175.737 23.4489C174.855 22.1328 174.417 20.5692 174.487 18.9864C174.391 17.1655 174.995 15.3769 176.174 13.9864C177.263 12.788 178.818 12.122 180.437 12.1614C182.166 12.0755 183.842 12.7734 184.999 14.0614C186.237 15.7467 186.807 17.8307 186.599 19.9114H178.012C177.981 20.7783 178.275 21.6254 178.837 22.2864C179.342 22.8414 180.062 23.1513 180.812 23.1364C181.302 23.1484 181.783 22.9942 182.174 22.6989C182.578 22.3071 182.853 21.8012 182.962 21.2489ZM183.162 17.7739C183.194 16.9495 182.918 16.1427 182.387 15.5114C181.933 15.0113 181.287 14.7292 180.612 14.7364C179.902 14.7198 179.22 15.0171 178.749 15.5489C178.237 16.1724 177.982 16.9685 178.037 17.7739H183.162Z" fill="#515560"/>
<path d="M191.926 16.3991L188.813 15.8366C189.069 14.7256 189.706 13.7392 190.613 13.0491C191.747 12.3853 193.052 12.0721 194.363 12.1491C195.526 12.0892 196.688 12.2723 197.776 12.6866C198.439 12.9685 198.995 13.4545 199.363 14.0741C199.742 15.0483 199.9 16.0942 199.826 17.1366V21.1491C199.803 21.9857 199.857 22.8226 199.988 23.6491C200.119 24.2555 200.325 24.8434 200.601 25.3991H197.213C197.13 25.1658 197.018 24.8283 196.876 24.3866C196.876 24.1741 196.776 24.0491 196.763 23.9741C196.218 24.5047 195.577 24.9286 194.876 25.2241C194.2 25.512 193.473 25.6567 192.738 25.6491C191.586 25.715 190.454 25.3243 189.588 24.5616C188.334 23.3201 188.077 21.3878 188.963 19.8616C189.314 19.2888 189.821 18.8289 190.426 18.5366C191.298 18.1602 192.213 17.8915 193.151 17.7366C194.287 17.5633 195.405 17.2829 196.488 16.8991V16.5491C196.54 16.0335 196.361 15.5214 196.001 15.1491C195.454 14.804 194.806 14.6542 194.163 14.7241C193.659 14.6968 193.157 14.8232 192.726 15.0866C192.328 15.4293 192.048 15.8885 191.926 16.3991ZM196.513 19.1866C196.076 19.3241 195.376 19.4991 194.426 19.7116C193.779 19.8114 193.151 20.0095 192.563 20.2991C192.136 20.5695 191.88 21.0432 191.888 21.5491C191.884 22.0228 192.079 22.4764 192.426 22.7991C192.79 23.151 193.282 23.3404 193.788 23.3241C194.43 23.3134 195.052 23.0989 195.563 22.7116C195.954 22.4342 196.24 22.0336 196.376 21.5741C196.491 21.0236 196.537 20.461 196.513 19.8991V19.1866Z" fill="#515560"/>
<path d="M214.901 25.4123H211.476V18.7498C211.525 17.8396 211.449 16.9269 211.251 16.0373C211.126 15.6463 210.876 15.3077 210.538 15.0748C210.169 14.8302 209.73 14.7118 209.288 14.7373C208.717 14.7313 208.159 14.9016 207.688 15.2248C207.234 15.5196 206.895 15.9606 206.726 16.4748C206.505 17.4502 206.417 18.4508 206.463 19.4498V25.3248H203.026V12.4998H206.251V14.4123C207.231 13.0246 208.827 12.2032 210.526 12.2123C211.238 12.204 211.945 12.3444 212.601 12.6248C213.156 12.8439 213.647 13.2009 214.026 13.6623C214.341 14.0922 214.566 14.581 214.688 15.0998C214.833 15.8617 214.896 16.6369 214.876 17.4123L214.901 25.4123Z" fill="#515560"/>
</svg>
