<svg width="203" height="55" viewBox="0 0 203 55" fill="none" xmlns="http://www.w3.org/2000/svg">
<mask id="mask0_167_1034" style="mask-type:luminance" maskUnits="userSpaceOnUse" x="0" y="0" width="203" height="55">
<path d="M202.734 0H0V54.2528H202.734V0Z" fill="white"/>
</mask>
<g mask="url(#mask0_167_1034)">
<path d="M80.6388 20.7234H83.3944V33.414H80.6388V31.5864C79.592 33.0334 78.1119 33.7441 76.1729 33.7441C74.412 33.7441 72.9317 33.1095 71.6812 31.815C70.4306 30.5205 69.8184 28.9217 69.8184 27.069C69.8184 25.1905 70.4306 23.617 71.6812 22.3224C72.9317 21.0279 74.412 20.3936 76.1729 20.3936C78.1119 20.3936 79.592 21.1041 80.6388 22.5257V20.7234ZM76.6067 31.1299C77.7549 31.1299 78.7242 30.7493 79.4903 29.9876C80.2559 29.2007 80.6388 28.2364 80.6388 27.069C80.6388 25.9012 80.2559 24.9368 79.4903 24.1754C78.7242 23.3886 77.7549 23.0078 76.6067 23.0078C75.4577 23.0078 74.4882 23.3886 73.7226 24.1754C72.9572 24.9368 72.5743 25.9012 72.5743 27.069C72.5743 28.2364 72.9572 29.2007 73.7226 29.9876C74.4882 30.7493 75.4577 31.1299 76.6067 31.1299Z" fill="#231F20"/>
<path d="M91.2554 25.876C93.2204 26.3075 95.7722 27.1198 95.7213 29.8354C95.7213 31.0536 95.2362 32.0179 94.2922 32.7035C93.3482 33.3886 92.1742 33.7441 90.7452 33.7441C88.2184 33.7441 86.3557 32.6273 85.5391 30.7742L87.9127 29.4038C88.3465 30.6223 89.2905 31.2311 90.7452 31.2311C92.1994 31.2311 92.9144 30.7493 92.9144 29.81C92.9144 28.9977 91.8425 28.5155 90.4898 28.1857C88.5759 27.7032 85.9983 26.942 86.0493 24.2766C86.0493 23.1092 86.4832 22.1704 87.3767 21.4594C88.2696 20.7488 89.3926 20.3936 90.7194 20.3936C92.8376 20.3936 94.5476 21.3836 95.4407 23.0333L93.1182 24.3276C92.6843 23.3633 91.8678 22.8809 90.7194 22.8809C89.6733 22.8809 88.8567 23.338 88.8567 24.2263C88.8567 25.0639 89.9286 25.4954 91.2554 25.876Z" fill="#231F20"/>
<path d="M105.151 23.3599H101.987V29.4514C101.987 31.076 103.058 31.0506 105.151 30.949V33.411C100.94 33.9187 99.2311 32.7766 99.2311 29.4514V23.3599H96.8828V20.7202H99.2311V17.9793L101.987 17.167V20.7202H105.151V23.3599Z" fill="#231F20"/>
<path d="M117.181 20.7234H119.937V33.414H117.181V31.5864C116.134 33.0334 114.654 33.7441 112.715 33.7441C110.954 33.7441 109.474 33.1095 108.223 31.815C106.973 30.5205 106.36 28.9217 106.36 27.069C106.36 25.1905 106.973 23.617 108.223 22.3224C109.474 21.0279 110.954 20.3936 112.715 20.3936C114.654 20.3936 116.134 21.1041 117.181 22.5257V20.7234ZM113.148 31.1299C114.296 31.1299 115.267 30.7493 116.032 29.9876C116.798 29.2007 117.181 28.2364 117.181 27.069C117.181 25.9012 116.798 24.9368 116.032 24.1754C115.267 23.3886 114.296 23.0078 113.148 23.0078C112 23.0078 111.03 23.3886 110.265 24.1754C109.499 24.9368 109.116 25.9012 109.116 27.069C109.116 28.2364 109.499 29.2007 110.265 29.9876C111.03 30.7493 112 31.1299 113.148 31.1299Z" fill="#231F20"/>
<path d="M134.578 25.6221V33.4141H131.822V25.9012C131.822 23.9975 130.725 22.9572 128.965 22.9572C127.025 22.9572 125.723 24.1501 125.723 26.612V33.4141H122.967V20.7234H125.723V22.3478C126.566 21.0533 127.867 20.3936 129.678 20.3936C132.614 20.3936 134.578 22.3732 134.578 25.6221Z" fill="#231F20"/>
<path d="M147.518 20.7234H150.274V33.414H147.518V31.5864C146.471 33.0334 144.99 33.7441 143.051 33.7441C141.291 33.7441 139.81 33.1095 138.56 31.815C137.31 30.5205 136.697 28.9217 136.697 27.069C136.697 25.1905 137.31 23.617 138.56 22.3224C139.81 21.0279 141.291 20.3936 143.051 20.3936C144.99 20.3936 146.471 21.1041 147.518 22.5257V20.7234ZM143.485 31.1299C144.633 31.1299 145.604 30.7493 146.369 29.9876C147.134 29.2007 147.518 28.2364 147.518 27.069C147.518 25.9012 147.134 24.9368 146.369 24.1754C145.604 23.3886 144.633 23.0078 143.485 23.0078C142.337 23.0078 141.367 23.3886 140.602 24.1754C139.835 24.9368 139.453 25.9012 139.453 27.069C139.453 28.2364 139.835 29.2007 140.602 29.9876C141.367 30.7493 142.337 31.1299 143.485 31.1299Z" fill="#231F20"/>
<path d="M171.482 25.6214V33.4133H168.726V25.9004C168.726 23.9969 167.629 22.9564 165.869 22.9564C163.928 22.9564 162.626 24.1493 162.626 26.6114V33.4133H159.872V15.6465H162.626V22.3471C163.47 21.0526 164.77 20.3927 166.582 20.3927C169.517 20.3927 171.482 22.3724 171.482 25.6214Z" fill="#231F20"/>
<path d="M182.974 20.7227H185.73V33.4134H182.974V31.789C182.132 33.0834 180.831 33.7432 179.02 33.7432C176.085 33.7432 174.119 31.7637 174.119 28.5148V20.7227H176.876V28.2358C176.876 30.1391 177.974 31.18 179.734 31.18C181.673 31.18 182.974 29.9867 182.974 27.5247V20.7227Z" fill="#231F20"/>
<path d="M200.463 22.3216C201.713 23.6162 202.325 25.1897 202.325 27.0682C202.325 28.9208 201.713 30.5199 200.463 31.8143C199.213 33.1088 197.732 33.7432 195.972 33.7432C194.033 33.7432 192.552 33.0327 191.505 31.5856V33.4133H188.749V15.6465H191.505V22.5248C192.552 21.1033 194.033 20.3927 195.972 20.3927C197.732 20.3927 199.213 21.0273 200.463 22.3216ZM195.538 31.1291C196.685 31.1291 197.656 30.7484 198.421 29.9867C199.186 29.1999 199.569 28.2356 199.569 27.0682C199.569 25.9004 199.186 24.9361 198.421 24.1747C197.656 23.388 196.685 23.0072 195.538 23.0072C194.389 23.0072 193.419 23.388 192.653 24.1747C191.889 24.9361 191.505 25.9004 191.505 27.0682C191.505 28.2356 191.889 29.1999 192.653 29.9867C193.419 30.7484 194.389 31.1291 195.538 31.1291Z" fill="#231F20"/>
<path d="M52.3855 34.5348C52.3448 34.6746 52.3032 34.8142 52.2603 34.9533L52.2189 35.0862C52.1662 35.2534 52.1117 35.4197 52.0558 35.5856L52.0176 35.6988C51.9589 35.8699 51.8985 36.0403 51.8366 36.2099L51.7931 36.3282C51.7313 36.4951 51.6678 36.661 51.6028 36.8263L51.5534 36.9505C51.4876 37.1154 51.4204 37.2795 51.3513 37.4427L51.2989 37.5652C51.2318 37.7217 51.1632 37.8776 51.0934 38.0324L51.0344 38.1618C50.9647 38.3138 50.8937 38.4652 50.8211 38.6158L50.7559 38.7506C50.6838 38.8986 50.6102 39.0458 50.5354 39.1922L50.4646 39.33C50.3881 39.4773 50.3102 39.6239 50.2314 39.7696L50.1618 39.8975C50.0798 40.0469 49.9963 40.1952 49.9114 40.3427L49.8348 40.4752C49.7504 40.6202 49.6646 40.7643 49.5776 40.9078L49.4983 41.0373C49.4132 41.1757 49.3269 41.3133 49.2393 41.45L49.1493 41.5895C49.0638 41.721 48.9772 41.8519 48.8894 41.9821L48.7891 42.1299C48.7015 42.258 48.6127 42.3852 48.5228 42.5115L48.4174 42.6593C48.3268 42.785 48.2353 42.91 48.1424 43.0342L48.0356 43.1766C47.9414 43.3011 47.8459 43.4248 47.7496 43.5477L47.6369 43.6903C47.5381 43.8147 47.438 43.9381 47.3369 44.0609L47.2231 44.198C47.1278 44.3119 47.0315 44.4251 46.9345 44.5373C46.8886 44.5902 46.8428 44.6432 46.7965 44.6956C46.7029 44.8023 46.6084 44.9081 46.5131 45.0135L46.3571 45.1841C46.2636 45.2857 46.169 45.3864 46.074 45.4866C46.0202 45.5432 45.9661 45.5996 45.9117 45.6559C45.8156 45.7552 45.7188 45.8539 45.6212 45.9518C45.5681 46.005 45.5148 46.0579 45.4613 46.1107C45.3586 46.2122 45.255 46.3128 45.1506 46.4125L45.0134 46.5429C44.9009 46.6488 44.7874 46.7537 44.6733 46.8578C44.6184 46.9077 44.563 46.9574 44.5078 47.0068C44.4056 47.0983 44.3028 47.1892 44.199 47.2793C44.1431 47.328 44.0868 47.3764 44.0303 47.4245C43.9262 47.5134 43.8214 47.6018 43.7158 47.689C43.6585 47.7365 43.6007 47.7842 43.543 47.8312C43.4338 47.9201 43.3241 48.0078 43.2136 48.095C43.1597 48.1376 43.1058 48.1802 43.0514 48.2223C42.9384 48.3101 42.8244 48.3969 42.7097 48.483C42.642 48.5338 42.5741 48.5844 42.506 48.6348C42.3988 48.7137 42.2909 48.7919 42.1824 48.8695C42.1154 48.9173 42.0481 48.9649 41.9805 49.0123C41.8697 49.0901 41.7582 49.1669 41.646 49.2429C41.5764 49.2903 41.5062 49.3372 41.4359 49.384C41.3173 49.463 41.1981 49.5412 41.0781 49.6183C41.0187 49.6565 40.9589 49.6942 40.8991 49.7321C40.7715 49.8126 40.6434 49.8924 40.5145 49.9709C40.4594 50.0046 40.4038 50.0377 40.3484 50.0708C40.2211 50.147 40.0933 50.2223 39.9646 50.2964L39.7973 50.392C39.666 50.4665 39.5339 50.5401 39.4012 50.6123L39.2407 50.6992C39.1029 50.7728 38.9645 50.8455 38.8255 50.917L38.6762 50.9934C38.5285 51.0682 38.38 51.1416 38.2308 51.2136L38.1086 51.2727C37.9509 51.3479 37.7921 51.4214 37.6327 51.4937L37.5033 51.5522C37.3375 51.6263 37.1708 51.6987 37.0032 51.7698L36.8954 51.8149C36.7253 51.886 36.5541 51.9557 36.3823 52.0235L36.278 52.064C36.1097 52.1295 35.9406 52.1935 35.7708 52.2556L35.665 52.2939C35.4949 52.3554 35.324 52.4152 35.1524 52.4735L35.0488 52.5081C34.8754 52.5661 34.7009 52.6225 34.5259 52.677L34.4248 52.7084C34.2484 52.7626 34.0709 52.8151 33.893 52.8658L33.7946 52.8937C33.6117 52.9451 33.428 52.9946 33.2436 53.0422L33.1605 53.0637C32.9636 53.1138 32.7661 53.1617 32.5678 53.2075L32.5293 53.2165C32.3172 53.265 32.1044 53.3114 31.8904 53.3549L31.8702 53.3589C31.661 53.4014 31.4509 53.4414 31.24 53.4789L31.1879 53.488C30.9858 53.5237 30.783 53.557 30.5796 53.5884L30.5146 53.5979C30.3148 53.6281 30.1143 53.6561 29.913 53.6817L29.8421 53.6905C29.6413 53.7157 29.44 53.7386 29.2382 53.7593L29.1685 53.7663C28.964 53.7867 28.7586 53.8047 28.5526 53.8206L28.4928 53.8253C28.2816 53.841 28.0695 53.8543 27.8569 53.8652L27.8144 53.8676C27.5938 53.8786 27.3723 53.8868 27.1503 53.8927L27.1323 53.8933C26.9024 53.8991 26.6719 53.9018 26.4406 53.9018C26.2096 53.9018 25.9791 53.8991 25.7492 53.8933L25.7308 53.8927C25.5089 53.8869 25.2878 53.8785 25.0672 53.8676L25.0239 53.8652C24.8116 53.8544 24.6 53.841 24.3888 53.8253L24.3286 53.8206C24.1226 53.8048 23.9176 53.7866 23.7131 53.7663L23.6429 53.7592C23.441 53.7386 23.2398 53.7155 23.0394 53.6905L22.9685 53.6817C22.7671 53.656 22.5667 53.6281 22.3668 53.5979L22.3019 53.5884C22.099 53.5573 21.897 53.524 21.6957 53.4884L21.6405 53.4788C21.4308 53.4414 21.2218 53.4016 21.0139 53.3594L20.9899 53.3546C20.7767 53.3111 20.5646 53.2651 20.3534 53.2167L20.3113 53.2069C20.1137 53.1614 19.9169 53.1135 19.7209 53.0637L19.6377 53.0422C19.4533 52.9946 19.2695 52.9451 19.0868 52.8937L18.9884 52.8658C18.8109 52.8153 18.6342 52.763 18.4581 52.7089L18.3548 52.6767C18.1809 52.6225 18.0075 52.5667 17.8351 52.5091L17.7268 52.4727C17.5563 52.4149 17.387 52.3554 17.2182 52.2944L17.1104 52.2555C16.942 52.1939 16.7743 52.1303 16.6074 52.0655L16.497 52.0225C16.3275 51.9557 16.1588 51.887 15.9909 51.8169L15.8721 51.7671C15.7068 51.6971 15.5426 51.6256 15.3789 51.5525L15.2469 51.4929C15.0889 51.4213 14.9318 51.3483 14.7754 51.2738L14.6462 51.2112C14.4985 51.1398 14.3516 51.0676 14.2055 50.9937C14.1546 50.9679 14.1041 50.9416 14.0533 50.9156C13.9154 50.8445 13.7778 50.7726 13.6413 50.6994L13.4774 50.6107C13.3456 50.5387 13.2146 50.4658 13.0842 50.392L12.9167 50.2964C12.7881 50.2223 12.6602 50.147 12.533 50.0708L12.367 49.9709C12.2386 49.8928 12.1112 49.8136 11.9844 49.7334C11.9208 49.6932 11.8573 49.653 11.7941 49.6123C11.6772 49.5372 11.561 49.4609 11.4455 49.384C11.3741 49.3367 11.3033 49.289 11.2326 49.241C11.1224 49.1662 11.0127 49.0908 10.9036 49.0142C10.8352 48.9662 10.767 48.918 10.699 48.8695C10.5905 48.7919 10.4827 48.7136 10.3754 48.6348C10.306 48.5835 10.2369 48.5321 10.1681 48.4804C10.056 48.3959 9.9442 48.3111 9.83345 48.225C9.7775 48.1816 9.72177 48.1376 9.66625 48.0938C9.55629 48.007 9.44702 47.9196 9.33847 47.8312C9.28063 47.7841 9.22301 47.7365 9.16557 47.689C9.06002 47.6018 8.95518 47.5134 8.85102 47.4245C8.7946 47.3764 8.73836 47.328 8.68233 47.2793C8.57868 47.1892 8.47585 47.0984 8.37361 47.0068C8.31837 46.9574 8.26304 46.9077 8.20811 46.8578C8.09384 46.7537 7.98048 46.6488 7.86801 46.5429L7.73078 46.4125C7.62714 46.3136 7.5244 46.2136 7.42236 46.1129C7.36812 46.0594 7.31409 46.0058 7.26027 45.9518C7.16264 45.8539 7.06581 45.7552 6.96969 45.6559C6.91537 45.5996 6.86123 45.5432 6.8074 45.4866C6.71229 45.3864 6.61795 45.2857 6.52434 45.1841L6.36828 45.0135C6.27425 44.9095 6.18093 44.805 6.0885 44.6997L5.94507 44.5352C5.84885 44.4238 5.75352 44.3118 5.65919 44.1988L5.54071 44.0562C5.44099 43.9352 5.34235 43.8133 5.24472 43.6906C5.20564 43.6415 5.16684 43.5922 5.12814 43.543C5.03612 43.4255 4.945 43.3075 4.85491 43.1885C4.8145 43.1352 4.77441 43.0816 4.73441 43.0283C4.6451 42.9085 4.55681 42.7878 4.4694 42.6667L4.35322 42.504C4.26721 42.3828 4.18212 42.2609 4.09812 42.1382L3.98596 41.9729C3.90196 41.8483 3.81897 41.7228 3.73697 41.5968L3.63643 41.4409C3.55224 41.3092 3.46924 41.1769 3.38734 41.0439L3.30043 40.9023C3.21574 40.7628 3.13254 40.6224 3.05035 40.4814L2.96646 40.3364C2.88396 40.1928 2.80275 40.0484 2.72288 39.903L2.6463 39.7624C2.57051 39.6226 2.49583 39.4819 2.42247 39.3406L2.34198 39.1839C2.26981 39.0426 2.19884 38.9005 2.12908 38.7579L2.0556 38.6061C1.98624 38.4617 1.91818 38.3167 1.85131 38.1709L1.78367 38.0223C1.7157 37.8717 1.64914 37.7203 1.58389 37.5683L1.52776 37.4368C1.4596 37.2755 1.39304 37.1133 1.32798 36.9505L1.27867 36.8263C1.21371 36.6615 1.15037 36.4957 1.08862 36.3292L1.04291 36.2045C0.981669 36.0366 0.921828 35.8681 0.863791 35.6988L0.8256 35.5856C0.769669 35.4197 0.715341 35.2534 0.662516 35.0862L0.62112 34.9533C0.578018 34.8144 0.53662 34.6745 0.495824 34.5348C0.181883 33.3536 0.794829 32.105 1.94314 31.6537C7.78661 29.3577 16.5915 27.8962 26.4406 27.8962C36.29 27.8962 45.0948 29.3577 50.9383 31.6537C52.0866 32.105 52.6996 33.3536 52.3855 34.5348ZM0.495724 19.5358C0.53692 19.3947 0.578518 19.2537 0.622021 19.1134L0.661314 18.9877C0.71484 18.8182 0.769869 18.6494 0.826603 18.4814L0.86299 18.3735C0.921828 18.2016 0.982571 18.0305 1.04481 17.8601L1.08692 17.7454C1.14956 17.5763 1.21392 17.4081 1.27977 17.2408L1.32669 17.1227C1.39273 16.9571 1.4604 16.7921 1.52975 16.6283L1.58098 16.5084C1.64803 16.3522 1.7163 16.1964 1.78617 16.0418L1.84932 15.9032C1.91678 15.7562 1.98555 15.6097 2.0556 15.4639L2.12827 15.3138C2.19884 15.1692 2.27082 15.0252 2.34399 14.8819L2.41917 14.7356C2.49414 14.5913 2.57032 14.4476 2.6478 14.3047L2.72277 14.1672C2.80266 14.0218 2.88386 13.8772 2.96646 13.7335L3.05035 13.5885C3.13313 13.4462 3.21714 13.3048 3.30244 13.1643L3.38473 13.0301C3.46773 12.8953 3.55192 12.761 3.63723 12.6278L3.73697 12.4733C3.81945 12.3462 3.90296 12.22 3.98755 12.0946L4.09812 11.9318C4.18281 11.8082 4.26862 11.6851 4.35533 11.563L4.46789 11.4054C4.55609 11.2831 4.6451 11.1615 4.73532 11.0406L4.84869 10.8896C4.94171 10.7666 5.03593 10.6446 5.13105 10.5233L5.24451 10.3795C5.34315 10.2555 5.44288 10.1323 5.54383 10.01L5.65859 9.87191C5.75513 9.75646 5.85255 9.64181 5.95098 9.52796L6.084 9.37522C6.18003 9.26586 6.27685 9.15729 6.37459 9.04952L6.51883 8.8917C6.61596 8.78613 6.71409 8.68145 6.81292 8.57747L6.96398 8.41995C7.06231 8.31826 7.16124 8.21736 7.26109 8.11727C7.3146 8.06363 7.36843 8.0102 7.42236 7.95696C7.5244 7.85638 7.62714 7.75637 7.73078 7.65738L7.86801 7.52697C7.98037 7.4211 8.09384 7.31622 8.20811 7.21214C8.26293 7.16219 8.31826 7.11264 8.37361 7.06309C8.47594 6.97156 8.57868 6.88064 8.68233 6.79062C8.73806 6.74228 8.79399 6.69401 8.85012 6.64607C8.95606 6.55565 9.06272 6.46601 9.16998 6.37719C9.2247 6.33192 9.27944 6.28677 9.33457 6.2419C9.44473 6.15207 9.55579 6.06334 9.66745 5.97522C9.72248 5.93185 9.77741 5.88839 9.83274 5.84542C9.9458 5.75768 10.0598 5.67115 10.1742 5.58511C10.2371 5.53796 10.3 5.4907 10.3633 5.44405C10.4752 5.36149 10.5877 5.28004 10.7009 5.19919C10.7682 5.15104 10.8358 5.10318 10.9036 5.05563C11.0127 4.97926 11.1224 4.90369 11.2326 4.82891C11.3033 4.78087 11.3741 4.73321 11.4455 4.68585C11.5611 4.609 11.6772 4.53272 11.7941 4.45756C11.8573 4.41688 11.9208 4.3766 11.9844 4.33643C12.1112 4.25636 12.2386 4.17702 12.367 4.09895C12.4216 4.06564 12.4768 4.03275 12.5317 3.99985C12.6611 3.9224 12.7911 3.84592 12.9218 3.77055L13.0785 3.68102C13.2112 3.60586 13.3445 3.53169 13.4785 3.45862L13.6413 3.37048C13.7778 3.29731 13.9153 3.22533 14.0533 3.15434C14.1041 3.12822 14.1546 3.102 14.2055 3.07628C14.3516 3.00231 14.4985 2.93002 14.6462 2.85865L14.7754 2.79604C14.9316 2.72136 15.0889 2.64858 15.2469 2.57701L15.3789 2.51738C15.5426 2.44431 15.7068 2.37282 15.8721 2.30283L15.9909 2.25299C16.1588 2.18291 16.3275 2.11412 16.497 2.04732L16.6074 2.00446C16.7743 1.93955 16.942 1.87604 17.1104 1.81434L17.2182 1.77546C17.3868 1.71444 17.5563 1.65492 17.7268 1.5972L17.8351 1.56082C18.0075 1.50329 18.1809 1.44736 18.3548 1.39313L18.4581 1.36102C18.6342 1.30698 18.8109 1.25475 18.9884 1.2041L19.0868 1.17608C19.2695 1.12464 19.4533 1.07529 19.6377 1.02774L19.7209 1.0062C19.9168 0.956258 20.1137 0.908505 20.3113 0.862944L20.3534 0.853074C20.5646 0.804622 20.7767 0.758761 20.9899 0.715296L21.0139 0.710509C21.2218 0.668239 21.4308 0.628561 21.6405 0.591075L21.6957 0.581503C21.897 0.546013 22.0991 0.512714 22.3019 0.481609L22.3668 0.471938C22.5667 0.441831 22.7671 0.413916 22.9685 0.388194L23.0394 0.379321C23.2398 0.354299 23.441 0.331469 23.6429 0.310731L23.7131 0.303653C23.9176 0.283315 24.1226 0.265172 24.3286 0.24932L24.3888 0.244633C24.6 0.228882 24.8116 0.215622 25.0239 0.204656L25.0672 0.202363C25.2878 0.191397 25.5089 0.182922 25.7308 0.17724L25.7492 0.176642C25.979 0.170959 26.2096 0.167969 26.4406 0.167969C26.6719 0.167969 26.9024 0.170759 27.1323 0.176642L27.1503 0.17724C27.3723 0.182922 27.5936 0.191297 27.8144 0.202363L27.8569 0.204656C28.0695 0.215622 28.2814 0.228882 28.4928 0.244633L28.5526 0.24932C28.7586 0.265172 28.964 0.283217 29.1685 0.303653L29.2382 0.310632C29.44 0.33127 29.6413 0.354198 29.8421 0.379321L29.913 0.388194C30.1142 0.413817 30.3148 0.441831 30.5146 0.471938L30.5796 0.481609C30.783 0.512814 30.9858 0.546311 31.1879 0.581903L31.24 0.590875C31.4509 0.62846 31.661 0.668538 31.8702 0.711008L31.8904 0.714996C32.1044 0.758562 32.3172 0.804722 32.5293 0.853373L32.5678 0.862445C32.7663 0.908206 32.9636 0.95616 33.1605 1.0062L33.2436 1.02774C33.428 1.07529 33.6117 1.12474 33.7946 1.17608L33.893 1.2041C34.0709 1.25494 34.2484 1.30728 34.4248 1.36152L34.5259 1.39282C34.7009 1.44736 34.8754 1.50368 35.0488 1.5617L35.1524 1.5964C35.324 1.65463 35.4949 1.71454 35.665 1.77606L35.7708 1.81425C35.9407 1.87635 36.1097 1.94045 36.278 2.00595L36.3823 2.04643C36.5543 2.11412 36.7253 2.1838 36.8954 2.25498L37.0032 2.30015C37.1708 2.37103 37.3375 2.44352 37.5033 2.51769L37.6327 2.57621C37.7921 2.64848 37.9509 2.72197 38.1086 2.79724L38.2308 2.85635C38.38 2.92853 38.5285 3.00171 38.6762 3.07648L38.8255 3.15295C38.9645 3.22443 39.1029 3.29699 39.2407 3.37078L39.4001 3.45711C39.535 3.53069 39.6695 3.60526 39.8029 3.68102L39.9595 3.77055C40.0903 3.84592 40.2203 3.9224 40.3497 3.99985C40.4046 4.03275 40.4596 4.06564 40.5145 4.09895C40.6434 4.17751 40.7715 4.25727 40.8991 4.33781C40.9589 4.37561 41.0187 4.4134 41.0781 4.45158C41.1981 4.52874 41.3173 4.6069 41.4359 4.68585C41.5062 4.73261 41.5764 4.77957 41.646 4.82692C41.7581 4.903 41.8697 4.97997 41.9805 5.05763C42.0473 5.10448 42.1142 5.15174 42.1805 5.19919C42.2937 5.28004 42.4063 5.36149 42.5181 5.44405C42.5801 5.4898 42.642 5.53607 42.7038 5.58241C42.8204 5.67015 42.9367 5.75847 43.052 5.84801C43.1058 5.88978 43.159 5.93185 43.2125 5.97403C43.3245 6.06255 43.4362 6.15168 43.5469 6.2419L43.7114 6.37719C43.8187 6.46601 43.9254 6.55565 44.0313 6.64607C44.0874 6.69401 44.1434 6.74228 44.199 6.79062C44.3026 6.88075 44.4056 6.97156 44.5078 7.06309C44.5632 7.11254 44.6183 7.16219 44.6733 7.21214C44.7875 7.31611 44.901 7.421 45.0134 7.52697L45.1506 7.65738C45.255 7.75717 45.3586 7.85776 45.4613 7.95915C45.5145 8.01169 45.5676 8.06433 45.6204 8.11727C45.7202 8.21736 45.8191 8.31826 45.9174 8.41995C45.9679 8.47228 46.0183 8.52472 46.0685 8.57747C46.1673 8.68145 46.2655 8.78613 46.3626 8.8917L46.5068 9.04952C46.6058 9.15859 46.7036 9.26845 46.8008 9.37911L46.9288 9.52597C47.0281 9.64072 47.1264 9.75636 47.2238 9.8729L47.334 10.0055C47.4361 10.1294 47.5371 10.2544 47.6372 10.3799L47.7468 10.5187C47.8463 10.6456 47.945 10.7733 48.0422 10.902L48.1414 11.0344C48.235 11.1596 48.3274 11.2856 48.4187 11.4125L48.521 11.5555C48.6115 11.6831 48.7008 11.8112 48.7891 11.9402L48.8879 12.0857C48.9761 12.2165 49.0632 12.3482 49.1493 12.4806L49.2386 12.6188C49.3272 12.7573 49.4147 12.8966 49.5009 13.0367L49.5756 13.1589C49.6634 13.3034 49.7497 13.4486 49.8348 13.5948L49.9114 13.7273C49.9963 13.8749 50.0798 14.0233 50.1618 14.1727L50.2298 14.2976C50.3105 14.4465 50.3901 14.5962 50.4681 14.7467L50.5333 14.8737C50.6091 15.022 50.6836 15.1711 50.7566 15.3209L50.8211 15.4542C50.8944 15.6062 50.966 15.759 51.0364 15.9125L51.0906 16.0315C51.1625 16.1906 51.2329 16.3508 51.3018 16.5115L51.3493 16.6227C51.4194 16.7885 51.4877 16.9552 51.5546 17.1227L51.6017 17.2408C51.6678 17.4085 51.7322 17.577 51.7949 17.7465L51.8347 17.855C51.8976 18.027 51.9589 18.1998 52.0185 18.3735L52.0549 18.4814C52.1114 18.6494 52.1666 18.8182 52.22 18.9877L52.2593 19.1134C52.3028 19.2537 52.3445 19.3947 52.3856 19.5358C52.6992 20.7168 52.0863 21.9652 50.9383 22.4162C45.0948 24.7122 36.29 26.1738 26.4406 26.1738C16.5915 26.1738 7.78661 24.7122 1.94314 22.4162C0.79503 21.9652 0.182284 20.7168 0.495724 19.5358Z" fill="#E7E8E9"/>
<path d="M49.091 30.9881C47.208 41.7342 37.784 49.9043 26.4405 49.9043C15.0971 49.9043 5.67307 41.7342 3.79004 30.9881C9.56445 29.0788 17.5797 27.8958 26.4405 27.8958C35.3016 27.8958 43.3166 29.0788 49.091 30.9881ZM3.79014 23.0811C5.67317 12.3349 15.0971 4.16504 26.4405 4.16504C37.784 4.16504 47.208 12.3349 49.091 23.0811C43.3166 24.9904 35.3016 26.1735 26.4405 26.1735C17.5797 26.1735 9.56455 24.9904 3.79014 23.0811Z" fill="#B9BBBD"/>
<path d="M45.1985 29.8934C43.8138 38.9599 35.9427 45.9077 26.44 45.9077C16.9376 45.9077 9.06651 38.9599 7.68164 29.8934C12.9437 28.6378 19.427 27.8965 26.44 27.8965C33.4533 27.8965 39.9364 28.6378 45.1985 29.8934ZM7.68174 24.1773C9.06661 15.1107 16.9376 8.16309 26.44 8.16309C35.9427 8.16309 43.8136 15.1107 45.1984 24.1773C39.9364 25.433 33.4533 26.1742 26.44 26.1742C19.427 26.1742 12.9438 25.433 7.68174 24.1773Z" fill="#8E9092"/>
<path d="M41.2534 29.0907C40.2476 36.3337 33.9994 41.912 26.4402 41.912C18.8812 41.912 12.6328 36.3337 11.627 29.0907C16.0523 28.3291 21.0922 27.8982 26.4402 27.8982C31.7883 27.8982 36.8281 28.3291 41.2534 29.0907ZM11.627 24.9834C12.6328 17.7403 18.8812 12.1621 26.4402 12.1621C33.9994 12.1621 40.2476 17.7403 41.2534 24.9834C36.8281 25.7449 31.7883 26.1759 26.4402 26.1759C21.0922 26.1759 16.0523 25.7449 11.627 24.9834Z" fill="#656668"/>
<path d="M37.2758 28.5144C36.5501 33.8219 31.9759 37.9126 26.4401 37.9126C20.9046 37.9126 16.3304 33.8219 15.6045 28.5144C18.9872 28.1144 22.6356 27.8962 26.4401 27.8962C30.2448 27.8962 33.8933 28.1144 37.2758 28.5144ZM15.6045 25.5555C16.3304 20.2478 20.9047 16.1572 26.4401 16.1572C31.9758 16.1572 36.5501 20.2478 37.2758 25.5555C33.8933 25.9555 30.2448 26.1739 26.4401 26.1739C22.6356 26.1739 18.9872 25.9555 15.6045 25.5555Z" fill="#231F20"/>
</g>
</svg>
