<svg width="165" height="43" viewBox="0 0 165 43" fill="none" xmlns="http://www.w3.org/2000/svg">
<path d="M26.3018 23.5501V30.6709L32.3401 30.3302V23.0254L26.3018 23.5529V23.5501Z" fill="black"/>
<path d="M26.3018 42.8381H35.5022V35.5332L26.3018 35.8162V42.8408V42.8381Z" fill="black"/>
<path d="M18.7471 42.8366H25.1316V11.5156L18.7471 12.4195V42.8366Z" fill="black"/>
<path d="M5.26855 42.836H11.3179V21.0176L5.26855 21.6467V42.836Z" fill="black"/>
<path d="M0 21.2868L16.497 19.4462V12.7402L0 15.0891V21.2896V21.2868Z" fill="black"/>
<path d="M84.0752 42.8346H112.495V33.1699L84.0752 34.0545V42.8346Z" fill="black"/>
<path d="M93.2597 17.5192C92.8559 11.8571 94.5647 10.522 96.3036 9.783V0.384766C88.0455 2.16222 83.9852 8.29675 84.4522 18.3131L93.2652 17.5192H93.2597Z" fill="black"/>
<path d="M26.3018 18.3451L35.5022 17.3231V10.043L26.3018 11.3479V18.3451Z" fill="black"/>
<path d="M69.2129 13.5681L81.4132 12.2384V3.52148L69.2129 5.24674V13.5681Z" fill="black"/>
<path d="M101.635 11.2429C102.613 13.2813 101.608 16.3417 99.226 19.1824C95.5585 23.5559 85.7949 32.5119 85.7949 32.5119L99.8112 32.0448C108.38 23.5944 111.448 18.4653 112.003 12.0698C112.311 8.73194 111.08 5.43528 108.663 3.11388C106.039 0.597427 102.171 -0.441022 97.9129 0.171608V9.40226C99.6271 9.3116 101.014 9.93522 101.638 11.2429" fill="black"/>
<path d="M59.2988 42.8356H67.6531V5.4707L59.2988 6.6575V42.8356Z" fill="black"/>
<path d="M69.2129 19.8266V28.31L77.1935 27.8677V19.1562L69.2129 19.8266Z" fill="black"/>
<path d="M69.2127 42.8364H81.4131V34.125L69.2374 34.4986L69.21 42.8364H69.2127Z" fill="black"/>
<path d="M46.5518 42.8361H57.0873V34.8555L46.5518 35.1687V42.8361Z" fill="black"/>
<path d="M37.9414 42.8332H45.194V8.66602L37.9414 9.70446V42.8359V42.8332Z" fill="black"/>
<path d="M122.712 0.101562V42.8703H165V0.101562H122.712ZM135.92 31.2358C131.984 31.2358 128.855 29.538 129.003 24.5793H133.182C133.368 26.3045 134.176 27.1012 135.572 27.1012C136.833 27.1012 137.646 26.0902 137.646 24.6315C137.646 23.332 136.937 22.3485 135.544 22.3485C134.844 22.3348 134.179 22.6645 133.761 23.2276L129.503 22.6947L130.566 12.052H142.311V18.1618H138.473L138.313 16.2772H134.456L134.094 19.5931C134.964 19.0684 135.967 18.8101 136.984 18.8486C140.607 18.8486 142.783 21.2387 142.783 24.9776C142.783 28.0792 140.734 31.2358 135.904 31.2358H135.92ZM158.733 18.3678H154.503C154.214 16.6426 153.439 16.0052 152.214 16.0052C150.665 16.0052 149.591 17.3623 149.591 21.4447C149.591 25.1699 150.379 26.8045 152.401 26.8045C152.931 26.8155 153.45 26.6699 153.895 26.3842V24.1287H151.874V19.8705H158.733V30.8649H154.343V29.6726C153.61 30.5462 152.481 31.1561 150.72 31.1561C146.283 31.1561 144.179 27.3347 144.179 21.4722C144.179 15.214 146.838 11.6591 151.165 11.6591C152.898 11.6591 154.027 12.1921 154.736 13.0107L154.788 11.9723H158.731V18.3678H158.733Z" fill="black"/>
</svg>
