<svg width="345" height="35" viewBox="0 0 345 35" fill="none" xmlns="http://www.w3.org/2000/svg">
<path d="M231.537 19.2262V25.0398L236.467 24.7617V18.7979L231.537 19.2285V19.2262Z" fill="black"/>
<path d="M231.537 34.9736H239.048V29.0098L231.537 29.2408V34.9758V34.9736Z" fill="black"/>
<path d="M225.369 34.9724H230.582V9.40137L225.369 10.1393V34.9724Z" fill="black"/>
<path d="M214.365 34.9721H219.304V17.1592L214.365 17.6728V34.9721Z" fill="black"/>
<path d="M210.063 17.379L223.532 15.8762V10.4014L210.063 12.319V17.3812V17.379Z" fill="black"/>
<path d="M278.705 34.9705H301.908V27.0801L278.705 27.8023V34.9705Z" fill="black"/>
<path d="M286.203 14.3023C285.874 9.67972 287.269 8.58969 288.689 7.98635V0.313477C281.946 1.76462 278.631 6.77296 279.013 14.9505L286.208 14.3023H286.203Z" fill="black"/>
<path d="M231.537 14.9772L239.048 14.1428V8.19922L231.537 9.26458V14.9772Z" fill="black"/>
<path d="M266.571 11.0772L276.532 9.99164V2.875L266.571 4.28353V11.0772Z" fill="black"/>
<path d="M293.041 9.17889C293.84 10.8431 293.019 13.3417 291.074 15.6608C288.08 19.2315 280.109 26.5432 280.109 26.5432L291.552 26.1619C298.548 19.2629 301.053 15.0754 301.506 9.854C301.757 7.1289 300.753 4.43745 298.779 2.54222C296.637 0.48775 293.479 -0.360058 290.002 0.140104V7.67616C291.402 7.60215 292.535 8.11128 293.044 9.17889" fill="black"/>
<path d="M258.477 34.9712H265.297V4.46582L258.477 5.43474V34.9712Z" fill="black"/>
<path d="M266.571 16.1869V23.1129L273.086 22.7518V15.6396L266.571 16.1869Z" fill="black"/>
<path d="M266.571 34.9725H276.531V27.8604L266.591 28.1654L266.568 34.9725H266.571Z" fill="black"/>
<path d="M248.07 34.9726H256.671V28.457L248.07 28.7127V34.9726Z" fill="black"/>
<path d="M241.04 34.9698H246.961V7.0752L241.04 7.923V34.9721V34.9698Z" fill="black"/>
<path d="M310.249 0.0830078V35.0001H344.774V0.0830078H310.249ZM321.033 25.5015C317.819 25.5015 315.264 24.1154 315.385 20.067H318.797C318.949 21.4756 319.609 22.126 320.748 22.126C321.778 22.126 322.441 21.3006 322.441 20.1096C322.441 19.0488 321.863 18.2458 320.726 18.2458C320.154 18.2346 319.611 18.5037 319.27 18.9635L315.793 18.5284L316.661 9.83952H326.25V14.8277H323.117L322.986 13.2891H319.837L319.541 15.9962C320.252 15.5678 321.071 15.357 321.901 15.3884C324.859 15.3884 326.636 17.3397 326.636 20.3922C326.636 22.9244 324.962 25.5015 321.019 25.5015H321.033ZM339.658 14.9959H336.204C335.968 13.5874 335.336 13.067 334.336 13.067C333.071 13.067 332.194 14.175 332.194 17.5079C332.194 20.5492 332.837 21.8838 334.488 21.8838C334.921 21.8927 335.345 21.7739 335.708 21.5406V19.6992H334.057V16.2227H339.658V25.1987H336.074V24.2253C335.475 24.9386 334.553 25.4365 333.115 25.4365C329.493 25.4365 327.775 22.3166 327.775 17.5303C327.775 12.4211 329.946 9.51878 333.479 9.51878C334.894 9.51878 335.816 9.9539 336.394 10.6223L336.437 9.77447H339.656V14.9959H339.658Z" fill="black"/>
<path d="M42.4282 5.00977H40.0512C39.939 5.00977 39.8294 5.05412 39.7511 5.1324L37.3453 7.53821C37.267 7.61649 37.2227 7.72608 37.2227 7.83828V29.574C37.2227 29.8062 37.4131 29.9967 37.648 29.9967H56.0828C56.195 29.9967 56.302 29.9524 56.3829 29.8741L58.7886 27.4683C58.8669 27.39 58.9113 27.2804 58.9113 27.1682V25.874C58.9113 25.6417 58.7208 25.4513 58.486 25.4513H43.2763C43.044 25.4513 42.8509 25.2608 42.8509 25.0286V5.43248C42.8509 5.20025 42.6605 5.00977 42.4282 5.00977Z" fill="#EC008C"/>
<path d="M53.7045 5.1324L51.2987 7.53821C51.2204 7.61649 51.176 7.72608 51.176 7.83828V9.13251C51.176 9.36735 51.3665 9.55783 51.6013 9.55783H62.7327C62.9675 9.55783 63.158 9.74831 63.158 9.98315V29.574C63.158 29.8088 63.3485 29.9993 63.5833 29.9993H68.3688C68.601 29.9993 68.7915 29.8088 68.7915 29.574V9.98315C68.7915 9.74831 68.982 9.55783 69.2142 9.55783H77.9398C78.052 9.55783 78.1616 9.51347 78.2398 9.43519L80.6456 7.02939C80.7239 6.95111 80.7683 6.84152 80.7683 6.73192V5.43248C80.7683 5.20025 80.5778 5.00977 80.3429 5.00977H54.0071C53.8949 5.00977 53.7879 5.05412 53.7071 5.1324" fill="#EC008C"/>
<path d="M117.516 25.0266V5.43313C117.516 5.2009 117.325 5.00781 117.09 5.00781H114.713C114.601 5.00781 114.494 5.05217 114.416 5.13045L112.01 7.53625C111.929 7.61714 111.887 7.72413 111.887 7.83372L111.851 29.9922H130.708C130.821 29.9922 130.928 29.9478 131.008 29.8695L133.414 27.4637C133.492 27.3854 133.537 27.2758 133.537 27.1636V25.8694C133.537 25.6372 133.346 25.4467 133.112 25.4467H117.936C117.704 25.4467 117.513 25.2562 117.513 25.0214" fill="#EC008C"/>
<path d="M90.8905 19.774H99.1934C99.4282 19.774 99.6187 19.5835 99.6187 19.3513V15.6487C99.6187 15.4138 99.4282 15.2234 99.1934 15.2234H90.8905C90.6557 15.2234 90.4652 15.0329 90.4652 14.8006V9.97599C90.4652 9.74376 90.6557 9.55328 90.8905 9.55328H104.704C104.816 9.55328 104.923 9.50892 105.002 9.43064L107.415 7.01962C107.494 6.93873 107.538 6.83175 107.538 6.71955V5.42532C107.538 5.19309 107.347 5 107.115 5H87.6654C87.5532 5 87.4462 5.04436 87.3653 5.12264L84.9596 7.52844C84.8813 7.60933 84.8369 7.71631 84.8369 7.82851V29.5747C84.8369 29.8069 85.0274 30 85.2622 30H104.712C104.824 30 104.931 29.9556 105.012 29.8774L107.418 27.4716C107.496 27.3933 107.541 27.2837 107.541 27.1741V25.8799C107.541 25.645 107.35 25.4545 107.118 25.4545H90.8905C90.6557 25.4545 90.4652 25.2641 90.4652 25.0292V20.202C90.4652 19.9671 90.6557 19.7766 90.8905 19.7766" fill="#EC008C"/>
<path d="M31.1762 5.01172H24.5486C24.439 5.01172 24.3294 5.04825 24.2511 5.13436L0.122793 29.2759C-0.140748 29.5394 0.0471225 29.9987 0.428082 29.9987H5.75369C5.87111 29.9987 5.97287 29.9543 6.05637 29.876L10.3565 25.568C10.44 25.4924 10.5444 25.4454 10.6618 25.4454H25.5427C25.7802 25.4454 25.968 25.6385 25.968 25.8707V29.5707C25.968 29.8082 26.1559 29.9961 26.3934 29.9961H28.7783C28.8957 29.9961 28.9975 29.9517 29.0836 29.8734L31.4763 27.4754C31.5598 27.3998 31.5989 27.2876 31.5989 27.178V5.42921C31.5989 5.19698 31.4111 5.01172 31.1815 5.01172M25.9707 20.4746C25.9707 20.7068 25.7828 20.8999 25.5453 20.8999H16.0553C15.6743 20.8999 15.489 20.4407 15.7526 20.1719L25.2453 10.687C25.5088 10.4156 25.968 10.6113 25.968 10.9845V20.4746H25.9707Z" fill="#EC008C"/>
<path d="M172.984 5H143.598C143.476 5 143.361 5.04958 143.269 5.13569L138.254 10.1586C138.163 10.2421 138.119 10.357 138.119 10.4874V29.5355C138.119 29.7939 138.325 30 138.578 30H168.76C168.882 30 168.997 29.9504 169.089 29.8643L173.313 25.6398C173.397 25.5485 173.449 25.4337 173.449 25.311V5.46446C173.449 5.20614 173.243 5 172.984 5ZM154.257 12.7836L153.579 13.4621H146.474V16.2932H152.611L154.255 17.9371V21.9946L152.566 23.6828H143.885V21.4075H150.727L151.674 20.4603V19.4609L150.784 18.5763H143.885L143.893 11.1946L146.046 11.1998L154.255 11.1867V12.7862L154.257 12.7836ZM164.426 13.4594H159.674L158.907 14.2318V20.369L159.938 21.4023H164.593L165.083 20.9169V19.1321H162.537C162.393 19.1321 162.278 19.0147 162.278 18.8738V18.4485C162.278 18.378 162.304 18.3128 162.354 18.2606L163.76 16.8542H167.661V21.3996H167.667V21.9606L165.944 23.6776H158.007L156.319 21.9946V13.3525L158.479 11.1998L165.616 11.1867V11.1919L167.672 13.2429L167.659 13.2559V15.7765H165.081V14.1144L164.423 13.4621L164.426 13.4594Z" fill="#EC008C"/>
</svg>
