<svg width="200" height="26" viewBox="0 0 200 26" fill="none" xmlns="http://www.w3.org/2000/svg">
<path fill-rule="evenodd" clip-rule="evenodd" d="M186.923 6.52017H178.736C177.361 6.60145 176.978 6.94219 176.978 8.61034V13.2089H186.923V6.52017ZM191.282 2.83775V22.89H186.923V17.126H176.978V22.89H172.619V7.16988C172.619 4.39232 173.744 2.83775 176.978 2.83775H191.282ZM168.26 7.16612V18.018C168.26 21.4727 166.32 22.8862 163.901 22.8862H150.151V2.83398H163.901C167.614 2.83398 168.26 5.19491 168.26 7.16612ZM163.849 8.37295C163.849 7.27431 163.179 6.5164 162.007 6.5164H154.511V19.0456L162.007 19.045C163.714 18.9584 163.849 17.9345 163.849 17.1223V8.37295ZM61.2939 2.83398H65.653V10.7376H75.4057V2.83398H79.7647V22.8857H75.4057V14.7027H65.653V22.8857H61.2939V2.83398ZM87.2356 2.83398L92.7003 11.0316L98.0993 2.83398H103.392L94.8776 15.6538V22.8862H90.5181V15.6527L81.9442 2.83398H87.2356ZM127.861 2.83398H141.908C143.91 2.83398 145.849 3.11497 145.792 7.16612V22.8862H141.433V8.60657C141.433 6.87975 141.226 6.5164 139.871 6.5164H132.221V22.8862H127.861V2.83398ZM200 2.83775V22.89H195.64V2.83775H200ZM105.572 22.8862H119.618C122.411 22.8862 123.559 22.0783 123.503 18.0519V2.83398H119.144V17.1486C119.144 18.8647 118.936 19.073 117.582 19.073H109.932L109.931 2.83398H105.572V22.8862Z" fill="#003984"/>
<path fill-rule="evenodd" clip-rule="evenodd" d="M30.5247 15.8347C30.9091 17.8209 29.868 19.4708 29.003 21.0722C28.0422 22.5622 26.4564 23.8428 24.5503 23.6511C20.2731 23.5871 16.0927 22.9304 12.216 21.7607C12.04 21.7127 11.864 21.6003 11.7676 21.4404C11.6874 21.2159 11.7999 21.0076 11.9598 20.8639C15.5001 17.9964 19.7127 16.6674 23.8774 15.2732C25.4309 14.8248 27.0813 14.3441 28.827 14.5686C29.5472 14.665 30.268 15.1618 30.5247 15.8347ZM45.1172 7.34534C47.1034 8.97904 48.8975 11.2059 48.2887 13.8968C47.2956 17.8694 42.971 19.9838 39.5271 21.329C37.6527 21.9539 35.7628 22.595 33.7125 22.7872C33.5844 22.771 33.376 22.8028 33.3438 22.6106L33.3917 22.3867C36.307 19.1026 38.5172 15.4191 40.4561 11.6866C41.3529 10.0045 42.1862 8.27496 42.9549 6.57667C43.0668 6.44856 43.1793 6.3845 43.3074 6.33659C44.0277 6.40011 44.5406 6.96101 45.1172 7.34534ZM17.165 3.11656L17.101 3.35664C12.8883 8.14577 10.1172 13.7041 7.49038 19.2302C6.97793 19.7109 6.4811 19.0698 6.01655 18.8614C3.6777 17.3241 1.56331 14.841 2.17211 11.8939C3.1491 8.04996 7.10551 5.99963 10.4057 4.60654C12.3597 3.86962 14.3944 3.27697 16.5406 2.94054C16.7651 2.94 17.053 2.90825 17.165 3.11656ZM38.0694 3.88524C38.3094 4.01335 38.598 4.06125 38.7422 4.30133C38.8703 4.5737 38.6141 4.74972 38.4699 4.92628C35.154 7.52082 31.358 8.96289 27.4813 10.2284C25.5106 10.7091 23.5243 11.5741 21.3303 11.0934C20.8173 10.9653 20.3533 10.6289 20.0648 10.1321C19.52 8.62646 20.2569 7.05682 20.8975 5.7434C21.7464 4.09355 23.2525 2.15518 25.3346 2.12342C29.8196 2.09113 34.0484 2.76398 38.0694 3.88524ZM43.6116 4.01335C47.0076 5.87151 50.8521 9.13891 50.4516 13.4958C49.987 17.5324 46.2228 20.3514 42.859 22.0497C33.0396 26.743 19.2482 26.8868 9.10847 22.7866C5.68013 21.3612 1.83568 18.9104 0.393613 15.2259C-0.71149 12.1985 0.633688 9.0431 2.89288 6.94486C7.61796 2.65202 13.6408 1.17873 19.8403 0.329314C26.5683 -0.487805 33.6479 0.23296 39.6708 2.29944C41.0165 2.79628 42.3461 3.34103 43.6116 4.01335Z" fill="#003984"/>
</svg>
