<svg width="203" height="61" viewBox="0 0 203 61" fill="none" xmlns="http://www.w3.org/2000/svg">
<path fill-rule="evenodd" clip-rule="evenodd" d="M37.328 0V10.6955H29.8251C21.2444 10.6955 13.9569 16.3819 11.5239 24.2028C6.65801 27.0034 2.65413 31.1358 0 36.1107V29.9348C0 13.4277 13.3784 0 29.8251 0H37.328ZM138.922 46.795V20.7023H150.344V12.7447H138.922V1.02467H129.122V12.7504H123.582V20.708H129.122V46.8005C129.122 51.4168 130.285 54.7525 132.616 56.8074C134.941 58.8622 138.293 59.8868 142.671 59.8868H150.344V51.7585H144.378C142.387 51.7585 140.981 51.3715 140.159 50.6031C139.336 49.8344 138.922 48.5652 138.922 46.795ZM40.3961 49.0546C42.4434 52.7316 45.2563 55.5835 48.8351 57.6097V57.6041C52.4135 59.6248 56.3607 60.638 60.8522 60.638C65.344 60.638 69.45 59.6306 73.1701 57.6041C76.8905 55.5835 79.8281 52.7147 81.9891 49.0089C84.1497 45.3035 85.2271 41.0514 85.2271 36.2643C85.2271 31.4775 84.1725 27.2253 82.0742 23.5198C79.97 19.8142 77.1003 16.9624 73.465 14.9645C69.83 12.9666 65.7637 11.9705 61.2777 11.9705C56.7917 11.9705 52.7254 12.9666 49.0901 14.9645C45.4551 16.9624 42.5854 19.8142 40.4812 23.5198C38.3774 27.2253 37.328 31.4146 37.328 36.2643C37.328 41.114 38.3488 45.3775 40.3961 49.0546ZM73.21 44.9905C71.8487 47.3867 70.0736 49.1856 67.8847 50.3808V50.3752C65.6955 51.5762 63.3533 52.1738 60.8522 52.1738C56.9278 52.1738 53.6784 50.7906 51.0922 48.0244C48.5061 45.2637 47.213 41.3418 47.213 36.2643C47.213 32.8435 47.8425 29.9518 49.0901 27.5839C50.338 25.2217 52.028 23.4344 54.1604 22.239C56.2928 21.038 58.6123 20.4403 61.1075 20.4403C63.6027 20.4403 65.9339 21.0437 68.0945 22.239C70.2552 23.4344 71.9848 25.216 73.2951 27.5839C74.6051 29.9462 75.2573 32.8435 75.2573 36.2643C75.2573 39.6854 74.571 42.5941 73.21 44.9905ZM201.992 39.948H166.11C166.394 43.7105 167.783 46.7332 170.284 49.0156C172.785 51.2983 175.853 52.4367 179.489 52.4367C184.717 52.4367 188.409 50.2395 190.57 45.8507H201.056C199.633 50.1824 197.064 53.7343 193.343 56.5008C189.623 59.2673 185.007 60.6502 179.494 60.6502C175.003 60.6502 170.987 59.637 167.431 57.6164C163.881 55.5899 161.097 52.7383 159.078 49.0613C157.059 45.3842 156.055 41.1207 156.055 36.271C156.055 31.4213 157.036 27.158 158.993 23.4809C160.955 19.8038 163.711 16.9634 167.261 14.9712C170.811 12.9732 174.889 11.9771 179.494 11.9771C184.099 11.9771 187.876 12.9448 191.341 14.8858C194.806 16.8268 197.506 19.5476 199.44 23.054C201.368 26.5603 202.338 30.5961 202.338 35.1612C202.338 36.9314 202.224 38.525 201.998 39.9539L201.992 39.948ZM192.192 32.0759C192.135 28.4842 190.854 25.604 188.358 23.4353C185.857 21.2666 182.761 20.1851 179.069 20.1851C175.717 20.1851 172.847 21.2552 170.46 23.3955C168.072 25.5357 166.655 28.4272 166.201 32.0759H192.192ZM29.8251 34.4768V23.787C28.634 23.787 27.4658 23.8553 26.3145 23.9919C20.3938 24.692 14.9947 27.1397 10.6506 30.8111C6.32913 34.454 3.0568 39.3093 1.33843 44.8478C0.470735 47.6541 2.38407e-05 50.6309 2.38407e-05 53.7218V59.8749H10.6506V53.7218C10.6506 43.1118 19.2595 34.4768 29.8251 34.4768ZM118.636 12.7441V20.6675C111.5 20.6675 105.569 25.9794 104.572 32.8741V59.8804H94.8569V12.7441H104.572V17.8286C107.762 15.1765 111.711 13.4078 116.033 12.8977C116.884 12.7953 117.752 12.7441 118.636 12.7441Z" fill="#A31551"/>
</svg>
