<svg width="219" height="69" viewBox="0 0 219 69" fill="none" xmlns="http://www.w3.org/2000/svg">
<path d="M144.525 33.6798V33.6198C144.525 33.3298 144.455 32.8698 144.395 32.3598C144.279 31.4539 144.081 30.5604 143.805 29.6898C141.735 23.1498 136.185 18.9298 129.675 18.9298C129.006 18.9275 128.338 18.971 127.675 19.0598C125.687 19.3226 123.771 19.9798 122.039 20.9928C120.308 22.0058 118.797 23.3542 117.593 24.9589C116.39 26.5637 115.519 28.3925 115.032 30.3382C114.544 32.2839 114.45 34.3073 114.755 36.2898C115.165 39.9317 116.915 43.2907 119.666 45.7124C122.417 48.1341 125.971 49.445 129.635 49.3898C130.304 49.3858 130.972 49.3424 131.635 49.2598C133.63 49.064 135.566 48.4754 137.332 47.5281C139.098 46.5807 140.659 45.2932 141.925 43.7398C142.074 43.5612 142.145 43.3312 142.125 43.0998C142.108 42.9942 142.068 42.8935 142.01 42.8039C141.951 42.7144 141.875 42.6381 141.785 42.5798C140.838 42.0264 139.864 41.5224 138.865 41.0698L138.285 40.7898C138.094 40.6734 137.878 40.6048 137.655 40.5898C137.533 40.597 137.415 40.6324 137.309 40.6932C137.203 40.7539 137.113 40.8383 137.045 40.9398C135.492 42.7835 133.305 43.9788 130.915 44.2898C130.487 44.3426 130.056 44.3692 129.625 44.3697C125.565 44.3697 121.475 41.6498 120.285 37.9198V37.8198H120.375C121.925 37.1394 123.603 36.7985 125.295 36.8198C125.645 36.8198 125.995 36.8198 126.345 36.8198C127.155 36.8798 127.965 36.9898 128.815 37.0998C130.51 37.3604 132.221 37.504 133.935 37.5298C135.113 37.5285 136.289 37.445 137.455 37.2798C142.095 36.3898 143.945 35.0798 143.955 35.0698C144.615 34.6498 144.585 34.2998 144.545 33.6598M139.295 31.7598C138.279 32.0599 137.238 32.2674 136.185 32.3798C135.482 32.4659 134.774 32.506 134.065 32.4998C132.705 32.4998 131.245 32.3898 129.815 32.2798H129.765C128.445 32.1798 127.205 32.0898 126.005 32.0898C125.206 32.0889 124.408 32.139 123.615 32.2398C122.248 32.4188 120.906 32.7543 119.615 33.2398V33.0598C119.888 30.8155 120.895 28.7245 122.48 27.1114C124.064 25.4984 126.136 24.4537 128.375 24.1398C128.803 24.0886 129.234 24.0619 129.665 24.0598C131.872 24.1474 133.996 24.9263 135.737 26.2865C137.477 27.6466 138.746 29.5192 139.365 31.6398V31.7498L139.295 31.7598Z" fill="#004A97"/>
<path d="M217.285 20.6492C217.283 20.4627 217.207 20.2846 217.074 20.1536C216.941 20.0226 216.762 19.9492 216.575 19.9492H212.735C212.55 19.9492 212.372 20.023 212.24 20.1543C212.109 20.2855 212.035 20.4636 212.035 20.6492V47.9792C212.035 48.1658 212.109 48.3449 212.24 48.4778C212.371 48.6107 212.549 48.6866 212.735 48.6892H216.575C216.668 48.6892 216.761 48.6709 216.847 48.6352C216.933 48.5995 217.011 48.5472 217.077 48.4813C217.143 48.4153 217.195 48.3371 217.231 48.2509C217.267 48.1648 217.285 48.0725 217.285 47.9792V20.6492Z" fill="#004A97"/>
<path d="M214.665 10.1504C213.979 10.1504 213.308 10.3539 212.738 10.7352C212.167 11.1165 211.722 11.6584 211.459 12.2925C211.197 12.9265 211.128 13.6242 211.262 14.2974C211.396 14.9705 211.726 15.5888 212.212 16.0741C212.697 16.5594 213.315 16.8898 213.988 17.0237C214.661 17.1576 215.359 17.0889 215.993 16.8263C216.627 16.5636 217.169 16.1189 217.551 15.5482C217.932 14.9776 218.135 14.3067 218.135 13.6204C218.133 12.7009 217.766 11.8198 217.116 11.1696C216.466 10.5195 215.585 10.153 214.665 10.1504Z" fill="#004A97"/>
<path d="M163.605 49.41H164.345C166.265 49.4226 168.169 49.0523 169.944 48.3209C171.719 47.5894 173.331 46.5115 174.685 45.15C176.761 42.975 178.16 40.2439 178.713 37.2887C179.265 34.3334 178.948 31.2813 177.799 28.5031C176.649 25.7249 174.718 23.3403 172.239 21.6391C169.76 19.9379 166.841 18.9933 163.835 18.92C160.497 18.9074 157.251 20.0163 154.618 22.069C151.985 24.1217 150.117 26.9992 149.315 30.24C148.873 32.5465 148.665 34.8918 148.695 37.2401V58.69C148.695 58.8766 148.769 59.0557 148.9 59.1886C149.031 59.3214 149.209 59.3974 149.395 59.4H153.205C153.393 59.3975 153.572 59.3218 153.704 59.1892C153.837 59.0566 153.913 58.8775 153.915 58.69V45.15L154.115 45.34C156.712 47.7385 160.065 49.1535 163.595 49.34M163.765 24.05C169.215 24.05 173.485 28.53 173.485 34.26C173.485 39.99 169.435 44.3601 164.065 44.3601C161.443 44.3964 158.908 43.4142 156.995 41.62C156.041 40.6852 155.288 39.5652 154.782 38.3288C154.277 37.0923 154.029 35.7656 154.055 34.4301C154.055 28.7101 158.415 24.05 163.765 24.05Z" fill="#004A97"/>
<path d="M95.0652 49.41H95.7952C97.722 49.4279 99.6329 49.0602 101.416 48.3286C103.198 47.597 104.816 46.5163 106.175 45.15C108.251 42.9744 109.651 40.2424 110.203 37.2863C110.755 34.3301 110.437 31.2772 109.286 28.4987C108.136 25.7201 106.203 23.3356 103.723 21.6351C101.243 19.9346 98.3216 18.9914 95.3152 18.92C91.9766 18.9074 88.7306 20.0163 86.0976 22.069C83.4646 24.1217 81.5973 26.9992 80.7952 30.24C80.3505 32.5461 80.1427 34.8917 80.1752 37.2401V58.69C80.1751 58.8766 80.2486 59.0557 80.3796 59.1886C80.5106 59.3214 80.6886 59.3974 80.8752 59.4H84.6952C84.8827 59.3975 85.0618 59.3218 85.1944 59.1892C85.3269 59.0566 85.4026 58.8775 85.4052 58.69V45.15L85.5952 45.34C88.1948 47.7399 91.552 49.1549 95.0852 49.34M95.2652 24.15C100.705 24.15 104.975 28.6301 104.975 34.3601C104.975 40.0901 100.975 44.46 95.5452 44.46C92.9257 44.4959 90.3946 43.5136 88.4852 41.72C87.5292 40.7861 86.7743 39.6664 86.267 38.4299C85.7597 37.1935 85.5106 35.8663 85.5352 34.53C85.5352 28.81 89.8952 24.15 95.2552 24.15" fill="#004A97"/>
<path d="M182.645 44.6304C185.743 47.7003 189.933 49.4158 194.295 49.4004H194.445C202.575 49.3504 206.205 44.9004 206.205 40.5304C206.205 34.4804 200.495 32.8204 198.745 32.4504L197.005 32.1104C195.595 31.8404 194.125 31.5605 192.785 31.1905C191.845 30.9305 188.785 29.9204 188.785 27.6404C188.785 25.1304 191.575 23.7804 194.185 23.7804C196.513 23.6861 198.79 24.4715 200.565 25.9804C200.773 26.165 201.037 26.2742 201.315 26.2905C201.566 26.2833 201.808 26.1956 202.005 26.0405C202.925 25.3394 203.8 24.5813 204.625 23.7704C204.709 23.6933 204.776 23.5989 204.821 23.4936C204.866 23.3884 204.888 23.2748 204.885 23.1605C204.851 22.8825 204.711 22.6282 204.495 22.4504C201.571 20.0313 197.857 18.7778 194.065 18.9304C187.975 18.9304 183.375 22.8404 183.375 28.0304C183.375 32.1404 186.755 35.0304 192.885 36.2704L196.725 37.0104C199.245 37.4704 200.665 38.8104 200.615 40.6904C200.565 42.5704 198.325 44.4105 194.615 44.4105C191.681 44.3871 188.867 43.2463 186.745 41.2204C186.593 41.0411 186.379 40.9266 186.145 40.9004C185.937 40.9161 185.74 41.0005 185.585 41.1404C185.355 41.3304 182.795 43.3504 182.515 43.6404C182.457 43.6961 182.412 43.763 182.381 43.8369C182.35 43.9108 182.334 43.9903 182.335 44.0704C182.356 44.2981 182.464 44.509 182.635 44.6605" fill="#004A97"/>
<path d="M58.2954 58.3C53.5192 63.0754 47.4342 66.3272 40.8099 67.6443C34.1857 68.9615 27.3196 68.2848 21.0799 65.6999C14.8401 63.115 9.50701 58.7379 5.75485 53.1221C2.00269 47.5063 0 40.904 0 34.15C0 27.3961 2.00269 20.7938 5.75485 15.178C9.50701 9.56217 14.8401 5.18507 21.0799 2.60015C27.3196 0.0152256 34.1857 -0.661435 40.8099 0.655722C47.4342 1.97288 53.5192 5.22471 58.2954 10C61.4672 13.1712 63.9833 16.9362 65.6999 21.0799C67.4165 25.2236 68.3 29.6648 68.3 34.15C68.3 38.6352 67.4165 43.0765 65.6999 47.2201C63.9833 51.3638 61.4672 55.1288 58.2954 58.3Z" fill="white"/>
<path d="M61.3656 16.5102C62.7625 21.0243 62.7113 25.8624 61.2191 30.3459C59.727 34.8295 56.8689 38.7334 53.0456 41.5102C43.2456 48.7202 28.9756 48.7302 9.26562 54.9402C14.5663 61.278 22.0854 65.3544 30.2889 66.3377C38.4924 67.321 46.7619 65.137 53.4102 60.2315C60.0585 55.326 64.5845 48.0686 66.0647 39.94C67.5449 31.8115 65.8679 23.4245 61.3756 16.4902" fill="#004A97"/>
<path d="M53.615 8.15091C47.3825 3.46154 39.6692 1.17463 31.8879 1.70911C24.1067 2.24359 16.7785 5.56366 11.2458 11.0612C5.71304 16.5587 2.34622 23.8655 1.76206 31.6432C1.17789 39.4209 3.4155 47.1487 8.06498 53.4109C18.8246 50.2542 28.626 44.4614 36.5801 36.5578C44.5343 28.6543 50.3896 18.8902 53.615 8.15091Z" fill="#EB0029"/>
</svg>
