<svg width="203" height="72" viewBox="0 0 203 72" fill="none" xmlns="http://www.w3.org/2000/svg">
<mask id="mask0_167_1123" style="mask-type:luminance" maskUnits="userSpaceOnUse" x="0" y="0" width="203" height="72">
<path d="M202.338 0H0V71.738H202.338V0Z" fill="white"/>
</mask>
<g mask="url(#mask0_167_1123)">
<path fill-rule="evenodd" clip-rule="evenodd" d="M0 6.84432V1.31513C0 0.966332 0.139882 0.631826 0.388873 0.38519C0.637864 0.138557 0.975568 0 1.32769 0H42.1865C42.5386 0 42.8763 0.138557 43.1252 0.38519C43.3742 0.631826 43.514 0.966332 43.514 1.31513V6.84432C43.514 7.19311 43.3742 7.52761 43.1252 7.77424C42.8763 8.02087 42.5386 8.15944 42.1865 8.15944H1.32769C0.975568 8.15944 0.637864 8.02087 0.388873 7.77424C0.139882 7.52761 0 7.19311 0 6.84432Z" fill="#00ABA0"/>
<path fill-rule="evenodd" clip-rule="evenodd" d="M0 41.7862V36.2571C0.00375986 35.9107 0.1453 35.5798 0.393884 35.3363C0.642469 35.0927 0.978027 34.9561 1.32769 34.9561H42.1865C42.536 34.9561 42.8717 35.0927 43.1202 35.3363C43.3689 35.5798 43.5104 35.9107 43.514 36.2571V41.7862C43.514 42.135 43.3742 42.4696 43.1252 42.7163C42.8763 42.9629 42.5386 43.1014 42.1865 43.1014H1.32769C0.975568 43.1014 0.637864 42.9629 0.388873 42.7163C0.139882 42.4696 0 42.135 0 41.7862Z" fill="#00ABA0"/>
<path fill-rule="evenodd" clip-rule="evenodd" d="M0 30.1359V24.6209C0 24.2721 0.139882 23.9375 0.388873 23.6908C0.637864 23.4444 0.975568 23.3057 1.32769 23.3057H42.1865C42.5386 23.3057 42.8763 23.4444 43.1252 23.6908C43.3742 23.9375 43.514 24.2721 43.514 24.6209V30.1359C43.514 30.4846 43.3742 30.8192 43.1252 31.0659C42.8763 31.3125 42.5386 31.4511 42.1865 31.4511H1.32769C0.975568 31.4511 0.637864 31.3125 0.388873 31.0659C0.139882 30.8192 0 30.4846 0 30.1359Z" fill="#00ABA0"/>
<path fill-rule="evenodd" clip-rule="evenodd" d="M0 18.4796V12.9645C0 12.6157 0.139882 12.2812 0.388873 12.0346C0.637864 11.788 0.975568 11.6494 1.32769 11.6494H42.1865C42.5386 11.6494 42.8763 11.788 43.1252 12.0346C43.3742 12.2812 43.514 12.6157 43.514 12.9645V18.4796C43.514 18.8283 43.3742 19.1629 43.1252 19.4096C42.8763 19.6561 42.5386 19.7948 42.1865 19.7948H1.32769C0.975568 19.7948 0.637864 19.6561 0.388873 19.4096C0.139882 19.1629 0 18.8283 0 18.4796Z" fill="#00ABA0"/>
<path d="M82.5454 34.9003C83.454 33.03 84.0839 31.0388 84.4155 28.9893C84.8198 26.5164 85.0107 24.0138 84.9867 21.5087C84.9947 19.2039 84.8277 16.9018 84.4869 14.6219C84.2148 12.5635 83.6475 10.5541 82.8023 8.65437C82.0656 7.00074 80.9397 5.54602 79.5187 4.41203C78.0446 3.31678 76.2348 2.75751 74.3935 2.82822C72.7296 2.79806 71.0927 3.24875 69.6829 4.12523C68.2732 5.00168 67.1519 6.26594 66.456 7.76348C64.6572 11.0442 63.7434 15.6825 63.7434 21.6783C63.732 24.0997 63.9327 26.5175 64.343 28.9045C64.6666 30.954 65.2918 32.9456 66.199 34.8155C66.9508 36.3888 68.0776 37.7573 69.4826 38.8032C70.9433 39.7401 72.6462 40.2386 74.3864 40.2386C76.1266 40.2386 77.8296 39.7401 79.2903 38.8032C80.6993 37.7868 81.8202 36.428 82.5454 34.8578M154.184 35.3528C155.237 33.5627 155.971 31.6063 156.354 29.5691C156.84 27.0195 157.069 24.4284 157.039 21.8339C157.069 19.2041 156.762 16.5813 156.125 14.028C155.613 11.8776 154.703 9.83982 153.441 8.01802C152.318 6.39305 150.808 5.06715 149.044 4.15749C147.199 3.20476 145.144 2.71896 143.063 2.74339C142.349 2.74339 141.535 2.74339 140.636 2.74339L138.594 2.82822V35.5932C138.58 36.2492 138.671 36.9031 138.865 37.5305C139.083 38.0723 139.425 38.5564 139.865 38.9447C140.364 39.3913 140.952 39.7287 141.592 39.9345C142.454 40.1848 143.35 40.2994 144.247 40.2739C146.293 40.33 148.321 39.8933 150.158 39.0012C151.812 38.1731 153.204 36.911 154.184 35.3528ZM184.021 25.6945L177.911 10.5069L171.901 25.6662L184.021 25.6945ZM98.7918 10.3513V20.8158H101.105C103.643 20.967 106.14 20.124 108.057 18.4683C109.704 16.9128 110.527 14.4428 110.527 11.0584C110.629 9.89386 110.463 8.72162 110.043 7.62942C109.623 6.5372 108.958 5.55331 108.1 4.75143C106.1 3.33009 103.659 2.64945 101.204 2.82822H98.7918V10.3513ZM74.2364 43.1022C71.3614 43.1338 68.5038 42.6548 65.7993 41.688C63.1993 40.7534 60.8156 39.3107 58.7896 37.4457C56.7585 35.5848 55.1398 33.3263 54.0356 30.8135C52.8361 28.0652 52.2377 25.0965 52.2797 22.1026C52.2357 18.9936 52.8182 15.9073 53.9927 13.024C55.073 10.4095 56.6755 8.03824 58.7039 6.0524C60.7013 4.12009 63.0705 2.60525 65.6707 1.59795C68.4601 0.541031 71.4214 -0.000565656 74.4079 4.43323e-07H105.887C111.312 4.43323e-07 115.438 0.834327 118.236 2.53126C119.598 3.29226 120.72 4.41328 121.476 5.7692C122.233 7.12512 122.594 8.66256 122.519 10.2099C122.651 12.8769 121.718 15.4883 119.921 17.4784C117.703 19.5666 114.963 21.0312 111.983 21.7208L116.823 27.9145C118.65 30.2762 120.563 32.666 122.533 35.1124C123.161 35.9185 123.961 36.8801 125.103 38.0114C125.61 38.5981 126.18 39.129 126.802 39.5951C127.021 39.413 127.205 39.1925 127.344 38.9447C127.642 38.3677 127.79 37.7259 127.773 37.078V6.53319C127.786 5.88424 127.65 5.24081 127.373 4.65243C127.056 4.0014 126.499 3.49539 125.817 3.23832C125.036 2.89082 124.209 2.65741 123.361 2.54541C122.505 2.41814 105.302 2.33329 104.802 2.29087V4.43323e-07H144.347C147.002 0.0211191 149.645 0.338949 152.228 0.947456C155.123 1.60572 157.871 2.78483 160.337 4.42618C163.004 6.17907 165.207 8.54088 166.761 11.3129C168.477 14.5527 169.318 18.1771 169.202 21.8339V22.2016L178.139 4.43323e-07H184.907L193.472 21.2116L194.101 22.7956C195.855 27.1935 197.399 31.0116 198.725 34.2216L202.31 43.0739H191.187L185.477 29.1449H170.487C170.145 29.951 169.888 30.6297 169.488 31.7326C169.174 32.5387 168.903 33.3024 168.66 33.9812L165.191 43.0739H114.696L100.419 24.2804H98.7918V36.767C98.7918 36.8943 98.7918 37.0074 98.7918 37.1347V43.1164H74.2364V43.1022Z" fill="#878787"/>
<path d="M3.38347 52.8721H0V71.7364H3.38347V52.8721Z" fill="#878787"/>
<path d="M47.6547 52.8721V71.7364H44.4712L33.6354 58.161V71.7364H30.252V52.8721H33.4213L44.2712 66.4477V52.8721H47.6547Z" fill="#878787"/>
<path d="M89.9535 52.8721L82.2301 71.7364H80.4313L72.5508 52.8721H75.8914L81.3593 65.9527L86.5985 52.8721H89.9535Z" fill="#878787"/>
<path d="M125.86 52.8721V55.6437H117.936V60.8335H125.574V63.6052H117.936V68.9647H126.102V71.7364H114.553V52.8721H125.86Z" fill="#878787"/>
<path d="M161.864 54.1874V57.3832C161.18 56.8769 160.425 56.4718 159.622 56.1814C158.847 55.883 158.027 55.7158 157.195 55.6864C156.383 55.6376 155.579 55.8619 154.911 56.3226C154.709 56.5182 154.552 56.7545 154.451 57.0157C154.35 57.2769 154.307 57.5567 154.326 57.8357C154.326 58.7974 154.94 59.4197 156.41 60.268C159.137 61.852 159.822 62.1913 160.407 62.573C161.09 63.0253 161.652 63.6346 162.045 64.3488C162.437 65.0631 162.65 65.8608 162.663 66.674C162.685 67.3587 162.556 68.0398 162.285 68.67C162.013 69.3 161.607 69.864 161.093 70.3224C159.99 71.2885 158.552 71.795 157.081 71.7365C155.073 71.7259 153.119 71.0874 151.499 69.9124V66.462C152.055 67.057 152.689 67.5754 153.384 68.0032C154.264 68.5909 155.292 68.924 156.353 68.9649C157.235 69.0763 158.13 68.8922 158.894 68.4417C159.096 68.2431 159.252 68.004 159.353 67.7406C159.454 67.4773 159.497 67.1955 159.48 66.9145C159.48 65.8822 159.094 65.3589 157.609 64.4255C156.125 63.4922 154.968 63.0116 153.626 62.0357C152.933 61.5746 152.362 60.9545 151.962 60.2283C151.562 59.5023 151.344 58.6913 151.328 57.8641C151.296 57.1728 151.427 56.4836 151.709 55.8506C151.992 55.2177 152.418 54.6581 152.955 54.2157C154.211 53.2434 155.774 52.7424 157.367 52.8016C158.944 52.8069 160.486 53.2637 161.807 54.1168" fill="#878787"/>
<path d="M202.338 52.8721V55.6437H196.797V71.7364H193.415V55.6437H187.876V52.8721H202.338Z" fill="#878787"/>
</g>
</svg>
