<svg width="200" height="34" viewBox="0 0 200 34" fill="none" xmlns="http://www.w3.org/2000/svg">
<path fill-rule="evenodd" clip-rule="evenodd" d="M23.6318 1.852C24.3588 1.87213 24.2815 2.383 24.1613 2.55912C22.0158 5.89675 16.9463 11.7736 13.255 18.2215C12.6439 19.2663 12.1888 20.0349 12.1888 21.1814C12.1888 22.7358 13.1591 24.5735 15.1085 25.3621C16.3909 25.8759 17.1981 25.8916 18.5821 25.9116C28.8573 26.2294 32.9765 25.9518 42.171 25.6398C42.702 25.6383 43.1958 25.2805 43.3733 25.0644C45.1509 23.2109 46.1756 19.8789 46.1756 16.939C46.1756 10.391 41.4596 4.49275 34.1029 1.656L32.9221 3.17025C39.37 5.83525 42.702 11.1581 42.702 16.8589C42.702 18.1414 42.4844 19.3836 42.0908 20.5701C41.7989 21.3975 41.4396 21.8726 40.3948 21.8884C32.902 22.0486 28.6598 22.166 21.147 21.9685C20.178 21.9485 19.8646 21.595 19.7071 20.8278C19.5869 20.3726 19.6871 19.9948 20.0006 19.4238C23.9853 12.3648 30.9269 4.29662 32.2895 2.383C32.5485 2.0295 32.4269 1.31675 31.538 1.08062C28.9374 0.312 26.0191 0 23.0606 0C9.66537 0.0543747 0.2175 7.5885 0 16.939C0.53675 28.1631 10.2965 33.9598 23.0606 33.9598C30.8711 33.9598 38.026 31.1988 42.2125 26.8205L38.3451 26.9765C34.7741 30.1525 29.0534 31.85 23.1365 31.85C12.3519 31.85 3.571 26.487 3.571 16.8589C3.571 8.57763 12.3504 1.832 23.1365 1.832L23.6318 1.852ZM112.23 22.1245L119.525 17.3341L108.483 9.10862V11.1224H92.1495C90.0184 11.1224 88.265 12.6381 87.9473 14.6118L106.883 14.5918V18.1814L92.4056 18.2014C90.1185 18.2014 88.245 19.939 88.1448 22.1245H112.23ZM181.595 11.0623H198.34V7.53275H181.501C175.203 7.53275 170.058 12.3446 169.8 18.3789L190.099 18.3575C191.417 18.3575 192.482 19.2263 192.482 20.2725C192.482 21.3374 191.415 22.1861 190.099 22.1861L167.751 22.1846V7.53275H161.122V22.0888H147.812C145.858 21.771 145.245 20.3526 145.245 17.5903L145.247 7.53275H134.558L124.949 13.763L116.587 7.53275H90.8671C85.1664 7.53275 80.4145 11.4559 79.3682 16.6814H84.5351C82.5858 18.0039 81.0858 19.8789 80.257 22.0903L63.9034 22.0888C61.9755 21.771 61.3429 20.3526 61.3429 17.5903L61.3443 7.53275H54.7346V16.919C54.457 23.135 57.829 25.3621 61.6763 25.7156L113.058 25.7141L122.525 19.5998L130.791 25.7958H140.904L128.029 16.1118L138.617 9.24887L138.637 16.919C138.365 23.135 142.069 25.3621 145.918 25.7156L194.002 25.7141C197.315 25.7141 200 23.291 200 20.2725C200 17.2725 197.314 14.8494 194.002 14.8494H177.395C177.551 12.7383 179.368 11.0623 181.595 11.0623Z" fill="black"/>
</svg>
