<svg width="200" height="19" viewBox="0 0 200 19" fill="none" xmlns="http://www.w3.org/2000/svg">
<path fill-rule="evenodd" clip-rule="evenodd" d="M23.3526 0.00465724C25.1538 5.15904e-05 26.9553 0.00465723 28.7565 0.0184466C28.8163 0.0414197 28.8577 0.0827877 28.8805 0.142551C28.899 5.77779 28.899 11.4131 28.8805 17.0483C28.7363 18.1028 28.1436 18.7417 27.1022 18.965C18.6655 18.9834 10.2288 18.9834 1.79212 18.965C0.739073 18.739 0.146298 18.0909 0.0137923 17.0207C-0.00459745 15.2833 -0.00459745 13.5458 0.0137923 11.8083C0.0290942 11.7245 0.0796317 11.6739 0.165432 11.6567C1.97819 11.6293 3.78866 11.6385 5.5969 11.6842C5.61987 11.7072 5.64286 11.7302 5.66583 11.7532C5.67501 12.8379 5.68422 13.9227 5.6934 15.0075C5.70719 15.0213 5.72097 15.0351 5.73476 15.0488C11.543 15.0672 17.3513 15.0672 23.1596 15.0488C23.1734 15.0351 23.1871 15.0213 23.2009 15.0075C23.2101 10.0433 23.2193 5.07914 23.2285 0.114972C23.267 0.0716735 23.3084 0.0348835 23.3526 0.00465724Z" fill="#090505"/>
<path fill-rule="evenodd" clip-rule="evenodd" d="M35.8424 0.0051555C44.7409 -0.00860628 53.6369 0.00518308 62.531 0.0465236C62.5641 0.0714271 62.587 0.103584 62.5999 0.143049C62.6184 1.3657 62.6184 2.58837 62.5999 3.81102C62.5771 3.85239 62.5448 3.88457 62.5034 3.90754C54.8848 3.91673 47.2658 3.92594 39.6472 3.93512C39.6149 3.94891 39.592 3.97188 39.5782 4.00407C39.5598 5.15319 39.5598 6.30229 39.5782 7.45141C39.5884 7.47667 39.6022 7.49967 39.6196 7.52035C46.7514 7.52954 53.8828 7.53875 61.0146 7.54793C61.064 7.56958 61.1053 7.60174 61.1387 7.64446C61.1572 8.87632 61.1572 10.1081 61.1387 11.34C61.1285 11.3653 61.1147 11.3883 61.0973 11.409C53.9496 11.4457 46.7993 11.4641 39.6472 11.4641C39.6149 11.4779 39.592 11.5009 39.5782 11.5331C39.5598 12.6822 39.5598 13.8313 39.5782 14.9804C39.5884 15.0057 39.6022 15.0287 39.6196 15.0493C47.2383 15.0585 54.8572 15.0677 62.4759 15.0769C62.5357 15.0999 62.5771 15.1413 62.5999 15.201C62.6272 16.4444 62.6181 17.6854 62.5724 18.9242C62.5517 18.9414 62.5288 18.9552 62.5034 18.9655C53.5614 18.9839 44.619 18.9839 35.6769 18.9655C34.8195 18.7922 34.2543 18.2912 33.9813 17.4625C33.9323 17.2819 33.9047 17.0981 33.8986 16.9109C33.8801 11.9651 33.8801 7.01933 33.8986 2.07356C34.0224 0.887922 34.6703 0.198455 35.8424 0.0051555Z" fill="#090505"/>
<path fill-rule="evenodd" clip-rule="evenodd" d="M67.7698 0.00465724C77.4656 5.15904e-05 87.1612 0.00465723 96.8571 0.0184466C96.9119 0.0342768 96.9533 0.0664611 96.9811 0.114972C96.9996 1.35601 96.9996 2.59706 96.9811 3.8381C96.9583 3.86107 96.9351 3.88407 96.9122 3.90705C93.0051 3.91168 89.0994 3.92547 85.1946 3.94841C85.1808 8.93247 85.1576 13.915 85.1257 18.8961C85.1028 18.919 85.0796 18.942 85.0567 18.965C83.2279 18.9834 81.3989 18.9834 79.5701 18.965C79.5152 18.9286 79.4833 18.8781 79.4736 18.8133C79.4689 13.8583 79.4551 8.90337 79.4323 3.94841C75.5274 3.92547 71.6217 3.91168 67.7146 3.90705C67.6917 3.88407 67.6686 3.86107 67.6457 3.8381C67.6272 2.59706 67.6272 1.35601 67.6457 0.114972C67.6708 0.0568086 67.7121 0.0200462 67.7698 0.00465724Z" fill="#090505"/>
<path fill-rule="evenodd" clip-rule="evenodd" d="M103.943 0.00465724C112.572 5.15904e-05 121.202 0.00465723 129.832 0.0184466C130.899 0.16671 131.538 0.768863 131.748 1.82485C131.766 6.9361 131.766 12.0474 131.748 17.1586C131.615 17.972 131.169 18.5374 130.411 18.8547C130.277 18.9044 130.139 18.9412 129.997 18.965C121.266 18.9834 112.536 18.9834 103.805 18.965C102.789 18.7486 102.196 18.128 102.027 17.1035C102.008 12.029 102.008 6.95449 102.027 1.88001C102.15 1.0952 102.568 0.529839 103.281 0.183919C103.498 0.0975423 103.719 0.0378068 103.943 0.00465724ZM107.775 3.92083C113.859 3.91623 119.943 3.92083 126.027 3.93462C126.041 3.94841 126.055 3.9622 126.068 3.97599C126.087 7.66236 126.087 11.3487 126.068 15.0351C119.954 15.0718 113.838 15.0718 107.72 15.0351C107.688 11.3498 107.683 7.66346 107.706 3.97599C107.733 3.96038 107.757 3.94199 107.775 3.92083Z" fill="#090505"/>
<path fill-rule="evenodd" clip-rule="evenodd" d="M136.917 0.00465724C138.718 5.15904e-05 140.52 0.00465723 142.321 0.0184466C142.381 0.0414197 142.422 0.0827877 142.445 0.142551C142.454 5.10672 142.464 10.0709 142.473 15.0351C145.361 15.0534 148.252 15.0626 151.144 15.0626C154.036 15.0626 156.927 15.0534 159.815 15.0351C159.824 10.0709 159.833 5.10672 159.842 0.142551C159.865 0.0827877 159.907 0.0414197 159.967 0.0184466C161.788 -0.00893907 163.608 0.00027222 165.426 0.0460253C165.448 0.0689984 165.472 0.091999 165.494 0.114972C165.513 5.80537 165.513 11.4958 165.494 17.1862C165.354 17.9867 164.908 18.5429 164.157 18.8547C164.023 18.9044 163.885 18.9412 163.744 18.965C155.344 18.9834 146.944 18.9834 138.544 18.965C137.785 18.8173 137.247 18.3898 136.931 17.6826C136.863 17.5136 136.817 17.3389 136.793 17.1586C136.775 11.4774 136.775 5.79619 136.793 0.114972C136.832 0.0716735 136.873 0.0348835 136.917 0.00465724Z" fill="#090505"/>
<path fill-rule="evenodd" clip-rule="evenodd" d="M170.664 0.00465724C179.68 5.15904e-05 188.696 0.00465723 197.711 0.0184466C198.626 0.133091 199.237 0.62493 199.545 1.49391C199.583 1.639 199.611 1.78608 199.628 1.93517C199.646 4.40807 199.646 6.88094 199.628 9.35384C199.467 10.4057 198.865 11.0354 197.822 11.243C194.954 11.2522 192.087 11.2614 189.22 11.2706C192.73 13.6791 196.241 16.0877 199.752 18.4962C199.839 18.5565 199.917 18.6254 199.986 18.703C200.022 18.8181 199.989 18.9054 199.889 18.965C198.594 18.9696 197.298 18.9742 196.002 18.9788C194.677 18.9832 193.354 18.9694 192.032 18.9374C186.761 15.32 181.491 11.7026 176.22 8.08522C176.22 11.7002 176.201 15.313 176.165 18.9237C176.144 18.9409 176.121 18.9547 176.096 18.965C174.267 18.9834 172.438 18.9834 170.609 18.965C170.576 18.9401 170.553 18.908 170.54 18.8685C170.522 12.6173 170.522 6.36616 170.54 0.114972C170.579 0.0716735 170.62 0.0348835 170.664 0.00465724ZM176.261 3.92083C182.134 3.91623 188.006 3.92083 193.879 3.93462C193.904 3.94494 193.927 3.95873 193.948 3.97599C193.966 5.07914 193.966 6.18229 193.948 7.28544C193.934 7.29923 193.92 7.31302 193.907 7.32681C188.015 7.3452 182.125 7.3452 176.234 7.32681C176.202 6.21183 176.197 5.09489 176.22 3.97599C176.24 3.96099 176.253 3.94259 176.261 3.92083Z" fill="#090505"/>
</svg>
