<svg width="256" height="40" viewBox="0 0 256 40" fill="none" xmlns="http://www.w3.org/2000/svg">
<path d="M68.1931 36.8254V24.3936H74.3171C76.5927 24.3936 77.8626 25.8085 77.8626 27.5619C77.8923 28.2152 77.6923 28.8583 77.2972 29.3794C76.9021 29.9005 76.3369 30.2667 75.6999 30.4145C77.0246 30.6175 78.1044 31.9422 78.1044 33.47C78.1044 35.4039 76.8151 36.8254 74.488 36.8254H68.1931ZM75.6064 27.9326C75.6064 27.0011 74.9618 26.321 73.8562 26.321H70.3752V29.5442H73.8627C74.9779 29.5442 75.6129 28.8738 75.6129 27.9326M75.8546 33.1703C75.8546 32.2388 75.21 31.4588 73.9529 31.4588H70.3752V34.9044H73.9529C75.1487 34.9044 75.8546 34.2597 75.8546 33.1703Z" fill="#001F35"/>
<path d="M86.2906 36.8266V35.634C85.8869 36.0787 85.3949 36.4342 84.846 36.6778C84.2971 36.9215 83.7034 37.0479 83.1029 37.049C81.169 37.049 80.202 36.0433 80.202 34.1965V27.8242H82.1585V33.4906C82.1585 34.8862 82.8676 35.3181 83.9667 35.3181C84.4154 35.3078 84.8561 35.1967 85.2562 34.993C85.6562 34.7894 86.0053 34.4984 86.2777 34.1417V27.8242H88.2342V36.8266H86.2906Z" fill="#001F35"/>
<path d="M89.9983 35.6499L90.8943 34.2349C91.7234 35.0171 92.8106 35.4678 93.9499 35.5016C95.1231 35.5016 95.7226 34.9988 95.7226 34.2897C95.7226 32.5202 90.2787 33.7869 90.2787 30.3381C90.2787 28.8683 91.5454 27.5984 93.8242 27.5984C95.1142 27.5651 96.3696 28.0184 97.3407 28.8683L96.522 30.2479C96.1749 29.8953 95.7594 29.6174 95.301 29.4312C94.8426 29.245 94.3511 29.1543 93.8564 29.1649C92.8315 29.1649 92.1772 29.6322 92.1772 30.264C92.1772 31.8756 97.6211 30.6765 97.6211 34.2543C97.6211 35.8369 96.2964 37.0488 93.8725 37.0488C92.3448 37.0488 90.9459 36.5653 90.0047 35.6499" fill="#001F35"/>
<path d="M99.3348 25.5127C99.3374 25.1893 99.4681 24.8801 99.6983 24.6529C99.9285 24.4257 100.239 24.2991 100.563 24.3008C100.884 24.3008 101.193 24.4285 101.42 24.6558C101.647 24.883 101.775 25.1913 101.775 25.5127C101.775 25.8341 101.647 26.1424 101.42 26.3697C101.193 26.5969 100.884 26.7246 100.563 26.7246C100.242 26.7221 99.9354 26.5936 99.7087 26.3669C99.482 26.1401 99.3535 25.8334 99.351 25.5127M99.5927 27.8237H101.53V36.8261H99.5701L99.5927 27.8237Z" fill="#001F35"/>
<path d="M110.147 36.8247V31.1938C110.147 29.7981 109.438 29.3308 108.339 29.3308C107.89 29.3456 107.45 29.4624 107.052 29.6723C106.654 29.8823 106.31 30.1799 106.044 30.5427V36.8247H104.088V27.8223H106.044V29.0503C106.44 28.5988 106.927 28.236 107.473 27.9855C108.019 27.735 108.612 27.6025 109.212 27.5967C111.146 27.5967 112.113 28.641 112.113 30.4975V36.8343L110.147 36.8247Z" fill="#001F35"/>
<path d="M114.078 32.3122C114.078 29.7046 115.976 27.5967 118.642 27.5967C121.307 27.5967 123.08 29.666 123.08 32.4991V32.9665H116.127C116.276 34.3267 117.301 35.4451 118.996 35.4451C119.941 35.4431 120.851 35.0918 121.552 34.4588L122.445 35.7481C121.438 36.6295 120.13 37.091 118.793 37.0374C116.089 37.0374 114.078 35.155 114.078 32.3025M118.642 29.1922C116.965 29.1922 116.202 30.4814 116.108 31.5773H121.191C121.188 31.2519 121.12 30.9304 120.99 30.6321C120.859 30.3339 120.67 30.0653 120.433 29.8423C120.196 29.6194 119.916 29.4468 119.61 29.3351C119.305 29.2233 118.979 29.1747 118.654 29.1922" fill="#001F35"/>
<path d="M124.234 35.6496L125.126 34.2346C125.956 35.0175 127.045 35.4683 128.185 35.5013C129.358 35.5013 129.955 34.9985 129.955 34.2894C129.955 32.5199 124.511 33.7866 124.511 30.3378C124.511 28.868 125.781 27.5981 128.056 27.5981C129.342 27.568 130.592 28.0211 131.56 28.868L130.741 30.2475C130.394 29.895 129.979 29.6171 129.52 29.4309C129.062 29.2447 128.57 29.154 128.076 29.1646C127.051 29.1646 126.4 29.6319 126.4 30.2637C126.4 31.8753 131.84 30.6762 131.84 34.254C131.84 35.8365 130.516 37.0485 128.095 37.0485C126.567 37.0485 125.168 36.565 124.227 35.6496" fill="#001F35"/>
<path d="M133.031 35.6497L133.927 34.2347C134.756 35.0178 135.843 35.4687 136.983 35.5014C138.156 35.5014 138.752 34.9986 138.752 34.2895C138.752 32.5199 133.312 33.7867 133.312 30.3379C133.312 28.8681 134.578 27.5981 136.857 27.5981C138.143 27.5674 139.393 28.0207 140.361 28.8681L139.542 30.2476C139.195 29.8951 138.779 29.6172 138.321 29.4309C137.863 29.2447 137.371 29.1541 136.876 29.1646C135.851 29.1646 135.2 29.632 135.2 30.2637C135.2 31.8753 140.641 30.6763 140.641 34.254C140.641 35.8366 139.32 37.0485 136.896 37.0485C135.368 37.0485 133.969 36.565 133.028 35.6497" fill="#001F35"/>
<path d="M76.8989 18.1888L73.015 12.6126L72.0158 13.8568V18.1888H68.1931V3.375H72.0158V9.46037L76.5669 3.375H81.276L75.5226 10.3048L81.5854 18.1888H76.8989Z" fill="#001F35"/>
<path d="M93.6634 18.1889L92.9285 16.0552H87.0881L86.3565 18.1889H82.0245L87.6006 3.3623H92.3967L97.9921 18.1889H93.6634ZM89.9987 7.14955L88.1099 12.7257H91.8842L89.9987 7.14955Z" fill="#001F35"/>
<path d="M98.4559 18.1888V15.1461L104.764 6.70455H98.4559V3.375H109.805V6.41769L103.474 14.856H109.959V18.1888H98.4559Z" fill="#001F35"/>
<path d="M122.188 18.1889L121.457 16.0552H115.616L114.885 18.1889H110.556L116.132 3.3623H120.928L126.523 18.1889H122.188ZM118.527 7.14955L116.638 12.7257H120.412L118.527 7.14955Z" fill="#001F35"/>
<path d="M135.946 18.1888L132.062 12.6126L131.063 13.8568V18.1888H127.24V3.375H131.063V9.46037L135.614 3.375H140.323L134.57 10.3048L140.633 18.1888H135.946Z" fill="#001F35"/>
<path d="M151.996 18.1888V12.2355H145.846V18.1888H142.023V3.375H145.846V8.90598H151.996V3.375H155.819V18.1888H151.996Z" fill="#001F35"/>
<path d="M161.527 18.1888V6.70455H157.376V3.375H169.479V6.70455H165.347V18.1888H161.527Z" fill="#001F35"/>
<path d="M170.933 18.1888V3.375H181.792V6.70455H174.752V9.01557H181.637V12.3483H174.752V14.856H181.792V18.1888H170.933Z" fill="#001F35"/>
<path d="M183.592 18.1888V3.375H187.412V14.856H193.365V18.1888H183.592Z" fill="#001F35"/>
<path d="M194.763 18.1888V3.375H205.622V6.70455H198.583V9.01557H205.468V12.3483H198.583V14.856H205.622V18.1888H194.763Z" fill="#001F35"/>
<path d="M206.77 10.7924C206.77 6.21867 210.235 3.13086 214.786 3.13086C218.364 3.13086 220.266 5.1518 221.252 7.10827L217.964 8.66184C217.698 8.03514 217.256 7.49851 216.692 7.11611C216.129 6.73372 215.467 6.52174 214.786 6.50553C212.366 6.50553 210.657 8.37176 210.657 10.7924C210.657 13.213 212.366 15.0792 214.786 15.0792C215.467 15.0633 216.128 14.8518 216.692 14.47C217.255 14.0882 217.697 13.5522 217.964 12.9261L221.252 14.4797C220.285 16.391 218.351 18.4539 214.786 18.4539C210.235 18.4539 206.77 15.3467 206.77 10.7924Z" fill="#001F35"/>
<path d="M221.868 10.7924C221.868 6.27991 225.265 3.13086 229.797 3.13086C234.329 3.13086 237.703 6.28636 237.703 10.7924C237.703 15.2984 234.325 18.4539 229.813 18.4539C225.3 18.4539 221.884 15.3016 221.884 10.7924M233.832 10.7924C233.832 8.37176 232.256 6.50553 229.813 6.50553C227.37 6.50553 225.755 8.38143 225.755 10.7924C225.755 13.2033 227.331 15.0792 229.797 15.0792C232.263 15.0792 233.816 13.1904 233.816 10.7924" fill="#001F35"/>
<path d="M251.979 18.1888V8.54821L248.227 18.1888H246.538L242.809 8.54821V18.1888H238.987V3.375H244.295L247.383 11.4136L250.493 3.375H255.799V18.1888H251.979Z" fill="#001F35"/>
<path fill-rule="evenodd" clip-rule="evenodd" d="M25.6661 34.0884C26.9563 35.3783 28.4145 36.4885 30.0013 37.3889C26.1675 39.5571 21.7283 40.4077 17.3646 39.8104C13.0009 39.213 8.95367 37.2007 5.84361 34.082L25.6661 34.0884ZM21.2471 27.4229C22.0099 29.3086 23.0554 31.0671 24.3478 32.638H4.51244C3.2257 31.0655 2.18462 29.3072 1.42464 27.4229H21.2471ZM19.8257 20.7509C19.8892 22.5239 20.1917 24.2803 20.725 25.9724H0.902488C0.368071 24.2804 0.0645011 22.5241 0 20.7509H19.8257ZM20.7153 14.0789C20.1841 15.7702 19.8838 17.5255 19.8225 19.2972H0C0.0628628 17.5257 0.363148 15.7706 0.892818 14.0789H20.7153ZM24.3156 7.41333C23.0272 8.98577 21.9859 10.7454 21.2278 12.6317H1.40853C2.16628 10.7459 3.20636 8.98638 4.4931 7.41333H24.3156ZM20.09 1.19865e-05C23.5643 -0.00378785 26.9798 0.895911 30.0013 2.61079C28.3981 3.52226 26.9257 4.64662 25.6242 5.95323H5.80171C7.67189 4.0661 9.89754 2.56834 12.35 1.54652C14.8025 0.524693 17.4332 -0.000935701 20.09 1.19865e-05Z" fill="#0072BE"/>
<path fill-rule="evenodd" clip-rule="evenodd" d="M42.1957 39.8646C41.4306 39.9521 40.6612 39.9973 39.8912 40C36.424 40.004 33.0157 39.1042 30.0025 37.3892C31.9364 37.8405 34.6503 38.4335 34.5955 37.8856C34.1442 36.274 28.6423 34.2563 25.6673 34.0854C25.2064 33.6245 24.7648 33.1411 24.349 32.635C30.5601 33.5407 37.6317 35.5359 42.1957 39.8614M51.356 36.4223C48.9402 38.1036 46.1834 39.2316 43.2819 39.726C43.1079 38.859 42.5986 37.9662 41.3738 37.0379L42.373 36.6672C39.7203 34.3562 34.444 29.5762 21.5803 27.4811L21.258 27.4392L20.7358 25.9888C20.8229 25.9888 20.926 25.9888 21.013 25.9888C36.4101 26.9203 41.9637 30.6721 51.3656 36.4158M57.2479 30.079C55.9278 32.3127 54.1927 34.2732 52.136 35.855C51.3442 34.4296 50.1944 33.2353 48.8 32.3901L49.5026 31.7003C43.2626 26.3337 32.6036 21.1959 19.8495 20.7608C19.8301 20.2773 19.8269 19.7939 19.8495 19.3104C36.2876 19.6101 47.414 23.536 57.2383 30.0629L57.264 30.079M59.9167 21.5956C59.6909 24.4591 58.8429 27.2388 57.4316 29.7406L57.4059 29.7889L57.3769 29.6826C56.6581 27.71 54.5566 26.1371 53.364 25.5569L53.8604 24.1065C49.2803 19.7036 37.6124 13.47 20.7165 14.092L21.2322 12.6416C38.473 12.0904 50.3568 15.5135 59.9103 21.5956M58.1472 11.694C59.3523 14.3017 59.9759 17.1403 59.9747 20.013C59.9747 20.4514 59.9586 20.8865 59.9296 21.3023C59.517 19.5005 57.2576 17.0735 54.6855 16.2322L54.5211 15.0493C50.3084 11.7101 38.6373 6.07598 24.3168 7.4136C24.7294 6.90756 25.1677 6.42409 25.6254 5.96317C39.3013 4.52885 52.5679 7.51997 58.1536 11.6875M39.904 0.000282409C43.5587 0.00295928 47.1436 1.00074 50.2741 2.88655C53.4046 4.77236 55.9625 7.47501 57.6734 10.7045C56.0844 8.77056 53.9635 6.89789 50.6598 6.03408C47.9942 2.7142 37.2127 0.396734 30.0025 2.61428C33.0141 0.883597 36.4306 -0.0183324 39.904 0.000282409Z" fill="#0072BE"/>
</svg>
