<svg width="124" height="100" viewBox="0 0 124 100" fill="none" xmlns="http://www.w3.org/2000/svg">
<path d="M6.67188 26.8421C6.67188 26.8421 52.8418 -10.2189 117.856 2.75497C117.856 2.75497 79.2882 21.0592 6.67188 26.8421Z" fill="#2AB7C1"/>
<path d="M0 32.7502C0 32.7502 5.90811 49.3698 20.6784 59.4774C20.6784 59.4774 19.7999 47.8235 43.3813 47.5973C63.0445 47.2744 82.608 50.4205 101.151 56.8876C108.445 50.7006 114.265 43.0001 118.196 34.3357C122.127 25.6713 124.072 16.2569 123.892 6.76465C123.892 6.76465 76.2707 28.0483 0 32.7502Z" fill="#2AB7C1"/>
<path d="M37.9051 63.9404V72.7405H35.8296L31.895 68.0514V72.7405H29.4248V63.9404H31.5003L35.4348 68.617V63.9404H37.9051Z" fill="#2AB7C1"/>
<path d="M39.3435 68.8057V63.9404H41.8901V68.7303C41.8901 70.2388 42.5267 70.8423 43.5836 70.8423C44.6405 70.8423 45.2644 70.2388 45.2644 68.7303V63.9404H47.7473V68.8057C47.8016 69.3632 47.7296 69.9258 47.5362 70.4524C47.3428 70.979 47.0331 71.4565 46.6296 71.8501C46.226 72.2438 45.7387 72.5438 45.2029 72.7282C44.6672 72.9127 44.0967 72.977 43.5326 72.9166C42.9706 72.9731 42.4029 72.9056 41.8704 72.7194C41.3379 72.5332 40.8539 72.2327 40.4532 71.8394C40.0526 71.4462 39.7451 70.9701 39.5532 70.4455C39.3614 69.9209 39.2897 69.3609 39.3435 68.8057Z" fill="#2AB7C1"/>
<path d="M53.0585 70.4023H51.6833V72.7405H49.1367V63.9404H53.2112C55.6434 63.9404 57.1713 65.1976 57.1713 67.1839C57.1948 67.7661 57.0412 68.3419 56.7304 68.837C56.4194 69.3323 55.9654 69.7242 55.4269 69.9623L57.3495 72.7279H54.6755L53.0585 70.4023ZM53.0585 65.9016H51.6579V68.4788H53.0585C54.1026 68.4788 54.6247 68.0011 54.6247 67.2216C54.6247 66.4422 54.1281 65.8891 53.0839 65.8891L53.0585 65.9016Z" fill="#2AB7C1"/>
<path d="M57.6934 71.9371L58.5719 70.1016C59.4517 70.6548 60.4702 70.9552 61.5132 70.969C62.5573 70.969 62.9647 70.6799 62.9647 70.2525C62.9647 68.857 57.8716 69.8753 57.8716 66.6067C57.8716 65.0478 59.1448 63.7655 61.8188 63.7655C62.9452 63.7474 64.0577 64.0113 65.0529 64.5324L64.2762 66.3678C63.5212 65.9477 62.6726 65.7188 61.8061 65.7016C60.7492 65.7016 60.3672 66.0409 60.3672 66.4935C60.3672 67.8262 65.4604 66.8204 65.4604 70.0639C65.4604 71.5976 64.1872 72.9051 61.5132 72.9051C60.1724 72.9496 58.8467 72.6137 57.6934 71.9371Z" fill="#2AB7C1"/>
<path d="M66.2107 68.8057V63.9404H68.7573V68.7303C68.7573 70.2388 69.394 70.8423 70.4507 70.8423C71.5076 70.8423 72.1315 70.2388 72.1315 68.7303V63.9404H74.6145V68.8057C74.6689 69.3632 74.5968 69.9258 74.4034 70.4524C74.2101 70.979 73.9004 71.4565 73.4968 71.8501C73.0931 72.2438 72.6058 72.5438 72.0702 72.7282C71.5345 72.9127 70.9638 72.977 70.3998 72.9166C69.8378 72.9731 69.2701 72.9056 68.7377 72.7194C68.2051 72.5332 67.7211 72.2327 67.3204 71.8394C66.9197 71.4462 66.6124 70.9701 66.4206 70.4455C66.2287 69.9209 66.1569 69.3609 66.2107 68.8057Z" fill="#2AB7C1"/>
<path d="M76.0293 63.9404H78.5759V70.7543H82.7651V72.7279H76.0293V63.9404Z" fill="#2AB7C1"/>
<path d="M84.598 65.9142H81.8604V63.9404H89.844V65.9142H87.1192V72.7279H84.5726L84.598 65.9142Z" fill="#2AB7C1"/>
<path d="M96.0444 71.0181H92.2245L91.5243 72.7279H88.9775L92.9121 63.9277H95.4586L99.4059 72.7279H96.7702L96.0444 71.0181ZM95.3059 69.145L94.2237 66.3666L93.014 69.145H95.3059Z" fill="#2AB7C1"/>
<path d="M108.294 63.9404V72.7405H106.218L102.284 68.0514V72.7405H99.8135V63.9404H101.863L105.798 68.617V63.9404H108.294Z" fill="#2AB7C1"/>
<path d="M37.9051 76.5107V85.311H35.8296L31.895 80.6217V85.311H29.4248V76.5107H31.5003L35.4348 81.1875V76.5107H37.9051Z" fill="#2AB7C1"/>
<path d="M45.3931 83.5913H41.5731L40.8727 85.3011H38.3262L42.2607 76.501H44.7436L48.6908 85.3011H46.0933L45.3931 83.5913ZM44.6544 81.7181L43.5085 78.902L42.3626 81.7181H44.6544Z" fill="#2AB7C1"/>
<path d="M56.6995 83.3246V85.2983H48.7158V83.7395L53.2106 78.4845H48.8304V76.5107H56.4703V78.0571L51.9755 83.3246H56.6995Z" fill="#2AB7C1"/>
<path d="M63.5122 83.5913H59.6923L58.9919 85.3011H56.4453L60.3798 76.501H62.9264L66.8736 85.3011H64.2125L63.5122 83.5913ZM62.7737 81.7181L61.6276 78.902L60.4817 81.7181H62.7737Z" fill="#2AB7C1"/>
<path d="M71.1777 82.9726H69.8024V85.311H67.2559V76.5107H71.305C73.737 76.5107 75.265 77.7679 75.265 79.7542C75.2885 80.3364 75.1349 80.9122 74.824 81.4073C74.5132 81.9026 74.0591 82.2945 73.5206 82.5326L75.4433 85.2984H72.7948L71.1777 82.9726ZM71.1777 78.4719H69.777V80.9863H71.1777C72.2217 80.9863 72.7439 80.5086 72.7439 79.7291C72.7439 78.9496 72.2473 78.4594 71.2031 78.4594L71.1777 78.4719Z" fill="#2AB7C1"/>
<path d="M84.9148 82.8873C84.9148 84.4085 83.6415 85.3011 81.2477 85.3011H76.3965V76.501H80.9549C83.2977 76.501 84.4438 77.4438 84.4438 78.7889C84.4512 79.1873 84.3423 79.5793 84.13 79.9182C83.9177 80.2572 83.6111 80.5285 83.2468 80.6999C83.732 80.8287 84.1597 81.1139 84.4619 81.5103C84.7642 81.9066 84.9236 82.3912 84.9148 82.8873ZM78.9431 78.2987V79.9958H80.6748C81.5152 79.9958 81.948 79.7066 81.948 79.141C81.948 78.5753 81.5152 78.2987 80.6748 78.2987H78.9431ZM82.381 82.6107C82.381 82.0073 81.9226 81.7181 81.1076 81.7181H78.9431V83.5034H81.0567C81.9099 83.5034 82.3683 83.2142 82.3683 82.6107H82.381Z" fill="#2AB7C1"/>
<path d="M91.932 83.5913H88.1121L87.4118 85.3011H84.8652L88.7998 76.501H91.2827L95.2299 85.3011H92.6324L91.932 83.5913ZM91.1935 81.7181L90.0476 78.902L88.9015 81.7181H91.1935Z" fill="#2AB7C1"/>
<path d="M102.857 83.3776V85.3011H95.7012V76.501H102.692V78.4243H98.1969V79.8953H102.157V81.7181H98.1969V83.3273L102.857 83.3776Z" fill="#2AB7C1"/>
<path d="M112.903 76.5107L109.083 85.311H106.537L102.717 76.5107H105.442L107.861 82.2308L110.331 76.5107H112.903Z" fill="#2AB7C1"/>
<path d="M39.3308 98.8904C39.0207 99.2552 38.6298 99.5448 38.1881 99.7367C37.7465 99.9285 37.2661 100.018 36.7841 99.9967C35.3326 99.9967 34.3777 99.5064 32.8878 97.9727C31.783 97.8313 30.7688 97.2955 30.0369 96.4663C29.3049 95.637 28.9059 94.5719 28.9152 93.472C28.9191 92.8458 29.0525 92.227 29.3071 91.6535C29.5617 91.08 29.9322 90.5638 30.3958 90.1366C30.8596 89.7094 31.4066 89.38 32.0038 89.169C32.6008 88.9577 33.2353 88.8691 33.8684 88.9085C34.5013 88.8691 35.1358 88.9577 35.7328 89.169C36.3299 89.38 36.8771 89.7094 37.3407 90.1366C37.8045 90.5638 38.1749 91.08 38.4295 91.6535C38.6841 92.227 38.8174 92.8458 38.8215 93.472C38.8329 94.4049 38.5461 95.3176 38.0021 96.0804C37.458 96.8432 36.6844 97.4174 35.791 97.7212C35.9121 97.8808 36.0701 98.0096 36.2516 98.097C36.4332 98.1846 36.6332 98.2281 36.8351 98.224C37.0928 98.2189 37.3467 98.1615 37.581 98.0555C37.8153 97.9496 38.0252 97.7973 38.1975 97.6081L39.3308 98.8904ZM33.9193 95.9863C34.4279 96.014 34.9333 95.8904 35.3701 95.6315C35.807 95.3726 36.1551 94.9901 36.3694 94.5339C36.5838 94.0776 36.6547 93.5683 36.5728 93.0718C36.4909 92.5753 36.2601 92.1145 35.9102 91.7489C35.5602 91.3833 35.1074 91.1298 34.6098 91.021C34.1124 90.9122 33.5935 90.9533 33.1199 91.1388C32.6463 91.3243 32.24 91.6458 31.9535 92.0618C31.667 92.4777 31.5135 92.9689 31.5127 93.472C31.4897 93.7964 31.5353 94.1218 31.6462 94.4278C31.7572 94.734 31.9312 95.0141 32.1574 95.2503C32.3835 95.4866 32.6569 95.674 32.9601 95.8007C33.2634 95.9274 33.59 95.9905 33.9193 95.9863Z" fill="#2AB7C1"/>
<path d="M39.4707 93.472C39.4746 92.8458 39.608 92.227 39.8626 91.6535C40.1172 91.08 40.4877 90.5638 40.9514 90.1366C41.4151 89.7094 41.9623 89.38 42.5593 89.169C43.1564 88.9577 43.7909 88.8691 44.4239 88.9085C45.0521 88.876 45.6805 88.97 46.2707 89.185C46.8608 89.3999 47.4006 89.7312 47.8569 90.1588C48.3132 90.5864 48.6767 91.1011 48.9251 91.6719C49.1734 92.2426 49.3015 92.8572 49.3015 93.4782C49.3015 94.0995 49.1734 94.714 48.9251 95.2847C48.6767 95.8554 48.3132 96.3703 47.8569 96.7977C47.4006 97.2252 46.8608 97.5566 46.2707 97.7716C45.6805 97.9866 45.0521 98.0806 44.4239 98.0481C43.7898 98.0875 43.1543 97.9985 42.5563 97.7866C41.9584 97.5747 41.4107 97.2443 40.9468 96.8157C40.4828 96.3872 40.1127 95.8694 39.8588 95.2945C39.605 94.7195 39.4729 94.0992 39.4707 93.472ZM46.8303 93.472C46.803 93.0089 46.6389 92.5638 46.3584 92.1918C46.078 91.8196 45.6933 91.5366 45.2518 91.3779C44.8105 91.2191 44.3316 91.1912 43.8743 91.298C43.4171 91.4047 43.0014 91.6412 42.6788 91.9784C42.3561 92.3156 42.1404 92.7385 42.0584 93.1953C41.9763 93.652 42.0315 94.1224 42.217 94.5486C42.4025 94.9749 42.7104 95.3381 43.1025 95.5935C43.4947 95.849 43.954 95.9855 44.4239 95.9863C44.753 95.9905 45.0797 95.9274 45.3829 95.8007C45.6861 95.674 45.9595 95.4866 46.1856 95.2503C46.4118 95.0141 46.5858 94.734 46.6968 94.4278C46.8079 94.1218 46.8533 93.7964 46.8303 93.472Z" fill="#2AB7C1"/>
<path d="M54.331 95.5477H52.9558V97.886H50.4092V89.0859H54.4838C56.9158 89.0859 58.4438 90.3431 58.4438 92.3293C58.4673 92.9115 58.3138 93.4873 58.0028 93.9825C57.6919 94.4777 57.2378 94.8695 56.6993 95.1077L58.622 97.8734H55.9481L54.331 95.5477ZM54.331 91.047H52.9303V93.5613H54.331C55.375 93.5613 55.8972 93.0836 55.8972 92.3042C55.8972 91.5247 55.4006 91.0344 54.3564 91.0344L54.331 91.047Z" fill="#2AB7C1"/>
<path d="M64.2372 94.7179V97.8734H61.6907V94.6802L58.3164 89.0859H60.9776L63.0913 92.5682L65.2049 89.0859H67.6497L64.2372 94.7179Z" fill="#2AB7C1"/>
</svg>
