<svg width="173" height="33" viewBox="0 0 173 33" fill="none" xmlns="http://www.w3.org/2000/svg">
<path d="M136.499 22.6162C135.796 22.2944 135.037 22.1134 134.265 22.0837C131.731 22.0837 130.328 23.9082 130.328 26.4501C130.328 28.8282 131.76 30.8164 134.129 30.8164C134.938 30.8025 135.738 30.6422 136.49 30.3432L136.613 31.5549C135.746 31.8325 134.837 31.9569 133.927 31.9226C130.548 31.9226 128.923 29.3586 128.923 26.432C128.923 23.217 130.997 20.9414 134.092 20.9414C134.954 20.9408 135.81 21.0834 136.626 21.3634L136.499 22.6162Z" fill="#F9B201"/>
<path d="M142.875 30.8283C145.13 30.8283 146.338 28.8772 146.338 26.4619C146.338 24.0467 145.132 22.0956 142.875 22.0956C140.617 22.0956 139.408 24.0427 139.408 26.4619C139.408 28.8812 140.632 30.8283 142.875 30.8283ZM142.875 20.9824C146.254 20.9824 147.753 23.6097 147.753 26.473C147.753 29.3363 146.258 31.9636 142.875 31.9636C139.492 31.9636 137.993 29.3414 137.993 26.473C137.993 23.6046 139.492 20.9824 142.875 20.9824Z" fill="#F9B201"/>
<path d="M162.826 31.6741V24.7267C162.826 23.2489 162.272 22.0834 160.609 22.0834C159.194 22.0834 157.795 23.289 157.795 25.8841V31.6741H156.529V24.7267C156.529 23.2489 155.971 22.0834 154.311 22.0834C152.897 22.0834 151.498 23.289 151.498 25.8841V31.6741H150.215V23.6789C150.215 22.8811 150.215 22.0613 150.135 21.2164H151.402V22.9816H151.444C151.706 22.3452 152.161 21.8069 152.745 21.4425C153.329 21.0782 154.013 20.906 154.7 20.9502C155.355 20.9087 156.002 21.113 156.514 21.523C157.027 21.933 157.368 22.5194 157.471 23.1675H157.513C157.776 22.5006 158.238 21.9305 158.835 21.534C159.432 21.1376 160.137 20.9338 160.854 20.9502C161.31 20.932 161.765 21.0121 162.188 21.185C162.611 21.3578 162.992 21.6194 163.305 21.9521C163.618 22.2848 163.856 22.6808 164.003 23.1134C164.15 23.5459 164.202 24.005 164.156 24.4595V31.6731L162.826 31.6741Z" fill="#F9B201"/>
<path d="M170.796 30.0534C171.289 30.0516 171.761 29.8544 172.109 29.5049C172.456 29.1555 172.651 28.6823 172.65 28.1894C172.649 27.6965 172.453 27.2241 172.104 26.8759C171.755 26.5276 171.282 26.332 170.789 26.332C170.296 26.332 169.824 26.5276 169.475 26.8759C169.126 27.2241 168.93 27.6965 168.929 28.1894C168.928 28.6823 169.123 29.1555 169.47 29.5049C169.818 29.8544 170.29 30.0516 170.783 30.0534" fill="#F9B201"/>
<path d="M16.9814 14.709V20.7371H22.5474C22.1716 23.1825 20.111 24.9135 16.9814 25.3365V32.3642C18.4045 32.2463 19.787 31.8313 21.0397 31.146C22.2924 30.4608 23.3875 29.5204 24.2543 28.3857L24.7356 31.7936H29.985V14.709H16.9814Z" fill="#F9B201"/>
<path d="M8.12988 16.1974C8.12988 12.2792 9.56557 8.3609 13.1975 7.24872V0.106445C5.10579 1.20858 0 7.93592 0 16.1974C0 24.4589 5.10579 31.1852 13.1804 32.2924V25.1461C9.56356 24.0309 8.1128 20.1167 8.1128 16.1974" fill="#F9B201"/>
<path d="M21.5387 11.2122H29.6766C28.9834 3.96548 22.9995 0.473205 16.9814 0V7.07396C19.4771 7.49592 21.3267 8.99993 21.5427 11.2122" fill="#F9B201"/>
<path d="M65.5043 16.1954C65.5043 7.74904 60.6668 0.907163 52.0215 0.0371094V7.18039C55.8564 8.16899 57.3764 12.1937 57.3764 16.2135C57.3764 20.2332 55.8564 24.2379 52.0215 25.2466V32.3577C60.6617 31.4836 65.5023 24.6417 65.5023 16.1954" fill="#F9B201"/>
<path d="M42.8651 16.1954C42.8651 12.1767 44.3852 8.171 48.2201 7.16231V0.0371094C39.5788 0.907163 34.7393 7.75306 34.7393 16.1954C34.7393 24.6377 39.5788 31.4836 48.2201 32.3577V25.2245C44.3852 24.2358 42.8651 20.2161 42.8651 16.1914" fill="#F9B201"/>
<path d="M85.7311 0.59668H82.8809V7.10902H84.5115C87.0031 7.10902 88.8778 8.28751 88.8778 11.2141C88.8778 14.0564 87.0453 15.1083 84.5115 15.1083H82.8809V21.3966H85.7311C92.5941 21.3966 97.0067 18.3825 97.0067 10.6465C97.0067 3.26411 91.5462 0.599694 85.7311 0.599694" fill="#F9B201"/>
<path d="M79.0497 15.1073V7.10902H79.0838V0.59668H70.9238V31.798H79.0497V21.3956H79.0838V15.1073H79.0497Z" fill="#F9B201"/>
<path d="M115.234 0.59668H106.974L95.3096 31.798H103.654L107.984 18.689L111.041 9.25H111.125L114.58 20.1779H111.466L109.49 26.206H116.5L118.422 31.798H126.894L115.234 0.59668Z" fill="#F9B201"/>
</svg>
