<svg width="167" height="25" viewBox="0 0 167 25" fill="none" xmlns="http://www.w3.org/2000/svg">
<path d="M40.8331 0.00976562H38.5454C38.4374 0.00976562 38.3319 0.0524566 38.2566 0.127793L35.9413 2.44315C35.8659 2.51849 35.8232 2.62396 35.8232 2.73194V23.6505C35.8232 23.874 36.0066 24.0573 36.2326 24.0573H53.9743C54.0823 24.0573 54.1852 24.0146 54.2631 23.9393L56.5784 21.6239C56.6538 21.5486 56.6965 21.4431 56.6965 21.3351V20.0896C56.6965 19.8661 56.5131 19.6828 56.2871 19.6828H41.6493C41.4258 19.6828 41.2399 19.4994 41.2399 19.2759V0.416585C41.2399 0.193086 41.0566 0.00976562 40.8331 0.00976562Z" fill="#EC008C"/>
<path d="M51.6853 0.127793L49.37 2.44315C49.2946 2.51849 49.252 2.62396 49.252 2.73194V3.97751C49.252 4.20352 49.4353 4.38684 49.6613 4.38684H60.3741C60.6001 4.38684 60.7835 4.57016 60.7835 4.79617V23.6505C60.7835 23.8765 60.9668 24.0598 61.1928 24.0598H65.7983C66.0218 24.0598 66.2052 23.8765 66.2052 23.6505V4.79617C66.2052 4.57016 66.3885 4.38684 66.612 4.38684H75.0095C75.1175 4.38684 75.2229 4.34415 75.2983 4.26881L77.6136 1.95346C77.689 1.87812 77.7316 1.77265 77.7316 1.66718V0.416585C77.7316 0.193086 77.5483 0.00976562 77.3223 0.00976562H51.9766C51.8686 0.00976562 51.7657 0.0524566 51.6878 0.127793" fill="#EC008C"/>
<path d="M113.097 19.274V0.417143C113.097 0.193644 112.914 0.0078125 112.688 0.0078125H110.4C110.292 0.0078125 110.189 0.0505034 110.114 0.12584L107.799 2.4412C107.721 2.51904 107.681 2.622 107.681 2.72748L107.646 24.0529H125.794C125.902 24.0529 126.005 24.0102 126.083 23.9348L128.398 21.6195C128.474 21.5441 128.516 21.4387 128.516 21.3307V20.0851C128.516 19.8616 128.333 19.6783 128.107 19.6783H113.502C113.278 19.6783 113.095 19.495 113.095 19.269" fill="#EC008C"/>
<path d="M87.4735 14.2186H95.4642C95.6902 14.2186 95.8735 14.0353 95.8735 13.8118V10.2483C95.8735 10.0223 95.6902 9.839 95.4642 9.839H87.4735C87.2475 9.839 87.0642 9.65568 87.0642 9.43219V4.78892C87.0642 4.56542 87.2475 4.3821 87.4735 4.3821H100.768C100.876 4.3821 100.979 4.33941 101.054 4.26407L103.377 1.94369C103.452 1.86584 103.495 1.76288 103.495 1.6549V0.409331C103.495 0.185831 103.312 0 103.088 0H84.3696C84.2616 0 84.1587 0.0426909 84.0808 0.118028L81.7655 2.43338C81.6902 2.51123 81.6475 2.61419 81.6475 2.72217V23.6508C81.6475 23.8743 81.8308 24.0601 82.0568 24.0601H100.775C100.883 24.0601 100.986 24.0174 101.064 23.9421L103.38 21.6267C103.455 21.5514 103.498 21.4459 103.498 21.3404V20.0949C103.498 19.8689 103.314 19.6855 103.091 19.6855H87.4735C87.2475 19.6855 87.0642 19.5022 87.0642 19.2762V14.6304C87.0642 14.4044 87.2475 14.2211 87.4735 14.2211" fill="#EC008C"/>
<path d="M30.0041 0.0117188H23.6257C23.5202 0.0117188 23.4147 0.046876 23.3394 0.129747L0.118176 23.3637C-0.135457 23.6173 0.0453509 24.0593 0.411988 24.0593H5.53738C5.65038 24.0593 5.74832 24.0166 5.82868 23.9412L9.96716 19.7952C10.0475 19.7224 10.148 19.6772 10.261 19.6772H24.5824C24.811 19.6772 24.9918 19.863 24.9918 20.0865V23.6474C24.9918 23.8759 25.1726 24.0568 25.4011 24.0568H27.6963C27.8093 24.0568 27.9073 24.0141 27.9902 23.9387L30.2929 21.6309C30.3733 21.5581 30.411 21.4501 30.411 21.3446V0.413516C30.411 0.190016 30.2302 0.0117188 30.0092 0.0117188M24.9943 14.8933C24.9943 15.1168 24.8135 15.3026 24.5849 15.3026H15.4517C15.085 15.3026 14.9067 14.8606 15.1604 14.602L24.2962 5.47365C24.5498 5.21248 24.9918 5.40082 24.9918 5.75993V14.8933H24.9943Z" fill="#EC008C"/>
<path d="M166.481 0H138.199C138.081 0 137.971 0.0477134 137.883 0.130584L133.056 4.9647C132.968 5.04506 132.926 5.15556 132.926 5.28112V23.6131C132.926 23.8617 133.124 24.0601 133.368 24.0601H162.415C162.533 24.0601 162.643 24.0124 162.731 23.9295L166.797 19.8638C166.877 19.7759 166.928 19.6655 166.928 19.5474V0.446999C166.928 0.198387 166.729 0 166.481 0ZM148.458 7.491L147.805 8.14392H140.967V10.8686H146.873L148.455 12.4507V16.3556L146.83 17.9804H138.476V15.7906H145.06L145.972 14.879V13.9172L145.115 13.0659H138.476L138.483 5.96166L140.555 5.96669L148.455 5.95413V7.49351L148.458 7.491ZM158.244 8.14141H153.671L152.933 8.88474V14.7912L153.925 15.7856H158.405L158.877 15.3185V13.6008H156.426C156.288 13.6008 156.177 13.4878 156.177 13.3522V12.9429C156.177 12.8751 156.202 12.8123 156.25 12.7621L157.603 11.4085H161.358V15.7831H161.363V16.323L159.705 17.9754H152.066L150.442 16.3556V8.03845L152.521 5.96669L159.389 5.95413V5.95915L161.368 7.93298L161.355 7.94554V10.3714H158.874V8.77173L158.241 8.14392L158.244 8.14141Z" fill="#EC008C"/>
</svg>
