<svg width="190" height="58" viewBox="0 0 190 58" fill="none" xmlns="http://www.w3.org/2000/svg">
<path d="M150.199 40.332C155.069 40.332 157.758 44.2509 157.758 48.9025C157.758 53.554 155.066 57.4729 150.199 57.4729C145.332 57.4729 142.64 53.5856 142.64 48.9025C142.64 44.2194 145.332 40.332 150.199 40.332ZM150.199 56.4213C154.301 56.4213 156.542 52.8214 156.542 48.9025C156.542 44.9836 154.301 41.3836 150.199 41.3836C146.097 41.3836 143.856 44.9836 143.856 48.9025C143.856 52.8214 146.097 56.4213 150.199 56.4213Z" fill="#003E65"/>
<path d="M160.065 40.7141H161.281V44.2194H161.345C162.208 41.7657 164.644 40.332 167.241 40.332C173.038 40.332 173.101 44.952 173.101 46.9604V57.0939H171.885V46.7393C171.885 45.0814 171.692 41.3868 167.209 41.3868C163.494 41.3868 161.281 44.2541 161.281 48.2362V57.0939H160.065V40.7173V40.7141Z" fill="#003E65"/>
<path d="M176.629 49.0604C176.534 52.9161 178.613 56.4213 182.683 56.4213C185.791 56.4213 187.969 54.6055 188.579 51.5456H189.795C189.154 55.4013 186.623 57.4729 182.683 57.4729C177.911 57.4729 175.314 53.7119 175.413 49.1898C175.318 44.6962 177.718 40.332 182.683 40.332C187.649 40.332 190.179 44.3457 189.922 49.0635H176.629V49.0604ZM188.706 48.0088C188.611 44.5667 186.433 41.3804 182.683 41.3804C178.934 41.3804 176.886 44.7593 176.629 48.0088H188.706Z" fill="#003E65"/>
<path d="M44.9971 0H49.4926V14.4504H67.2875V0H71.7831V33.6091H67.2875V18.2177H49.4926V33.6091H44.9971V0Z" fill="#003E65"/>
<path d="M98.6357 9.2775H102.42V14.409H102.515C104.455 10.4554 107.154 8.57329 111.507 8.71224V12.9501C105.024 12.9501 102.658 16.5753 102.658 22.7868V33.612H98.6357V9.2775Z" fill="#003E65"/>
<path d="M135.045 33.514C134.334 33.9371 133.34 34.174 132.159 34.174C130.077 34.174 128.753 33.0434 128.753 30.4098C126.527 33.0466 123.546 34.174 120.14 34.174C115.692 34.174 112.047 32.2445 112.047 27.3498C112.047 21.8425 116.165 20.6173 120.33 19.8657C124.73 18.972 128.566 19.3478 128.566 16.2878C128.566 12.7574 125.632 12.2395 123.124 12.2395C119.717 12.2395 117.209 13.2752 117.019 16.8531H112.996C113.234 10.8279 117.87 8.70898 123.359 8.70898C127.759 8.70898 132.54 9.69739 132.54 15.3942V27.9151C132.54 29.7972 132.54 30.6466 133.82 30.6466C134.198 30.6466 134.623 30.5519 135.052 30.4098V33.5171L135.045 33.514ZM128.515 21.0404C125.391 23.3457 116.304 21.0878 116.304 27.0656C116.304 29.7024 118.574 30.6435 121.038 30.6435C126.34 30.6435 128.515 27.394 128.515 25.1362V21.0404Z" fill="#003E65"/>
<path d="M140.366 25.9351C140.509 29.513 143.678 30.6435 146.945 30.6435C149.453 30.6435 152.859 30.0782 152.859 27.0182C152.859 20.7562 136.864 24.9941 136.864 15.6279C136.864 10.7332 141.69 8.70898 145.998 8.70898C151.488 8.70898 155.653 10.4048 156.031 16.3352H152.008C151.77 13.2279 148.932 12.2395 146.329 12.2395C143.916 12.2395 141.122 12.8995 141.122 15.3468C141.122 18.1699 145.382 18.7352 149.119 19.5847C153.142 20.4783 157.117 21.8457 157.117 26.5035C157.117 32.3392 151.675 34.1771 146.706 34.1771C141.217 34.1771 136.579 31.9635 136.344 25.9383H140.366V25.9351Z" fill="#003E65"/>
<path d="M164.034 4.89468H160.012V0H164.034V4.89468ZM160.012 9.27147H164.034V33.6091H160.012V9.27463V9.27147Z" fill="#003E65"/>
<path d="M189.941 33.514C189.23 33.9371 188.236 34.174 187.055 34.174C184.972 34.174 183.648 33.0434 183.648 30.4098C181.423 33.0466 178.442 34.174 175.035 34.174C170.587 34.174 166.942 32.2445 166.942 27.3498C166.942 21.8425 171.06 20.6173 175.226 19.8657C179.626 18.972 183.461 19.3478 183.461 16.2878C183.461 12.7574 180.527 12.2395 178.019 12.2395C174.613 12.2395 172.105 13.2752 171.914 16.8531H167.892C168.13 10.8279 172.765 8.70898 178.254 8.70898C182.655 8.70898 187.436 9.69739 187.436 15.3942V27.9151C187.436 29.7972 187.436 30.6466 188.715 30.6466C189.093 30.6466 189.519 30.5519 189.947 30.4098V33.5171L189.941 33.514ZM183.41 21.0404C180.286 23.3457 171.2 21.0878 171.2 27.0656C171.2 29.7024 173.47 30.6435 175.934 30.6435C181.235 30.6435 183.41 27.394 183.41 25.1362V21.0404Z" fill="#003E65"/>
<path d="M85.9621 36.8576C84.0699 41.5659 82.4603 43.3533 78.8632 43.3533C78.8632 43.3533 77.1202 43.347 76.0725 43.347V39.8417C76.444 39.8607 78.4378 39.8228 78.4378 39.8228C80.095 39.8228 80.9935 39.0712 81.7491 37.6091L83.4064 33.466L73.7041 9.27051H78.2473L85.3938 29.1808H85.4891L92.3499 9.27051H96.6105L85.9621 36.8544V36.8576Z" fill="#003E65"/>
<path d="M9.00064 29.1191H0V33.5938H9.00064V29.1191Z" fill="#003E65"/>
<path d="M35.9997 29.1191H26.999V33.5938H35.9997V29.1191Z" fill="#003E65"/>
<path d="M22.5006 29.1191H13.5V33.5938H22.5006V29.1191Z" fill="#003E65"/>
<path d="M17.7314 26.526C12.7723 26.526 10.1658 25.2281 7.86723 24.085C5.74327 23.0271 3.90504 22.1145 0 22.1145V17.665C4.95908 17.665 7.56562 18.9629 9.8642 20.1061C11.9882 21.1639 13.8264 22.0766 17.7314 22.0766C21.9857 22.0766 23.935 21.1355 26.1892 20.0461C28.4973 18.9282 31.1165 17.665 35.9962 17.665V22.1145C32.142 22.1145 30.2879 23.0113 28.1385 24.0502C25.7352 25.2123 23.0112 26.5291 17.7282 26.5291" fill="#003E65"/>
<path d="M31.4943 0C31.4943 0.0536836 31.4975 0.104209 31.4975 0.157893C31.4975 7.57255 25.4526 13.5851 17.9981 13.5851C10.5436 13.5851 4.49873 7.5757 4.49873 0.157893C4.49873 0.104209 4.50191 0.0505257 4.50191 0H0.00317483C0.00317483 0.0536836 0 0.104209 0 0.157893C0 10.0451 8.05772 18.0598 17.9981 18.0598C27.9385 18.0598 35.9994 10.0483 35.9994 0.157893C35.9994 0.104209 35.9962 0.0505257 35.9962 0H31.4975H31.4943Z" fill="#003E65"/>
</svg>
