<svg width="200" height="31" viewBox="0 0 200 31" fill="none" xmlns="http://www.w3.org/2000/svg">
<path opacity="0.7" d="M0 22.4734V20.2744H7.68073V23.0713C7.67479 23.4388 7.74738 23.8033 7.89364 24.1402C8.0399 24.4772 8.25642 24.7788 8.52864 25.0248C8.80085 25.2708 9.12244 25.4554 9.47177 25.5663C9.82109 25.6772 10.19 25.7117 10.5538 25.6676C11.1752 25.7522 11.8056 25.5994 12.3199 25.2396C12.8343 24.8798 13.1951 24.3393 13.3307 23.7252C13.5363 23.0217 13.5189 22.2715 13.2807 21.5784C11.7942 17.8286 1.63653 16.1312 0.346153 10.2867C0.0834436 9.0028 0.0671258 7.68042 0.298075 6.39038C1.09038 1.69741 5.2019 0 10.3057 0C14.3692 0 19.9691 0.949008 19.9691 7.24101V9.28948H12.8346V7.49177C12.8561 7.13743 12.8009 6.78261 12.6728 6.4517C12.5446 6.12078 12.3466 5.82162 12.0922 5.57475C11.8379 5.32789 11.5333 5.13918 11.1993 5.0216C10.8654 4.90401 10.51 4.86033 10.1576 4.89357C9.55592 4.82711 8.95136 4.99081 8.46473 5.35197C7.97811 5.71313 7.64525 6.24514 7.53266 6.84173C7.45246 7.33985 7.46944 7.84885 7.58265 8.34048C8.42304 11.6852 19.2768 13.4848 20.4672 19.528C20.7647 21.0942 20.781 22.7011 20.5153 24.273C19.8211 29.0644 15.5595 30.8621 10.4076 30.8621C4.99998 30.8621 0 28.9139 0 22.4734ZM93.0611 22.375V20.1761H100.644V22.9228C100.632 23.287 100.698 23.6494 100.839 23.9854C100.98 24.3213 101.191 24.6229 101.458 24.8694C101.726 25.1159 102.043 25.3015 102.389 25.4137C102.735 25.5258 103.1 25.5618 103.461 25.5191C104.077 25.6112 104.705 25.4669 105.219 25.1151C105.733 24.7632 106.097 24.2297 106.236 23.6211C106.442 22.934 106.425 22.1993 106.188 21.5224C104.749 17.8286 94.6899 16.1216 93.4034 10.2867C93.1402 9.01981 93.1232 7.71388 93.3534 6.44053C94.1515 1.79771 98.2688 0.100302 103.269 0.100302C107.284 0.100302 112.832 1.09946 112.832 7.29116V9.28948H105.748V7.54192C105.77 7.19194 105.717 6.84118 105.593 6.51343C105.469 6.18569 105.275 5.88861 105.026 5.64237C104.777 5.39612 104.478 5.20646 104.15 5.08625C103.822 4.96604 103.471 4.91809 103.123 4.94565C102.532 4.86707 101.934 5.02077 101.453 5.37455C100.973 5.72834 100.648 6.25478 100.546 6.84366C100.465 7.34164 100.481 7.85068 100.594 8.3424C101.386 11.6871 112.132 13.4366 113.33 19.4277C113.627 20.977 113.644 22.5674 113.378 24.1226C112.684 28.9178 108.473 30.6653 103.378 30.6653C98.0188 30.6692 93.0611 28.7152 93.0611 22.375ZM120.217 23.4262C120.148 22.7954 120.132 22.1598 120.169 21.5263V0.848706H127.403V22.1725C127.394 22.5396 127.41 22.907 127.451 23.2719C127.613 23.8732 127.967 24.4044 128.46 24.7832C128.953 25.1619 129.556 25.3672 130.177 25.3672C130.798 25.3672 131.402 25.1619 131.894 24.7832C132.387 24.4044 132.742 23.8732 132.903 23.2719C132.946 22.9071 132.963 22.5397 132.953 22.1725V0.848706H140.192V21.5224C140.192 22.0722 140.142 23.1215 140.142 23.4224C139.647 28.8232 135.434 30.5592 130.182 30.5592C124.93 30.5592 120.713 28.8136 120.217 23.4224V23.4262ZM179.782 23.1253C179.708 22.4922 179.675 21.855 179.682 21.2177V9.08888C179.682 8.5893 179.73 7.69044 179.78 7.18893C180.424 1.79772 184.736 0.100302 189.839 0.100302C194.895 0.100302 199.353 1.79771 199.851 7.19086C199.91 7.82233 199.926 8.45714 199.899 9.09081V10.0302H192.664V8.44078C192.666 8.07204 192.633 7.70398 192.566 7.34131C192.376 6.73245 191.997 6.20039 191.485 5.82263C190.972 5.44488 190.352 5.24116 189.716 5.24116C189.08 5.24116 188.461 5.44488 187.948 5.82263C187.436 6.20039 187.057 6.73245 186.866 7.34131C186.783 7.78618 186.75 8.23918 186.768 8.69153V21.8735C186.76 22.2407 186.777 22.608 186.818 22.973C186.99 23.6268 187.388 24.1978 187.942 24.5832C188.496 24.9686 189.169 25.1432 189.839 25.0754C190.498 25.1458 191.16 24.9711 191.699 24.5846C192.237 24.1981 192.616 23.6267 192.763 22.9787C192.829 22.6163 192.846 22.2463 192.813 21.8793V17.6782H189.889V13.4829H199.999V21.2177C200.006 21.8518 199.973 22.4858 199.899 23.1157C199.405 28.3584 194.899 30.2062 189.839 30.2062C184.78 30.2062 180.276 28.3642 179.782 23.1215V23.1253ZM78.94 29.6623L78.7477 2.99555L73.7862 29.6623H66.5516L61.6439 2.99555L61.4516 29.6623H54.3113L54.9055 0.898857H66.5516L70.1689 23.3722L73.7862 0.898857H85.4304L86.0746 29.6623H78.94ZM40.8825 29.6623L37.0171 2.99555L33.0518 29.6623H25.323L30.5768 0.898857H43.3133L48.5671 29.6623H40.8825ZM161.992 29.3633L154.807 5.4433L155.203 29.3614H148.165V0.898857H158.768L165.499 24.0705L165.113 0.898857H172.199V29.3653L161.992 29.3633Z" fill="#1428A0"/>
</svg>
