<svg width="248" height="60" viewBox="0 0 248 60" fill="none" xmlns="http://www.w3.org/2000/svg">
<path fill-rule="evenodd" clip-rule="evenodd" d="M22.1135 25.7837V20.2642C22.1135 19.3686 22.8395 18.6396 23.7381 18.6396H30.4597C32.3432 18.6396 33.7803 19.0116 34.7712 19.7495C35.762 20.4874 36.2559 21.5169 36.2559 22.835V22.9303C36.2559 24.4388 35.6906 25.5635 34.5599 26.3014C33.4292 27.0394 31.9207 27.4083 30.0342 27.4083H23.7381C22.8395 27.4083 22.1135 26.6823 22.1135 25.7837Z" fill="#27348B"/>
<path fill-rule="evenodd" clip-rule="evenodd" d="M38.0948 36.741V36.8362C38.0948 38.3448 37.5294 39.4754 36.3988 40.2312C35.2681 40.984 33.7119 41.3619 31.7302 41.3619H23.7381C22.8395 41.3619 22.1135 40.6359 22.1135 39.7373V33.9351C22.1135 33.0395 22.8395 32.3105 23.7381 32.3105H31.3077C33.6018 32.3105 35.3068 32.6944 36.4226 33.465C37.5354 34.2357 38.0948 35.3277 38.0948 36.741Z" fill="#27348B"/>
<path fill-rule="evenodd" clip-rule="evenodd" d="M67.204 16.847C65.2342 9.59583 58.5632 3.18373 50.0206 1.52046C44.8522 0.511778 39.6749 0 34.4946 0C29.3143 0 24.1489 0.511778 18.9805 1.52046C10.429 3.18373 3.75802 9.59583 1.78826 16.847C0.595094 21.2328 0 25.6157 0 30.0015C0 34.3873 0.595094 38.7701 1.78826 43.156C3.75802 50.4042 10.429 56.8192 18.9805 58.4825C24.1489 59.4912 29.3262 60 34.4946 60C39.663 60 44.8522 59.4912 50.0206 58.4825C58.5632 56.8192 65.2342 50.4042 67.204 43.156C68.4061 38.7701 69.0012 34.3843 69.0012 30.0015C69.0012 25.6186 68.4061 21.2328 67.204 16.847ZM43.8941 37.449C43.8941 38.9278 43.6025 40.2311 43.0223 41.3618C42.4391 42.4924 41.6149 43.4357 40.5467 44.1914C39.4785 44.9442 38.1902 45.5185 36.6816 45.9112C35.173 46.304 33.5068 46.5004 31.6828 46.5004H18.0343C17.1357 46.5004 16.4097 45.7744 16.4097 44.8758V15.1242C16.4097 14.2286 17.1357 13.4996 18.0343 13.4996H31.2127C35.0153 13.4996 37.8926 14.4756 39.8415 16.4245C41.3174 17.9003 42.0553 19.7243 42.0553 21.8934V21.9856C42.0553 22.9943 41.9214 23.881 41.6536 24.6516C41.3888 25.4193 41.0407 26.0947 40.6181 26.6779C40.1926 27.2581 39.6898 27.7699 39.1096 28.2103C38.5264 28.6506 37.9372 29.0285 37.3422 29.3409C38.3151 29.6861 39.2048 30.0878 40.0052 30.543C40.8056 30.9983 41.4989 31.5428 42.0791 32.1676C42.6593 32.7984 43.1086 33.5363 43.421 34.3843C43.7364 35.2323 43.8941 36.2232 43.8941 37.3538V37.449ZM52.5914 44.8758C52.5914 45.7744 51.8654 46.5004 50.9668 46.5004H48.4169C47.5212 46.5004 46.7922 45.7744 46.7922 44.8758V15.1242C46.7922 14.2286 47.5212 13.4996 48.4169 13.4996H50.9668C51.8654 13.4996 52.5914 14.2286 52.5914 15.1242V44.8758Z" fill="#27348B"/>
<path d="M110.686 28.0687H99.0165C98.3619 28.0687 97.8293 28.6013 97.8293 29.2588V31.9695C97.8293 32.627 98.3619 33.1597 99.0165 33.1597H106.265V38.6672C106.265 39.057 106.083 39.4319 105.759 39.6461C104.866 40.2383 103.852 40.7233 102.706 41.1041C101.34 41.5594 99.8704 41.7885 98.2994 41.7885C96.6034 41.7885 95.071 41.4879 93.7023 40.8899C92.3365 40.2948 91.1583 39.4765 90.1674 38.4411C89.1796 37.4027 88.4149 36.1619 87.8823 34.7158C87.3467 33.2697 87.0819 31.6987 87.0819 30.0027V29.9075C87.0819 28.3364 87.3556 26.8428 87.9061 25.4294C88.4536 24.0161 89.2093 22.7813 90.1674 21.728C91.1255 20.6747 92.2592 19.8445 93.5624 19.2316C94.8657 18.6186 96.2731 18.3121 97.7817 18.3121C98.8171 18.3121 99.7693 18.3895 100.632 18.5472C101.498 18.7049 102.289 18.94 103.013 19.2554C103.736 19.5678 104.429 19.9367 105.089 20.3622C105.443 20.5913 105.798 20.8353 106.146 21.0972C106.649 21.478 107.36 21.3947 107.764 20.9127L109.916 18.3478C110.356 17.8212 110.273 17.0476 109.725 16.634C109.187 16.2234 108.639 15.8485 108.08 15.5063C107.184 14.9558 106.235 14.4917 105.229 14.1168C104.224 13.7389 103.132 13.4473 101.953 13.242C100.775 13.0396 99.4628 12.9385 98.0167 12.9385C95.5352 12.9385 93.247 13.3937 91.1583 14.3042C89.0665 15.2177 87.2693 16.4495 85.7608 18.0057C84.2522 19.5618 83.0799 21.3739 82.2467 23.4508C81.4166 25.5246 81 27.7086 81 30.0027V30.0949C81 32.517 81.4076 34.7545 82.2259 36.8135C83.0412 38.8725 84.1956 40.6637 85.6893 42.1872C87.183 43.7106 88.9802 44.9067 91.0868 45.7696C93.1905 46.6355 95.5352 47.0669 98.1119 47.0669C99.555 47.0669 100.939 46.933 102.26 46.6652C103.581 46.4004 104.813 46.0285 105.961 45.5584C107.107 45.0882 108.175 44.5378 109.166 43.907C109.981 43.3893 110.74 42.8507 111.439 42.2883C111.719 42.0622 111.876 41.72 111.876 41.36V29.2588C111.876 28.6013 111.344 28.0687 110.686 28.0687Z" fill="#27348B"/>
<path d="M138.129 33.498C139.775 32.8136 141.167 31.8287 142.307 30.5433C143.768 28.8949 144.497 26.7169 144.497 24.0152V23.92C144.497 22.4739 144.262 21.1558 143.789 19.9597C143.319 18.7665 142.643 17.7132 141.762 16.8027C140.694 15.7643 139.358 14.955 137.754 14.3747C136.154 13.7915 134.315 13.5029 132.241 13.5029H118.723C118.066 13.5029 117.533 14.0355 117.533 14.6901V45.3105C117.533 45.9681 118.066 46.5007 118.723 46.5007H122.142C122.8 46.5007 123.332 45.9681 123.332 45.3105V34.9976H129.974C130.36 34.9976 130.723 35.1851 130.947 35.5034L138.344 45.9949C138.567 46.3132 138.93 46.5007 139.317 46.5007H143.274C144.238 46.5007 144.803 45.4087 144.241 44.6202L137.588 35.2922C137.139 34.6614 137.415 33.7955 138.129 33.498ZM136.767 28.3742C135.541 29.3651 133.892 29.859 131.815 29.859H124.52C123.865 29.859 123.332 29.3264 123.332 28.6688V19.9716C123.332 19.314 123.865 18.7814 124.52 18.7814H131.768C133.937 18.7814 135.618 19.2456 136.814 20.1739C138.007 21.0993 138.605 22.459 138.605 24.2503V24.3425C138.605 26.0415 137.993 27.3864 136.767 28.3742Z" fill="#27348B"/>
<path d="M181.502 23.3317C180.654 21.2727 179.472 19.4755 177.964 17.9343C176.455 16.396 174.649 15.176 172.545 14.2804C170.439 13.3848 168.112 12.9385 165.568 12.9385C163.024 12.9385 160.694 13.3937 158.591 14.3042C156.484 15.2177 154.663 16.4495 153.122 18.0057C151.583 19.5618 150.387 21.3679 149.539 23.4269C148.691 25.483 148.266 27.6759 148.266 30.0027V30.0949C148.266 32.4217 148.691 34.6147 149.539 36.6737C150.387 38.7297 151.565 40.5299 153.074 42.0711C154.583 43.6094 156.392 44.8264 158.495 45.722C160.602 46.6176 162.926 47.0669 165.473 47.0669C168.02 47.0669 170.344 46.6117 172.45 45.6982C174.554 44.7877 176.378 43.5529 177.919 41.9997C179.457 40.4436 180.654 38.6375 181.502 36.5784C182.35 34.5194 182.772 32.3265 182.772 30.0027V29.9075C182.772 27.5807 182.35 25.3907 181.502 23.3317ZM176.693 30.0949C176.693 31.6987 176.417 33.2073 175.866 34.6206C175.319 36.0369 174.554 37.2628 173.581 38.2983C172.608 39.3367 171.436 40.1609 170.07 40.7738C168.701 41.3868 167.202 41.6933 165.568 41.6933C163.934 41.6933 162.426 41.3868 161.042 40.7738C159.659 40.1609 158.474 39.3218 157.484 38.2507C156.493 37.1825 155.722 35.9417 155.172 34.5284C154.621 33.112 154.347 31.6035 154.347 30.0027V29.9075C154.347 28.3067 154.621 26.7981 155.172 25.3818C155.722 23.9685 156.484 22.7426 157.46 21.7042C158.433 20.6687 159.605 19.8445 160.971 19.2316C162.337 18.6186 163.839 18.3121 165.473 18.3121C167.106 18.3121 168.615 18.6186 169.998 19.2316C171.382 19.8445 172.566 20.6836 173.557 21.7518C174.548 22.82 175.319 24.0637 175.866 25.477C176.417 26.8904 176.693 28.3989 176.693 30.0027V30.0949Z" fill="#27348B"/>
<path d="M214.44 13.5029H211.021C210.363 13.5029 209.831 14.0355 209.831 14.6901V32.4982C209.831 35.5481 209.093 37.8332 207.614 39.3596C206.138 40.883 204.112 41.6448 201.535 41.6448C198.958 41.6448 196.881 40.8503 195.406 39.2644C193.93 37.6785 193.192 35.3428 193.192 32.2632V14.6901C193.192 14.0355 192.659 13.5029 192.002 13.5029H188.58C187.925 13.5029 187.393 14.0355 187.393 14.6901V32.4982C187.393 34.8875 187.723 36.9852 188.38 38.7913C189.044 40.6004 189.984 42.1149 191.21 43.3408C192.436 44.5667 193.912 45.4861 195.641 46.099C197.369 46.712 199.303 47.0184 201.44 47.0184C203.576 47.0184 205.564 46.712 207.307 46.099C209.054 45.4861 210.539 44.5607 211.765 43.317C212.991 42.0762 213.94 40.529 214.615 38.6753C215.291 36.8216 215.63 34.6673 215.63 32.2156V14.6901C215.63 14.0355 215.097 13.5029 214.44 13.5029Z" fill="#27348B"/>
<path d="M246.388 20.0073C245.808 18.6564 244.974 17.493 243.891 16.52C242.805 15.5441 241.487 14.7973 239.931 14.2795C238.375 13.7618 236.637 13.5029 234.721 13.5029H222.899C222.242 13.5029 221.709 14.0355 221.709 14.6901V45.3105C221.709 45.9681 222.242 46.5007 222.899 46.5007H226.321C226.976 46.5007 227.508 45.9681 227.508 45.3105V35.8932H234.06C235.884 35.8932 237.598 35.6522 239.199 35.1642C240.803 34.6763 242.201 33.9621 243.394 33.0189C244.591 32.0757 245.531 30.9064 246.224 29.5049C246.914 28.1094 247.26 26.4819 247.26 24.6281V24.5329C247.26 22.8667 246.971 21.3581 246.388 20.0073ZM241.368 24.7442C241.368 26.467 240.731 27.8744 239.458 28.9693C238.187 30.0673 236.45 30.6148 234.251 30.6148H228.699C228.041 30.6148 227.508 30.0822 227.508 29.4246V19.9716C227.508 19.314 228.041 18.7814 228.699 18.7814H234.251C236.417 18.7814 238.146 19.2753 239.434 20.2602C240.722 21.248 241.368 22.712 241.368 24.6519V24.7442Z" fill="#27348B"/>
</svg>
