<svg width="200" height="34" viewBox="0 0 200 34" fill="none" xmlns="http://www.w3.org/2000/svg">
<path d="M78.9338 4.74482H58.6752V9.22463H66.1548V28.3215H71.4621V9.22463H78.9417V4.74482M98.7468 20.3167C98.3383 21.3461 97.6737 22.2541 96.8159 22.9546C95.958 23.655 94.9355 24.1247 93.8452 24.3191C93.4408 24.3915 93.0308 24.4288 92.6199 24.4305C92.1981 24.4305 91.7844 24.3907 91.3865 24.3191C90.2971 24.1249 89.2755 23.6552 88.419 22.9546C87.5624 22.254 86.8994 21.346 86.4929 20.3167C86.019 19.1102 85.7761 17.8254 85.7768 16.5292C85.7771 15.2356 86.02 13.9536 86.4929 12.7496C86.8989 11.7193 87.5617 10.81 88.4182 10.108C89.2747 9.40612 90.2965 8.93493 91.3865 8.73925C92.2018 8.58841 93.0379 8.58841 93.8532 8.73925C94.9423 8.93418 95.9635 9.40418 96.82 10.1047C97.6764 10.8051 98.3397 11.7128 98.7468 12.7416C99.6967 15.1773 99.6967 17.8811 98.7468 20.3167ZM92.6199 4.03665C89.3056 4.03665 86.127 5.35324 83.7835 7.69679C81.4399 10.0403 80.1233 13.2189 80.1233 16.5332C80.1233 19.8474 81.4399 23.026 83.7835 25.3695C86.127 27.7131 89.3056 29.0297 92.6199 29.0297C95.9341 29.0297 99.1127 27.7131 101.456 25.3695C103.8 23.026 105.116 19.8474 105.116 16.5332C105.116 13.2189 103.8 10.0403 101.456 7.69679C99.1127 5.35324 95.9341 4.03665 92.6199 4.03665ZM105.192 4.75278H111.446L117.279 14.8821L123.111 4.74482H129.357L119.928 19.6006V28.3215H114.629V19.6006L105.192 4.74482M141.953 24.4305C142.367 24.4305 142.781 24.3907 143.179 24.3191C144.268 24.1249 145.29 23.6552 146.146 22.9546C147.003 22.254 147.666 21.346 148.072 20.3167C149.028 17.8849 149.028 15.1814 148.072 12.7496C147.666 11.7204 147.003 10.8123 146.146 10.1117C145.29 9.41115 144.268 8.94141 143.179 8.74721C142.363 8.60091 141.528 8.60091 140.712 8.74721C139.624 8.94266 138.604 9.41297 137.749 10.1135C136.894 10.814 136.232 11.7214 135.827 12.7496C135.353 13.9535 135.111 15.2356 135.11 16.5292C135.11 17.866 135.365 19.1471 135.827 20.3167C136.232 21.3464 136.895 22.2549 137.752 22.9555C138.609 23.6562 139.63 24.1256 140.72 24.3191C141.127 24.3924 141.54 24.4297 141.953 24.4305ZM129.461 16.5292C129.461 13.216 130.777 10.0384 133.12 7.69563C135.463 5.35282 138.64 4.03665 141.953 4.03665C145.267 4.03665 148.444 5.35282 150.787 7.69563C153.13 10.0384 154.446 13.216 154.446 16.5292C154.446 19.8424 153.13 23.0199 150.787 25.3627C148.444 27.7056 145.267 29.0217 141.953 29.0217C138.64 29.0217 135.463 27.7056 133.12 25.3627C130.777 23.0199 129.461 19.8424 129.461 16.5292ZM190.627 18.9959L187.157 9.67818L183.68 18.9879H190.627M192.162 23.1176H182.136L180.203 28.3056H174.299L183.847 4.72891H190.452L200 28.3056H194.112L192.162 23.1176ZM175.858 4.74482H155.6V9.22463H163.079V28.3215H168.387V9.22463H175.85V4.74482M37.032 1.62567C33.339 0.506069 29.4963 -0.0413548 25.6376 0.00243334C21.7788 -0.0413548 17.9361 0.506069 14.2431 1.62567C5.80863 4.33902 0 9.97259 0 16.4655C0 25.6082 11.4581 33.0639 25.6376 33.0639C39.7852 33.0639 51.2751 25.64 51.2751 16.4655C51.2751 9.97259 45.4824 4.33902 37.032 1.62567ZM25.6376 25.9424C23.521 25.9424 21.7943 21.8047 21.6988 16.561C22.956 16.6963 24.2769 16.7281 25.6376 16.7281C26.9903 16.7281 28.3191 16.6645 29.5842 16.569C29.4808 21.7967 27.7541 25.9424 25.6376 25.9424ZM21.9614 12.495C22.5184 8.81087 23.9507 6.23279 25.6376 6.23279C27.2926 6.23279 28.7169 8.81087 29.3137 12.487C26.8679 12.7057 24.4076 12.7083 21.9614 12.495ZM31.5655 12.1926C30.7062 6.46354 28.3827 2.32589 25.6376 2.32589C22.8924 2.32589 20.5689 6.43172 19.7096 12.1926C14.5057 11.3651 10.8613 9.54291 10.8613 7.38656C10.8613 4.47429 17.4896 2.119 25.6376 2.119C33.7856 2.119 40.4217 4.47429 40.4217 7.38656C40.4217 9.53496 36.7774 11.3969 31.5735 12.1926H31.5655ZM3.7398 15.8688C3.7398 13.052 4.83788 10.4341 6.72369 8.15043C6.69186 8.30957 6.69186 8.48463 6.69186 8.61194C6.69186 12.1608 11.9912 15.1367 19.3754 16.2666V17.0623C19.3754 23.6189 21.2055 29.1888 23.7199 31.1065C12.5244 30.446 3.74776 23.8815 3.74776 15.8688H3.7398ZM27.5632 31.1463C30.0776 29.2207 31.8997 23.6507 31.8997 17.0941V16.2984C39.2839 15.2083 44.5832 12.1926 44.5832 8.65173C44.5832 8.48463 44.5833 8.31753 44.5514 8.18226C46.431 10.3191 47.4887 13.0551 47.5353 15.9006C47.5353 23.8815 38.7587 30.446 27.5632 31.1383V31.1463Z" fill="black"/>
</svg>
