<svg width="203" height="59" viewBox="0 0 203 59" fill="none" xmlns="http://www.w3.org/2000/svg">
<path d="M29.0209 0C7.31521 0.00813558 0.0244068 5.20563 0 13.7533V13.8378C0.0249763 37.6088 21.298 58.1432 29.0715 58.1432C36.8496 58.1432 58.1435 37.585 58.1435 13.7962C58.1435 5.22288 50.8639 0.00817626 29.122 4.06779e-05H29.0209V0Z" fill="#E1056D"/>
<path d="M189.987 23.8627V23.8743C189.987 24.1273 189.784 24.3339 189.531 24.3339H189.511H185.877H185.875C185.624 24.3339 185.417 24.1273 185.417 23.8743V11.9002C185.417 11.0996 185.329 10.5691 185.168 10.3065C185.042 10.1007 184.794 9.97625 184.399 9.93244C184.084 9.89697 183.738 9.95164 183.438 9.82782C183.225 9.74097 183.077 9.53811 183.064 9.29465C183.051 9.06897 183.19 8.83369 183.399 8.72228C183.494 8.67232 183.611 8.65467 183.727 8.64499C184.64 8.51592 187.779 7.95041 189.285 7.63247C189.605 7.5641 189.932 7.59416 189.965 7.95171C190.008 9.16534 190.569 9.48608 192.123 8.46938C192.749 8.0707 193.337 7.83891 193.837 7.6666C194.338 7.49238 194.873 7.40692 195.448 7.40692C196.996 7.40692 198.189 7.8595 199.025 8.77231C199.862 9.68439 200.281 10.8884 200.281 12.3857V20.6198C200.281 21.7234 200.392 23.0423 201.704 23.1113H201.729C201.758 23.1113 201.788 23.1113 201.82 23.1167L201.845 23.1194L201.842 23.1216C202.125 23.1729 202.338 23.4039 202.338 23.7191C202.338 24.0384 202.064 24.3508 201.729 24.3338L201.679 24.3284H198.085C198.046 24.3338 198.007 24.3338 197.964 24.3338C196.724 24.3338 195.71 23.3177 195.71 22.0671V13.3224C195.71 12.2748 195.48 11.4988 195.017 10.9997C194.554 10.502 193.939 10.2518 193.162 10.2518C192.518 10.2518 191.861 10.4371 191.186 10.8166C190.361 11.2657 190.002 12.0733 189.987 12.7747V23.8626L189.987 23.8627ZM181.367 11.8066V20.1774C181.367 20.9255 181.462 21.4689 181.652 21.8054C181.807 22.094 182.008 22.2566 182.245 22.3018C182.629 22.3634 182.924 22.6983 182.924 23.0997C182.924 23.3999 182.761 23.6623 182.518 23.7984V23.8012C181.834 24.1978 181.019 24.4959 180.171 24.5027C179.4 24.5027 178.751 24.3201 178.233 23.9749C177.642 23.583 177.35 22.9036 176.529 22.9036C175.815 22.9036 175.337 23.5011 174.802 23.8757C174.239 24.2668 173.677 24.5027 172.775 24.5027C171.405 24.5027 170.283 24.0242 169.397 23.0629C168.515 22.1008 168.072 21.0451 168.072 19.8971C168.072 18.0256 169.034 16.7021 170.957 15.9267C172.03 15.5049 173.108 15.0742 174.179 14.6167C174.976 14.2748 175.625 13.9808 176.125 13.7279L176.13 13.7252C176.613 13.5043 176.95 13.0161 176.95 12.4513V12.3966V11.9209C176.95 10.2157 176.438 8.77296 174.955 8.7156C172.316 8.61362 172.095 10.8919 171.768 12.5876C171.644 13.2173 171.109 13.5686 170.545 13.5686C170.12 13.5686 169.671 13.408 169.198 13.0831C168.62 12.6839 168.62 12.2579 168.62 11.8067C168.62 9.15167 171.516 7.07946 174.963 7.12656C178.917 7.17928 181.367 8.11386 181.367 11.8067V11.8066ZM176.95 18.9188L176.946 16.0751L176.948 16.0573V16.0402C176.948 15.6416 176.626 15.321 176.23 15.321C176.088 15.321 175.956 15.3613 175.848 15.4303L174.437 16.2283C173.102 16.9872 172.403 18.2015 172.427 19.4636C172.454 20.7108 173.443 21.7267 174.68 21.7267C175.652 21.7267 176.483 21.1141 176.805 20.2534C176.971 19.8103 176.95 19.3816 176.95 18.9188V18.9188ZM156.091 10.8815C156.098 10.917 156.101 10.7721 156.101 10.993C156.101 11.2118 156.022 11.6056 155.583 11.6746C155.144 11.745 154.861 11.4818 154.76 11.2021C154.239 9.79373 153.151 8.69771 151.46 8.69771C150.864 8.69771 149.932 8.91167 149.507 9.33549C149.084 9.7596 148.873 10.2592 148.873 10.8324C148.873 11.3581 149.116 11.851 149.601 12.3146C151.21 13.8393 154.041 13.8264 155.809 15.4774C156.781 16.3781 157.269 17.5377 157.269 18.9605C157.269 20.7319 156.52 22.1329 155.021 23.1543C153.696 24.0542 152.135 24.5027 150.338 24.5027C149.314 24.5027 148.36 24.3544 147.474 24.0542C146.674 23.7835 146.065 23.4641 145.64 23.0921V23.0902C145.553 23.0156 145.485 22.9166 145.45 22.8024C145.343 22.4481 145.229 21.8163 145.115 20.9085C145.051 20.4195 145.003 19.9745 144.969 19.5731C144.964 19.4828 144.956 19.396 144.966 19.3051C145.016 18.9605 145.316 18.6932 145.67 18.6932C145.972 18.6932 146.235 18.8812 146.339 19.1458C147.232 21.5012 148.427 22.8441 150.827 22.9309C151.526 22.9561 152.094 22.7135 152.529 22.2745C152.968 21.8382 153.186 21.2707 153.186 20.572C153.186 19.9471 152.96 19.3844 152.512 18.8858C152.063 18.3854 151.336 17.9369 150.338 17.5377C148.067 16.6624 145.172 14.8628 145.152 12.0664C145.135 9.33769 147.289 7.89302 149.692 7.36445C151.528 6.96096 153.394 7.24628 155.142 7.95249C155.176 7.96742 155.212 7.98178 155.243 7.99959C155.321 8.03934 155.387 8.10564 155.429 8.18297C155.464 8.24228 155.488 8.32172 155.509 8.38314C155.608 8.68123 155.729 9.11478 155.862 9.68231C156.007 10.2839 155.989 10.2968 156.094 10.8815H156.091H156.091ZM165.088 2.73294C165.088 4.24181 163.866 5.46508 162.356 5.46508C160.847 5.46508 159.624 4.24177 159.624 2.73294C159.624 1.22388 160.847 0 162.356 0C163.866 0 165.088 1.22388 165.088 2.73294ZM166.423 24.3345C166.834 24.3345 167.084 24.0385 167.084 23.7212C167.084 23.4045 166.838 23.1584 166.45 23.1086C165.145 22.9438 165.029 21.7234 165.029 20.6226C165.029 20.6226 165.028 11.1359 165.028 7.87455C165.028 7.52106 164.665 7.49022 164.345 7.55722C163.374 7.79718 162.341 7.97571 161.361 8.18695C160.674 8.33523 159.946 8.44941 159.18 8.56567C159.016 8.59105 158.788 8.60321 158.631 8.67513C158.412 8.77902 158.257 9.01003 158.257 9.24458C158.255 9.49284 158.399 9.71091 158.61 9.81342C158.818 9.90995 159.244 9.94408 159.485 10.0062C160.603 10.2886 160.461 11.3381 160.461 12.3459V21.9141C160.461 23.2207 161.469 24.3338 162.71 24.3338C162.749 24.3338 165.525 24.3344 166.423 24.3344L166.423 24.3345ZM88.524 0C90.0536 0 90.6039 0.0183864 91.0176 0.153112C91.3252 0.253708 91.581 0.490941 91.6144 0.864202C91.706 1.90149 91.8613 4.24604 91.8613 4.24604C91.959 5.21002 91.4394 5.29207 91.114 5.29207C90.8124 5.29207 90.4856 5.07131 90.3563 4.60905C90.0967 3.68399 89.6255 3.02558 89.2515 2.64475C88.7032 2.08137 87.3528 1.42975 85.2087 1.42975H83.2047C82.5353 1.42975 82.2188 1.92528 82.2188 2.73892V8.78183C82.2188 9.07508 82.2215 9.54352 82.3056 9.82587C82.4423 10.2771 82.8087 10.6368 83.2745 10.7604C83.5206 10.8254 83.7885 10.8056 84.0402 10.8056H85.0303C86.6261 10.8056 87.2804 10.6614 87.6182 10.3769C87.8882 10.1451 88.1138 9.51623 88.2944 8.48785C88.3134 8.37371 88.3291 8.23963 88.3696 8.13029C88.4727 7.85816 88.7359 7.66119 89.0437 7.66119C89.3629 7.66119 89.7302 7.86084 89.7302 8.27173L89.7275 15.1063C89.7275 15.4537 89.4272 15.7196 89.0505 15.7196C88.7681 15.7196 88.5227 15.557 88.4037 15.323C88.3393 15.1924 88.3264 15.0406 88.3039 14.8971C88.133 13.9105 87.9052 13.2903 87.6182 13.0436C87.2557 12.731 86.6034 12.5744 85.0302 12.5744H83.9567C82.8566 12.5744 82.2248 13.3108 82.2188 14.7372C82.2146 15.6903 82.2234 17.8467 82.2188 18.8832C82.2118 20.3067 82.2556 20.9324 82.3684 21.4192C82.4798 21.9047 82.7329 22.2623 83.1362 22.4476C83.4309 22.5836 83.8062 22.6553 84.2417 22.6929C84.6753 22.73 85.3721 22.7695 86.3191 22.7476C89.2693 22.675 90.7331 21.9934 91.9167 18.942C92.0466 18.657 92.1732 18.1428 92.7918 18.1441C93.2259 18.1441 93.5891 18.462 93.4133 19.3981C93.3176 19.9088 92.6674 23.2017 92.5026 23.7562C92.4082 24.0808 92.119 24.3345 91.6569 24.3345C89.9516 24.3326 77.1558 24.3345 75.1483 24.3345C74.7639 24.3345 74.4236 24.1343 74.4236 23.724C74.4236 23.3629 74.6362 23.1087 75.1483 23.1087C75.9148 23.1087 76.4734 22.457 76.759 22.0754C77.1215 21.5901 77.3437 20.3184 77.3437 18.2727V5.88284C77.3568 3.85964 77.2172 2.60025 76.8945 2.10195C76.6416 1.71356 76.2751 1.20614 75.1374 1.20614C74.7285 1.20614 74.4236 0.939456 74.4236 0.60244C74.4236 0.125857 74.8461 4.06779e-05 75.1229 4.06779e-05H88.5241L88.524 0ZM117.866 24.3345C116.626 24.3345 115.617 23.2795 115.617 21.9147V12.3468C115.617 11.3381 115.758 10.29 114.641 10.0063C114.4 9.94481 113.972 9.9106 113.767 9.81346C113.553 9.71173 113.411 9.49695 113.411 9.24596C113.414 9.01011 113.567 8.77967 113.788 8.67851C113.944 8.60683 114.171 8.59113 114.338 8.56705C115.103 8.44945 118.529 7.79783 119.502 7.55999C119.822 7.48888 120.15 7.52297 120.181 7.87862C120.189 8.24651 120.198 8.80233 120.204 9.05254C120.218 9.56126 120.674 9.70684 121.091 9.32118C121.264 9.15371 121.542 8.89593 121.654 8.79265C122.181 8.33799 122.7 8.00167 123.307 7.69471C123.663 7.51073 124.051 7.4013 124.492 7.4013C125.218 7.4013 125.815 7.6269 126.292 8.07554C126.764 8.52674 127.003 9.06206 127.003 9.68715C127.003 10.2867 126.827 10.8351 126.477 11.3327C126.128 11.8339 125.716 12.171 125.241 12.3468C125.041 12.4212 124.88 12.4582 124.755 12.4582C124.531 12.4582 124.307 12.372 124.08 12.1983C123.43 11.6733 122.809 11.4101 122.208 11.4101C121.783 11.4101 121.415 11.5283 121.103 11.7649C120.261 12.4063 120.187 13.3462 120.187 14.2926V20.6226C120.187 21.7267 120.285 22.9457 121.607 23.1126C122.081 23.1722 122.238 23.4045 122.238 23.7218C122.238 24.0385 121.969 24.3345 121.629 24.3345H117.866H117.866ZM106.341 8.69287C106.341 8.57059 106.33 8.39283 106.382 8.27575C106.425 8.18004 106.507 8.10015 106.61 8.05634C106.731 8.00171 106.926 8.00301 107.056 7.98873C107.203 7.97087 107.352 7.95436 107.505 7.93386C108.449 7.81776 109.223 7.71798 109.821 7.63715C110.001 7.61466 110.276 7.55515 110.465 7.55515C110.653 7.55515 110.814 7.66937 110.883 7.83542C110.93 7.94687 110.924 8.07281 110.924 8.19452V20.9677C110.958 21.9817 111.168 23.0469 112.346 23.1086H112.369C112.4 23.1086 112.432 23.1086 112.463 23.1148H112.487L112.485 23.1194C112.768 23.1729 112.982 23.4018 112.982 23.7191C112.982 24.0358 112.71 24.3317 112.369 24.3317L108.727 24.3284C108.688 24.3284 108.647 24.3317 108.606 24.3317C108.023 24.3317 107.491 24.1083 107.09 23.739C106.717 23.4437 106.541 22.9601 106.258 22.8557C105.919 22.7299 105.384 22.8987 104.582 23.421C103.956 23.8211 103.001 24.2176 102.503 24.3885C102.006 24.5644 101.466 24.6511 100.892 24.6511C99.3453 24.6511 98.1536 24.1978 97.3175 23.2844C96.4792 22.375 96.0524 21.1681 96.0524 19.6715V11.1564C96.0524 10.4821 95.971 10.0391 95.8357 9.82782C95.6989 9.6152 95.3797 9.47295 94.8785 9.39716C94.6851 9.3671 94.4189 9.35413 94.2337 9.26732C94.0286 9.16888 93.8891 8.96032 93.8891 8.71414C93.8918 8.48699 94.0429 8.2614 94.2563 8.16234C94.4102 8.09051 94.6158 8.10483 94.7814 8.09803C95.4973 8.06317 96.3082 8.01123 97.2011 7.89981C98.1426 7.78286 98.9193 7.68096 99.5162 7.59957C99.6974 7.57764 99.9722 7.5176 100.16 7.5176C100.349 7.5176 100.51 7.63252 100.579 7.7951C100.629 7.90929 100.623 8.03852 100.623 8.15755V18.734C100.623 19.783 100.862 20.5582 101.326 21.0567C101.787 21.5544 102.404 21.8054 103.178 21.8054C103.822 21.8054 104.482 21.6174 105.156 21.2433C105.981 20.7922 106.34 19.9813 106.355 19.279C106.34 15.7531 106.332 12.2203 106.34 8.69287H106.341ZM141.419 11.8066V20.1774C141.419 20.9255 141.513 21.469 141.701 21.8054C141.858 22.094 142.059 22.2566 142.298 22.3018C142.681 22.3634 142.976 22.6984 142.976 23.0997C142.976 23.4 142.812 23.6623 142.57 23.7984V23.8013C141.885 24.1979 141.07 24.4959 140.222 24.5027C139.45 24.5027 138.802 24.3202 138.283 23.975C137.694 23.583 137.401 22.9036 136.58 22.9036C135.867 22.9036 135.388 23.5011 134.853 23.8758C134.29 24.2668 133.727 24.5027 132.825 24.5027C131.457 24.5027 130.333 24.0242 129.446 23.0629C128.567 22.1008 128.123 21.0451 128.123 19.8971C128.123 18.0257 129.085 16.7022 131.008 15.9267C132.081 15.505 133.16 15.0742 134.232 14.6168C135.026 14.2749 135.676 13.9809 136.177 13.728L136.182 13.7252C136.666 13.5043 137.002 13.0161 137.002 12.4513V12.3967V11.9209C137.002 10.2157 136.489 8.773 135.007 8.71564C132.367 8.61367 132.146 10.892 131.819 12.5876C131.695 13.2173 131.16 13.5687 130.597 13.5687C130.17 13.5687 129.722 13.408 129.248 13.0831C128.671 12.6839 128.671 12.258 128.671 11.8067C128.671 9.15171 131.566 7.0795 135.014 7.1266C138.968 7.17932 141.419 8.1139 141.419 11.8067L141.419 11.8066ZM137.002 18.9188L136.998 16.0752L137 16.0573V16.0403C137 15.6416 136.678 15.321 136.281 15.321C136.14 15.321 136.008 15.3613 135.9 15.4303L134.488 16.2283C133.152 16.9873 132.453 18.2015 132.478 19.4636C132.505 20.7108 133.495 21.7268 134.732 21.7268C135.703 21.7268 136.534 21.1141 136.856 20.2534C137.022 19.8103 137.002 19.3817 137.002 18.9188L137.002 18.9188ZM132.849 38.4199C132.849 37.4202 132.987 36.3824 131.882 36.1022C131.645 36.0392 131.221 36.007 131.015 35.9107C130.804 35.8095 130.664 35.5928 130.666 35.348C130.666 35.1154 130.819 34.8864 131.037 34.7852C131.19 34.7141 131.416 34.701 131.579 34.6764C132.339 34.5603 135.776 33.9128 136.738 33.6775C137.056 33.608 137.38 33.6407 137.412 33.9921C137.495 38.5943 137.44 43.4856 137.415 48.1008C137.425 48.6313 137.623 48.8106 137.83 48.8844C138.096 48.9759 138.416 48.8324 138.771 48.3442C139.864 46.896 140.955 45.4492 142.048 44.0005C142.413 43.5458 142.769 42.7527 141.855 42.5688C141.132 42.4231 141.151 41.2903 141.991 41.2903H146.395C147.029 41.2903 147.236 41.587 147.236 41.9389C147.236 42.8553 146.219 42.2865 144.576 44.1182L142.05 46.7347C141.296 47.4841 140.997 47.9832 141.734 48.8618C142.874 50.4384 144.99 53.2753 145.469 53.8592C146.542 55.1678 147.7 56.7239 148.905 56.7636H148.927C148.957 56.7636 148.987 56.7656 149.016 56.7691L149.041 56.7717V56.7739C149.313 56.8272 149.521 57.0542 149.521 57.3687C149.521 57.6832 149.264 57.9703 148.931 57.9703H144.578C143.512 57.9703 142.967 57.3687 142.43 56.6049L138.384 50.8651C138.054 50.3148 137.403 50.4562 137.397 51.1768C137.388 53.289 137.378 55.3982 137.378 57.5061V57.5197C137.378 57.7679 137.177 57.9738 136.924 57.9738L136.909 57.9711V57.9738H133.308H133.302C133.055 57.9738 132.852 57.7707 132.852 57.5197L132.854 57.5061H132.852C132.852 51.2377 132.849 44.6911 132.849 38.4199L132.849 38.4199ZM118.313 57.5021V57.5137C118.313 57.7666 118.11 57.973 117.857 57.973H117.837H114.204H114.201C113.951 57.973 113.742 57.7666 113.742 57.5137V45.5402C113.742 44.739 113.656 44.2091 113.496 43.9459C113.368 43.7407 113.121 43.617 112.726 43.5718C112.411 43.537 112.065 43.5924 111.765 43.4686C111.551 43.3817 111.403 43.178 111.39 42.9352C111.378 42.7095 111.517 42.4744 111.725 42.363C111.822 42.3129 111.939 42.2951 112.055 42.2857C112.967 42.1564 116.106 41.591 117.612 41.2716C117.933 41.2034 118.259 41.2335 118.291 41.5917C118.336 42.8061 118.896 43.1253 120.451 42.1099C121.074 41.7101 121.666 41.4796 122.163 41.3066C122.664 41.1329 123.198 41.0461 123.774 41.0461C125.324 41.0461 126.516 41.4994 127.351 42.4115C128.189 43.3236 128.605 44.5283 128.605 46.0265C128.605 47.8376 128.61 54.2598 128.61 54.2598C128.61 55.3633 128.72 56.6815 130.03 56.7512H130.056C130.085 56.7512 130.115 56.7512 130.147 56.756L130.172 56.7588L130.17 56.7609C130.452 56.8134 130.665 57.0439 130.665 57.3584C130.665 57.6776 130.389 57.9908 130.056 57.973L130.006 57.9683H126.411C126.372 57.973 126.332 57.973 126.29 57.973C125.052 57.973 124.038 56.957 124.038 55.7078V46.9631C124.038 45.9142 123.806 45.1387 123.344 44.6405C122.883 44.1419 122.265 43.891 121.489 43.891C120.845 43.891 120.187 44.0776 119.513 44.4565C118.688 44.9049 118.329 45.7132 118.313 46.4153V57.5019L118.313 57.5021ZM84.5393 44.1734C85.4287 44.0038 86.1782 43.6881 86.7381 43.2259C87.6153 42.5011 88.0494 41.2192 88.0494 39.6657C88.0494 38.061 87.6004 36.8849 86.7005 36.1343C86.1685 35.6864 85.4465 35.3104 84.5966 35.1462C84.0976 35.0546 83.5883 35.0546 83.0822 35.0935C82.2261 35.162 82.2515 35.5599 82.2515 36.3878V42.3425C82.2515 42.6344 82.2213 42.9647 82.3083 43.2484C82.445 43.7012 82.8121 44.0614 83.2784 44.1864C83.6668 44.2876 84.1427 44.2446 84.5393 44.1735L84.5393 44.1734ZM84.7854 56.3841C85.9272 56.3301 86.9138 55.954 87.6755 55.2627C88.6718 54.3604 89.1748 53.0094 89.1748 51.2049C89.1748 49.3507 88.6095 48.1071 87.4697 47.2113C86.788 46.6759 85.9155 46.2929 84.948 46.0763C84.4373 45.9621 83.6913 45.8945 83.199 46.0619C82.7676 46.2083 82.4293 46.5617 82.3034 47.004C82.2345 47.2455 82.2515 47.4977 82.2515 47.7452L82.2015 52.2531C82.1844 53.6786 82.2596 54.6461 82.3711 55.1308C82.4819 55.6184 82.7322 55.9787 83.1382 56.166C83.6524 56.4048 84.2295 56.4102 84.7854 56.3842V56.3841ZM84.8468 33.6413C87.5435 33.6413 89.5419 34.0154 90.8952 34.8558C91.639 35.3185 92.2011 35.8779 92.5635 36.5672C92.9257 37.2555 93.1063 38.1137 93.1063 39.1413C93.1063 40.6434 92.5087 41.8995 91.3088 42.8984C90.6469 43.4466 89.9182 43.9746 89.1024 44.2924C88.9691 44.3457 88.87 44.4168 88.87 44.5646C88.87 44.7834 89.073 44.8326 89.2425 44.8729C90.5834 45.2032 91.7075 45.7338 92.5825 46.4701C93.8838 47.5642 94.5292 49.0239 94.5292 50.8303C94.5292 52.1314 94.2441 53.248 93.669 54.1738C93.0935 55.1016 92.2831 55.8768 91.2322 56.5037C90.3353 57.0283 89.2733 57.4118 88.0494 57.6503C87.1471 57.8248 86.0167 57.9738 83.5867 57.9738C81.0652 57.973 75.3615 57.973 75.1448 57.9717C74.913 57.9711 74.4262 57.8822 74.4229 57.3939C74.4215 56.9768 74.7442 56.7856 75.0572 56.7561C76.9505 56.5776 77.3463 54.6666 77.3463 52.3734V39.5467C77.3463 37.5173 77.2165 36.2464 76.8951 35.7465C76.6422 35.3582 76.3339 34.9877 75.4586 34.8603C75.1167 34.8106 74.4261 34.7627 74.4261 34.2001C74.4261 33.6326 75.0026 33.6413 75.1421 33.6413C76.8091 33.6413 80.7192 33.6367 83.2627 33.6413H84.8468ZM109.626 45.3947V53.7654C109.626 54.5135 109.72 55.0569 109.908 55.3934C110.065 55.682 110.265 55.8446 110.505 55.8898C110.888 55.9514 111.183 56.2863 111.183 56.6877C111.183 56.9879 111.019 57.2503 110.777 57.3864V57.3893C110.092 57.7858 109.277 58.0839 108.429 58.0907C107.657 58.0907 107.009 57.9081 106.49 57.5629C105.901 57.171 105.608 56.4915 104.787 56.4915C104.073 56.4915 103.595 57.0891 103.06 57.4637C102.497 57.8548 101.934 58.0907 101.032 58.0907C99.6642 58.0907 98.5401 57.6122 97.6532 56.6509C96.774 55.6888 96.3296 54.6331 96.3296 53.4851C96.3296 51.6137 97.2915 50.2902 99.215 49.5147C100.288 49.093 101.367 48.6622 102.439 48.2047C103.233 47.8628 103.883 47.5688 104.384 47.3159L104.389 47.3132C104.873 47.0923 105.209 46.6041 105.209 46.0393V45.9846V45.5089C105.209 43.8037 104.696 42.361 103.214 42.3036C100.574 42.2016 100.353 44.4799 100.026 46.1756C99.902 46.8053 99.3666 47.1566 98.804 47.1566C98.3773 47.1566 97.9288 46.996 97.4549 46.6711C96.878 46.2719 96.878 45.8459 96.878 45.3947C96.878 42.7397 99.7729 40.6675 103.221 40.7145C107.175 40.7673 109.626 41.7018 109.626 45.3947L109.626 45.3947ZM105.209 52.5067L105.204 49.6632L105.207 49.6453V49.6282C105.207 49.2296 104.885 48.909 104.488 48.909C104.347 48.909 104.215 48.9493 104.107 49.0183L102.695 49.8163C101.359 50.5752 100.66 51.7895 100.685 53.0516C100.712 54.2988 101.701 55.3147 102.938 55.3147C103.91 55.3147 104.741 54.7021 105.063 53.8413C105.229 53.3983 105.209 52.9696 105.209 52.5068L105.209 52.5067ZM109.565 45.3947V53.7654C109.565 54.5135 109.659 55.0569 109.848 55.3934C110.005 55.682 110.205 55.8446 110.444 55.8898C110.827 55.9514 111.122 56.2863 111.122 56.6877C111.122 56.9879 110.958 57.2503 110.716 57.3864V57.3893C110.032 57.7858 109.216 58.0839 108.368 58.0907C107.596 58.0907 106.948 57.9081 106.429 57.5629C105.841 57.171 105.547 56.4915 104.727 56.4915C104.013 56.4915 103.534 57.0891 102.999 57.4637C102.436 57.8548 101.874 58.0907 100.971 58.0907C99.6037 58.0907 98.4796 57.6122 97.5927 56.6509C96.7136 55.6888 96.2692 54.6331 96.2692 53.4851C96.2692 51.6137 97.2311 50.2902 99.1545 49.5147C100.228 49.093 101.306 48.6622 102.378 48.2047C103.173 47.8628 103.822 47.5688 104.323 47.3159L104.328 47.3132C104.812 47.0923 105.149 46.6041 105.149 46.0393V45.9846V45.5089C105.149 43.8037 104.635 42.361 103.154 42.3036C100.513 42.2016 100.293 44.4799 99.9654 46.1756C99.8415 46.8053 99.3062 47.1566 98.7436 47.1566C98.3168 47.1566 97.8683 46.996 97.3945 46.6711C96.8174 46.2719 96.8174 45.8459 96.8174 45.3947C96.8174 42.7397 99.7125 40.6675 103.16 40.7145C107.114 40.7673 109.565 41.7018 109.565 45.3947L109.565 45.3947ZM105.149 52.5067L105.144 49.6632L105.146 49.6453V49.6282C105.146 49.2296 104.825 48.909 104.427 48.909C104.286 48.909 104.155 48.9493 104.046 49.0183L102.635 49.8163C101.299 50.5752 100.599 51.7895 100.625 53.0516C100.652 54.2988 101.641 55.3147 102.878 55.3147C103.85 55.3147 104.68 54.7021 105.002 53.8413C105.168 53.3983 105.149 52.9696 105.149 52.5068L105.149 52.5067Z" fill="#1D3F88"/>
<path fill-rule="evenodd" clip-rule="evenodd" d="M11.2194 24.7882C9.77941 23.2184 8.52755 21.2855 9.88599 19.6418C11.3198 17.9112 12.3414 16.6765 13.7758 14.9453L23.1319 12.5439H34.795L44.1476 14.9453L47.9628 19.5549C49.7966 21.7708 48.4831 22.91 46.5351 25.0323C40.2395 31.8872 28.9619 44.1739 28.9619 44.1739L11.2194 24.7882ZM44.7216 24.3099C44.7216 24.3099 42.2356 24.8363 40.9657 25.1125C39.5054 25.4319 38.7185 25.0092 38.2986 24.126C37.8938 23.2775 36.642 20.7523 36.642 20.7523C36.642 20.7523 36.9844 23.3383 37.0563 24.2045C37.1088 24.8458 37.2832 25.6218 35.3777 26.3815C34.0348 26.9155 30.5047 28.0792 30.5047 28.0792C30.5047 28.0792 33.1624 27.7462 33.8584 27.671C36.467 27.3872 36.2576 28.7172 35.721 29.757C34.5832 31.9587 30.5861 39.3729 30.5861 39.3729C34.4922 33.8245 38.0853 26.7705 44.7216 24.3099V24.3099ZM27.5572 39.373C27.5572 39.373 23.5602 31.9587 22.4225 29.757C21.8851 28.7172 21.6758 27.3873 24.2849 27.671C24.9817 27.7462 27.6378 28.0792 27.6378 28.0792C27.6378 28.0792 24.1085 26.9155 22.765 26.3816C20.8595 25.6218 21.0344 24.8458 21.0872 24.2045C21.1583 23.3384 21.5015 20.7523 21.5015 20.7523C21.5015 20.7523 20.2489 23.2775 19.8448 24.126C19.425 25.0092 18.6374 25.4319 17.1775 25.1125C15.9071 24.8364 13.4218 24.31 13.4218 24.31C20.0574 26.7706 23.6511 33.8246 27.5572 39.373L27.5572 39.373ZM22.99 18.9576L26.9356 19.9095C27.6824 20.0893 28.2437 20.7047 28.3559 21.4648L29.0724 24.9976L29.7868 21.4648C29.8996 20.7047 30.4611 20.0893 31.2084 19.9095L35.1535 18.9576H22.99ZM36.8457 18.4715L40.6766 17.828C41.2844 17.7255 41.9025 17.9265 42.3346 18.3663L45.2337 21.3246C44.861 20.6478 44.0249 19.3125 43.4012 18.3287C42.9486 17.6141 43.0287 16.6883 43.5962 16.0599L43.9154 15.7059L36.8457 18.4716L36.8457 18.4715ZM21.2971 18.4715L17.4662 17.828C16.859 17.7255 16.2409 17.9265 15.8087 18.3663L12.9098 21.3246C13.2818 20.6478 14.1179 19.3125 14.7421 18.3287C15.1954 17.6141 15.1141 16.6883 14.5466 16.0599L14.2274 15.7059L21.2971 18.4716V18.4715Z" fill="#FEFEFE"/>
</svg>
