<svg width="201" height="30" viewBox="0 0 201 30" fill="none" xmlns="http://www.w3.org/2000/svg">
<path d="M114.145 10.1621L110.252 20.5071V21.1461H113.359V23.5764H110.252V26.0031H105.092V23.5764H102.106V21.1461H105.092V20.5071L100.652 10.1621H105.667L107.735 15.8277L109.666 10.1621" fill="#343133"/>
<path d="M32.5449 6.36523H38.321V11.911L42.1691 6.36523H48.4978L43.6774 12.7697L47.7039 18.1293H49.3903V22.1865H44.6948V20.4942H42.6567L38.321 14.7971V20.4942H32.5449V6.36523Z" fill="#127CC1"/>
<path d="M78.0762 6.14746H85.6976L88.6388 14.8776L91.567 6.14746H99.1629V20.4954H94.4316V9.55339L90.7614 20.4954H86.4777L82.8204 9.55339V20.4954H78.0762V6.14746Z" fill="#343133"/>
<path d="M115.924 10.1621H120.683V13.5145H123.802V10.1621H128.561V20.2461H123.802V15.9874H120.683V20.2461H115.924V10.1621Z" fill="#343133"/>
<path d="M157.732 10.1621V20.2461H153.787V14.8799L149.809 20.2461H145.709V10.1621H149.654V15.5282L153.632 10.1621H157.732Z" fill="#343133"/>
<path d="M147.587 5.50586H149.349C149.439 5.97566 149.686 6.33471 150.088 6.58302C150.499 6.83134 151.045 6.9555 151.727 6.95548C152.409 6.9555 152.951 6.83134 153.354 6.58302C153.764 6.33471 154.014 5.97566 154.105 5.50586H155.867C155.817 6.4723 155.435 7.21389 154.721 7.73064C154.007 8.2407 153.008 8.49574 151.727 8.49571C150.446 8.49574 149.448 8.2407 148.733 7.73064C148.018 7.21389 147.636 6.4723 147.587 5.50586Z" fill="#343133"/>
<path d="M160.641 20.2458V6.32031H173.402V9.90667H166.488V20.2458H160.641Z" fill="#127CC1"/>
<path d="M191.363 13.9621C192.042 13.964 192.715 14.0172 193.343 13.9698C195.745 13.7809 195.71 12.1038 193.286 11.9668C192.075 11.9684 190.457 12.3639 189.641 12.6837V10.3517C191.331 10.0656 193.355 9.85135 195.141 9.88784C197.373 9.98441 200.384 10.0805 200.631 12.5666C200.631 13.755 199.827 14.5023 198.218 14.8085C200.032 15.1747 200.939 16.0329 200.939 17.3835C200.825 20.0336 197.675 20.2897 195.357 20.4959C193.317 20.6311 191.556 20.4388 189.613 20.0036V17.0353C190.936 17.4552 192.364 18.0611 193.816 17.8536C196.133 17.4634 195.996 16.2064 193.705 15.9191C192.925 15.8643 192.063 15.9519 191.363 15.9519V13.9621Z" fill="#127CC1"/>
<path d="M181.177 9.91386C179.459 9.89807 177.76 10.1268 176.08 10.4272V12.8884C177.449 12.2627 178.949 12.111 180.458 12.0579C181.684 11.9697 183.498 12.374 183.5 13.7942H181.177C179.047 13.7942 177.48 14.0725 176.48 14.6247C175.488 15.1769 174.992 16.0392 174.992 17.2217C174.992 18.1941 175.403 18.98 176.196 19.5922C176.997 20.1985 178.026 20.5132 179.305 20.5132C180.253 20.5132 181.051 20.3666 181.713 20.0905C182.373 19.8084 182.971 19.3589 183.5 18.7467V20.2415H188.014V14.4887C188.014 12.8742 187.518 11.7153 186.526 11.0009C185.541 10.2807 183.404 9.91387 181.177 9.91386ZM183.5 15.7119C183.585 16.5067 183.104 16.9955 182.589 17.6122C181.352 18.3017 180.253 18.0348 180.124 16.9119C180.285 15.5928 181.665 15.5543 183.5 15.7119Z" fill="#127CC1"/>
<path d="M66.7351 13.9621C67.4139 13.964 68.0874 14.0172 68.7155 13.9698C71.1181 13.7809 71.0832 12.1038 68.659 11.9668C67.4471 11.9684 65.8295 12.3639 65.0134 12.6837V10.3517C66.7031 10.0656 68.7278 9.85135 70.5131 9.88784C72.7452 9.98441 75.7568 10.0805 76.0036 12.5666C76.0036 13.755 75.1992 14.5023 73.5903 14.8085C75.4048 15.1747 76.3121 16.0329 76.3121 17.3835C76.1983 20.0336 73.0475 20.2897 70.7293 20.4959C68.6897 20.6311 66.928 20.4388 64.9863 20.0036V17.0353C66.3077 17.4552 67.7367 18.0611 69.1889 17.8536C71.5053 17.4634 71.3681 16.2064 69.0775 15.9191C68.298 15.8643 67.4347 15.9519 66.7351 15.9519V13.9621Z" fill="#127CC1"/>
<path d="M56.547 9.91386C54.8285 9.89807 53.1293 10.1268 51.4488 10.4272V12.8884C52.8185 12.2627 54.3186 12.111 55.8282 12.0579C57.0532 11.9697 58.8677 12.374 58.8704 13.7942H56.547C54.4165 13.7942 52.8491 14.0725 51.85 14.6247C50.8582 15.1769 50.3623 16.0392 50.3623 17.2217C50.3623 18.1941 50.7724 18.98 51.5658 19.5922C52.3666 20.1985 53.3966 20.5132 54.6748 20.5132C55.6225 20.5132 56.4207 20.3666 57.0818 20.0905C57.743 19.8084 58.3414 19.3589 58.8704 18.7467V20.2415H63.3835V14.4887C63.3835 12.8742 62.8876 11.7153 61.8958 11.0009C60.9114 10.2807 58.7729 9.91387 56.547 9.91386ZM58.8704 15.7119C58.9546 16.5067 58.4733 16.9955 57.9592 17.6122C56.7207 18.3017 55.6222 18.0348 55.4934 16.9119C55.6546 15.5928 57.0348 15.5543 58.8704 15.7119Z" fill="#127CC1"/>
<path d="M32.0635 23.4939H33.1098L34.4312 25.7447V23.4939H35.3194V26.7757H34.273L32.9517 24.5248V26.7757H32.0635V23.4939ZM38.9788 26.1777H37.5139L37.2827 26.7757H36.341L37.6866 23.4939H38.8035L40.1493 26.7757H39.2075L38.9788 26.1777ZM37.7474 25.5689H38.7427L38.2463 24.2632L37.7474 25.5689ZM40.6759 23.48H44.0242V24.1196H42.8196V26.7618H41.8828V24.1196H40.6759V23.48ZM44.93 23.48H45.867V26.7618H44.93V23.48ZM48.8198 24.0933C48.5343 24.0933 48.3128 24.1886 48.1555 24.3791C47.9981 24.5696 47.9194 24.8378 47.9194 25.1835C47.9194 25.528 47.9981 25.7954 48.1555 25.9859C48.3128 26.1764 48.5343 26.2717 48.8198 26.2717C49.1069 26.2717 49.3292 26.1764 49.4866 25.9859C49.644 25.7954 49.7227 25.528 49.7227 25.1835C49.7227 24.8378 49.644 24.5696 49.4866 24.3791C49.3292 24.1886 49.1069 24.0933 48.8198 24.0933ZM48.8198 23.48C49.4039 23.48 49.8613 23.631 50.1922 23.9329C50.5232 24.2348 50.6887 24.6516 50.6887 25.1835C50.6887 25.714 50.5232 26.1302 50.1922 26.4321C49.8613 26.734 49.4039 26.8849 48.8198 26.8849C48.2375 26.8849 47.78 26.734 47.4473 26.4321C47.1165 26.1302 46.951 25.714 46.951 25.1835C46.951 24.6516 47.1165 24.2348 47.4473 23.9329C47.78 23.631 48.2375 23.48 48.8198 23.48ZM52.0569 23.48H53.1033L54.4246 25.7309V23.48H55.3129V26.7618H54.2664L52.9451 24.511V26.7618H52.0569V23.48ZM58.9408 26.1639H57.4759L57.2448 26.7618H56.303L57.6487 23.48H58.7657L60.1113 26.7618H59.1696L58.9408 26.1639ZM57.7096 25.5551H58.7048L58.2084 24.2494L57.7096 25.5551ZM61.1473 23.48H62.0841V26.1222H63.7291V26.7618H61.1473V23.48ZM72.2212 26.5954C72.0493 26.676 71.8701 26.7368 71.6835 26.7779C71.4969 26.8189 71.3023 26.8394 71.0995 26.8394C70.4944 26.8394 70.0149 26.687 69.6613 26.3822C69.3077 26.0759 69.1308 25.6612 69.1308 25.1381C69.1308 24.6135 69.3077 24.1988 69.6613 23.8939C70.0149 23.5877 70.4944 23.4346 71.0995 23.4346C71.3023 23.4346 71.4969 23.4551 71.6835 23.4961C71.8701 23.5371 72.0493 23.598 72.2212 23.6785V24.3578C72.0476 24.2508 71.8765 24.1723 71.7078 24.1225C71.5391 24.0727 71.3614 24.0478 71.1749 24.0478C70.8407 24.0478 70.5779 24.1446 70.3865 24.3379C70.195 24.5314 70.0993 24.7981 70.0993 25.1381C70.0993 25.4765 70.195 25.7425 70.3865 25.936C70.5779 26.1294 70.8407 26.2261 71.1749 26.2261C71.3614 26.2261 71.5391 26.2012 71.7078 26.1514C71.8765 26.1016 72.0476 26.0232 72.2212 25.9162V26.5954ZM74.9824 24.0933C74.6968 24.0933 74.4754 24.1886 74.3181 24.3791C74.1608 24.5696 74.0821 24.8378 74.0821 25.1835C74.0821 25.528 74.1608 25.7954 74.3181 25.9859C74.4754 26.1764 74.6968 26.2717 74.9824 26.2717C75.2696 26.2717 75.4918 26.1764 75.6491 25.9859C75.8065 25.7954 75.8852 25.528 75.8852 25.1835C75.8852 24.8378 75.8065 24.5696 75.6491 24.3791C75.4918 24.1886 75.2696 24.0933 74.9824 24.0933ZM74.9824 23.48C75.5664 23.48 76.0239 23.631 76.3549 23.9329C76.6857 24.2348 76.8512 24.6516 76.8512 25.1835C76.8512 25.714 76.6857 26.1302 76.3549 26.4321C76.0239 26.734 75.5664 26.8849 74.9824 26.8849C74.4 26.8849 73.9425 26.734 73.61 26.4321C73.279 26.1302 73.1135 25.714 73.1135 25.1835C73.1135 24.6516 73.279 24.2348 73.61 23.9329C73.9425 23.631 74.4 23.48 74.9824 23.48ZM78.1184 23.48H79.3107L80.138 25.2363L80.9703 23.48H82.1602V26.7618H81.2745V24.3615L80.4374 26.131H79.8436L79.0065 24.3615V26.7618H78.1184V23.48ZM83.4584 23.48H85.0133C85.4756 23.48 85.8302 23.5731 86.0767 23.7592C86.3249 23.9439 86.449 24.2077 86.449 24.5505C86.449 24.8949 86.3249 25.1602 86.0767 25.3463C85.8302 25.5308 85.4756 25.6232 85.0133 25.6232H84.3952V26.7618H83.4584V23.48ZM84.3952 24.0933V25.0099H84.9135C85.0952 25.0099 85.2356 24.9703 85.3345 24.8912C85.4335 24.8106 85.483 24.6971 85.483 24.5505C85.483 24.404 85.4335 24.2912 85.3345 24.212C85.2356 24.1329 85.0952 24.0933 84.9135 24.0933H84.3952ZM89.7351 26.1777H88.2702L88.039 26.7757H87.0972L88.4429 23.4939H89.5599L90.9056 26.7757H89.9638L89.7351 26.1777ZM88.5037 25.5689H89.4991L89.0026 24.2632L88.5037 25.5689ZM91.9198 23.4939H92.9662L94.2875 25.7447V23.4939H95.1758V26.7757H94.1294L92.808 24.5248V26.7757H91.9198V23.4939ZM96.1243 23.4939H97.1488L97.9761 24.6633L98.8035 23.4939H99.8303L98.4457 25.393V26.7757H97.5089V25.393L96.1243 23.4939Z" fill="#343133"/>
<path d="M120.033 23.4786L118.649 25.3777V25.7998H119.189V26.2218H118.649V26.7603H117.712V26.2218H117.174V25.7998H117.712V25.3777L116.327 23.4786H117.352L118.18 24.6479L119.007 23.4786H120.033ZM121.091 26.7603V26.1206C121.502 26.0796 121.75 25.9383 121.833 25.6964C121.915 25.4531 121.957 24.9205 121.957 24.0984V23.4786H124.543V26.7603H123.607V24.1182H122.894V24.3182C122.894 25.1213 122.815 25.7089 122.658 26.0811C122.5 26.4518 121.978 26.6782 121.091 26.7603ZM130.697 23.4786H134.046V24.1182H132.841V26.7603H131.903V24.1182H130.697V23.4786ZM136.73 26.1844C136.926 26.1844 137.068 26.1515 137.156 26.0855C137.249 26.0137 137.296 25.9096 137.296 25.7733C137.296 25.64 137.249 25.5382 137.156 25.4678C137.069 25.4019 136.927 25.369 136.73 25.369H136.18V26.1844H136.73ZM138.233 25.747C138.233 26.0957 138.115 26.3478 137.878 26.5031C137.616 26.6746 137.257 26.7603 136.798 26.7603H135.243V23.4786H136.18V24.7293H136.798C137.257 24.7293 137.616 24.815 137.878 24.9864C138.115 25.1418 138.233 25.3953 138.233 25.747ZM138.555 23.4786H139.492V26.7603H138.555V23.4786ZM141.498 23.4786H142.435V24.8326L143.899 23.4786H144.96L143.517 24.8084L144.542 26.1206H145.04V26.7603V27.4659H144.106V26.7603H144.009L142.917 25.3623L142.435 25.8064V26.7603H141.498V23.4786ZM148.821 23.4786H149.758V24.8326L151.222 23.4786H152.283L150.84 24.8084L152.363 26.7603H151.332L150.24 25.3623L149.758 25.8064V26.7603H148.821V23.4786ZM155.831 24.0919C155.546 24.0919 155.324 24.1871 155.166 24.3776C155.009 24.5681 154.93 24.8362 154.93 25.1821C154.93 25.5264 155.009 25.7939 155.166 25.9844C155.324 26.1749 155.546 26.2701 155.831 26.2701C156.117 26.2701 156.34 26.1749 156.497 25.9844C156.655 25.7939 156.733 25.5264 156.733 25.1821C156.733 24.8362 156.655 24.5681 156.497 24.3776C156.34 24.1871 156.117 24.0919 155.831 24.0919ZM155.831 23.4786C156.415 23.4786 156.872 23.6294 157.203 23.9313C157.534 24.2332 157.7 24.6501 157.7 25.1821C157.7 25.7125 157.534 26.1288 157.203 26.4305C156.872 26.7324 156.415 26.8834 155.831 26.8834C155.248 26.8834 154.791 26.7324 154.458 26.4305C154.128 26.1288 153.962 25.7125 153.962 25.1821C153.962 24.6501 154.128 24.2332 154.458 23.9313C154.791 23.6294 155.248 23.4786 155.831 23.4786ZM159.943 23.4786H161.135L161.962 25.2349L162.794 23.4786H163.985V26.7603H163.099V24.3599L162.262 26.1294H161.668L160.831 24.3599V26.7603H159.943V23.4786ZM169.275 23.4786V26.7603H168.339V24.1182H166.956V26.7603H166.019V23.4786H169.275ZM173.62 26.1625H172.155L171.923 26.7603H170.982L172.327 23.4786H173.444L174.789 26.7603H173.848L173.62 26.1625ZM172.388 25.5535H173.383L172.887 24.2479L172.388 25.5535ZM176.541 23.4786H177.478V24.7293H178.86V23.4786H179.797V26.7603H178.86V25.369H177.478V26.7603H176.541V23.4786ZM185.086 23.4786V26.7603H184.197V24.5094L182.876 26.7603H181.83V23.4786H182.718V25.7294L184.039 23.4786H185.086ZM188.088 24.5094C188.088 24.6604 188.129 24.7688 188.214 24.8348C188.299 24.9007 188.441 24.9336 188.637 24.9336H189.105V24.0919H188.637C188.441 24.0919 188.299 24.124 188.214 24.1885C188.129 24.253 188.088 24.3599 188.088 24.5094ZM186.98 26.7603L187.886 25.3667C187.762 25.3037 187.609 25.1938 187.426 25.037C187.242 24.8788 187.15 24.6905 187.15 24.4721C187.15 24.1439 187.261 23.8962 187.484 23.7291C187.708 23.5621 188.059 23.4786 188.538 23.4786H190.041V26.7603H189.105V25.5184H188.786L187.978 26.7603H186.98ZM194.816 26.5779C194.643 26.6585 194.465 26.7193 194.278 26.7603C194.091 26.8013 193.896 26.8219 193.694 26.8219C193.088 26.8219 192.609 26.6694 192.256 26.3647C191.902 26.0584 191.725 25.6436 191.725 25.1205C191.725 24.5959 191.902 24.1812 192.256 23.8763C192.609 23.5702 193.088 23.417 193.694 23.417C193.896 23.417 194.091 23.4375 194.278 23.4786C194.465 23.5196 194.643 23.5804 194.816 23.6609V24.3402C194.642 24.2332 194.471 24.1548 194.302 24.105C194.133 24.0552 193.955 24.0303 193.769 24.0303C193.435 24.0303 193.172 24.127 192.981 24.3204C192.789 24.5138 192.693 24.7806 192.693 25.1205C192.693 25.4591 192.789 25.725 192.981 25.9184C193.172 26.1119 193.435 26.2085 193.769 26.2085C193.955 26.2085 194.133 26.1836 194.302 26.1338C194.471 26.084 194.642 26.0056 194.816 25.8987V26.5779ZM197.955 26.1844C198.152 26.1844 198.293 26.1515 198.381 26.0855C198.476 26.0137 198.523 25.9096 198.523 25.7733C198.523 25.64 198.476 25.5382 198.381 25.4678C198.296 25.4019 198.154 25.369 197.955 25.369H197.406V26.1844H197.955ZM199.46 25.747C199.46 26.0957 199.341 26.3478 199.104 26.5031C198.843 26.6746 198.483 26.7603 198.023 26.7603H196.468V23.4786H197.406V24.7293H198.023C198.483 24.7293 198.843 24.815 199.104 24.9864C199.341 25.1418 199.46 25.3953 199.46 25.747ZM199.78 23.4786H200.717V26.7603H199.78V23.4786Z" fill="#343133"/>
<path d="M126.22 23.4805H129.568V24.1201H128.364V26.7622H127.427V24.1201H126.22V23.4805Z" fill="#343133"/>
<path d="M136.782 9.91386C135.063 9.89807 133.364 10.1268 131.683 10.4272V12.8884C133.053 12.2627 134.553 12.111 136.063 12.0579C137.287 11.9697 139.103 12.374 139.105 13.7942H136.782C134.652 13.7942 133.083 14.0725 132.085 14.6247C131.093 15.1769 130.597 16.0392 130.597 17.2217C130.597 18.1941 131.007 18.98 131.801 19.5922C132.602 20.1985 133.631 20.5132 134.909 20.5132C135.858 20.5132 136.655 20.3666 137.316 20.0905C137.978 19.8084 138.576 19.3589 139.105 18.7467V20.2415H143.618V14.4887C143.618 12.8742 143.122 11.7153 142.13 11.0009C141.146 10.2807 139.007 9.91387 136.782 9.91386ZM139.105 15.7119C139.189 16.5067 138.707 16.9955 138.194 17.6122C136.955 18.3017 135.856 18.0348 135.728 16.9119C135.889 15.5928 137.269 15.5543 139.105 15.7119Z" fill="#343133"/>
<path d="M13.4684 5.0957C13.6343 6.56927 13.4864 8.32392 12.8213 9.7445L12.9409 9.80744C12.9835 9.80683 13.0273 9.80744 13.0702 9.80744C17.3984 9.80744 20.9044 12.9744 20.9044 16.884C20.9044 17.8444 20.6911 18.7642 20.3072 19.5996L24.2989 22.9176C25.4629 21.1527 26.1305 19.0863 26.1305 16.884C26.1305 10.4905 20.4951 5.28796 13.4684 5.0957ZM8.08304 5.9769C3.34113 7.74788 3.18544e-07 11.9633 0 16.884C0 21.534 2.98699 25.5532 7.31655 27.4765V21.6947C6.81424 21.2045 6.38628 20.6528 6.05233 20.0492C5.16566 18.6337 4.58471 16.4152 4.58902 14.0696C4.59445 11.118 5.43724 8.01167 8.08304 5.9769Z" fill="#343133"/>
<path fill-rule="evenodd" clip-rule="evenodd" d="M8.11188 20.498C5.46037 17.7896 5.33172 14.7636 6.06653 13.0309C7.45132 9.76531 12.4702 8.27273 13.2255 3.39258C13.4251 15.5174 6.79223 11.3943 8.11188 20.498Z" fill="#127CC1"/>
<path fill-rule="evenodd" clip-rule="evenodd" d="M5.31664 12.9914C4.89261 5.48189 11.7758 6.41879 12.6676 0C13.8346 7.72383 6.21386 8.55936 5.31664 12.9914Z" fill="#36C0EF"/>
<path d="M9.80195 22.6769C9.80199 22.7762 9.78035 22.8746 9.73825 22.9665C9.69615 23.0583 9.63444 23.1417 9.55662 23.2121C9.47881 23.2823 9.3864 23.338 9.28472 23.3761C9.18303 23.4142 9.07403 23.4337 8.96396 23.4337C8.85389 23.4337 8.74489 23.4142 8.6432 23.3761C8.54151 23.338 8.44912 23.2823 8.3713 23.2121C8.29348 23.1417 8.23176 23.0583 8.18967 22.9665C8.14757 22.8746 8.12593 22.7762 8.12598 22.6769C8.12593 22.5775 8.14757 22.479 8.18967 22.3872C8.23176 22.2954 8.29348 22.2119 8.3713 22.1417C8.44912 22.0714 8.54151 22.0156 8.6432 21.9775C8.74489 21.9396 8.85389 21.9199 8.96396 21.9199C9.07403 21.9199 9.18303 21.9396 9.28472 21.9775C9.3864 22.0156 9.47881 22.0714 9.55662 22.1417C9.63444 22.2119 9.69615 22.2954 9.73825 22.3872C9.78035 22.479 9.80199 22.5775 9.80195 22.6769Z" fill="#127CC1"/>
<path d="M9.80195 24.5958C9.80199 24.6951 9.78035 24.7936 9.73825 24.8854C9.69615 24.9773 9.63444 25.0607 9.55662 25.131C9.47881 25.2012 9.3864 25.257 9.28472 25.2951C9.18303 25.3331 9.07403 25.3527 8.96396 25.3527C8.85389 25.3527 8.74489 25.3331 8.6432 25.2951C8.54151 25.257 8.44912 25.2012 8.3713 25.131C8.29348 25.0607 8.23176 24.9773 8.18967 24.8854C8.14757 24.7936 8.12593 24.6951 8.12598 24.5958C8.12593 24.4964 8.14757 24.398 8.18967 24.3061C8.23176 24.2144 8.29348 24.1309 8.3713 24.0606C8.44912 23.9903 8.54151 23.9346 8.6432 23.8965C8.74489 23.8585 8.85389 23.8389 8.96396 23.8389C9.07403 23.8389 9.18303 23.8585 9.28472 23.8965C9.3864 23.9346 9.47881 23.9903 9.55662 24.0606C9.63444 24.1309 9.69615 24.2144 9.73825 24.3061C9.78035 24.398 9.80199 24.4964 9.80195 24.5958Z" fill="#127CC1"/>
<path d="M9.80195 26.5176C9.80199 26.617 9.78035 26.7153 9.73825 26.8072C9.69615 26.899 9.63444 26.9824 9.55662 27.0528C9.47881 27.123 9.3864 27.1787 9.28472 27.2168C9.18303 27.2549 9.07403 27.2744 8.96396 27.2744C8.85389 27.2744 8.74489 27.2549 8.6432 27.2168C8.54151 27.1787 8.44912 27.123 8.3713 27.0528C8.29348 26.9824 8.23176 26.899 8.18967 26.8072C8.14757 26.7153 8.12593 26.617 8.12598 26.5176C8.12593 26.4182 8.14757 26.3197 8.18967 26.228C8.23176 26.1361 8.29348 26.0526 8.3713 25.9824C8.44912 25.9121 8.54151 25.8563 8.6432 25.8184C8.74489 25.7803 8.85389 25.7607 8.96396 25.7607C9.07403 25.7607 9.18303 25.7803 9.28472 25.8184C9.3864 25.8563 9.47881 25.9121 9.55662 25.9824C9.63444 26.0526 9.69615 26.1361 9.73825 26.228C9.78035 26.3197 9.80199 26.4182 9.80195 26.5176Z" fill="#127CC1"/>
<path d="M11.9299 22.6769C11.9299 22.7762 11.9083 22.8746 11.8662 22.9665C11.8241 23.0583 11.7623 23.1417 11.6845 23.2121C11.6067 23.2823 11.5143 23.338 11.4126 23.3761C11.311 23.4142 11.202 23.4337 11.0919 23.4337C10.9818 23.4337 10.8728 23.4142 10.7711 23.3761C10.6695 23.338 10.5771 23.2823 10.4992 23.2121C10.4214 23.1417 10.3597 23.0583 10.3176 22.9665C10.2755 22.8746 10.2539 22.7762 10.2539 22.6769C10.2539 22.5775 10.2755 22.479 10.3176 22.3872C10.3597 22.2954 10.4214 22.2119 10.4992 22.1417C10.5771 22.0714 10.6695 22.0156 10.7711 21.9775C10.8728 21.9396 10.9818 21.9199 11.0919 21.9199C11.202 21.9199 11.311 21.9396 11.4126 21.9775C11.5143 22.0156 11.6067 22.0714 11.6845 22.1417C11.7623 22.2119 11.8241 22.2954 11.8662 22.3872C11.9083 22.479 11.9299 22.5775 11.9299 22.6769Z" fill="#127CC1"/>
<path d="M11.9289 24.5958C11.929 24.6951 11.9072 24.7936 11.8652 24.8854C11.8231 24.9773 11.7614 25.0607 11.6836 25.131C11.6058 25.2012 11.5134 25.257 11.4117 25.2951C11.3099 25.3331 11.201 25.3527 11.0909 25.3527C10.9808 25.3527 10.8718 25.3331 10.7702 25.2951C10.6685 25.257 10.5761 25.2012 10.4983 25.131C10.4204 25.0607 10.3587 24.9773 10.3166 24.8854C10.2745 24.7936 10.2529 24.6951 10.2529 24.5958C10.2529 24.4964 10.2745 24.398 10.3166 24.3061C10.3587 24.2144 10.4204 24.1309 10.4983 24.0606C10.5761 23.9903 10.6685 23.9346 10.7702 23.8965C10.8718 23.8585 10.9808 23.8389 11.0909 23.8389C11.201 23.8389 11.3099 23.8585 11.4117 23.8965C11.5134 23.9346 11.6058 23.9903 11.6836 24.0606C11.7614 24.1309 11.8231 24.2144 11.8652 24.3061C11.9072 24.398 11.929 24.4964 11.9289 24.5958Z" fill="#127CC1"/>
<path d="M11.9289 26.5176C11.929 26.617 11.9072 26.7153 11.8652 26.8072C11.8231 26.899 11.7614 26.9824 11.6836 27.0528C11.6058 27.123 11.5134 27.1787 11.4117 27.2168C11.3099 27.2549 11.201 27.2744 11.0909 27.2744C10.9808 27.2744 10.8718 27.2549 10.7702 27.2168C10.6685 27.1787 10.5761 27.123 10.4983 27.0528C10.4204 26.9824 10.3587 26.899 10.3166 26.8072C10.2745 26.7153 10.2529 26.617 10.2529 26.5176C10.2529 26.4182 10.2745 26.3197 10.3166 26.228C10.3587 26.1361 10.4204 26.0526 10.4983 25.9824C10.5761 25.9121 10.6685 25.8563 10.7702 25.8184C10.8718 25.7803 10.9808 25.7607 11.0909 25.7607C11.201 25.7607 11.3099 25.7803 11.4117 25.8184C11.5134 25.8563 11.6058 25.9121 11.6836 25.9824C11.7614 26.0526 11.8231 26.1361 11.8652 26.228C11.9072 26.3197 11.929 26.4182 11.9289 26.5176Z" fill="#127CC1"/>
<path d="M14.0529 22.6769C14.053 22.7762 14.0314 22.8746 13.9892 22.9665C13.9471 23.0583 13.8854 23.1417 13.8076 23.2121C13.7298 23.2823 13.6374 23.338 13.5357 23.3761C13.4341 23.4142 13.325 23.4337 13.2149 23.4337C13.1049 23.4337 12.9959 23.4142 12.8942 23.3761C12.7925 23.338 12.7001 23.2823 12.6223 23.2121C12.5445 23.1417 12.4827 23.0583 12.4407 22.9665C12.3986 22.8746 12.377 22.7762 12.377 22.6769C12.377 22.5775 12.3986 22.479 12.4407 22.3872C12.4827 22.2954 12.5445 22.2119 12.6223 22.1417C12.7001 22.0714 12.7925 22.0156 12.8942 21.9775C12.9959 21.9396 13.1049 21.9199 13.2149 21.9199C13.325 21.9199 13.4341 21.9396 13.5357 21.9775C13.6374 22.0156 13.7298 22.0714 13.8076 22.1417C13.8854 22.2119 13.9471 22.2954 13.9892 22.3872C14.0314 22.479 14.053 22.5775 14.0529 22.6769Z" fill="#127CC1"/>
<path d="M14.0529 24.5958C14.053 24.6951 14.0314 24.7936 13.9892 24.8854C13.9471 24.9773 13.8854 25.0607 13.8076 25.131C13.7298 25.2012 13.6374 25.257 13.5357 25.2951C13.4341 25.3331 13.325 25.3527 13.2149 25.3527C13.1049 25.3527 12.9959 25.3331 12.8942 25.2951C12.7925 25.257 12.7001 25.2012 12.6223 25.131C12.5445 25.0607 12.4827 24.9773 12.4407 24.8854C12.3986 24.7936 12.377 24.6951 12.377 24.5958C12.377 24.4964 12.3986 24.398 12.4407 24.3061C12.4827 24.2144 12.5445 24.1309 12.6223 24.0606C12.7001 23.9903 12.7925 23.9346 12.8942 23.8965C12.9959 23.8585 13.1049 23.8389 13.2149 23.8389C13.325 23.8389 13.4341 23.8585 13.5357 23.8965C13.6374 23.9346 13.7298 23.9903 13.8076 24.0606C13.8854 24.1309 13.9471 24.2144 13.9892 24.3061C14.0314 24.398 14.053 24.4964 14.0529 24.5958Z" fill="#127CC1"/>
<path d="M14.0529 26.5176C14.053 26.617 14.0314 26.7153 13.9892 26.8072C13.9471 26.899 13.8854 26.9824 13.8076 27.0528C13.7298 27.123 13.6374 27.1787 13.5357 27.2168C13.4341 27.2549 13.325 27.2744 13.2149 27.2744C13.1049 27.2744 12.9959 27.2549 12.8942 27.2168C12.7925 27.1787 12.7001 27.123 12.6223 27.0528C12.5445 26.9824 12.4827 26.899 12.4407 26.8072C12.3986 26.7153 12.377 26.617 12.377 26.5176C12.377 26.4182 12.3986 26.3197 12.4407 26.228C12.4827 26.1361 12.5445 26.0526 12.6223 25.9824C12.7001 25.9121 12.7925 25.8563 12.8942 25.8184C12.9959 25.7803 13.1049 25.7607 13.2149 25.7607C13.325 25.7607 13.4341 25.7803 13.5357 25.8184C13.6374 25.8563 13.7298 25.9121 13.8076 25.9824C13.8854 26.0526 13.9471 26.1361 13.9892 26.228C14.0314 26.3197 14.053 26.4182 14.0529 26.5176Z" fill="#127CC1"/>
<path d="M16.1808 22.6769C16.1809 22.7762 16.1593 22.8746 16.1172 22.9665C16.075 23.0583 16.0134 23.1417 15.9355 23.2121C15.8577 23.2823 15.7653 23.338 15.6636 23.3761C15.562 23.4142 15.4529 23.4337 15.3428 23.4337C15.2328 23.4337 15.1238 23.4142 15.0221 23.3761C14.9205 23.338 14.8281 23.2823 14.7503 23.2121C14.6725 23.1417 14.6107 23.0583 14.5686 22.9665C14.5265 22.8746 14.5049 22.7762 14.5049 22.6769C14.5049 22.5775 14.5265 22.479 14.5686 22.3872C14.6107 22.2954 14.6725 22.2119 14.7503 22.1417C14.8281 22.0714 14.9205 22.0156 15.0221 21.9775C15.1238 21.9396 15.2328 21.9199 15.3428 21.9199C15.4529 21.9199 15.562 21.9396 15.6636 21.9775C15.7653 22.0156 15.8577 22.0714 15.9355 22.1417C16.0134 22.2119 16.075 22.2954 16.1172 22.3872C16.1593 22.479 16.1809 22.5775 16.1808 22.6769Z" fill="#127CC1"/>
<path d="M16.1808 24.5958C16.1809 24.6951 16.1593 24.7936 16.1172 24.8854C16.075 24.9773 16.0134 25.0607 15.9355 25.131C15.8577 25.2012 15.7653 25.257 15.6636 25.2951C15.562 25.3331 15.4529 25.3527 15.3428 25.3527C15.2328 25.3527 15.1238 25.3331 15.0221 25.2951C14.9205 25.257 14.8281 25.2012 14.7503 25.131C14.6725 25.0607 14.6107 24.9773 14.5686 24.8854C14.5265 24.7936 14.5049 24.6951 14.5049 24.5958C14.5049 24.4964 14.5265 24.398 14.5686 24.3061C14.6107 24.2144 14.6725 24.1309 14.7503 24.0606C14.8281 23.9903 14.9205 23.9346 15.0221 23.8965C15.1238 23.8585 15.2328 23.8389 15.3428 23.8389C15.4529 23.8389 15.562 23.8585 15.6636 23.8965C15.7653 23.9346 15.8577 23.9903 15.9355 24.0606C16.0134 24.1309 16.075 24.2144 16.1172 24.3061C16.1593 24.398 16.1809 24.4964 16.1808 24.5958Z" fill="#127CC1"/>
<path d="M16.1808 26.5176C16.1809 26.617 16.1593 26.7153 16.1172 26.8072C16.075 26.899 16.0134 26.9824 15.9355 27.0528C15.8577 27.123 15.7653 27.1787 15.6636 27.2168C15.562 27.2549 15.4529 27.2744 15.3428 27.2744C15.2328 27.2744 15.1238 27.2549 15.0221 27.2168C14.9205 27.1787 14.8281 27.123 14.7503 27.0528C14.6725 26.9824 14.6107 26.899 14.5686 26.8072C14.5265 26.7153 14.5049 26.617 14.5049 26.5176C14.5049 26.4182 14.5265 26.3197 14.5686 26.228C14.6107 26.1361 14.6725 26.0526 14.7503 25.9824C14.8281 25.9121 14.9205 25.8563 15.0221 25.8184C15.1238 25.7803 15.2328 25.7607 15.3428 25.7607C15.4529 25.7607 15.562 25.7803 15.6636 25.8184C15.7653 25.8563 15.8577 25.9121 15.9355 25.9824C16.0134 26.0526 16.075 26.1361 16.1172 26.228C16.1593 26.3197 16.1809 26.4182 16.1808 26.5176Z" fill="#127CC1"/>
<path d="M18.3068 22.6769C18.3069 22.7762 18.2852 22.8746 18.2431 22.9665C18.201 23.0583 18.1393 23.1417 18.0615 23.2121C17.9837 23.2823 17.8913 23.338 17.7896 23.3761C17.6879 23.4142 17.5789 23.4337 17.4688 23.4337C17.3588 23.4337 17.2498 23.4142 17.1481 23.3761C17.0463 23.338 16.954 23.2823 16.8761 23.2121C16.7983 23.1417 16.7366 23.0583 16.6945 22.9665C16.6525 22.8746 16.6308 22.7762 16.6309 22.6769C16.6308 22.5775 16.6525 22.479 16.6945 22.3872C16.7366 22.2954 16.7983 22.2119 16.8761 22.1417C16.954 22.0714 17.0463 22.0156 17.1481 21.9775C17.2498 21.9396 17.3588 21.9199 17.4688 21.9199C17.5789 21.9199 17.6879 21.9396 17.7896 21.9775C17.8913 22.0156 17.9837 22.0714 18.0615 22.1417C18.1393 22.2119 18.201 22.2954 18.2431 22.3872C18.2852 22.479 18.3069 22.5775 18.3068 22.6769Z" fill="#127CC1"/>
<path d="M18.3068 24.5958C18.3068 24.6951 18.2852 24.7936 18.2431 24.8854C18.201 24.9773 18.1393 25.0607 18.0615 25.131C17.9836 25.2012 17.8912 25.257 17.7896 25.2951C17.6879 25.3331 17.5789 25.3527 17.4688 25.3527C17.3588 25.3527 17.2498 25.3331 17.1481 25.2951C17.0463 25.257 16.9539 25.2012 16.8761 25.131C16.7983 25.0607 16.7366 24.9773 16.6945 24.8854C16.6525 24.7936 16.6308 24.6951 16.6309 24.5958C16.6308 24.4964 16.6525 24.398 16.6945 24.3061C16.7366 24.2144 16.7983 24.1309 16.8761 24.0606C16.9539 23.9903 17.0463 23.9346 17.1481 23.8965C17.2498 23.8585 17.3588 23.8389 17.4688 23.8389C17.5789 23.8389 17.6879 23.8585 17.7896 23.8965C17.8912 23.9346 17.9836 23.9903 18.0615 24.0606C18.1393 24.1309 18.201 24.2144 18.2431 24.3061C18.2852 24.398 18.3068 24.4964 18.3068 24.5958Z" fill="#127CC1"/>
<path d="M18.3068 26.5176C18.3068 26.617 18.2852 26.7153 18.2431 26.8072C18.201 26.899 18.1393 26.9824 18.0615 27.0528C17.9836 27.123 17.8912 27.1787 17.7896 27.2168C17.6879 27.2549 17.5789 27.2744 17.4688 27.2744C17.3588 27.2744 17.2498 27.2549 17.1481 27.2168C17.0463 27.1787 16.9539 27.123 16.8761 27.0528C16.7983 26.9824 16.7366 26.899 16.6945 26.8072C16.6525 26.7153 16.6308 26.617 16.6309 26.5176C16.6308 26.4182 16.6525 26.3197 16.6945 26.228C16.7366 26.1361 16.7983 26.0526 16.8761 25.9824C16.9539 25.9121 17.0463 25.8563 17.1481 25.8184C17.2498 25.7803 17.3588 25.7607 17.4688 25.7607C17.5789 25.7607 17.6879 25.7803 17.7896 25.8184C17.8912 25.8563 17.9836 25.9121 18.0615 25.9824C18.1393 26.0526 18.201 26.1361 18.2431 26.228C18.2852 26.3197 18.3068 26.4182 18.3068 26.5176Z" fill="#127CC1"/>
<path d="M20.4328 22.6769C20.4329 22.7762 20.4112 22.8746 20.3691 22.9665C20.327 23.0583 20.2653 23.1417 20.1875 23.2121C20.1096 23.2823 20.0173 23.338 19.9156 23.3761C19.8138 23.4142 19.7049 23.4337 19.5948 23.4337C19.4847 23.4337 19.3758 23.4142 19.274 23.3761C19.1723 23.338 19.0799 23.2823 19.0021 23.2121C18.9243 23.1417 18.8626 23.0583 18.8205 22.9665C18.7785 22.8746 18.7567 22.7762 18.7568 22.6769C18.7567 22.5775 18.7785 22.479 18.8205 22.3872C18.8626 22.2954 18.9243 22.2119 19.0021 22.1417C19.0799 22.0714 19.1723 22.0156 19.274 21.9775C19.3758 21.9396 19.4847 21.9199 19.5948 21.9199C19.7049 21.9199 19.8138 21.9396 19.9156 21.9775C20.0173 22.0156 20.1096 22.0714 20.1875 22.1417C20.2653 22.2119 20.327 22.2954 20.3691 22.3872C20.4112 22.479 20.4329 22.5775 20.4328 22.6769Z" fill="#127CC1"/>
<path d="M20.4328 24.5958C20.4329 24.6951 20.4112 24.7936 20.3691 24.8854C20.327 24.9773 20.2653 25.0607 20.1875 25.131C20.1096 25.2012 20.0173 25.257 19.9156 25.2951C19.8138 25.3331 19.7049 25.3527 19.5948 25.3527C19.4847 25.3527 19.3758 25.3331 19.274 25.2951C19.1723 25.257 19.0799 25.2012 19.0021 25.131C18.9243 25.0607 18.8626 24.9773 18.8205 24.8854C18.7785 24.7936 18.7567 24.6951 18.7568 24.5958C18.7567 24.4964 18.7785 24.398 18.8205 24.3061C18.8626 24.2144 18.9243 24.1309 19.0021 24.0606C19.0799 23.9903 19.1723 23.9346 19.274 23.8965C19.3758 23.8585 19.4847 23.8389 19.5948 23.8389C19.7049 23.8389 19.8138 23.8585 19.9156 23.8965C20.0173 23.9346 20.1096 23.9903 20.1875 24.0606C20.2653 24.1309 20.327 24.2144 20.3691 24.3061C20.4112 24.398 20.4329 24.4964 20.4328 24.5958Z" fill="#127CC1"/>
<path d="M20.4328 26.5176C20.4329 26.617 20.4112 26.7153 20.3691 26.8072C20.327 26.899 20.2653 26.9824 20.1875 27.0528C20.1096 27.123 20.0173 27.1787 19.9156 27.2168C19.8138 27.2549 19.7049 27.2744 19.5948 27.2744C19.4847 27.2744 19.3758 27.2549 19.274 27.2168C19.1723 27.1787 19.0799 27.123 19.0021 27.0528C18.9243 26.9824 18.8626 26.899 18.8205 26.8072C18.7785 26.7153 18.7567 26.617 18.7568 26.5176C18.7567 26.4182 18.7785 26.3197 18.8205 26.228C18.8626 26.1361 18.9243 26.0526 19.0021 25.9824C19.0799 25.9121 19.1723 25.8563 19.274 25.8184C19.3758 25.7803 19.4847 25.7607 19.5948 25.7607C19.7049 25.7607 19.8138 25.7803 19.9156 25.8184C20.0173 25.8563 20.1096 25.9121 20.1875 25.9824C20.2653 26.0526 20.327 26.1361 20.3691 26.228C20.4112 26.3197 20.4329 26.4182 20.4328 26.5176Z" fill="#127CC1"/>
<path d="M20.4328 20.756C20.4329 20.8553 20.4112 20.9537 20.3691 21.0456C20.327 21.1374 20.2653 21.2208 20.1875 21.2912C20.1096 21.3614 20.0173 21.4171 19.9156 21.4552C19.8138 21.4933 19.7049 21.5128 19.5948 21.5128C19.4847 21.5128 19.3758 21.4933 19.274 21.4552C19.1723 21.4171 19.0799 21.3614 19.0021 21.2912C18.9243 21.2208 18.8626 21.1374 18.8205 21.0456C18.7785 20.9537 18.7567 20.8553 18.7568 20.756C18.7567 20.6566 18.7785 20.5581 18.8205 20.4663C18.8626 20.3745 18.9243 20.291 19.0021 20.2208C19.0799 20.1505 19.1723 20.0947 19.274 20.0566C19.3758 20.0187 19.4847 19.999 19.5948 19.999C19.7049 19.999 19.8138 20.0187 19.9156 20.0566C20.0173 20.0947 20.1096 20.1505 20.1875 20.2208C20.2653 20.291 20.327 20.3745 20.3691 20.4663C20.4112 20.5581 20.4329 20.6566 20.4328 20.756Z" fill="#127CC1"/>
<path d="M20.4328 28.4385C20.4329 28.5379 20.4112 28.6363 20.3691 28.7281C20.327 28.8199 20.2653 28.9034 20.1875 28.9737C20.1096 29.044 20.0173 29.0997 19.9156 29.1377C19.8138 29.1758 19.7049 29.1953 19.5948 29.1953C19.4847 29.1953 19.3758 29.1758 19.274 29.1377C19.1723 29.0997 19.0799 29.044 19.0021 28.9737C18.9243 28.9034 18.8626 28.8199 18.8205 28.7281C18.7785 28.6363 18.7567 28.5379 18.7568 28.4385C18.7567 28.3391 18.7785 28.2407 18.8205 28.1489C18.8626 28.057 18.9243 27.9736 19.0021 27.9033C19.0799 27.8331 19.1723 27.7772 19.274 27.7393C19.3758 27.7012 19.4847 27.6816 19.5948 27.6816C19.7049 27.6816 19.8138 27.7012 19.9156 27.7393C20.0173 27.7772 20.1096 27.8331 20.1875 27.9033C20.2653 27.9736 20.327 28.057 20.3691 28.1489C20.4112 28.2407 20.4329 28.3391 20.4328 28.4385Z" fill="#127CC1"/>
<path d="M22.5578 22.6769C22.5579 22.7762 22.5363 22.8746 22.4941 22.9665C22.452 23.0583 22.3903 23.1417 22.3125 23.2121C22.2347 23.2823 22.1423 23.338 22.0406 23.3761C21.9388 23.4142 21.8299 23.4337 21.7198 23.4337C21.6097 23.4337 21.5008 23.4142 21.399 23.3761C21.2974 23.338 21.205 23.2823 21.1272 23.2121C21.0493 23.1417 20.9876 23.0583 20.9455 22.9665C20.9035 22.8746 20.8818 22.7762 20.8818 22.6769C20.8818 22.5775 20.9035 22.479 20.9455 22.3872C20.9876 22.2954 21.0493 22.2119 21.1272 22.1417C21.205 22.0714 21.2974 22.0156 21.399 21.9775C21.5008 21.9396 21.6097 21.9199 21.7198 21.9199C21.8299 21.9199 21.9388 21.9396 22.0406 21.9775C22.1423 22.0156 22.2347 22.0714 22.3125 22.1417C22.3903 22.2119 22.452 22.2954 22.4941 22.3872C22.5363 22.479 22.5579 22.5775 22.5578 22.6769Z" fill="#127CC1"/>
<path d="M22.5578 24.5958C22.5579 24.6951 22.5363 24.7936 22.4941 24.8854C22.452 24.9773 22.3903 25.0607 22.3125 25.131C22.2347 25.2012 22.1423 25.257 22.0406 25.2951C21.9388 25.3331 21.8299 25.3527 21.7198 25.3527C21.6097 25.3527 21.5008 25.3331 21.399 25.2951C21.2974 25.257 21.205 25.2012 21.1272 25.131C21.0493 25.0607 20.9876 24.9773 20.9455 24.8854C20.9035 24.7936 20.8818 24.6951 20.8818 24.5958C20.8818 24.4964 20.9035 24.398 20.9455 24.3061C20.9876 24.2144 21.0493 24.1309 21.1272 24.0606C21.205 23.9903 21.2974 23.9346 21.399 23.8965C21.5008 23.8585 21.6097 23.8389 21.7198 23.8389C21.8299 23.8389 21.9388 23.8585 22.0406 23.8965C22.1423 23.9346 22.2347 23.9903 22.3125 24.0606C22.3903 24.1309 22.452 24.2144 22.4941 24.3061C22.5363 24.398 22.5579 24.4964 22.5578 24.5958Z" fill="#127CC1"/>
<path d="M22.5578 26.5176C22.5579 26.617 22.5363 26.7153 22.4941 26.8072C22.452 26.899 22.3903 26.9824 22.3125 27.0528C22.2347 27.123 22.1423 27.1787 22.0406 27.2168C21.9388 27.2549 21.8299 27.2744 21.7198 27.2744C21.6097 27.2744 21.5008 27.2549 21.399 27.2168C21.2974 27.1787 21.205 27.123 21.1272 27.0528C21.0493 26.9824 20.9876 26.899 20.9455 26.8072C20.9035 26.7153 20.8818 26.617 20.8818 26.5176C20.8818 26.4182 20.9035 26.3197 20.9455 26.228C20.9876 26.1361 21.0493 26.0526 21.1272 25.9824C21.205 25.9121 21.2974 25.8563 21.399 25.8184C21.5008 25.7803 21.6097 25.7607 21.7198 25.7607C21.8299 25.7607 21.9388 25.7803 22.0406 25.8184C22.1423 25.8563 22.2347 25.9121 22.3125 25.9824C22.3903 26.0526 22.452 26.1361 22.4941 26.228C22.5363 26.3197 22.5579 26.4182 22.5578 26.5176Z" fill="#127CC1"/>
<path d="M24.6837 24.5958C24.6839 24.6951 24.6622 24.7936 24.6201 24.8854C24.578 24.9773 24.5163 25.0607 24.4385 25.131C24.3607 25.2012 24.2683 25.257 24.1665 25.2951C24.0649 25.3331 23.9558 25.3527 23.8458 25.3527C23.7357 25.3527 23.6267 25.3331 23.525 25.2951C23.4234 25.257 23.331 25.2012 23.2532 25.131C23.1754 25.0607 23.1136 24.9773 23.0716 24.8854C23.0294 24.7936 23.0078 24.6951 23.0078 24.5958C23.0078 24.4964 23.0294 24.398 23.0716 24.3061C23.1136 24.2144 23.1754 24.1309 23.2532 24.0606C23.331 23.9903 23.4234 23.9346 23.525 23.8965C23.6267 23.8585 23.7357 23.8389 23.8458 23.8389C23.9558 23.8389 24.0649 23.8585 24.1665 23.8965C24.2683 23.9346 24.3607 23.9903 24.4385 24.0606C24.5163 24.1309 24.578 24.2144 24.6201 24.3061C24.6622 24.398 24.6839 24.4964 24.6837 24.5958Z" fill="#127CC1"/>
<path fill-rule="evenodd" clip-rule="evenodd" d="M12.9862 10.6104C12.5832 13.4172 9.49967 15.3098 9.52379 18.0203C9.49859 19.4372 10.833 21.6143 13.4655 21.5328C14.8641 21.5159 15.9938 20.9885 16.7074 20.2116C18.0257 18.6718 17.6132 16.6997 16.7662 15.0646C15.8027 13.3619 14.1277 12.0159 12.9862 10.6104Z" fill="#343133"/>
<path fill-rule="evenodd" clip-rule="evenodd" d="M14.6102 14.2656C14.5315 14.8132 13.9299 15.1825 13.9346 15.7113C13.9297 15.9877 14.1901 16.4125 14.7037 16.3966C14.9765 16.3933 15.197 16.2903 15.3361 16.1388C15.5933 15.8383 15.5025 15.4536 15.3372 15.1346C15.1492 14.8024 14.8329 14.5397 14.6102 14.2656Z" fill="white"/>
</svg>
